<?xml version="1.0" encoding="UTF-8" standalone="no"?>
<svg
   width="81.377373"
   height="101.73833"
   viewBox="0 0 81.377373 101.73833"
   data-svgdocument=""
   id="_QPbOH8Bvnff-nxIn-ryGS"
   class="fl-svgdocument"
   x="0"
   y="0"
   style="overflow:hidden"
   version="1.1"
   sodipodi:docname="education.svg"
   inkscape:version="1.1 (c68e22c387, 2021-05-23)"
   xmlns:inkscape="http://www.inkscape.org/namespaces/inkscape"
   xmlns:sodipodi="http://sodipodi.sourceforge.net/DTD/sodipodi-0.dtd"
   xmlns="http://www.w3.org/2000/svg"
   xmlns:svg="http://www.w3.org/2000/svg">
  <sodipodi:namedview
     id="namedview32"
     pagecolor="#ffffff"
     bordercolor="#666666"
     borderopacity="1.0"
     inkscape:pageshadow="2"
     inkscape:pageopacity="0.0"
     inkscape:pagecheckerboard="0"
     showgrid="false"
     inkscape:zoom="1.2734375"
     inkscape:cx="138.60123"
     inkscape:cy="-48.294479"
     inkscape:window-width="1600"
     inkscape:window-height="837"
     inkscape:window-x="-8"
     inkscape:window-y="-8"
     inkscape:window-maximized="1"
     inkscape:current-layer="_QPbOH8Bvnff-nxIn-ryGS" />
  <defs
     id="_-Pf6sSTUS_QCObCL12lGl"
     transform="matrix(1.2307695150375366, 0, 0, 1.2307695150375366, -59.07701110839844, -67.29283142089844)" />
  <g
     id="education-icon"
     transform="translate(-163.76655,-381.29122)">
    <g
       id="_ehe1g4nge_28"
       transform="matrix(0.19573945,0,0,0.19573945,133.11375,363.7215)"
       fill="rgba(115,172,118,0.88)">
      <svg
         id="_ehe1g4nge_29"
         version="1.1"
         x="0px"
         y="0px"
         viewBox="0 0 792 612"
         width="792"
         height="612">
        <g
           id="_ehe1g4nge_30"
           fill="rgba(115,172,118,0.88)">
          <desc
             id="_ehe1g4nge_31" />
          <path
             id="_ehe1g4nge_32"
             d="m 211.4,172.1 c 2.8,-3.3 5.9,-7.7 3.9,-11.6 11.2,-6.6 21.1,-15.3 29.2,-25.5 -4.4,3.5 -9.2,6.3 -14.3,8.5 38.3,-37.8 95.9,-55 148.8,-44.4 -42.6,-1.6 -86,9.7 -121.2,33.7 -35.3,23.9 -62.1,60.6 -72.4,102 15.6,-45.3 48.5,-84.4 90.5,-107.4 -3.3,3.4 -6.6,6.9 -10,10.3 16,-6.6 30.5,-16.5 46.4,-23.4 46.7,-20.4 102.9,-12.7 146.4,13.9 43.5,26.6 74.8,70.2 93,117.8 8,20.8 13.6,43.9 6.5,65 -1.6,-27.5 -10.6,-54 -22.3,-78.9 -19.4,-41.5 -47.2,-80.4 -86.3,-104.2 -39.1,-23.7 -90.8,-30 -130.8,-7.7 20.5,-2.2 41.2,-3.4 61.5,-0.5 38.2,5.4 73.5,25.4 100.3,53.1 26.7,27.8 45.2,62.9 56.1,99.8 10.6,36.1 14.1,75.9 0.5,111.1 39.7,-64.2 33.1,-153.6 -15.4,-211.3 -20.3,-24.1 -46.6,-42.6 -75,-56 C 414,101 378,92.1 341.8,93.1 c -36.2,1 -72.4,12.3 -101.3,34.1 24,-21.2 55.3,-33.2 87.1,-36.5 31.9,-3.2 64.2,2 94.5,12.2 63,21.4 120.4,68.6 138.9,132.5 4.7,16.4 6.8,33.4 8.7,50.4 1.6,14.7 2.9,29.4 2.6,44.2 -1.4,73.1 -48.1,144.5 -116.2,171.2 -19.3,7.5 -39.7,11.6 -60.2,14.5 -32.8,4.6 -66.8,6 -98.4,-3.8 -16.3,-5.1 -31.5,-13 -45.6,-22.7 -58.4,-40 -95.3,-109.7 -95.3,-180.5 0,-12.6 1.1,-25.1 2.8,-37.5 1.5,-11.4 3.5,-22.7 6.8,-33.7 5,-16.2 12.8,-31.5 23.1,-45 1.8,-1.1 3.6,-2.3 5.3,-3.5 -23.7,50.1 -37.8,109.3 -16.1,160.4 -7.8,-33.3 -8.3,-68.2 -1.4,-101.6 2.2,-0.8 4.4,-1.7 6.5,-2.6 0.1,-2.2 0.2,-4.3 0.3,-6.5 -1.6,1.8 -3.1,3.6 -4.7,5.3 3.7,-26.5 15.1,-51.6 32.2,-71.9 m 16.1,-1.3 c 6.2,-4.2 12.4,-8.4 18.6,-12.6 -3.9,7.9 -11.1,14.1 -19.5,16.9 -39,40.3 -51,100.4 -46.4,156.2 1.8,21.1 6.1,43 19.7,59.2 -9.5,-39 -10,-80.2 -1.3,-119.4 1.7,-0.1 2.3,2.1 2.3,3.8 0.7,26.3 -3.8,52.6 -1.9,78.9 1.9,26.2 11.7,53.9 33.7,68.2 17.2,11.2 34.3,22.4 51.4,33.6 -40,-12.8 -74.9,-40.6 -96.5,-76.6 5.8,15.7 13.9,30.6 23.9,44 -1.3,-3.6 -2.5,-7.3 -3.8,-11 10.1,9.5 20.3,18.8 30.4,28.2 7.4,6.9 19,13.9 26.6,7.3 1.2,2.5 -1,5.6 -3.7,6.3 -2.7,0.8 -5.6,0 -8.3,-0.8 12.1,8.7 24.7,16.7 37.7,24 -1.9,0.3 -2.5,3.1 -1.3,4.7 1.2,1.6 3.2,2 5.1,2.5 47.7,10.3 98.5,6.5 144.1,-11.1 -39.2,9.2 -81,11.3 -119,-2 -32.1,-11.2 -60.2,-33.3 -78.6,-61.8 -5.9,-9.2 -10.8,-18.9 -15.3,-28.8 -14.5,-32.6 -23.7,-68.2 -21.1,-103.8 2.6,-35.6 18.2,-71.1 46.2,-93.1 2.9,-2.3 6.5,-4.5 10.1,-3.6 -27.6,20 -44,53.1 -48.3,86.9 -4.3,33.9 2.7,68.3 15,100.1 8.8,22.5 20.5,44.3 36.6,62.3 6.9,7.7 14.7,14.7 23.6,20 16.3,9.8 35.6,13.5 54.5,15.9 25.7,3.3 51.6,4.7 77.5,4.1 -32.7,7.7 -66.9,2.2 -100,-3.3 56.2,21.1 122.1,8.2 170.4,-27.3 9.6,-7.1 18.7,-15 26,-24.5 11.2,-14.6 17.9,-32.4 21.3,-50.5 8.8,-47.2 -3.8,-96.5 -26.7,-138.8 -15.9,-29.4 -37,-56.6 -64.8,-75.1 -26,-17.2 -56.9,-26.3 -88,-28 -47.8,-2.8 -98.4,13 -130.2,49 m 93.9,324.8 c 21.5,5.4 43.2,9.3 65.2,11.9 -27,6.2 -54.8,-3.3 -80.9,-12.6 -15.4,-5.4 -31,-11 -45.3,-19 -34.6,-19.2 -60.6,-52.1 -75.7,-88.7 -2.6,-6.5 -5,-13 -7,-19.6 -0.2,-0.8 -0.8,1.1 0,0.7 0.8,-0.3 0.7,-1.5 0.3,-2.3 -9,-21.7 -14.5,-45 -16.2,-68.4 -1.7,35.4 7.1,71 23.1,102.7 17.4,34.5 43.5,64.8 76.3,85.3 32.7,20.5 72.1,30.9 110.5,27.2 54,-5.3 101.4,-36.8 144.9,-69.1 -19.2,25.4 -48.3,41.1 -76.6,55.9 48.9,-13.7 88.1,-52.4 111.7,-97.4 -11.7,20 -30,35.7 -49.9,47.5 -20,11.8 -41.9,20 -63.8,27.9 -9.6,3.5 -19.3,6.9 -29.2,9.7 -28.3,8.1 -58.1,10.9 -87.4,8.3 m 200,-67.6 c 5,-4.7 9.9,-9.5 13.9,-14.9 6.3,-8.7 10.5,-18.8 14.5,-28.8 5.4,-13.6 10.9,-27.3 12.3,-41.9 -2.6,2.3 -3.5,5.7 -4.5,9 -13.3,46.1 -46.2,86.3 -88.9,108.3 20.1,-4.5 37.4,-17.6 52.7,-31.7 M 277,477 c 2.1,0.5 4.7,1.4 4.8,3.5 0.8,-1.4 3.2,-1.4 4.1,0 0.4,-0.1 0.1,-0.8 -0.4,-1 -3,-1.6 -6,-3.2 -8.9,-4.8 -12.1,-6.5 -23.2,-14.6 -33.1,-24 -1.2,2.6 -0.3,5.9 2,7.5 4.4,3.2 8.8,6.4 13.2,9.6 5.3,4.4 11.6,7.6 18.3,9.2 M 565.8,325.8 c -0.4,7.4 -0.8,14.9 -1.3,22.3 -0.1,1 -0.1,2 -0.1,3 -0.1,1.8 -0.2,3.6 -0.4,5.3 -0.1,2.2 -0.2,4.2 -0.2,6.4 4.2,-17 5.7,-34.8 4.4,-52.2 -0.5,-0.2 -1,-0.5 -1.4,-0.8 -0.3,5.3 -0.7,10.6 -1,16 M 177.1,216.2 c -0.7,1.3 -1.3,2.6 -1.9,3.9 0.7,0.9 2,-0.2 2.3,-1.3 0.3,-1 0.6,-2.4 1.7,-2.5 -0.5,-0.5 -1,-1 -1.5,-1.5 -0.2,0.4 -0.4,1 -0.2,1.4 m 72.3,-83 c 1,-0.8 2,-1.6 3,-2.5 -1.7,-0.7 -3.9,0.2 -4.6,2 0.5,0.2 1,0.4 1.6,0.5 m 3.1,-4.7 c 2.2,0.5 4.7,-0.1 6.5,-1.6 -2.3,-0.1 -4.6,0.4 -6.5,1.6 M 173.3,230 c -0.1,-0.5 -0.2,-1 -0.2,-1.4 -1.9,0.7 -2.8,3.3 -1.7,5 0.4,-1.3 1,-2.5 1.9,-3.6 M 162,281 c -0.5,0.7 -0.1,1.9 0.8,2 0.5,-1.6 0.4,-3.3 -0.1,-5 -1,0.5 -1.3,1.9 -0.7,2.8"
             fill="rgba(115,172,118,0.88)" />
          <path
             id="_ehe1g4nge_33"
             d="m 229.4,144 c 0.2,0.3 0.4,0.7 0.6,1 -0.9,1.3 -2.6,1.9 -4.1,1.5 0.8,-1.1 2,-1.9 3.3,-2.2"
             fill="rgba(115,172,118,0.88)" />
          <path
             id="_ehe1g4nge_34"
             d="m 221.5,150.4 c 1.4,-0.5 2.9,-0.8 4.4,-0.7 -0.3,2.2 -4,2.8 -4.9,0.7"
             fill="rgba(115,172,118,0.88)" />
          <path
             id="_ehe1g4nge_35"
             d="m 216.5,145.8 c 0.9,-1.4 2.6,-2.4 4.4,-2.2 0.4,1 0.1,2.2 -0.7,2.9 -1.4,0.2 -3.1,0.4 -4.1,-0.7"
             fill="rgba(115,172,118,0.88)" />
          <path
             id="_ehe1g4nge_36"
             d="m 496.8,152.4 c 0.6,-0.1 1.2,0.5 1.1,1.1 -0.1,0.6 -0.8,1 -1.4,0.8 -0.9,-1 -1.8,-2.1 -2.7,-3.2 1,-0.8 2.8,-0.1 3,1.1"
             fill="rgba(115,172,118,0.88)" />
          <path
             id="_ehe1g4nge_37"
             d="m 225.5,137.6 c 0.7,-0.8 2.1,-0.8 2.9,-0.1 -1.3,1.3 -3,2.2 -4.8,2.8 -0.2,-1.1 0.8,-2.4 1.9,-2.3"
             fill="rgba(115,172,118,0.88)" />
          <path
             id="_ehe1g4nge_38"
             d="m 209.1,230.6 c 0.9,-1.3 3.3,-0.8 3.6,0.8 -1.2,-0.2 -2.5,0.2 -3.3,1.1 -0.5,0.2 -1.3,-0.2 -1.3,-0.8 -0.1,-0.5 0.5,-1.1 1.1,-1"
             fill="rgba(115,172,118,0.88)" />
          <path
             id="_ehe1g4nge_39"
             d="m 266.3,166.6 c 0.5,-0.2 1.2,-0.4 1.7,-0.2 0.6,0.2 0.9,1.1 0.5,1.5 -1.9,1.2 -4.1,1.9 -6.3,2 1,-1.4 2.5,-2.5 4.1,-3.3"
             fill="rgba(115,172,118,0.88)" />
          <path
             id="_ehe1g4nge_40"
             d="m 295.8,479.1 c 1,0.7 2.1,1.4 3.1,2.1 -2.2,0.9 -4.8,0.4 -6.6,-1.2 -0.4,-0.7 0.4,-1.7 1.1,-1.7 0.9,-0.1 1.7,0.4 2.4,0.8"
             fill="rgba(115,172,118,0.88)" />
          <path
             id="_ehe1g4nge_41"
             d="m 250.1,157.4 c -0.5,-1.5 -0.1,-3.3 1.1,-4.4 0.8,-0.2 1.6,-0.8 1.9,-1.7 1.3,0.5 2.5,1 3.8,1.5 -2.2,1.5 -4.5,3 -6.8,4.6"
             fill="rgba(115,172,118,0.88)" />
          <path
             id="_ehe1g4nge_42"
             d="m 201.3,264.8 c 0,-0.6 0,-1.2 0,-1.8 1,-0.5 2.1,-0.5 3,-0.1 -1.8,1.9 -2.8,4.5 -2.6,7.1 -1.1,-0.8 -2.3,-1.7 -3.5,-2.5 1,-0.8 2.1,-1.7 3.2,-2.6"
             fill="rgba(115,172,118,0.88)" />
          <path
             id="_ehe1g4nge_43"
             d="m 194.7,176.5 c 0.4,-3.1 2.2,-5.9 4.7,-7.8 0.7,-0.5 1.8,-0.8 2.2,-0.1 -2.2,2.2 -4,4.7 -5.3,7.5 -0.3,0.5 -1.1,0.8 -1.6,0.4"
             fill="rgba(115,172,118,0.88)" />
          <path
             id="_ehe1g4nge_44"
             d="m 205,238.5 c 2,-1.5 3.9,-3 5.9,-4.5 -0.5,1.9 -1,3.6 -1.5,5.5 -0.7,0.4 -1.2,1.1 -1.9,1.5 -0.7,0.4 -1.7,0.5 -2.2,-0.2 -0.4,-0.7 0.7,-1.7 1.1,-1 -0.4,-0.4 -0.9,-0.8 -1.4,-1.3"
             fill="rgba(115,172,118,0.88)" />
          <path
             id="_ehe1g4nge_45"
             d="m 281.2,161 c -0.2,0.5 -0.4,1 -0.2,1.6 -1.6,0.3 -3.1,0.6 -4.5,0.9 -0.2,0.6 -0.4,1.2 -0.6,1.8 -1.2,-0.1 -2.4,-0.1 -3.5,-0.1 -1,-0.5 0,-1.9 1,-2.4 2,-1 4.1,-1.6 6.3,-1.9 -0.3,-0.5 -0.6,-0.9 -0.9,-1.4 1.6,-1.3 3.5,-2.2 5.6,-2.8 0.4,0.7 0.5,1.5 0.3,2.3 -0.7,0.3 -1.4,0.4 -2.1,0.2 0.1,0.5 0.2,1 0.3,1.6 -0.7,0.2 -1.2,0.3 -1.7,0.2"
             fill="rgba(115,172,118,0.88)" />
          <path
             id="_ehe1g4nge_46"
             d="m 203,170.4 c 0.8,-0.5 1.9,-0.7 2.8,-0.5 -0.4,-0.5 -0.7,-1 -1,-1.5 1,-0.2 2,-0.4 3.1,-0.5 0.4,-1 0.4,-2.2 0,-3.2 1.1,-0.1 2.3,0.1 3.3,0.5 0.3,0.4 0.4,1 0.3,1.5 -0.5,0.2 -1.1,0.4 -1.7,0.6 -0.2,1 -0.5,2 -0.7,3 -0.5,0.3 -1.3,0.4 -1.9,0.2 -0.9,5.4 -6.8,8.5 -8.9,13.5 -0.7,1.7 -1.4,3.9 -3.2,3.9 -0.5,-0.6 -0.4,-1.7 0.3,-2.2 -0.7,-0.2 -1.3,-0.4 -1.9,-0.6 -0.1,-1.1 1.7,-0.8 2.6,-0.1 0.8,-0.7 0.1,-2.3 -0.9,-2.3 1.1,-0.9 1.8,-2.3 2,-3.7 1.1,0.1 2.2,-0.3 2.9,-1.1 -0.8,0.2 -1.7,-0.4 -1.9,-1.3 1.6,0.3 3.2,-1.2 3.1,-2.8 1.2,-0.7 2.4,-1.4 3.6,-2.1 -0.5,-0.3 -1.2,-0.8 -1.9,-1.3"
             fill="rgba(115,172,118,0.88)" />
          <path
             id="_ehe1g4nge_47"
             d="m 517.1,175.7 c -2.2,-3 -4.5,-5.9 -7.3,-8.4 -3.9,-3.5 -8.9,-6.6 -9.7,-11.8 23.5,19.9 41.6,46.2 51.7,75.3 0.9,0.8 -0.1,2.6 -1.2,2.3 -8.8,-20.3 -20.1,-39.7 -33.5,-57.4"
             fill="rgba(115,172,118,0.88)" />
          <path
             id="_ehe1g4nge_48"
             d="m 253.1,159.9 c 4.1,-3.3 8.8,-6.4 10.5,-11.4 0.5,-1.4 1.9,-2.5 3.2,-3.3 20.2,-12.7 43.8,-19.7 67.6,-20.1 -11.9,3.2 -23.7,6.3 -35.6,9.5 -18.5,4.9 -32.1,20.2 -44.6,34.8 -10.8,12.7 -21.7,25.4 -32.5,38.2 -1.3,3.5 -2.5,7.1 -3.8,10.6 -0.5,1.6 -1.1,3.2 -2.5,4.2 -1.3,1 -3.5,1 -4.3,-0.5 4.8,-8.4 9.6,-16.9 14.5,-25.4 7.8,-13.2 15.6,-26.8 27.5,-36.6"
             fill="rgba(115,172,118,0.88)" />
        </g>
      </svg>
    </g>
    <g
       id="_ehe1g4nge_49"
       fill="#1d398f"
       transform="matrix(0.59873283,0,0,0.59873283,83.959137,170.74458)">
      <path
         id="_ehe1g4nge_50"
         d="M 83.919,52.207 C 83.406,51.469 82.853,50.733 82.278,50 c 0.574,-0.734 1.128,-1.469 1.641,-2.208 5.296,-7.621 6.629,-14.562 3.753,-19.542 -2.481,-4.299 -7.966,-6.666 -15.441,-6.666 -1.92,0 -3.939,0.158 -6.027,0.452 C 62.381,12.488 56.591,6.5 50,6.5 c -6.591,0 -12.381,5.988 -16.203,15.535 -2.088,-0.294 -4.107,-0.452 -6.026,-0.452 -7.476,0 -12.96,2.368 -15.441,6.666 -2.876,4.981 -1.543,11.921 3.753,19.542 0.513,0.738 1.066,1.474 1.641,2.208 -0.575,0.734 -1.128,1.47 -1.641,2.208 -5.296,7.621 -6.63,14.562 -3.754,19.543 2.482,4.298 7.965,6.665 15.441,6.665 0,0 0.001,0 0.001,0 1.919,0 3.938,-0.158 6.026,-0.452 C 37.619,87.512 43.409,93.5 50,93.5 c 6.591,0 12.381,-5.988 16.203,-15.537 2.089,0.294 4.108,0.452 6.028,0.452 7.476,0 12.959,-2.367 15.441,-6.665 2.877,-4.981 1.544,-11.922 -3.753,-19.543 z M 72.23,23.584 c 6.731,0 11.6,2.012 13.709,5.666 2.467,4.272 1.166,10.452 -3.663,17.401 -0.408,0.587 -0.844,1.172 -1.293,1.757 C 78.019,44.909 74.388,41.501 70.258,38.327 69.573,33.047 68.435,28.191 66.925,23.95 68.762,23.709 70.537,23.584 72.23,23.584 Z M 59.501,66.455 C 56.36,68.268 53.171,69.851 50.002,71.2 46.832,69.851 43.642,68.267 40.5,66.454 37.355,64.639 34.385,62.672 31.631,60.6 31.221,57.215 31,53.663 31,50 c 0,-3.663 0.221,-7.215 0.631,-10.601 2.754,-2.071 5.726,-4.039 8.87,-5.854 3.141,-1.813 6.33,-3.397 9.5,-4.746 3.169,1.349 6.358,2.932 9.499,4.745 3.145,1.815 6.115,3.782 8.869,5.853 C 68.779,42.784 69,46.336 69,50 c 0,3.664 -0.221,7.216 -0.631,10.603 -2.754,2.07 -5.724,4.037 -8.868,5.852 z m 8.482,-3.09 c -0.707,4.526 -1.762,8.701 -3.097,12.375 -3.918,-0.68 -8.075,-1.863 -12.303,-3.49 2.649,-1.199 5.301,-2.553 7.917,-4.062 2.619,-1.512 5.12,-3.129 7.483,-4.823 z M 47.42,72.25 c -4.229,1.628 -8.388,2.812 -12.307,3.491 -1.335,-3.675 -2.39,-7.851 -3.097,-12.378 2.364,1.694 4.865,3.312 7.483,4.823 2.618,1.511 5.27,2.865 7.921,4.064 z M 29.419,58.874 C 25.923,56.047 22.843,53.056 20.294,50 22.843,46.944 25.923,43.953 29.419,41.126 29.144,43.983 29,46.95 29,50 c 0,3.05 0.144,6.017 0.419,8.874 z m 2.598,-22.237 c 0.707,-4.528 1.762,-8.704 3.097,-12.378 3.919,0.679 8.077,1.863 12.306,3.492 -2.65,1.199 -5.302,2.553 -7.918,4.063 -2.62,1.511 -5.122,3.128 -7.485,4.823 z M 52.583,27.75 c 4.228,-1.628 8.386,-2.812 12.304,-3.491 1.335,3.674 2.39,7.85 3.097,12.376 -2.364,-1.694 -4.865,-3.312 -7.483,-4.823 -2.616,-1.51 -5.269,-2.863 -7.918,-4.062 z M 70.58,41.125 c 3.498,2.828 6.578,5.819 9.127,8.875 -2.549,3.056 -5.63,6.048 -9.127,8.876 C 70.855,56.018 71,53.05 71,50 71,46.95 70.855,43.982 70.58,41.125 Z M 50,8.5 c 5.621,0 10.678,5.364 14.159,13.866 -4.514,0.816 -9.31,2.258 -14.158,4.262 C 45.152,24.624 40.355,23.182 35.841,22.365 39.323,13.863 44.379,8.5 50,8.5 Z M 17.725,46.65 c -4.83,-6.949 -6.13,-13.129 -3.664,-17.401 2.109,-3.654 6.978,-5.666 13.709,-5.666 1.693,0 3.468,0.125 5.304,0.365 -1.51,4.242 -2.648,9.098 -3.333,14.379 -4.129,3.173 -7.759,6.581 -10.723,10.08 -0.449,-0.584 -0.885,-1.169 -1.293,-1.757 z M 27.77,76.416 c -6.731,0 -11.6,-2.013 -13.709,-5.665 -2.467,-4.272 -1.166,-10.452 3.664,-17.401 0.408,-0.588 0.845,-1.174 1.294,-1.758 2.964,3.499 6.594,6.906 10.723,10.08 0.685,5.281 1.823,10.137 3.333,14.379 -1.837,0.24 -3.612,0.365 -5.305,0.365 z M 50,91.5 c -5.621,0 -10.678,-5.363 -14.159,-13.866 4.514,-0.816 9.311,-2.258 14.161,-4.262 4.849,2.003 9.645,3.444 14.158,4.261 C 60.678,86.136 55.621,91.5 50,91.5 Z M 85.94,70.75 c -2.109,3.653 -6.978,5.665 -13.709,5.665 -1.694,0 -3.469,-0.125 -5.305,-0.365 1.509,-4.241 2.647,-9.097 3.332,-14.376 4.13,-3.175 7.76,-6.582 10.725,-10.082 0.449,0.584 0.885,1.17 1.293,1.757 4.83,6.949 6.131,13.129 3.664,17.401 z"
         transform="translate(152.92108,371.85696)"
         fill="#1d398f" />
      <g
         id="_ehe1g4nge_51"
         transform="matrix(0.37258464,0,0,0.37258464,184.29263,404.69504)"
         fill="#1d398f">
        <svg
           id="_ehe1g4nge_52"
           version="1.1"
           x="0px"
           y="0px"
           viewBox="0 0 100 100"
           enable-background="new 0 0 100 100"
           width="100"
           height="100">
          <path
             id="_ehe1g4nge_53"
             fill-rule="evenodd"
             clip-rule="evenodd"
             d="m 48.306,23.784 c -2.547,-3.982 -6.108,-6.39 -9.935,-7.423 -3.192,-0.862 -6.568,-0.782 -9.701,0.125 -3.132,0.907 -6.021,2.639 -8.24,5.08 -2.643,2.908 -4.331,6.847 -4.331,11.624 0,8.897 3.664,18.254 9.515,26.899 6.25,9.234 14.964,17.62 24.386,23.778 9.422,-6.158 18.137,-14.544 24.386,-23.778 5.851,-8.646 9.515,-18.002 9.515,-26.899 0,-4.777 -1.688,-8.716 -4.331,-11.624 -2.219,-2.44 -5.108,-4.173 -8.239,-5.08 -3.133,-0.907 -6.51,-0.988 -9.702,-0.125 -3.833,1.036 -7.4,3.449 -9.948,7.445 -0.591,0.927 -1.822,1.2 -2.75,0.609 -0.263,-0.167 -0.472,-0.384 -0.625,-0.631 z M 39.403,12.501 c 3.946,1.066 7.658,3.303 10.597,6.854 2.939,-3.551 6.651,-5.788 10.597,-6.854 3.893,-1.051 8.015,-0.952 11.843,0.156 3.829,1.109 7.365,3.23 10.083,6.221 3.282,3.61 5.378,8.465 5.378,14.311 0,9.742 -3.929,19.863 -10.202,29.134 C 70.922,72.337 61.375,81.397 51.103,87.9 50.47,88.32 49.623,88.357 48.938,87.925 38.651,81.421 29.087,72.35 22.302,62.323 16.028,53.053 12.1,42.931 12.1,33.189 c 0,-5.846 2.096,-10.701 5.378,-14.311 2.718,-2.991 6.254,-5.112 10.083,-6.221 3.828,-1.108 7.95,-1.207 11.842,-0.156 z"
             fill="#1d398f" />
        </svg>
      </g>
    </g>
  </g>
  <path
     id="education-icon-text"
     text="education"
     fill="#f55e00"
     space="preserve"
     text-anchor="middle"
     offset="0.5"
     font-scale="contain"
     font-size="48px"
     font-family="'Open Sans'"
     data-fl-textpath=""
     d="m 11.935419,101.73834 v 0 q -1.709363,0 -2.6959954,-1.04061 Q 8.252791,99.657113 8.252791,97.8098 v 0 q 0,-1.862306 0.9146594,-2.959898 0.9176586,-1.097591 2.4650816,-1.097591 v 0 q 1.44846,0 2.291147,0.953645 0.842686,0.953645 0.842686,2.513064 v 0 0.737726 H 9.461341 q 0.032988,1.355495 0.683745,2.060234 0.650758,0.70174 1.832318,0.70174 v 0 q 1.244536,0 2.459084,-0.51881 v 0 1.03761 q -0.61777,0.2699 -1.169565,0.38386 -0.551794,0.11696 -1.331504,0.11696 z m -0.317881,-7.008393 v 0 q -0.926655,0 -1.478449,0.605775 -0.5517949,0.602775 -0.6507581,1.673377 v 0 h 4.0275001 q 0,-1.10359 -0.491817,-1.691371 -0.491817,-0.587781 -1.406476,-0.587781 z m 10.537982,6.867443 -0.155942,-1.03461 h -0.06298 q -0.809698,1.17556 -2.4171,1.17556 v 0 q -1.511437,0 -2.351124,-1.03462 -0.839688,-1.031613 -0.839688,-2.935904 v 0 q 0,-1.90729 0.842687,-2.959898 0.842686,-1.055607 2.348125,-1.055607 v 0 q 1.565418,0 2.402106,1.139576 v 0 h 0.09296 l -0.05098,-0.554794 -0.02699,-0.542798 v -3.133833 h 1.166566 v 10.936928 z m -2.489073,-0.83669 v 0 q 1.193555,0 1.733354,-0.65076 0.5368,-0.650754 0.5368,-2.096216 v 0 -0.245908 q 0,-1.63739 -0.545796,-2.339129 -0.542798,-0.69874 -1.739353,-0.69874 v 0 q -1.025618,0 -1.571415,0.797703 -0.542797,0.797703 -0.542797,2.252162 v 0 q 0,1.478449 0.539799,2.228168 0.542797,0.75272 1.589408,0.75272 z m 5.82505,-6.867441 h 1.18156 v 4.999138 q 0,0.94165 0.42884,1.403473 0.42884,0.46483 1.3435,0.46483 v 0 q 1.20855,0 1.766342,-0.65975 0.560791,-0.662756 0.560791,-2.159199 v 0 -4.048492 h 1.166566 v 7.704131 h -0.962642 l -0.170936,-1.03461 h -0.06298 q -0.356868,0.56978 -0.992631,0.87267 -0.638762,0.30289 -1.451459,0.30289 v 0 q -1.406477,0 -2.105217,-0.66875 -0.701738,-0.66576 -0.701738,-2.135208 v 0 z m 11.998813,7.845081 v 0 q -1.673377,0 -2.591035,-1.02862 -0.914659,-1.031615 -0.914659,-2.914914 v 0 q 0,-1.93428 0.929653,-2.986888 0.932653,-1.055607 2.654012,-1.055607 v 0 q 0.554794,0 1.109587,0.119955 0.554793,0.119956 0.872675,0.281896 v 0 l -0.359866,0.989631 q -0.386856,-0.152943 -0.842686,-0.254905 -0.45583,-0.101962 -0.809699,-0.101962 v 0 q -2.345126,0 -2.345126,2.992886 v 0 q 0,1.42147 0.572786,2.180188 0.572787,0.75872 1.697368,0.75872 v 0 q 0.962642,0 1.973266,-0.41385 v 0 1.03162 q -0.773712,0.40185 -1.946276,0.40185 z m 9.374978,-0.14095 H 46.00161 l -0.230914,-1.09759 h -0.05698 q -0.575786,0.72573 -1.148572,0.98063 -0.572787,0.25791 -1.430468,0.25791 v 0 q -1.145573,0 -1.796331,-0.59078 -0.650758,-0.59078 -0.650758,-1.679377 v 0 q 0,-2.333131 3.73361,-2.447089 v 0 l 1.307514,-0.04198 v -0.476823 q 0,-0.908661 -0.389855,-1.340501 -0.389855,-0.431839 -1.247536,-0.431839 v 0 q -0.962641,0 -2.180188,0.59078 v 0 L 41.554266,94.42706 q 0.566789,-0.308885 1.247535,-0.48282 0.677748,-0.176934 1.358494,-0.176934 v 0 q 1.379487,0 2.04224,0.611772 0.662753,0.611772 0.662753,1.96127 v 0 z m -3.499697,-0.82169 v 0 q 1.091594,0 1.712363,-0.59678 0.620768,-0.599778 0.620768,-1.673379 v 0 -0.695741 l -1.166565,0.04798 q -1.391482,0.05098 -2.006253,0.431839 -0.614771,0.383857 -0.614771,1.193555 v 0 q 0,0.629766 0.383857,0.962646 0.383857,0.32988 1.070601,0.32988 z m 8.392469,0 v 0 q 0.308885,0 0.596778,-0.045 0.290892,-0.048 0.458829,-0.096 v 0 0.89367 q -0.191928,0.09 -0.560791,0.14994 -0.368863,0.06 -0.662753,0.06 v 0 q -2.234168,0 -2.234168,-2.354126 v 0 -4.582294 H 48.252366 V 94.2381 l 1.103589,-0.485819 0.491817,-1.643388 h 0.674748 v 1.784336 h 2.234168 V 94.80192 H 50.52252 v 4.531313 q 0,0.695737 0.329877,1.070597 0.329878,0.37187 0.905663,0.37187 z m 3.762193,-6.882441 v 7.704131 h -1.166565 v -7.704131 z m -1.265529,-2.087223 v 0 q 0,-0.398852 0.194928,-0.587781 0.197926,-0.185931 0.491817,-0.185931 v 0 q 0.281895,0 0.485819,0.191928 0.203924,0.18893 0.203924,0.581784 v 0 q 0,0.392854 -0.203924,0.587781 -0.203924,0.191928 -0.485819,0.191928 v 0 q -0.293891,0 -0.491817,-0.191928 -0.194928,-0.194927 -0.194928,-0.587781 z m 10.38832,5.931791 v 0 q 0,1.883299 -0.950646,2.941903 -0.947647,1.05861 -2.621024,1.05861 v 0 q -1.031616,0 -1.835317,-0.48582 -0.800702,-0.48582 -1.23554,-1.391483 -0.434838,-0.905663 -0.434838,-2.12321 v 0 q 0,-1.883299 0.94165,-2.932908 0.941649,-1.052608 2.612027,-1.052608 v 0 q 1.619397,0 2.570043,1.076599 0.953645,1.076599 0.953645,2.908917 z m -5.868815,0 v 0 q 0,1.475451 0.59078,2.249163 0.587781,0.77371 1.733355,0.77371 v 0 q 1.145573,0 1.742351,-0.770711 0.593779,-0.767715 0.593779,-2.252162 v 0 q 0,-1.469453 -0.593779,-2.231169 -0.596778,-0.761716 -1.754347,-0.761716 v 0 q -1.145573,0 -1.730355,0.752719 -0.581784,0.749721 -0.581784,2.240166 z m 14.350315,3.859563 h -1.166566 v -4.984144 q 0,-0.941649 -0.428843,-1.403478 -0.428838,-0.464826 -1.3405,-0.464826 v 0 q -1.20855,0 -1.77234,0.653756 -0.560791,0.653757 -0.560791,2.156197 v 0 4.042495 h -1.166566 v -7.704131 h 0.947648 l 0.188929,1.055607 h 0.05698 q 0.356867,-0.569788 1.004626,-0.881672 0.647759,-0.314883 1.442463,-0.314883 v 0 q 1.39148,0 2.093222,0.67175 0.701739,0.67175 0.701739,2.147201 v 0 z"
     style="stroke-width:0.299888" />
</svg>
