<?xml version="1.0" encoding="UTF-8" standalone="no"?>
<svg
   width="100.57021"
   height="100.57021"
   viewBox="0 0 243.04468 230.47337"
   data-svgdocument=""
   id="_QPbOH8Bvnff-nxIn-ryGS"
   class="fl-svgdocument"
   x="0"
   y="0"
   style="overflow:hidden"
   version="1.1"
   sodipodi:docname="favicon.svg"
   inkscape:version="1.1 (c68e22c387, 2021-05-23)"
   xmlns:inkscape="http://www.inkscape.org/namespaces/inkscape"
   xmlns:sodipodi="http://sodipodi.sourceforge.net/DTD/sodipodi-0.dtd"
   xmlns="http://www.w3.org/2000/svg"
   xmlns:svg="http://www.w3.org/2000/svg">
  <sodipodi:namedview
     id="namedview28"
     pagecolor="#000000"
     bordercolor="#666666"
     borderopacity="1.0"
     inkscape:pageshadow="2"
     inkscape:pageopacity="0"
     inkscape:pagecheckerboard="true"
     showgrid="false"
     inkscape:zoom="5.4333333"
     inkscape:cx="29.263804"
     inkscape:cy="54.386503"
     inkscape:window-width="1600"
     inkscape:window-height="837"
     inkscape:window-x="-8"
     inkscape:window-y="-8"
     inkscape:window-maximized="1"
     inkscape:current-layer="_QPbOH8Bvnff-nxIn-ryGS"
     width="100.57021px"
     fit-margin-top="6.115875"
     fit-margin-left="0"
     fit-margin-right="0"
     fit-margin-bottom="6.115875" />
  <defs
     id="_-Pf6sSTUS_QCObCL12lGl"
     transform="matrix(1.2307695150375366, 0, 0, 1.2307695150375366, -59.07701110839844, -67.29283142089844)" />
  <g
     id="main-logo-circle"
     transform="matrix(0.49708,0,0,0.49708,-41.45574,-36.609404)"
     fill="rgba(115,172,118,0.88)"
     style="fill:hsl(92, 23.799999999999997%, 52.2%);fill-opacity:1">
    <svg
       id="_ehe1g4nge_3"
       version="1.1"
       x="0px"
       y="0px"
       viewBox="0 0 792 612"
       width="792"
       height="612"
       style="fill:hsl(92, 23.799999999999997%, 52.2%);fill-opacity:1">
      <g
         id="_ehe1g4nge_4"
         fill="rgba(115,172,118,0.88)"
         style="fill:hsl(92, 23.799999999999997%, 52.2%);fill-opacity:1">
        <desc
           id="_ehe1g4nge_5" />
        <path
           id="_ehe1g4nge_6"
           d="m 211.4,172.1 c 2.8,-3.3 5.9,-7.7 3.9,-11.6 11.2,-6.6 21.1,-15.3 29.2,-25.5 -4.4,3.5 -9.2,6.3 -14.3,8.5 38.3,-37.8 95.9,-55 148.8,-44.4 -42.6,-1.6 -86,9.7 -121.2,33.7 -35.3,23.9 -62.1,60.6 -72.4,102 15.6,-45.3 48.5,-84.4 90.5,-107.4 -3.3,3.4 -6.6,6.9 -10,10.3 16,-6.6 30.5,-16.5 46.4,-23.4 46.7,-20.4 102.9,-12.7 146.4,13.9 43.5,26.6 74.8,70.2 93,117.8 8,20.8 13.6,43.9 6.5,65 -1.6,-27.5 -10.6,-54 -22.3,-78.9 -19.4,-41.5 -47.2,-80.4 -86.3,-104.2 -39.1,-23.7 -90.8,-30 -130.8,-7.7 20.5,-2.2 41.2,-3.4 61.5,-0.5 38.2,5.4 73.5,25.4 100.3,53.1 26.7,27.8 45.2,62.9 56.1,99.8 10.6,36.1 14.1,75.9 0.5,111.1 39.7,-64.2 33.1,-153.6 -15.4,-211.3 -20.3,-24.1 -46.6,-42.6 -75,-56 C 414,101 378,92.1 341.8,93.1 c -36.2,1 -72.4,12.3 -101.3,34.1 24,-21.2 55.3,-33.2 87.1,-36.5 31.9,-3.2 64.2,2 94.5,12.2 63,21.4 120.4,68.6 138.9,132.5 4.7,16.4 6.8,33.4 8.7,50.4 1.6,14.7 2.9,29.4 2.6,44.2 -1.4,73.1 -48.1,144.5 -116.2,171.2 -19.3,7.5 -39.7,11.6 -60.2,14.5 -32.8,4.6 -66.8,6 -98.4,-3.8 -16.3,-5.1 -31.5,-13 -45.6,-22.7 -58.4,-40 -95.3,-109.7 -95.3,-180.5 0,-12.6 1.1,-25.1 2.8,-37.5 1.5,-11.4 3.5,-22.7 6.8,-33.7 5,-16.2 12.8,-31.5 23.1,-45 1.8,-1.1 3.6,-2.3 5.3,-3.5 -23.7,50.1 -37.8,109.3 -16.1,160.4 -7.8,-33.3 -8.3,-68.2 -1.4,-101.6 2.2,-0.8 4.4,-1.7 6.5,-2.6 0.1,-2.2 0.2,-4.3 0.3,-6.5 -1.6,1.8 -3.1,3.6 -4.7,5.3 3.7,-26.5 15.1,-51.6 32.2,-71.9 m 16.1,-1.3 c 6.2,-4.2 12.4,-8.4 18.6,-12.6 -3.9,7.9 -11.1,14.1 -19.5,16.9 -39,40.3 -51,100.4 -46.4,156.2 1.8,21.1 6.1,43 19.7,59.2 -9.5,-39 -10,-80.2 -1.3,-119.4 1.7,-0.1 2.3,2.1 2.3,3.8 0.7,26.3 -3.8,52.6 -1.9,78.9 1.9,26.2 11.7,53.9 33.7,68.2 17.2,11.2 34.3,22.4 51.4,33.6 -40,-12.8 -74.9,-40.6 -96.5,-76.6 5.8,15.7 13.9,30.6 23.9,44 -1.3,-3.6 -2.5,-7.3 -3.8,-11 10.1,9.5 20.3,18.8 30.4,28.2 7.4,6.9 19,13.9 26.6,7.3 1.2,2.5 -1,5.6 -3.7,6.3 -2.7,0.8 -5.6,0 -8.3,-0.8 12.1,8.7 24.7,16.7 37.7,24 -1.9,0.3 -2.5,3.1 -1.3,4.7 1.2,1.6 3.2,2 5.1,2.5 47.7,10.3 98.5,6.5 144.1,-11.1 -39.2,9.2 -81,11.3 -119,-2 -32.1,-11.2 -60.2,-33.3 -78.6,-61.8 -5.9,-9.2 -10.8,-18.9 -15.3,-28.8 -14.5,-32.6 -23.7,-68.2 -21.1,-103.8 2.6,-35.6 18.2,-71.1 46.2,-93.1 2.9,-2.3 6.5,-4.5 10.1,-3.6 -27.6,20 -44,53.1 -48.3,86.9 -4.3,33.9 2.7,68.3 15,100.1 8.8,22.5 20.5,44.3 36.6,62.3 6.9,7.7 14.7,14.7 23.6,20 16.3,9.8 35.6,13.5 54.5,15.9 25.7,3.3 51.6,4.7 77.5,4.1 -32.7,7.7 -66.9,2.2 -100,-3.3 56.2,21.1 122.1,8.2 170.4,-27.3 9.6,-7.1 18.7,-15 26,-24.5 11.2,-14.6 17.9,-32.4 21.3,-50.5 8.8,-47.2 -3.8,-96.5 -26.7,-138.8 -15.9,-29.4 -37,-56.6 -64.8,-75.1 -26,-17.2 -56.9,-26.3 -88,-28 -47.8,-2.8 -98.4,13 -130.2,49 m 93.9,324.8 c 21.5,5.4 43.2,9.3 65.2,11.9 -27,6.2 -54.8,-3.3 -80.9,-12.6 -15.4,-5.4 -31,-11 -45.3,-19 -34.6,-19.2 -60.6,-52.1 -75.7,-88.7 -2.6,-6.5 -5,-13 -7,-19.6 -0.2,-0.8 -0.8,1.1 0,0.7 0.8,-0.3 0.7,-1.5 0.3,-2.3 -9,-21.7 -14.5,-45 -16.2,-68.4 -1.7,35.4 7.1,71 23.1,102.7 17.4,34.5 43.5,64.8 76.3,85.3 32.7,20.5 72.1,30.9 110.5,27.2 54,-5.3 101.4,-36.8 144.9,-69.1 -19.2,25.4 -48.3,41.1 -76.6,55.9 48.9,-13.7 88.1,-52.4 111.7,-97.4 -11.7,20 -30,35.7 -49.9,47.5 -20,11.8 -41.9,20 -63.8,27.9 -9.6,3.5 -19.3,6.9 -29.2,9.7 -28.3,8.1 -58.1,10.9 -87.4,8.3 m 200,-67.6 c 5,-4.7 9.9,-9.5 13.9,-14.9 6.3,-8.7 10.5,-18.8 14.5,-28.8 5.4,-13.6 10.9,-27.3 12.3,-41.9 -2.6,2.3 -3.5,5.7 -4.5,9 -13.3,46.1 -46.2,86.3 -88.9,108.3 20.1,-4.5 37.4,-17.6 52.7,-31.7 M 277,477 c 2.1,0.5 4.7,1.4 4.8,3.5 0.8,-1.4 3.2,-1.4 4.1,0 0.4,-0.1 0.1,-0.8 -0.4,-1 -3,-1.6 -6,-3.2 -8.9,-4.8 -12.1,-6.5 -23.2,-14.6 -33.1,-24 -1.2,2.6 -0.3,5.9 2,7.5 4.4,3.2 8.8,6.4 13.2,9.6 5.3,4.4 11.6,7.6 18.3,9.2 M 565.8,325.8 c -0.4,7.4 -0.8,14.9 -1.3,22.3 -0.1,1 -0.1,2 -0.1,3 -0.1,1.8 -0.2,3.6 -0.4,5.3 -0.1,2.2 -0.2,4.2 -0.2,6.4 4.2,-17 5.7,-34.8 4.4,-52.2 -0.5,-0.2 -1,-0.5 -1.4,-0.8 -0.3,5.3 -0.7,10.6 -1,16 M 177.1,216.2 c -0.7,1.3 -1.3,2.6 -1.9,3.9 0.7,0.9 2,-0.2 2.3,-1.3 0.3,-1 0.6,-2.4 1.7,-2.5 -0.5,-0.5 -1,-1 -1.5,-1.5 -0.2,0.4 -0.4,1 -0.2,1.4 m 72.3,-83 c 1,-0.8 2,-1.6 3,-2.5 -1.7,-0.7 -3.9,0.2 -4.6,2 0.5,0.2 1,0.4 1.6,0.5 m 3.1,-4.7 c 2.2,0.5 4.7,-0.1 6.5,-1.6 -2.3,-0.1 -4.6,0.4 -6.5,1.6 M 173.3,230 c -0.1,-0.5 -0.2,-1 -0.2,-1.4 -1.9,0.7 -2.8,3.3 -1.7,5 0.4,-1.3 1,-2.5 1.9,-3.6 M 162,281 c -0.5,0.7 -0.1,1.9 0.8,2 0.5,-1.6 0.4,-3.3 -0.1,-5 -1,0.5 -1.3,1.9 -0.7,2.8"
           fill="rgba(115,172,118,0.88)"
           style="fill:hsl(92, 23.799999999999997%, 52.2%);fill-opacity:1" />
        <path
           id="_ehe1g4nge_7"
           d="m 229.4,144 c 0.2,0.3 0.4,0.7 0.6,1 -0.9,1.3 -2.6,1.9 -4.1,1.5 0.8,-1.1 2,-1.9 3.3,-2.2"
           fill="rgba(115,172,118,0.88)"
           style="fill:hsl(92, 23.799999999999997%, 52.2%);fill-opacity:1" />
        <path
           id="_ehe1g4nge_8"
           d="m 221.5,150.4 c 1.4,-0.5 2.9,-0.8 4.4,-0.7 -0.3,2.2 -4,2.8 -4.9,0.7"
           fill="rgba(115,172,118,0.88)"
           style="fill:hsl(92, 23.799999999999997%, 52.2%);fill-opacity:1" />
        <path
           id="_ehe1g4nge_9"
           d="m 216.5,145.8 c 0.9,-1.4 2.6,-2.4 4.4,-2.2 0.4,1 0.1,2.2 -0.7,2.9 -1.4,0.2 -3.1,0.4 -4.1,-0.7"
           fill="rgba(115,172,118,0.88)"
           style="fill:hsl(92, 23.799999999999997%, 52.2%);fill-opacity:1" />
        <path
           id="_ehe1g4nge_10"
           d="m 496.8,152.4 c 0.6,-0.1 1.2,0.5 1.1,1.1 -0.1,0.6 -0.8,1 -1.4,0.8 -0.9,-1 -1.8,-2.1 -2.7,-3.2 1,-0.8 2.8,-0.1 3,1.1"
           fill="rgba(115,172,118,0.88)"
           style="fill:hsl(92, 23.799999999999997%, 52.2%);fill-opacity:1" />
        <path
           id="_ehe1g4nge_11"
           d="m 225.5,137.6 c 0.7,-0.8 2.1,-0.8 2.9,-0.1 -1.3,1.3 -3,2.2 -4.8,2.8 -0.2,-1.1 0.8,-2.4 1.9,-2.3"
           fill="rgba(115,172,118,0.88)"
           style="fill:hsl(92, 23.799999999999997%, 52.2%);fill-opacity:1" />
        <path
           id="_ehe1g4nge_12"
           d="m 209.1,230.6 c 0.9,-1.3 3.3,-0.8 3.6,0.8 -1.2,-0.2 -2.5,0.2 -3.3,1.1 -0.5,0.2 -1.3,-0.2 -1.3,-0.8 -0.1,-0.5 0.5,-1.1 1.1,-1"
           fill="rgba(115,172,118,0.88)"
           style="fill:hsl(92, 23.799999999999997%, 52.2%);fill-opacity:1" />
        <path
           id="_ehe1g4nge_13"
           d="m 266.3,166.6 c 0.5,-0.2 1.2,-0.4 1.7,-0.2 0.6,0.2 0.9,1.1 0.5,1.5 -1.9,1.2 -4.1,1.9 -6.3,2 1,-1.4 2.5,-2.5 4.1,-3.3"
           fill="rgba(115,172,118,0.88)"
           style="fill:hsl(92, 23.799999999999997%, 52.2%);fill-opacity:1" />
        <path
           id="_ehe1g4nge_14"
           d="m 295.8,479.1 c 1,0.7 2.1,1.4 3.1,2.1 -2.2,0.9 -4.8,0.4 -6.6,-1.2 -0.4,-0.7 0.4,-1.7 1.1,-1.7 0.9,-0.1 1.7,0.4 2.4,0.8"
           fill="rgba(115,172,118,0.88)"
           style="fill:hsl(92, 23.799999999999997%, 52.2%);fill-opacity:1" />
        <path
           id="_ehe1g4nge_15"
           d="m 250.1,157.4 c -0.5,-1.5 -0.1,-3.3 1.1,-4.4 0.8,-0.2 1.6,-0.8 1.9,-1.7 1.3,0.5 2.5,1 3.8,1.5 -2.2,1.5 -4.5,3 -6.8,4.6"
           fill="rgba(115,172,118,0.88)"
           style="fill:hsl(92, 23.799999999999997%, 52.2%);fill-opacity:1" />
        <path
           id="_ehe1g4nge_16"
           d="m 201.3,264.8 c 0,-0.6 0,-1.2 0,-1.8 1,-0.5 2.1,-0.5 3,-0.1 -1.8,1.9 -2.8,4.5 -2.6,7.1 -1.1,-0.8 -2.3,-1.7 -3.5,-2.5 1,-0.8 2.1,-1.7 3.2,-2.6"
           fill="rgba(115,172,118,0.88)"
           style="fill:hsl(92, 23.799999999999997%, 52.2%);fill-opacity:1" />
        <path
           id="_ehe1g4nge_17"
           d="m 194.7,176.5 c 0.4,-3.1 2.2,-5.9 4.7,-7.8 0.7,-0.5 1.8,-0.8 2.2,-0.1 -2.2,2.2 -4,4.7 -5.3,7.5 -0.3,0.5 -1.1,0.8 -1.6,0.4"
           fill="rgba(115,172,118,0.88)"
           style="fill:hsl(92, 23.799999999999997%, 52.2%);fill-opacity:1" />
        <path
           id="_ehe1g4nge_18"
           d="m 205,238.5 c 2,-1.5 3.9,-3 5.9,-4.5 -0.5,1.9 -1,3.6 -1.5,5.5 -0.7,0.4 -1.2,1.1 -1.9,1.5 -0.7,0.4 -1.7,0.5 -2.2,-0.2 -0.4,-0.7 0.7,-1.7 1.1,-1 -0.4,-0.4 -0.9,-0.8 -1.4,-1.3"
           fill="rgba(115,172,118,0.88)"
           style="fill:hsl(92, 23.799999999999997%, 52.2%);fill-opacity:1" />
        <path
           id="_ehe1g4nge_19"
           d="m 281.2,161 c -0.2,0.5 -0.4,1 -0.2,1.6 -1.6,0.3 -3.1,0.6 -4.5,0.9 -0.2,0.6 -0.4,1.2 -0.6,1.8 -1.2,-0.1 -2.4,-0.1 -3.5,-0.1 -1,-0.5 0,-1.9 1,-2.4 2,-1 4.1,-1.6 6.3,-1.9 -0.3,-0.5 -0.6,-0.9 -0.9,-1.4 1.6,-1.3 3.5,-2.2 5.6,-2.8 0.4,0.7 0.5,1.5 0.3,2.3 -0.7,0.3 -1.4,0.4 -2.1,0.2 0.1,0.5 0.2,1 0.3,1.6 -0.7,0.2 -1.2,0.3 -1.7,0.2"
           fill="rgba(115,172,118,0.88)"
           style="fill:hsl(92, 23.799999999999997%, 52.2%);fill-opacity:1" />
        <path
           id="_ehe1g4nge_20"
           d="m 203,170.4 c 0.8,-0.5 1.9,-0.7 2.8,-0.5 -0.4,-0.5 -0.7,-1 -1,-1.5 1,-0.2 2,-0.4 3.1,-0.5 0.4,-1 0.4,-2.2 0,-3.2 1.1,-0.1 2.3,0.1 3.3,0.5 0.3,0.4 0.4,1 0.3,1.5 -0.5,0.2 -1.1,0.4 -1.7,0.6 -0.2,1 -0.5,2 -0.7,3 -0.5,0.3 -1.3,0.4 -1.9,0.2 -0.9,5.4 -6.8,8.5 -8.9,13.5 -0.7,1.7 -1.4,3.9 -3.2,3.9 -0.5,-0.6 -0.4,-1.7 0.3,-2.2 -0.7,-0.2 -1.3,-0.4 -1.9,-0.6 -0.1,-1.1 1.7,-0.8 2.6,-0.1 0.8,-0.7 0.1,-2.3 -0.9,-2.3 1.1,-0.9 1.8,-2.3 2,-3.7 1.1,0.1 2.2,-0.3 2.9,-1.1 -0.8,0.2 -1.7,-0.4 -1.9,-1.3 1.6,0.3 3.2,-1.2 3.1,-2.8 1.2,-0.7 2.4,-1.4 3.6,-2.1 -0.5,-0.3 -1.2,-0.8 -1.9,-1.3"
           fill="rgba(115,172,118,0.88)"
           style="fill:hsl(92, 23.799999999999997%, 52.2%);fill-opacity:1" />
        <path
           id="_ehe1g4nge_21"
           d="m 517.1,175.7 c -2.2,-3 -4.5,-5.9 -7.3,-8.4 -3.9,-3.5 -8.9,-6.6 -9.7,-11.8 23.5,19.9 41.6,46.2 51.7,75.3 0.9,0.8 -0.1,2.6 -1.2,2.3 -8.8,-20.3 -20.1,-39.7 -33.5,-57.4"
           fill="rgba(115,172,118,0.88)"
           style="fill:hsl(92, 23.799999999999997%, 52.2%);fill-opacity:1" />
        <path
           id="_ehe1g4nge_22"
           d="m 253.1,159.9 c 4.1,-3.3 8.8,-6.4 10.5,-11.4 0.5,-1.4 1.9,-2.5 3.2,-3.3 20.2,-12.7 43.8,-19.7 67.6,-20.1 -11.9,3.2 -23.7,6.3 -35.6,9.5 -18.5,4.9 -32.1,20.2 -44.6,34.8 -10.8,12.7 -21.7,25.4 -32.5,38.2 -1.3,3.5 -2.5,7.1 -3.8,10.6 -0.5,1.6 -1.1,3.2 -2.5,4.2 -1.3,1 -3.5,1 -4.3,-0.5 4.8,-8.4 9.6,-16.9 14.5,-25.4 7.8,-13.2 15.6,-26.8 27.5,-36.6"
           fill="rgba(115,172,118,0.88)"
           style="fill:hsl(92, 23.799999999999997%, 52.2%);fill-opacity:1" />
      </g>
    </svg>
  </g>
  <path
     id="out-of-our-text"
     fill="#f55e00"
     text="Out of Our"
     text-anchor="middle"
     font-size="100px"
     letter-spacing="0"
     side="left"
     offset="0.5"
     dx="0"
     dy="0"
     space="preserve"
     href=""
     font-family="'Open Sans Condensed Light'"
     font-scale="contain"
     x="0"
     y="0"
     font-weight="400"
     font-style="normal"
     data-fl-textpath=""
     stroke="#f55e00"
     stroke-width="1.09086"
     d="m 103.31921,94.522724 v 0 q 0,6.443336 -1.92719,9.908636 -1.923544,3.46166 -5.563377,3.46166 v 0 q -3.676195,0 -5.577927,-3.49075 -1.898094,-3.48711 -1.898094,-9.915906 v 0 q 0,-6.71242 1.88355,-9.995906 1.879914,-3.283486 5.643378,-3.283486 v 0 q 3.621652,0 5.53065,3.450751 1.90901,3.454388 1.90901,9.865001 z m -13.155762,0 v 0 q 0,5.788826 1.447206,8.745056 1.447207,2.95622 4.217989,2.95622 v 0 q 2.785327,0 4.232537,-2.93077 1.4472,-2.93078 1.4472,-8.770506 v 0 q 0,-5.770643 -1.41812,-8.70869 -1.421747,-2.938047 -4.21071,-2.938047 v 0 q -2.858051,0 -4.287077,2.974409 -1.429025,2.974409 -1.429025,8.672328 z m 17.628992,-6.250621 h 1.68719 v 12.570327 q 0,2.85805 0.68361,4.17436 0.6836,1.31266 2.10536,1.31266 v 0 q 2.18535,0 3.20349,-1.76719 1.02177,-1.76719 1.02177,-5.708826 v 0 -10.581331 h 1.66902 v 19.264567 h -1.42176 l -0.2109,-2.69806 h -0.14181 q -0.62179,1.47266 -1.72356,2.26172 -1.10176,0.79269 -2.39625,0.79269 v 0 q -2.32717,0 -3.39985,-1.65084 -1.07631,-1.65446 -1.07631,-5.39975 v 0 z m 19.05384,18.057347 v 0 q 0.78179,0 1.3854,-0.21453 v 0 1.42175 q -0.78179,0.35635 -2.00719,0.35635 v 0 q -2.98531,0 -2.98531,-4.45798 v 0 -13.672096 h -1.73811 v -0.992682 l 1.70538,-0.498159 0.54907,-4.581608 h 1.17085 v 4.581608 h 3.05441 v 1.490841 h -3.05441 v 13.192116 q 0,1.95264 0.42907,2.66534 0.42544,0.70905 1.49084,0.70905 z m 22.11996,-8.468696 v 0 q 0,4.865226 -1.53448,7.446926 -1.53447,2.58534 -4.39252,2.58534 v 0 q -2.82533,0 -4.32344,-2.58534 -1.50175,-2.5817 -1.50175,-7.446926 v 0 q 0,-9.959543 5.89427,-9.959543 v 0 q 2.77079,0 4.31617,2.607153 1.54175,2.61079 1.54175,7.35239 z m -9.99591,0 v 0 q 0,4.170716 0.99632,6.301526 0.99268,2.13081 3.10531,2.13081 v 0 q 4.13799,0 4.13799,-8.432336 v 0 q 0,-8.36325 -4.13799,-8.36325 v 0 q -2.16354,0 -3.1344,2.09445 -0.96723,2.09445 -0.96723,6.2688 z m 19.16054,-9.588651 v 1.490841 h -3.02168 v 17.773726 h -1.66901 V 89.762944 h -2.44716 v -0.95632 l 2.44716,-0.730875 V 86.62127 q 0,-3.676195 0.87269,-5.290667 0.86905,-1.614471 3.01804,-1.614471 v 0 q 1.24358,0 2.25444,0.443616 v 0 l -0.58542,1.559928 q -0.94178,-0.443616 -1.70538,-0.443616 v 0 q -0.86905,0 -1.31267,0.51634 -0.44361,0.51634 -0.65815,1.669015 -0.21454,1.152674 -0.21454,3.196217 v 0 1.614471 z m 24.32179,6.250621 v 0 q 0,6.443336 -1.92719,9.908636 -1.92354,3.46166 -5.56338,3.46166 v 0 q -3.67619,0 -5.57792,-3.49075 -1.8981,-3.48711 -1.8981,-9.915906 v 0 q 0,-6.71242 1.88355,-9.995906 1.87991,-3.283486 5.64338,-3.283486 v 0 q 3.62165,0 5.53065,3.450751 1.90901,3.454388 1.90901,9.865001 z m -13.15576,0 v 0 q 0,5.788826 1.4472,8.745056 1.44721,2.95622 4.21799,2.95622 v 0 q 2.78533,0 4.23254,-2.93077 1.4472,-2.93078 1.4472,-8.770506 v 0 q 0,-5.770643 -1.41811,-8.70869 -1.42176,-2.938047 -4.21072,-2.938047 v 0 q -2.85805,0 -4.28708,2.974409 -1.42902,2.974409 -1.42902,8.672328 z m 17.62899,-6.250621 h 1.6872 v 12.570327 q 0,2.85805 0.6836,4.17436 0.68361,1.31266 2.10536,1.31266 v 0 q 2.18535,0 3.20349,-1.76719 1.02177,-1.76719 1.02177,-5.708826 v 0 -10.581331 h 1.66902 v 19.264567 h -1.42176 l -0.2109,-2.69806 h -0.14181 q -0.62179,1.47266 -1.72356,2.26172 -1.10176,0.79269 -2.39625,0.79269 v 0 q -2.32717,0 -3.39984,-1.65084 -1.07632,-1.65446 -1.07632,-5.39975 v 0 z m 20.86467,-0.370892 v 0 q 0.90541,0 1.6872,0.247262 v 0 l -0.41089,1.687191 q -0.63634,-0.26544 -1.31267,-0.26544 v 0 q -0.97814,0 -1.82174,0.99996 -0.83996,1.00359 -1.31994,2.79987 -0.47997,1.79264 -0.47997,3.95618 v 0 10.210436 h -1.6872 V 88.272103 h 1.38539 l 0.17818,3.374391 h 0.12363 q 1.34903,-3.745283 3.65801,-3.745283 z"
     style="fill:#f55e00;fill-opacity:1;stroke:#f55e00;stroke-opacity:1" />
  <path
     id="minds-without-m-text"
     text="inds"
     text-anchor="middle"
     font-size="100px"
     letter-spacing="0"
     side="left"
     offset="0.5"
     dx="0"
     dy="0"
     space="preserve"
     href=""
     font-family="'Rock Salt'"
     font-scale="contain"
     x="0"
     y="0"
     fill="#1d398f"
     font-weight="400"
     font-style="normal"
     data-fl-textpath=""
     d="m 91.572914,154.24749 v 0 q -0.298036,0.48431 -0.726461,0.88169 -0.422217,0.39117 -0.788552,0.8196 v 0 q -0.422217,0.18006 -0.93757,0.18006 -0.515352,0 -0.968615,-0.031 -0.459471,-0.0311 -0.850641,0 -0.397381,0.031 -0.639535,0.2732 v 0 q -0.484307,-0.12419 -0.726461,-0.45327 -0.242153,-0.33529 -0.850642,-0.39738 v 0 q -0.242154,-0.0621 -0.484308,0 v 0 q -0.906524,-1.0307 -1.66403,-2.17938 -0.757507,-1.15489 -1.428086,-2.18559 v 0 q -0.06209,-2.24148 -0.360126,-4.54504 v 0 q -0.06209,-0.5464 -0.186272,-1.0928 -0.117973,-0.5464 -0.180063,-1.0307 v 0 q 0,-0.60849 0.09314,-1.18593 0.08693,-0.57124 0.149017,-1.05555 v 0 q 0.242154,-1.76337 0.546398,-3.45845 0.304245,-1.70128 0.546399,-3.45845 v 0 q 0.242153,-1.5771 0.242153,-3.30323 0,-1.72612 -0.546398,-3.24113 v 0 l -0.06209,-0.30424 q 0.124182,-0.48431 0.273199,-0.8196 0.155227,-0.33529 0.211109,-0.75751 v 0 q 0.124181,-0.67058 -0.298035,-0.96861 v 0 q 0.180063,-0.49052 0.602279,-0.63954 0.428426,-0.14901 0.484308,-0.69541 v 0 q 0.06209,-0.24216 0,-0.48431 v 0 q 0.490516,-0.18627 1.005869,-0.33529 0.515353,-0.15523 0.99966,-0.031 v 0 q 0.788552,0.12418 1.390832,0.51535 0.608489,0.39117 1.154886,0.88169 v 0 q 0.968615,2.90584 0.788552,6.15318 -0.186272,3.24114 -0.608489,6.51953 -0.422216,3.27218 -0.546397,6.39534 -0.117973,3.12316 0.968614,5.79306 v 0 l 0.124181,0.0559 q 0.304245,0.0621 0.484308,-0.21111 0.180063,-0.2732 0.484307,-0.21111 v 0 q 0.242154,0.11798 0.304244,0.11798 v 0 q 0.242154,1.21697 0.788552,2.30977 0.546398,1.08659 1.210769,2.17938 z m 45.662176,-31.52965 v 0 q -0.12418,0.72646 -0.33529,1.24181 -0.21111,0.51536 -0.0931,1.366 v 0 q -0.60228,0.0621 -0.93757,0.39117 -0.33529,0.33529 -0.54639,0.75751 -0.21111,0.42842 -0.42222,0.88168 -0.21111,0.45327 -0.51535,0.8196 v 0 q 0.4843,2.17939 0.54639,4.42707 0.0559,2.24147 0.29804,4.42706 v 0 q 0.30424,2.78788 0.94378,5.48261 0.63332,2.70095 0.63332,5.48882 v 0 q 0,0.85064 -0.031,1.5771 -0.0248,0.72647 -0.0248,1.51502 v 0 q 0,0.4843 0.0248,0.99966 0.031,0.51535 0.031,1.00587 v 0 q 0,1.75716 -0.45326,3.51433 -0.45326,1.75717 -0.69541,3.51433 v 0 q -0.72647,0.67058 -1.24182,1.45913 -0.51535,0.78856 -1.06175,1.45293 -0.5464,0.67058 -1.27286,1.18593 -0.73267,0.51535 -1.81926,0.69542 v 0 q -0.18627,0.60848 -0.70162,0.90652 -0.51535,0.30424 -0.87548,0.85064 v 0 h -0.12418 q -1.51501,0 -2.60781,-0.42222 -1.08659,-0.42842 -2.03037,-0.97482 -0.93757,-0.54019 -1.90618,-1.14868 -0.97482,-0.60849 -2.24768,-0.96861 v 0 q -1.69508,-1.39704 -3.09212,-3.06728 -1.39083,-1.66403 -3.15421,-2.99898 v 0 q -0.42221,-1.21077 -1.11763,-1.99932 -0.70162,-0.78855 -1.366,-1.81926 v 0 q -0.30424,-0.42843 -0.45326,-0.78855 -0.15522,-0.36634 -0.39738,-0.85064 v 0 q -0.18006,-0.48431 -0.57744,-0.66438 -0.39117,-0.18627 -0.69542,-0.42842 v 0 q -0.4843,-1.87514 -1.39083,-3.45224 -0.91273,-1.57711 -2.1235,-3.03624 v 0 q -0.36634,0.67058 -0.57744,1.42809 -0.21111,0.7575 -0.39118,1.51501 -0.18627,0.75751 -0.45947,1.51501 -0.2732,0.75751 -0.69541,1.366 v 0 0.18006 q 0,0.30425 0.24215,0.36634 0.24216,0.0621 0.24216,0.36012 v 0 q 0,0.0621 -0.031,0.12418 -0.0311,0.0621 -0.0311,0.12419 v 0 q -0.29803,0.24215 -0.45326,0.60228 -0.14901,0.36633 -0.63332,0.42842 v 0 q 0.0559,0.29804 0.0559,0.60228 v 0 0.5464 q 0,1.75717 -0.39117,3.51433 -0.39738,1.76338 -0.39738,3.58264 v 0 0.78855 q 0,0.42221 0.0621,0.78855 v 0 q 0.12418,0.36013 0.36633,0.72646 0.24216,0.36013 0.24216,0.66437 v 0 q 0,0.42843 -0.36634,0.78855 v 0 q 0.42843,0.30425 0.96862,0.67058 0.54639,0.36013 1.00587,0.81339 0.45326,0.45947 0.7575,0.97482 0.29804,0.51536 0.29804,1.11764 v 0 q 0,1.0307 -0.66437,1.45913 -0.66437,0.42221 -1.60815,0.66437 -0.93757,0.24215 -1.93723,0.45326 -0.99966,0.21732 -1.67024,0.75751 v 0 h -0.180063 q -0.726461,0 -1.092796,-0.42222 -0.360126,-0.42222 -1.092797,-0.42222 v 0 q -1.148677,-1.88134 -1.577103,-4.21595 -0.422217,-2.33461 -0.422217,-4.45812 v 0 q 0,-2.60781 0.453262,-5.21562 0.459471,-2.6078 1.092796,-5.15352 0.639535,-2.54572 1.397041,-5.06039 0.757506,-2.51468 1.421877,-5.06661 v 0 l 0.06209,-0.18006 q 0,-0.30424 -0.149018,-0.42221 -0.155227,-0.12419 -0.155227,-0.36634 v 0 q 0,-0.11797 0.06209,-0.11797 v 0 q 0.180063,-0.60849 0.391171,-1.15489 0.217318,-0.5464 0.33529,-1.21077 v 0 q 0.366334,-1.70128 0.515354,-3.48949 0.15523,-1.78822 0.18006,-3.54538 0.031,-1.75717 0.12418,-3.54538 0.0931,-1.78821 0.39118,-3.55159 v 0 q 0.49051,-0.48431 0.91273,-1.03071 0.42222,-0.54639 1.0928,-0.96861 v 0 q 1.21076,0.0621 2.42153,0.36633 1.21698,0.30425 2.30357,0.96862 v 0 q 0.73267,2.60781 1.00587,5.21562 0.26699,2.60781 0.93757,5.21562 v 0 0.18006 q 0,0.30424 0.33529,0.2732 0.32908,-0.031 0.51535,0.21111 v 0 q -0.12418,0.18006 -0.15523,0.42221 -0.031,0.24837 -0.031,0.49052 v 0 1.03071 q 0.12418,0.4843 0.30424,1.0307 0.18006,0.54019 0.78855,0.66437 v 0 q 0.30425,1.94344 0.91274,3.57643 0.60228,1.63919 1.39083,3.1542 0.78855,1.51502 1.70128,2.99898 0.90653,1.49018 1.87514,3.12317 v 0 q 1.52122,1.15488 2.60781,2.63885 1.0928,1.48397 2.21664,2.84996 1.11763,1.366 2.54572,2.3967 1.42187,1.03071 3.72544,1.27286 v 0 q 0.30424,-0.24215 0.42842,-0.66437 v 0 l 0.30425,-0.85064 q 0.18006,-0.42843 0.39117,-0.75751 0.21111,-0.33529 0.63953,-0.51535 v 0 q 0.11798,-1.70128 0.2732,-3.45845 0.14902,-1.75717 0.75751,-3.33427 v 0 q -0.30424,-0.5464 -0.30424,-1.33495 v 0 q 0,-0.60849 0.0931,-1.14868 0.0869,-0.5464 0.0869,-1.0928 v 0 q 0,-1.15488 -0.48431,-1.88134 v 0 q 0,-0.42222 0.0621,-0.88169 0.0621,-0.45326 0.36013,-0.87548 v 0 q -0.48431,-1.21077 -0.75751,-2.54572 -0.2732,-1.33495 -0.2732,-2.73199 v 0 q 0,-0.78855 0.18627,-1.63298 v 0 q -0.36633,-0.91274 -0.4843,-2.12351 v 0 l -0.24216,-2.48983 q -0.12418,-1.27286 -0.36633,-2.35945 -0.24216,-1.0928 -0.91274,-1.76338 v 0 q 0.36634,-0.54639 0.36634,-1.27285 v 0 q 0,-1.21077 -0.36634,-2.30357 -0.36012,-1.0928 -0.36012,-2.30356 v 0 q 0,-0.85065 0.36012,-1.69508 v 0 q 1.33495,0.0559 2.63886,0.2732 1.3039,0.21111 2.57676,0.21111 v 0 q 0.36634,0.4843 0.85065,0.78855 0.4843,0.30424 1.0307,0.57123 0.5464,0.2732 1.06175,0.57745 0.51535,0.30424 0.8196,0.85064 z m 46.8061,9.94693 v 0 q 0,0.60228 -0.42222,0.78234 -0.42221,0.18627 -0.42221,0.73267 v 0 q 0,0.18006 0.11797,0.30425 0.12418,0.11797 0.12418,0.36012 v 0 0.24216 q -0.72646,3.52054 -2.09246,6.12214 -1.36599,2.60781 -3.18525,4.7934 -1.81926,2.18559 -4.09178,4.12282 -2.27252,1.94344 -4.88032,4.06073 v 0 q -0.72647,0.60849 -1.48397,1.21698 -0.75751,0.60228 -1.42809,1.27286 v 0 l -1.33495,1.27286 q -0.0559,0.0621 -0.66437,0.2732 -0.60849,0.21111 -0.72646,0.2732 v 0 q -0.85064,0.36012 -1.78821,0.84443 -0.94378,0.49052 -1.60815,1.21698 v 0 q -1.21698,0 -2.06141,0.36013 -0.85064,0.36633 -1.88135,0.97482 v 0 q -0.30424,0 -0.51535,-0.12418 -0.21111,-0.11797 -0.45326,-0.24216 -0.24216,-0.12418 -0.51536,-0.14901 -0.2732,-0.031 -0.70162,0.0869 v 0 q -0.72646,-1.21077 -1.5709,-2.06141 -0.85064,-0.85064 -2.30977,-1.0307 v 0 q -0.18006,-1.03071 -0.84443,-1.60815 -0.67058,-0.57124 -1.33495,-1.24182 v 0 q -0.12419,-0.36012 -0.18007,-0.85064 -0.0621,-0.48431 -0.24215,-0.90652 -0.18627,-0.42222 -0.49052,-0.72646 -0.29803,-0.30425 -0.84443,-0.30425 v 0 q -0.0621,-0.36633 0.30424,-0.36633 0.36013,0 0.36013,-0.29804 v 0 q 0,-0.36633 -0.11797,-0.73267 -0.12418,-0.36013 -0.12418,-0.78855 v 0 q 0,-0.29804 0.0621,-0.54019 0.0621,-0.24836 0.18006,-0.5464 v 0 q -0.18006,-1.63919 -0.18006,-3.33427 v 0 q 0,-3.27839 0.45326,-6.46364 0.45326,-3.17904 0.45326,-6.45743 v 0 q 0,-1.45292 -0.14902,-2.90585 -0.15522,-1.45913 -0.57744,-2.84996 v 0 q -1.39083,0.30424 -2.78787,0.69542 -1.39704,0.39117 -2.60781,1.06175 v 0 q -0.66437,-0.42222 -1.42809,-0.51536 -0.7575,-0.0931 -1.48397,-0.33529 v 0 q -0.42221,-0.85064 -0.42221,-1.75716 v 0 q 0,-0.85064 0.30424,-1.6392 v 0 l 0.60228,-1.5771 q 1.45913,-0.29804 2.88101,-0.90652 1.42809,-0.60849 2.88101,-1.0928 v 0 q 0.48431,-0.11797 1.24181,-0.30424 0.75751,-0.18007 1.06175,-0.30425 v 0 q 0.42843,-0.18006 0.57745,-0.69541 0.14901,-0.51536 0.45326,-0.87548 v 0 h 1.0307 q 0.36634,0 0.78856,0.0248 0.42842,0.031 0.78855,0.21732 v 0 q 2.18559,-0.5464 4.36497,-0.70162 2.1856,-0.14902 4.48916,-0.45327 v 0 q 0.24215,0 0.72646,-0.0621 v 0 l 1.03071,-0.18006 q 0.5464,-0.12418 0.99966,-0.21111 0.45326,-0.0931 0.63953,-0.0931 v 0 q 0.18007,0 0.18007,0.18007 v 0 h 1.0307 q 2.60781,0 5.09144,0.67058 v 0 l 4.97346,1.33495 q 1.03071,0.84443 2.06141,1.63298 1.03071,0.78855 2.30357,1.39704 v 0 q 0.30424,0.96862 0.94378,1.54606 0.63332,0.57745 1.42187,1.24182 v 0 q 0.30425,0.78855 0.8196,1.67024 0.51535,0.87547 0.99966,1.78821 0.48431,0.90652 0.85064,1.78821 0.36013,0.88169 0.36013,1.67024 z m -5.63784,0.90652 v 0 q -0.66437,-1.39704 -1.27285,-2.91205 -0.60228,-1.51501 -1.51502,-2.72578 v 0 q -1.09279,-0.30425 -2.21043,-0.75751 -1.12384,-0.45326 -1.54605,-1.60815 v 0 q -0.12419,0.0621 -0.42843,0.0621 v 0 q -0.5464,0 -0.96862,-0.42842 -0.42221,-0.42222 -0.96861,-0.5464 v 0 q -0.48431,-0.0559 -1.3039,-0.18006 -0.8196,-0.11798 -1.73234,-0.18007 -0.90652,-0.0621 -1.78821,-0.12418 -0.87548,-0.0559 -1.35978,-0.0559 v 0 q -0.49052,0 -1.00587,0.0248 -0.51536,0.031 -1.05554,0.0931 v 0 q -0.49052,0 -0.60849,0.15523 -0.12418,0.14902 -0.48431,0.26699 v 0 q -0.30425,-0.11797 -0.67058,-0.11797 v 0 h -0.72646 q -1.27286,0 -2.51467,0.39117 -1.24182,0.39738 -2.4588,1.06175 v 0 0.24215 q 0,0.49052 0.42843,0.5464 0.42222,0.0621 0.48431,0.48431 v 0 q -0.30425,0 -0.48431,0.031 -0.18627,0.031 -0.18627,0.45947 v 0 q 0,0.60228 0.15522,1.32875 0.14902,0.73267 0.14902,1.45913 v 0 q 0,0.5464 -0.11797,1.27286 -0.12418,0.72646 -0.60849,1.14867 v 0 q 0.60849,0.5464 0.60849,1.45914 v 0 q 0,0.60228 -0.24215,1.27285 -0.24216,0.66438 -0.60849,1.14868 v 0 q -0.11798,2.55193 -0.48431,5.15353 -0.36634,2.60781 -0.36634,5.15974 v 0 q 0,1.27286 0.15523,2.48362 0.14902,1.21077 0.51535,2.42775 v 0 q 0.66437,0.66437 1.42188,1.03071 0.75751,0.36012 1.60815,0.72646 v 0 0.18006 q 0,0.18006 -0.24215,0.36634 -0.24216,0.18006 -0.24216,0.4843 v 0 q 0,0.24216 0.24216,0.24216 v 0 q 2.54571,-0.72646 4.78719,-1.75717 2.24768,-1.03071 4.18491,-2.79408 v 0 q 0.18627,-0.18006 0.36634,-0.18006 v 0 q 0.11797,0 0.33529,0.0621 0.21111,0.0621 0.39117,0.11797 v 0 l -0.0621,-0.24215 q 0,-0.36013 0.21111,-0.66438 0.21731,-0.30424 0.51535,-0.54639 v 0 l 0.60849,-0.5464 q 0.30424,-0.30425 0.4843,-0.60849 v 0 q 0.48431,-0.11797 0.70163,-0.48431 0.21111,-0.36012 0.75751,-0.36012 v 0 q 0.11797,-0.67058 0.66437,-0.99966 0.54639,-0.33529 0.66437,-1.00587 v 0 q 1.21697,-0.66437 2.15454,-1.63299 0.94378,-0.96861 1.75717,-2.06141 0.8196,-1.0928 1.54606,-2.27252 0.73267,-1.18593 1.52122,-2.27873 v 0 -0.24215 q 0,-0.96862 0.32908,-1.5771 0.33529,-0.60228 0.51535,-1.45293 z m 40.38496,21.34678 v 0 q 0,1.03071 -0.51535,1.78822 -0.51536,0.7575 -0.39738,1.84409 v 0 q -0.84444,0.49052 -1.39084,1.27907 -0.54639,0.78234 -1.0307,1.63298 v 0 q -4.00485,2.60781 -8.58094,4.21596 -4.57608,1.60815 -9.43157,1.60815 v 0 q -0.29804,0 -0.54019,-0.2732 -0.24216,-0.2732 -0.49052,-0.57744 -0.24215,-0.30425 -0.51535,-0.57745 -0.26699,-0.27319 -0.63333,-0.27319 v 0 q -0.42221,0 -0.67058,0.18627 v 0 q 0,-0.12418 0.0311,-0.21732 0.031,-0.0869 0.031,-0.21111 v 0 q 0,-0.72646 -0.18006,-1.48397 -0.18006,-0.7575 -0.18006,-1.48396 v 0 q 0,-0.85065 0.29803,-1.39704 v 0 h 0.73267 q 0.60228,0 1.17973,-0.0931 0.57744,-0.0869 1.24181,-0.0869 v 0 q 0.67058,0 1.21698,0.36013 v 0 q 3.33427,-0.11797 6.33325,-1.24182 3.00519,-1.11763 6.09731,-2.21042 v 0 q 0.4843,-0.67058 0.57123,-1.49018 0.0931,-0.81339 0.45947,-1.54606 v 0 q -1.5771,-1.32874 -3.18525,-2.08625 -1.60815,-0.76371 -3.73165,-0.51535 v 0 q -1.27286,-0.78855 -2.69474,-0.91273 -1.42808,-0.11797 -2.88101,-0.36634 v 0 q -0.36633,-0.0559 -0.7575,-0.14901 -0.39738,-0.0931 -0.8196,-0.0931 v 0 q -0.30425,0 -0.57744,0.15523 -0.2732,0.14901 -0.14902,0.45326 v 0 q -0.30425,-0.48431 -0.8196,-0.57745 -0.51535,-0.0869 -0.88169,-0.45326 v 0 q -1.93723,-0.11797 -3.39636,-0.69541 -1.45292,-0.57745 -3.21009,-1.30391 v 0 q -0.4843,-0.18627 -0.93757,-0.2732 -0.45947,-0.0931 -0.88168,-0.33529 v 0 q -1.0928,-0.54639 -1.75717,-1.45292 -0.67058,-0.91273 -1.06175,-2.03036 -0.39738,-1.12385 -0.57745,-2.33461 -0.18006,-1.21698 -0.36633,-2.24769 v 0 q 0.5464,-0.96861 1.00587,-1.99932 0.45326,-1.0307 0.75751,-2.18559 v 0 q 0.36012,-0.18006 0.72646,-0.29804 0.36012,-0.12418 0.78855,-0.30424 v 0 q -0.0621,-0.12418 -0.0621,-0.30425 v 0 q 0,-0.30424 0.21111,-0.60848 0.2111,-0.30425 0.0931,-0.60228 v 0 q 1.33495,-1.21698 2.57677,-2.52089 1.24181,-1.3039 2.15454,-2.8748 v 0 q 0.90653,-0.30424 1.45293,-0.91273 0.54639,-0.60849 1.09279,-1.24181 0.5464,-0.63954 1.21077,-1.15489 0.66437,-0.51535 1.69508,-0.63332 v 0 q 0.24836,-0.42843 0.67058,-0.70163 0.42221,-0.26699 0.85064,-0.51535 0.42221,-0.24216 0.78855,-0.54019 0.36013,-0.30425 0.54019,-0.85064 v 0 q 0.97482,0 1.79442,-0.36634 0.81339,-0.36012 1.60194,-0.78855 0.78855,-0.42222 1.60815,-0.78855 0.8196,-0.36013 1.78821,-0.36013 v 0 q 0.24215,0 0.48431,0.031 0.24215,0.031 0.5464,0.0869 v 0 q 0.42842,0.42843 0.57744,0.99966 0.14902,0.57745 0.21111,1.24803 0.0621,0.66437 0.0931,1.32874 0.031,0.67058 0.21111,1.21698 v 0 q -0.5464,1.0307 -1.17972,2.06141 -0.63953,1.0307 -1.67024,1.5771 v 0 h -0.12418 q -0.42222,0.0559 -0.78234,-0.18627 -0.36634,-0.24216 -0.85065,-0.24216 v 0 q -0.30424,0 -0.4843,0.18628 v 0 l -0.30425,0.29803 q -0.12418,0.12418 -0.33529,0.24836 -0.21111,0.11798 -0.57744,0 v 0 q -0.84444,0.29804 -0.66437,1.03071 v 0 q -1.15489,0.11797 -1.94344,0.69542 -0.78234,0.57744 -1.45292,1.27286 -0.66437,0.69541 -1.33495,1.27285 -0.66437,0.57745 -1.57711,0.63954 v 0 q -1.0307,1.81926 -2.51467,3.21009 -1.48397,1.39704 -2.45258,3.15421 v 0 q 0.18006,0.4843 0.24215,1.0307 0.0559,0.5464 0.18006,1.14868 v 0 q 0.5464,0.73267 1.30391,1.27907 0.75751,0.54019 1.48397,1.08658 v 0 h 0.18006 q 1.21698,0 2.24768,0.45948 1.03071,0.45326 2.17939,0.45326 v 0 q 0.60848,0 1.0307,-0.24216 v 0 q 1.57711,0.36013 3.12316,0.60228 1.54606,0.24216 3.12317,0.36634 v 0 q 0.78855,0.12418 1.60814,0.12418 0.8196,0 1.54606,0.18006 v 0 q 0.66437,0.18007 1.33495,0.45326 0.66437,0.2732 1.33495,0.57745 v 0 q 1.39084,0.60849 2.63265,1.33495 1.24802,0.72646 2.21664,1.72612 0.96861,0.99966 1.51501,2.30356 0.5464,1.30391 0.5464,3.00519 z"
     style="stroke-width:0.620907;fill:#1d398f;fill-opacity:1" />
  <path
     id="minds-first-letter-text"
     text="M"
     text-anchor="middle"
     font-size="100px"
     letter-spacing="0"
     side="left"
     offset="0.5"
     dx="0"
     dy="0"
     space="preserve"
     href=""
     font-family="'Rock Salt'"
     font-scale="contain"
     x="0"
     y="0"
     fill="#1d398f"
     font-weight="400"
     font-style="normal"
     data-fl-textpath=""
     d="m 72.773817,174.54239 v 0 q 0,0.65509 -0.476424,1.16873 -0.46898,0.5062 -1.124064,0.83375 -0.655083,0.32754 -1.347387,0.61786 -0.692304,0.29032 -1.198505,0.5062 v 0 q -0.796522,-0.43176 -1.637709,-0.58064 -0.833743,-0.14144 -1.488826,-0.72953 v 0 h -0.506201 q -1.161284,0 -1.816368,0.29777 v 0 q -1.019845,-0.36476 -1.674929,-1.05707 -0.655083,-0.6923 -1.235726,-1.4516 -0.580642,-0.76675 -1.161284,-1.49627 -0.580642,-0.72208 -1.459049,-1.23573 v 0 q -1.302723,-3.63274 -2.322569,-7.33991 -1.019846,-3.70718 -1.526047,-7.56324 v 0 q 0.141439,-0.35732 0.21588,-0.79652 0.07444,-0.4392 0.07444,-0.79652 v 0 q 0,-0.29032 -0.111662,-0.61787 -0.104217,-0.32754 -0.46898,-0.40198 v 0 q 0.364763,-0.58064 0.46898,-1.34739 0.111662,-0.7593 0.111662,-1.41438 v 0 q 0,-1.45905 -0.290321,-2.40445 v 0 q 0.43176,-0.35732 0.364763,-1.19851 -0.07444,-0.83374 0.364762,-1.1985 v 0 q -0.364762,-1.23573 -0.364762,-2.39701 v 0 q 0,-1.60049 0.394539,-3.12654 0.401983,-1.52605 0.401983,-3.12653 v 0 q 0,-0.36477 -0.03722,-0.72953 -0.03722,-0.35732 -0.104218,-0.72208 v 0 q 0.357318,-1.16128 0.68486,-2.36723 0.327542,-1.19851 0.327542,-2.43423 v 0 q 0,-0.87097 -0.290321,-1.45161 v 0 q 0.945404,-3.34241 1.347387,-6.65505 0.401983,-3.30519 0.759302,-6.72205 v 0 q -0.067,-0.14144 -0.141439,-0.21588 -0.07444,-0.0744 -0.07444,-0.22332 v 0 q 0,-0.35732 0.401983,-0.58065 0.401983,-0.21588 0.327542,-0.79652 v 0 q -0.870964,0.87096 -1.421829,2.03225 -0.543422,1.16873 -1.012402,2.33001 -0.476424,1.16129 -1.019846,2.29279 -0.543421,1.12407 -1.414385,1.99503 v 0 q -0.07444,0.79652 -0.476424,1.52605 -0.401983,0.72952 -0.401983,1.60049 v 0 q -0.067,0 -0.141438,-0.0372 -0.07444,-0.0372 -0.223324,-0.0372 v 0 q -0.290321,0 -0.394539,0.36477 -0.111662,0.36476 -0.476425,0.21588 v 0 q -1.667485,3.27541 -3.669956,6.40195 -1.995027,3.12653 -5.196002,5.01734 v 0 q -0.580642,-0.22332 -1.094287,-0.22332 v 0 q -0.945405,0 -1.853589,0.54342 -0.908184,0.55087 -1.198505,0.55087 v 0 q -0.72208,0 -1.779147,-0.76675 -1.057066,-0.7593 -2.143909,-0.83374 v 0 q -1.161285,-0.80397 -1.92803,-1.63771 -0.759301,-0.83374 -2.285348,-0.98263 v 0 q -1.019846,-1.52604 -2.002471,-2.90321 -0.982626,-1.38461 -1.89081,-2.73199 -0.908183,-1.33995 -1.600488,-2.86599 -0.692304,-1.52605 -1.049622,-3.41686 v 0 q 0.067,-0.14888 0.067,-0.29032 v 0 q 0,-0.4392 -0.394539,-0.36476 -0.401983,0.0744 -0.401983,-0.43921 v 0 -0.5062 q 0,-0.58064 -0.178659,-1.05706 -0.186103,-0.46898 -0.111662,-1.04963 v 0 q -0.506201,-0.80396 -0.803966,-1.67492 -0.290321,-0.87097 -1.012401,-1.52605 v 0 -0.65509 q 0,-0.43176 -0.03722,-0.83374 -0.03722,-0.40198 -0.21588,-0.72952 -0.186103,-0.32754 -0.550866,-0.40198 v 0 q -0.067,-2.61289 -1.049622,-5.33745 -0.982625,-2.73199 -1.786591,-5.27044 v 0 q -0.580642,1.89081 -0.870963,3.8114 -0.290321,1.92802 -0.290321,3.89328 v 0 1.23572 q 0,0.58064 0.148882,1.16129 v 0 q -0.223324,0.36476 -0.617863,0.5062 -0.401983,0.14888 -0.476424,0.58808 v 0 q -0.07444,0.35732 -0.03722,0.72208 0.03722,0.36476 -0.03722,0.72953 v 0 q -0.141439,1.74192 -0.43176,3.34241 v 0 q -0.439204,2.39701 -1.019846,4.83869 -0.580642,2.43423 -0.580642,4.97267 v 0 q 0,0.14889 0.03722,0.40199 0.03722,0.2531 0.03722,0.40198 v 0 q -1.161284,1.01985 -1.235725,2.54589 -0.07444,1.52605 -0.364763,2.90321 v 0 q -0.364762,2.0397 -0.870963,4.03472 -0.5136451,2.00247 -0.8709634,4.10916 v 0 q -0.2233239,1.16129 -0.3647624,2.29279 -0.1488826,1.12407 -0.290321,2.28535 v 0 q -0.074441,0.65509 -0.4764244,1.09429 -0.3945389,0.43176 -0.5434215,1.01985 v 0 q -0.074441,0.5062 -0.037221,1.12406 0.037221,0.61786 0.037221,1.12406 v 0 q 0,0.87097 -0.1488826,1.63771 -0.1414385,0.76675 -0.8709632,1.34739 v 0 q 0.1488826,1.89081 0.6550834,3.23075 0.513645,1.34739 1.1612843,3.01487 v 0 h 1.8238128 v 0.29777 q 0,0.72208 0.2531,1.30272 0.2531,0.58064 1.049622,0.51365 v 0 q -0.067,0.29032 -0.067,0.72208 v 0 q 0,0.65508 0.253101,1.1985 0.2531,0.55087 0.394538,1.20595 v 0 q -1.451605,2.39701 -3.1190905,3.5583 -1.6749293,1.16128 -4.5855842,1.16128 v 0 H 3.491297 Q 3.1265346,170.25458 2.6203338,169.16773 2.1141329,168.07345 1.6377086,166.9866 1.1687284,165.89232 0.84118671,164.76825 0.51364498,163.63674 0.51364498,162.40102 v 0 q 0,-0.29032 0.0669972,-0.54342 0.0744413,-0.2531 0.0744413,-0.54342 v 0 q 0,-0.36477 -0.29032107,-0.43921 -0.29032108,-0.067 -0.29032108,-0.72208 v 0 q 0,-0.51364 -0.03722065,-0.9454 Q 0,158.76828 0,158.26208 v 0 q 0,-2.39701 0.36476238,-4.76424 0.36476238,-2.35979 0.50620085,-4.76424 v 0 q 0.36476237,-0.35732 0.36476237,-0.93797 0,-0.58808 0.3647624,-0.9454 v 0 -0.51364 q 0,-1.31017 0.290321,-2.61289 0.2903211,-1.31017 0.6550835,-2.5459 0.3647624,-1.23572 0.6550834,-2.54589 0.2903211,-1.31017 0.2903211,-2.61289 v 0 -1.16873 q 0,-0.5062 0.4764244,-0.46898 0.4689802,0.0372 0.5434215,-0.54342 v 0 q 0.1414384,-1.01984 0.1786591,-2.00247 0.037221,-0.98263 0.1861032,-2.00247 v 0 q 0.3573183,-1.95781 0.796522,-3.96028 0.4392037,-1.99503 0.4392037,-4.03472 v 0 -0.21588 q 0,-0.21588 0.3573182,-0.90818 0.3647624,-0.6923 0.3647624,-1.34739 v 0 q 0,-0.5062 -0.2158798,-0.9454 v 0 q 0.074441,0.0744 0.2903211,0.0744 v 0 q 0.2903211,0 0.401983,-0.17866 0.1042178,-0.1861 0.3275417,-0.32754 v 0 q -0.2233239,-0.29028 -0.2233239,-0.5806 v 0 q 0,-0.36477 0.111662,-0.69231 0.1116619,-0.32754 0.1116619,-0.6923 v 0 q 0,-0.5062 -0.5136449,-0.72953 v 0 q 0.8784073,-1.60048 1.2729462,-3.41685 0.4019831,-1.81637 0.5806422,-3.70718 0.1861032,-1.89081 0.3275417,-3.81139 0.1488826,-1.92803 0.6550835,-3.6774 v 0 Q 9.8188077,100.24998 9.781587,99.736334 9.744366,99.230134 9.744366,98.798374 v 0 q 0,-0.29776 -0.074441,-0.61786 -0.074441,-0.32754 0.074441,-0.62531 v 0 q 0,-0.14144 0.074441,-0.35732 v 0 l 0.1414385,-0.4392 q 0.1488835,-0.5062 0.1861045,-1.05707 0.02978,-0.54342 0.104218,-1.12406 v 0 q 0.148882,-1.67493 0.111662,-3.41686 -0.03722,-1.74192 0.111662,-3.491293 v 0 Q 10.250568,87.37908 10.034688,87.200421 9.8188077,87.014318 9.7443664,86.657 v 0 q 0.5806426,-1.019846 1.2729466,-1.92803 0.692304,-0.908184 1.853588,-1.421829 v 0 q 0.21588,0.803966 1.161285,0.803966 v 0 q 0.439203,0 1.094287,-0.21588 0.647639,-0.223324 0.870963,-0.588086 v 0 q 1.235726,0.439204 2.508672,0.401983 1.272946,-0.03722 2.359789,0.617863 v 0 q 0.21588,1.094287 0.580642,2.255571 0.364763,1.161285 1.019846,2.106689 v 0 q 0.141439,0.945407 0.290321,2.292787 0.141439,1.33995 0.290321,2.76178 0.148883,1.41438 0.439204,2.68733 0.290321,1.27294 0.796522,2.00247 v 0 q 0.07444,1.30272 0.439204,2.612886 0.357318,1.31017 0.796522,2.50867 0.439203,1.19851 0.766745,2.21835 0.327542,1.01985 0.327542,1.67493 v 0 q 0,0.58064 -0.186103,0.7593 -0.17866,0.18611 -0.327542,0.61786 v 0 q 0.290321,0.80397 0.803966,1.34739 0.506201,0.54342 1.086843,1.27295 v 0 q 1.094287,4.13893 2.836214,8.06943 1.741926,3.92306 4.213377,7.5558 v 0 q 0.655084,0.0744 1.057067,0.36476 0.401983,0.29032 1.272946,0.14888 v 0 0.5062 q 0,0.72953 0.290321,1.01985 v 0 q 0.655084,0.43176 1.526047,0.43176 v 0 q 0.945405,0 1.488826,-0.54342 0.543422,-0.54343 1.057067,-1.27295 0.5062,-0.72208 1.012401,-1.37716 0.513645,-0.65509 1.384608,-0.87841 v 0 -0.14144 q 0,-0.58064 0.253101,-0.98263 0.2531,-0.40198 0.2531,-0.90818 v 0 q 0.803966,-0.58064 1.235726,-1.4516 0.439203,-0.87097 0.803966,-1.7866 0.364762,-0.90818 0.833742,-1.7047 0.476425,-0.79652 1.272947,-1.31017 v 0 q 1.019845,-3.12653 2.471451,-5.81386 1.451605,-2.68733 3.052093,-5.44911 v 0 q 0,-0.22332 -0.07444,-0.47642 -0.067,-0.2531 -0.067,-0.46898 v 0 q 0,-0.0744 0.141438,-0.65508 v 0 q 0.364763,-0.72953 0.655084,-1.38461 0.290321,-0.65509 0.5062,-1.45161 v 0 q 0.729525,-2.255566 1.347388,-4.436696 0.617863,-2.18113 1.853588,-4.14638 v 0 -1.81637 q 1.310167,-2.612887 1.853589,-5.523541 0.543421,-2.903211 1.347387,-5.672428 v 0 q 0.141439,-0.796522 0.543422,-1.630264 0.401983,-0.841187 0.982625,-1.198505 v 0 q -0.21588,-0.439204 -0.21588,-0.878408 v 0 q 0,-0.580642 0.178659,-1.049622 0.17866,-0.476424 0.327542,-0.982625 v 0 q -0.21588,-0.506201 -0.21588,-1.310167 v 0 q 0,-1.019846 0.580643,-1.92803 0.580642,-0.908184 1.741926,-1.198505 v 0 q 0.729525,0.223324 1.235726,0.729525 0.513645,0.506201 0.982625,1.057067 0.476424,0.543421 1.019846,0.870963 0.543421,0.327542 1.414384,0.178659 v 0 q 0.580643,1.094287 0.803967,2.292792 0.215879,1.198505 0.215879,2.434231 v 0 q 0,1.667485 -0.290321,3.454076 -0.290321,1.779147 -0.21588,3.595515 v 0 q -0.588086,1.161284 -0.841186,2.508672 -0.253101,1.347387 -0.46898,2.724555 -0.223324,1.3846 -0.513645,2.69477 -0.290322,1.30272 -1.012402,2.47145 v 0 q -0.223324,3.26798 -0.476425,6.394506 -0.2531,3.12653 -0.759301,6.25307 v 0 l -0.655083,4.13894 q -0.148883,0.51364 -0.290321,1.1315 -0.148883,0.61787 -0.148883,1.04963 v 0 q 0,0.4392 0.07444,0.91562 0.07444,0.46898 0.439204,0.68486 v 0 q -0.513645,0.72953 -0.729525,1.74937 -0.215879,1.0124 -0.439203,2.18113 v 0 l -0.364763,2.24813 q -0.141438,1.09429 -0.580642,1.96525 v 0 0.79652 q 0,2.91066 -1.012402,5.96275 v 0 0.36476 q 0,0.36477 -0.03722,0.61787 -0.03722,0.2531 -0.03722,0.61786 v 0 q 0,0.5062 0.290321,0.80397 v 0 q -0.580642,1.88336 -1.094287,3.88583 -0.506201,2.00247 -0.722081,4.10916 v 0 q -0.223324,2.83621 -0.07444,5.77665 0.148883,2.94787 -0.729525,5.70964 v 0 q 0.439204,1.30273 0.580642,2.83622 v 0 l 0.297766,3.05209 q 0.141438,1.52605 0.46898,2.94043 0.327542,1.42183 1.272946,2.36724 v 0 q 0.07444,0.14143 0.07444,0.43176 v 0 q 0,0.58064 -0.290321,0.87096 v 0 q 0.141439,0.72952 0.506201,1.23572 0.364763,0.51365 0.729525,0.98263 0.357318,0.47642 0.617863,1.05707 0.2531,0.58064 0.2531,1.4516 v 0 q 0.580642,0.80397 1.816368,1.23573 1.235726,0.4392 2.508672,0.87096 1.272946,0.4392 2.218351,1.13151 0.945404,0.6923 0.945404,1.99502 z"
     style="stroke-width:0.744413;fill:#1d398f;fill-opacity:1" />
</svg>
