<?xml version="1.0" encoding="UTF-8" standalone="no"?>
<svg
   width="83.897072"
   height="99.411903"
   viewBox="0 0 83.897072 99.411903"
   data-svgdocument=""
   id="_QPbOH8Bvnff-nxIn-ryGS"
   class="fl-svgdocument"
   x="0"
   y="0"
   style="overflow:hidden"
   version="1.1"
   sodipodi:docname="nurture.svg"
   inkscape:version="1.1 (c68e22c387, 2021-05-23)"
   xmlns:inkscape="http://www.inkscape.org/namespaces/inkscape"
   xmlns:sodipodi="http://sodipodi.sourceforge.net/DTD/sodipodi-0.dtd"
   xmlns="http://www.w3.org/2000/svg"
   xmlns:svg="http://www.w3.org/2000/svg">
  <sodipodi:namedview
     id="namedview24"
     pagecolor="#ffffff"
     bordercolor="#666666"
     borderopacity="1.0"
     inkscape:pageshadow="2"
     inkscape:pageopacity="0.0"
     inkscape:pagecheckerboard="0"
     showgrid="false"
     inkscape:zoom="1.2734375"
     inkscape:cx="-89.91411"
     inkscape:cy="-22.380368"
     inkscape:window-width="1600"
     inkscape:window-height="837"
     inkscape:window-x="-8"
     inkscape:window-y="-8"
     inkscape:window-maximized="1"
     inkscape:current-layer="_QPbOH8Bvnff-nxIn-ryGS" />
  <defs
     id="_-Pf6sSTUS_QCObCL12lGl"
     transform="matrix(1.2307695150375366, 0, 0, 1.2307695150375366, -59.07701110839844, -67.29283142089844)" />
  <g
     id="nurture-icon-circle"
     transform="rotate(79.799157,405.73268,-55.147866)">
    <path
       id="_ehe1g4nge_125"
       d="m 211.4,172.1 c 2.8,-3.3 5.9,-7.7 3.9,-11.6 11.2,-6.6 21.1,-15.3 29.2,-25.5 -4.4,3.5 -9.2,6.3 -14.3,8.5 38.3,-37.8 95.9,-55 148.8,-44.4 -42.6,-1.6 -86,9.7 -121.2,33.7 -35.3,23.9 -62.1,60.6 -72.4,102 15.6,-45.3 48.5,-84.4 90.5,-107.4 -3.3,3.4 -6.6,6.9 -10,10.3 16,-6.6 30.5,-16.5 46.4,-23.4 46.7,-20.4 102.9,-12.7 146.4,13.9 43.5,26.6 74.8,70.2 93,117.8 8,20.8 13.6,43.9 6.5,65 -1.6,-27.5 -10.6,-54 -22.3,-78.9 -19.4,-41.5 -47.2,-80.4 -86.3,-104.2 -39.1,-23.7 -90.8,-30 -130.8,-7.7 20.5,-2.2 41.2,-3.4 61.5,-0.5 38.2,5.4 73.5,25.4 100.3,53.1 26.7,27.8 45.2,62.9 56.1,99.8 10.6,36.1 14.1,75.9 0.5,111.1 39.7,-64.2 33.1,-153.6 -15.4,-211.3 -20.3,-24.1 -46.6,-42.6 -75,-56 C 414,101 378,92.1 341.8,93.1 c -36.2,1 -72.4,12.3 -101.3,34.1 24,-21.2 55.3,-33.2 87.1,-36.5 31.9,-3.2 64.2,2 94.5,12.2 63,21.4 120.4,68.6 138.9,132.5 4.7,16.4 6.8,33.4 8.7,50.4 1.6,14.7 2.9,29.4 2.6,44.2 -1.4,73.1 -48.1,144.5 -116.2,171.2 -19.3,7.5 -39.7,11.6 -60.2,14.5 -32.8,4.6 -66.8,6 -98.4,-3.8 -16.3,-5.1 -31.5,-13 -45.6,-22.7 -58.4,-40 -95.3,-109.7 -95.3,-180.5 0,-12.6 1.1,-25.1 2.8,-37.5 1.5,-11.4 3.5,-22.7 6.8,-33.7 5,-16.2 12.8,-31.5 23.1,-45 1.8,-1.1 3.6,-2.3 5.3,-3.5 -23.7,50.1 -37.8,109.3 -16.1,160.4 -7.8,-33.3 -8.3,-68.2 -1.4,-101.6 2.2,-0.8 4.4,-1.7 6.5,-2.6 0.1,-2.2 0.2,-4.3 0.3,-6.5 -1.6,1.8 -3.1,3.6 -4.7,5.3 3.7,-26.5 15.1,-51.6 32.2,-71.9 m 16.1,-1.3 c 6.2,-4.2 12.4,-8.4 18.6,-12.6 -3.9,7.9 -11.1,14.1 -19.5,16.9 -39,40.3 -51,100.4 -46.4,156.2 1.8,21.1 6.1,43 19.7,59.2 -9.5,-39 -10,-80.2 -1.3,-119.4 1.7,-0.1 2.3,2.1 2.3,3.8 0.7,26.3 -3.8,52.6 -1.9,78.9 1.9,26.2 11.7,53.9 33.7,68.2 17.2,11.2 34.3,22.4 51.4,33.6 -40,-12.8 -74.9,-40.6 -96.5,-76.6 5.8,15.7 13.9,30.6 23.9,44 -1.3,-3.6 -2.5,-7.3 -3.8,-11 10.1,9.5 20.3,18.8 30.4,28.2 7.4,6.9 19,13.9 26.6,7.3 1.2,2.5 -1,5.6 -3.7,6.3 -2.7,0.8 -5.6,0 -8.3,-0.8 12.1,8.7 24.7,16.7 37.7,24 -1.9,0.3 -2.5,3.1 -1.3,4.7 1.2,1.6 3.2,2 5.1,2.5 47.7,10.3 98.5,6.5 144.1,-11.1 -39.2,9.2 -81,11.3 -119,-2 -32.1,-11.2 -60.2,-33.3 -78.6,-61.8 -5.9,-9.2 -10.8,-18.9 -15.3,-28.8 -14.5,-32.6 -23.7,-68.2 -21.1,-103.8 2.6,-35.6 18.2,-71.1 46.2,-93.1 2.9,-2.3 6.5,-4.5 10.1,-3.6 -27.6,20 -44,53.1 -48.3,86.9 -4.3,33.9 2.7,68.3 15,100.1 8.8,22.5 20.5,44.3 36.6,62.3 6.9,7.7 14.7,14.7 23.6,20 16.3,9.8 35.6,13.5 54.5,15.9 25.7,3.3 51.6,4.7 77.5,4.1 -32.7,7.7 -66.9,2.2 -100,-3.3 56.2,21.1 122.1,8.2 170.4,-27.3 9.6,-7.1 18.7,-15 26,-24.5 11.2,-14.6 17.9,-32.4 21.3,-50.5 8.8,-47.2 -3.8,-96.5 -26.7,-138.8 -15.9,-29.4 -37,-56.6 -64.8,-75.1 -26,-17.2 -56.9,-26.3 -88,-28 -47.8,-2.8 -98.4,13 -130.2,49 m 93.9,324.8 c 21.5,5.4 43.2,9.3 65.2,11.9 -27,6.2 -54.8,-3.3 -80.9,-12.6 -15.4,-5.4 -31,-11 -45.3,-19 -34.6,-19.2 -60.6,-52.1 -75.7,-88.7 -2.6,-6.5 -5,-13 -7,-19.6 -0.2,-0.8 -0.8,1.1 0,0.7 0.8,-0.3 0.7,-1.5 0.3,-2.3 -9,-21.7 -14.5,-45 -16.2,-68.4 -1.7,35.4 7.1,71 23.1,102.7 17.4,34.5 43.5,64.8 76.3,85.3 32.7,20.5 72.1,30.9 110.5,27.2 54,-5.3 101.4,-36.8 144.9,-69.1 -19.2,25.4 -48.3,41.1 -76.6,55.9 48.9,-13.7 88.1,-52.4 111.7,-97.4 -11.7,20 -30,35.7 -49.9,47.5 -20,11.8 -41.9,20 -63.8,27.9 -9.6,3.5 -19.3,6.9 -29.2,9.7 -28.3,8.1 -58.1,10.9 -87.4,8.3 m 200,-67.6 c 5,-4.7 9.9,-9.5 13.9,-14.9 6.3,-8.7 10.5,-18.8 14.5,-28.8 5.4,-13.6 10.9,-27.3 12.3,-41.9 -2.6,2.3 -3.5,5.7 -4.5,9 -13.3,46.1 -46.2,86.3 -88.9,108.3 20.1,-4.5 37.4,-17.6 52.7,-31.7 M 277,477 c 2.1,0.5 4.7,1.4 4.8,3.5 0.8,-1.4 3.2,-1.4 4.1,0 0.4,-0.1 0.1,-0.8 -0.4,-1 -3,-1.6 -6,-3.2 -8.9,-4.8 -12.1,-6.5 -23.2,-14.6 -33.1,-24 -1.2,2.6 -0.3,5.9 2,7.5 4.4,3.2 8.8,6.4 13.2,9.6 5.3,4.4 11.6,7.6 18.3,9.2 M 565.8,325.8 c -0.4,7.4 -0.8,14.9 -1.3,22.3 -0.1,1 -0.1,2 -0.1,3 -0.1,1.8 -0.2,3.6 -0.4,5.3 -0.1,2.2 -0.2,4.2 -0.2,6.4 4.2,-17 5.7,-34.8 4.4,-52.2 -0.5,-0.2 -1,-0.5 -1.4,-0.8 -0.3,5.3 -0.7,10.6 -1,16 M 177.1,216.2 c -0.7,1.3 -1.3,2.6 -1.9,3.9 0.7,0.9 2,-0.2 2.3,-1.3 0.3,-1 0.6,-2.4 1.7,-2.5 -0.5,-0.5 -1,-1 -1.5,-1.5 -0.2,0.4 -0.4,1 -0.2,1.4 m 72.3,-83 c 1,-0.8 2,-1.6 3,-2.5 -1.7,-0.7 -3.9,0.2 -4.6,2 0.5,0.2 1,0.4 1.6,0.5 m 3.1,-4.7 c 2.2,0.5 4.7,-0.1 6.5,-1.6 -2.3,-0.1 -4.6,0.4 -6.5,1.6 M 173.3,230 c -0.1,-0.5 -0.2,-1 -0.2,-1.4 -1.9,0.7 -2.8,3.3 -1.7,5 0.4,-1.3 1,-2.5 1.9,-3.6 M 162,281 c -0.5,0.7 -0.1,1.9 0.8,2 0.5,-1.6 0.4,-3.3 -0.1,-5 -1,0.5 -1.3,1.9 -0.7,2.8"
       fill="rgba(115,172,118,0.88)"
       transform="matrix(0.19573945,0,0,0.19573945,364.42444,259.7236)" />
    <path
       id="_ehe1g4nge_126"
       d="m 229.4,144 c 0.2,0.3 0.4,0.7 0.6,1 -0.9,1.3 -2.6,1.9 -4.1,1.5 0.8,-1.1 2,-1.9 3.3,-2.2"
       fill="rgba(115,172,118,0.88)"
       transform="matrix(0.19573945,0,0,0.19573945,364.42444,259.7236)" />
    <path
       id="_ehe1g4nge_127"
       d="m 221.5,150.4 c 1.4,-0.5 2.9,-0.8 4.4,-0.7 -0.3,2.2 -4,2.8 -4.9,0.7"
       fill="rgba(115,172,118,0.88)"
       transform="matrix(0.19573945,0,0,0.19573945,364.42444,259.7236)" />
    <path
       id="_ehe1g4nge_128"
       d="m 216.5,145.8 c 0.9,-1.4 2.6,-2.4 4.4,-2.2 0.4,1 0.1,2.2 -0.7,2.9 -1.4,0.2 -3.1,0.4 -4.1,-0.7"
       fill="rgba(115,172,118,0.88)"
       transform="matrix(0.19573945,0,0,0.19573945,364.42444,259.7236)" />
    <path
       id="_ehe1g4nge_129"
       d="m 496.8,152.4 c 0.6,-0.1 1.2,0.5 1.1,1.1 -0.1,0.6 -0.8,1 -1.4,0.8 -0.9,-1 -1.8,-2.1 -2.7,-3.2 1,-0.8 2.8,-0.1 3,1.1"
       fill="rgba(115,172,118,0.88)"
       transform="matrix(0.19573945,0,0,0.19573945,364.42444,259.7236)" />
    <path
       id="_ehe1g4nge_130"
       d="m 225.5,137.6 c 0.7,-0.8 2.1,-0.8 2.9,-0.1 -1.3,1.3 -3,2.2 -4.8,2.8 -0.2,-1.1 0.8,-2.4 1.9,-2.3"
       fill="rgba(115,172,118,0.88)"
       transform="matrix(0.19573945,0,0,0.19573945,364.42444,259.7236)" />
    <path
       id="_ehe1g4nge_131"
       d="m 209.1,230.6 c 0.9,-1.3 3.3,-0.8 3.6,0.8 -1.2,-0.2 -2.5,0.2 -3.3,1.1 -0.5,0.2 -1.3,-0.2 -1.3,-0.8 -0.1,-0.5 0.5,-1.1 1.1,-1"
       fill="rgba(115,172,118,0.88)"
       transform="matrix(0.19573945,0,0,0.19573945,364.42444,259.7236)" />
    <path
       id="_ehe1g4nge_132"
       d="m 266.3,166.6 c 0.5,-0.2 1.2,-0.4 1.7,-0.2 0.6,0.2 0.9,1.1 0.5,1.5 -1.9,1.2 -4.1,1.9 -6.3,2 1,-1.4 2.5,-2.5 4.1,-3.3"
       fill="rgba(115,172,118,0.88)"
       transform="matrix(0.19573945,0,0,0.19573945,364.42444,259.7236)" />
    <path
       id="_ehe1g4nge_133"
       d="m 295.8,479.1 c 1,0.7 2.1,1.4 3.1,2.1 -2.2,0.9 -4.8,0.4 -6.6,-1.2 -0.4,-0.7 0.4,-1.7 1.1,-1.7 0.9,-0.1 1.7,0.4 2.4,0.8"
       fill="rgba(115,172,118,0.88)"
       transform="matrix(0.19573945,0,0,0.19573945,364.42444,259.7236)" />
    <path
       id="_ehe1g4nge_134"
       d="m 250.1,157.4 c -0.5,-1.5 -0.1,-3.3 1.1,-4.4 0.8,-0.2 1.6,-0.8 1.9,-1.7 1.3,0.5 2.5,1 3.8,1.5 -2.2,1.5 -4.5,3 -6.8,4.6"
       fill="rgba(115,172,118,0.88)"
       transform="matrix(0.19573945,0,0,0.19573945,364.42444,259.7236)" />
    <path
       id="_ehe1g4nge_135"
       d="m 201.3,264.8 c 0,-0.6 0,-1.2 0,-1.8 1,-0.5 2.1,-0.5 3,-0.1 -1.8,1.9 -2.8,4.5 -2.6,7.1 -1.1,-0.8 -2.3,-1.7 -3.5,-2.5 1,-0.8 2.1,-1.7 3.2,-2.6"
       fill="rgba(115,172,118,0.88)"
       transform="matrix(0.19573945,0,0,0.19573945,364.42444,259.7236)" />
    <path
       id="_ehe1g4nge_136"
       d="m 194.7,176.5 c 0.4,-3.1 2.2,-5.9 4.7,-7.8 0.7,-0.5 1.8,-0.8 2.2,-0.1 -2.2,2.2 -4,4.7 -5.3,7.5 -0.3,0.5 -1.1,0.8 -1.6,0.4"
       fill="rgba(115,172,118,0.88)"
       transform="matrix(0.19573945,0,0,0.19573945,364.42444,259.7236)" />
    <path
       id="_ehe1g4nge_137"
       d="m 205,238.5 c 2,-1.5 3.9,-3 5.9,-4.5 -0.5,1.9 -1,3.6 -1.5,5.5 -0.7,0.4 -1.2,1.1 -1.9,1.5 -0.7,0.4 -1.7,0.5 -2.2,-0.2 -0.4,-0.7 0.7,-1.7 1.1,-1 -0.4,-0.4 -0.9,-0.8 -1.4,-1.3"
       fill="rgba(115,172,118,0.88)"
       transform="matrix(0.19573945,0,0,0.19573945,364.42444,259.7236)" />
    <path
       id="_ehe1g4nge_138"
       d="m 281.2,161 c -0.2,0.5 -0.4,1 -0.2,1.6 -1.6,0.3 -3.1,0.6 -4.5,0.9 -0.2,0.6 -0.4,1.2 -0.6,1.8 -1.2,-0.1 -2.4,-0.1 -3.5,-0.1 -1,-0.5 0,-1.9 1,-2.4 2,-1 4.1,-1.6 6.3,-1.9 -0.3,-0.5 -0.6,-0.9 -0.9,-1.4 1.6,-1.3 3.5,-2.2 5.6,-2.8 0.4,0.7 0.5,1.5 0.3,2.3 -0.7,0.3 -1.4,0.4 -2.1,0.2 0.1,0.5 0.2,1 0.3,1.6 -0.7,0.2 -1.2,0.3 -1.7,0.2"
       fill="rgba(115,172,118,0.88)"
       transform="matrix(0.19573945,0,0,0.19573945,364.42444,259.7236)" />
    <path
       id="_ehe1g4nge_139"
       d="m 203,170.4 c 0.8,-0.5 1.9,-0.7 2.8,-0.5 -0.4,-0.5 -0.7,-1 -1,-1.5 1,-0.2 2,-0.4 3.1,-0.5 0.4,-1 0.4,-2.2 0,-3.2 1.1,-0.1 2.3,0.1 3.3,0.5 0.3,0.4 0.4,1 0.3,1.5 -0.5,0.2 -1.1,0.4 -1.7,0.6 -0.2,1 -0.5,2 -0.7,3 -0.5,0.3 -1.3,0.4 -1.9,0.2 -0.9,5.4 -6.8,8.5 -8.9,13.5 -0.7,1.7 -1.4,3.9 -3.2,3.9 -0.5,-0.6 -0.4,-1.7 0.3,-2.2 -0.7,-0.2 -1.3,-0.4 -1.9,-0.6 -0.1,-1.1 1.7,-0.8 2.6,-0.1 0.8,-0.7 0.1,-2.3 -0.9,-2.3 1.1,-0.9 1.8,-2.3 2,-3.7 1.1,0.1 2.2,-0.3 2.9,-1.1 -0.8,0.2 -1.7,-0.4 -1.9,-1.3 1.6,0.3 3.2,-1.2 3.1,-2.8 1.2,-0.7 2.4,-1.4 3.6,-2.1 -0.5,-0.3 -1.2,-0.8 -1.9,-1.3"
       fill="rgba(115,172,118,0.88)"
       transform="matrix(0.19573945,0,0,0.19573945,364.42444,259.7236)" />
    <path
       id="_ehe1g4nge_140"
       d="m 517.1,175.7 c -2.2,-3 -4.5,-5.9 -7.3,-8.4 -3.9,-3.5 -8.9,-6.6 -9.7,-11.8 23.5,19.9 41.6,46.2 51.7,75.3 0.9,0.8 -0.1,2.6 -1.2,2.3 -8.8,-20.3 -20.1,-39.7 -33.5,-57.4"
       fill="rgba(115,172,118,0.88)"
       transform="matrix(0.19573945,0,0,0.19573945,364.42444,259.7236)" />
    <path
       id="_ehe1g4nge_141"
       d="m 253.1,159.9 c 4.1,-3.3 8.8,-6.4 10.5,-11.4 0.5,-1.4 1.9,-2.5 3.2,-3.3 20.2,-12.7 43.8,-19.7 67.6,-20.1 -11.9,3.2 -23.7,6.3 -35.6,9.5 -18.5,4.9 -32.1,20.2 -44.6,34.8 -10.8,12.7 -21.7,25.4 -32.5,38.2 -1.3,3.5 -2.5,7.1 -3.8,10.6 -0.5,1.6 -1.1,3.2 -2.5,4.2 -1.3,1 -3.5,1 -4.3,-0.5 4.8,-8.4 9.6,-16.9 14.5,-25.4 7.8,-13.2 15.6,-26.8 27.5,-36.6"
       fill="rgba(115,172,118,0.88)"
       transform="matrix(0.19573945,0,0,0.19573945,364.42444,259.7236)" />
  </g>
  <path
     id="nurture-icon-bandage"
     fill="#1d398f"
     d="m 21.109871,33.707143 v 0 L 50.5766,63.173872 c 1.575164,1.575164 4.126017,1.576061 5.698955,0.0031 L 63.88684,55.56571 c 1.572879,-1.572878 1.571757,-4.124073 -0.0031,-5.698955 L 34.416988,20.400027 c -1.575165,-1.575164 -4.126018,-1.576061 -5.698955,-0.0031 l -7.611285,7.611286 c -1.572879,1.572879 -1.571758,4.124073 0.0031,5.698954 z m -0.950508,0.950509 c -2.099536,-2.099537 -2.101249,-5.501846 -0.0031,-7.599971 l 7.611286,-7.611286 c 2.097811,-2.097811 5.499778,-2.097069 7.599971,0.0031 l 29.466728,29.466728 c 2.099537,2.099537 2.10125,5.501846 0.0031,7.599972 l -7.611286,7.611285 c -2.097811,2.097812 -5.499778,2.097069 -7.599972,-0.0031 z m 14.262653,8.559603 6.644473,6.644473 c 0.78841,0.788409 2.071624,0.788985 2.86061,0 l 6.644473,-6.644473 c 0.78841,-0.78841 0.788986,-2.071625 0,-2.86061 l -6.644473,-6.644473 c -0.78841,-0.78841 -2.071624,-0.788986 -2.86061,0 l -6.644473,6.644473 c -0.78841,0.788409 -0.788986,2.071624 0,2.86061 z m -0.475254,0.475254 c -1.052412,-1.052412 -1.049935,-2.761184 0,-3.811118 l 6.644473,-6.644474 c 1.052411,-1.052411 2.761184,-1.049934 3.811118,0 l 6.644473,6.644474 c 1.052412,1.052411 1.049934,2.761183 0,3.811118 l -6.644473,6.644473 c -1.052411,1.052411 -2.761184,1.049934 -3.811118,0 z M 26.338153,31.331358 c 0.262476,-0.262475 0.262476,-0.688032 0,-0.950508 -0.262476,-0.262476 -0.688033,-0.262476 -0.950508,0 -0.262476,0.262476 -0.262476,0.688033 0,0.950508 0.262475,0.262476 0.688032,0.262476 0.950508,0 z m 5.70305,5.70305 c 0.262475,-0.262476 0.262475,-0.688032 0,-0.950508 -0.262476,-0.262476 -0.688033,-0.262476 -0.950509,0 -0.262475,0.262476 -0.262475,0.688032 0,0.950508 0.262476,0.262476 0.688033,0.262476 0.950509,0 z m 0,-5.70305 c 0.262475,-0.262475 0.262475,-0.688032 0,-0.950508 -0.262476,-0.262476 -0.688033,-0.262476 -0.950509,0 -0.262475,0.262476 -0.262475,0.688033 0,0.950508 0.262476,0.262476 0.688033,0.262476 0.950509,0 z m 0,-5.703049 c 0.262475,-0.262476 0.262475,-0.688033 0,-0.950509 -0.262476,-0.262475 -0.688033,-0.262475 -0.950509,0 -0.262475,0.262476 -0.262475,0.688033 0,0.950509 0.262476,0.262475 0.688033,0.262475 0.950509,0 z m 5.703049,5.703049 c 0.262476,-0.262475 0.262476,-0.688032 0,-0.950508 -0.262475,-0.262476 -0.688032,-0.262476 -0.950508,0 -0.262476,0.262476 -0.262476,0.688033 0,0.950508 0.262476,0.262476 0.688033,0.262476 0.950508,0 z m 10.455592,21.861691 c 0.262475,-0.262475 0.262475,-0.688032 0,-0.950508 -0.262476,-0.262476 -0.688033,-0.262476 -0.950509,0 -0.262475,0.262476 -0.262475,0.688033 0,0.950508 0.262476,0.262476 0.688033,0.262476 0.950509,0 z m 5.70305,5.70305 c 0.262475,-0.262476 0.262475,-0.688032 0,-0.950508 -0.262476,-0.262476 -0.688033,-0.262476 -0.950509,0 -0.262476,0.262476 -0.262476,0.688032 0,0.950508 0.262476,0.262476 0.688033,0.262476 0.950509,0 z m 0,-5.70305 c 0.262475,-0.262475 0.262475,-0.688032 0,-0.950508 -0.262476,-0.262476 -0.688033,-0.262476 -0.950509,0 -0.262476,0.262476 -0.262476,0.688033 0,0.950508 0.262476,0.262476 0.688033,0.262476 0.950509,0 z m 0,-5.703049 c 0.262475,-0.262476 0.262475,-0.688033 0,-0.950509 -0.262476,-0.262476 -0.688033,-0.262476 -0.950509,0 -0.262476,0.262476 -0.262476,0.688033 0,0.950509 0.262476,0.262475 0.688033,0.262475 0.950509,0 z m 5.703049,5.703049 c 0.262476,-0.262475 0.262476,-0.688032 0,-0.950508 -0.262475,-0.262476 -0.688032,-0.262476 -0.950508,0 -0.262476,0.262476 -0.262476,0.688033 0,0.950508 0.262476,0.262476 0.688033,0.262476 0.950508,0 z"
     stroke="none"
     style="stroke-width:0.672111" />
  <path
     id="nurture-icon-text"
     text="nurture"
     fill="#f55e00"
     space="preserve"
     text-anchor="middle"
     offset="0.5"
     font-scale="contain"
     font-size="48px"
     font-family="'Open Sans'"
     data-fl-textpath=""
     d="m 23.002383,99.26156 h -1.244335 v -5.316412 q 0,-1.004424 -0.457429,-1.49704 -0.457429,-0.495815 -1.429865,-0.495815 v 0 q -1.289118,0 -1.890493,0.697339 -0.598176,0.69734 -0.598176,2.29994 v 0 4.311988 H 16.13775 v -8.217727 h 1.010822 l 0.201525,1.125979 h 0.06078 q 0.380657,-0.607773 1.071599,-0.940448 0.690942,-0.335875 1.538625,-0.335875 v 0 q 1.484245,0 2.232765,0.716532 0.74852,0.716532 0.74852,2.290344 v 0 z m 2.466577,-8.217727 h 1.260329 v 5.332406 q 0,1.004424 0.457429,1.49704 0.457429,0.495814 1.433064,0.495814 v 0 q 1.289118,0 1.884095,-0.703736 0.598176,-0.706936 0.598176,-2.303139 v 0 -4.318385 h 1.244335 V 99.26156 H 31.319572 L 31.13724,98.157972 h -0.06717 q -0.380657,0.607773 -1.058804,0.930852 -0.681345,0.323079 -1.548221,0.323079 v 0 q -1.500239,0 -2.24556,-0.713333 -0.74852,-0.710134 -0.74852,-2.277548 v 0 z M 38.7315,90.893489 v 0 q 0.546996,0 0.982033,0.08957 v 0 l -0.169537,1.154768 q -0.511808,-0.111958 -0.902062,-0.111958 v 0 q -0.994828,0 -1.704963,0.809297 -0.706935,0.812496 -0.706935,2.018445 v 0 4.407952 h -1.244335 v -8.217727 h 1.026816 l 0.140747,1.522631 h 0.06078 q 0.457429,-0.8029 1.100388,-1.237937 0.646159,-0.435038 1.41707,-0.435038 z m 5.173665,7.491598 v 0 q 0.329477,0 0.636562,-0.04798 0.310284,-0.05118 0.489417,-0.102361 v 0 0.953243 q -0.204723,0.09596 -0.598176,0.15994 -0.393453,0.06398 -0.706936,0.06398 v 0 q -2.383108,0 -2.383108,-2.51106 v 0 -4.887772 h -1.17716 v -0.601376 l 1.17716,-0.518206 0.524603,-1.752944 h 0.719731 v 1.903288 h 2.383109 v 0.969238 h -2.383109 v 4.833392 q 0,0.742122 0.351869,1.141973 0.351868,0.396651 0.966038,0.396651 z m 2.675899,-7.341254 h 1.260329 v 5.332406 q 0,1.004424 0.457429,1.49704 0.457429,0.495814 1.433064,0.495814 v 0 q 1.289118,0 1.884096,-0.703736 0.598176,-0.706936 0.598176,-2.303139 v 0 -4.318385 h 1.244334 v 8.217727 h -1.026816 l -0.182331,-1.103588 h -0.06717 q -0.380658,0.607773 -1.058804,0.930852 -0.681345,0.323079 -1.548221,0.323079 v 0 q -1.500239,0 -2.24556,-0.713333 -0.748521,-0.710134 -0.748521,-2.277548 v 0 z m 13.262541,-0.150344 v 0 q 0.546995,0 0.982032,0.08957 v 0 l -0.169536,1.154768 q -0.511809,-0.111958 -0.902063,-0.111958 v 0 q -0.994828,0 -1.704962,0.809297 -0.706936,0.812496 -0.706936,2.018445 v 0 4.407952 h -1.244334 v -8.217727 h 1.026816 l 0.140747,1.522631 h 0.06078 q 0.457429,-0.8029 1.100389,-1.237937 0.646158,-0.435038 1.41707,-0.435038 z m 5.992559,8.518414 v 0 q -1.823319,0 -2.875725,-1.109984 -1.052406,-1.109985 -1.052406,-3.080448 v 0 q 0,-1.986457 0.975635,-3.15722 0.978834,-1.170762 2.629416,-1.170762 v 0 q 1.545023,0 2.443886,1.01722 0.898864,1.017219 0.898864,2.680597 v 0 0.786906 h -5.658683 q 0.03519,1.445859 0.729327,2.197578 0.69414,0.74852 1.954469,0.74852 v 0 q 1.327503,0 2.623019,-0.553393 v 0 1.106786 q -0.658954,0.287893 -1.247534,0.409447 -0.588579,0.124753 -1.420268,0.124753 z M 65.49709,91.936299 v 0 q -0.98843,0 -1.57701,0.646159 -0.58858,0.642959 -0.69414,1.784932 v 0 h 4.295993 q 0,-1.17716 -0.524604,-1.804125 -0.524604,-0.626966 -1.500239,-0.626966 z"
     style="stroke-width:0.31988" />
</svg>
