<?xml version="1.0" encoding="UTF-8" standalone="no"?>
<svg
   width="83.664307"
   height="99.532921"
   viewBox="0 0 83.664307 99.532921"
   data-svgdocument=""
   id="_QPbOH8Bvnff-nxIn-ryGS"
   class="fl-svgdocument"
   x="0"
   y="0"
   style="overflow:hidden"
   version="1.1"
   sodipodi:docname="trauma.svg"
   inkscape:version="1.1 (c68e22c387, 2021-05-23)"
   xmlns:inkscape="http://www.inkscape.org/namespaces/inkscape"
   xmlns:sodipodi="http://sodipodi.sourceforge.net/DTD/sodipodi-0.dtd"
   xmlns="http://www.w3.org/2000/svg"
   xmlns:svg="http://www.w3.org/2000/svg">
  <sodipodi:namedview
     id="namedview26"
     pagecolor="#ffffff"
     bordercolor="#666666"
     borderopacity="1.0"
     inkscape:pageshadow="2"
     inkscape:pageopacity="0.0"
     inkscape:pagecheckerboard="0"
     showgrid="false"
     fit-margin-top="0"
     fit-margin-left="0"
     fit-margin-right="0"
     fit-margin-bottom="0"
     inkscape:zoom="1.2734375"
     inkscape:cx="30.233129"
     inkscape:cy="231.2638"
     inkscape:window-width="1600"
     inkscape:window-height="837"
     inkscape:window-x="-8"
     inkscape:window-y="-8"
     inkscape:window-maximized="1"
     inkscape:current-layer="_QPbOH8Bvnff-nxIn-ryGS" />
  <defs
     id="_-Pf6sSTUS_QCObCL12lGl"
     transform="matrix(1.2307695150375366, 0, 0, 1.2307695150375366, -59.07701110839844, -67.29283142089844)" />
  <g
     id="g50"
     transform="translate(-115.0739,-278.47644)">
    <g
       id="trauma-icon-circle"
       transform="matrix(0.3176069,0.94822347,-0.94822347,0.3176069,395.31976,23.342264)">
      <path
         id="_ehe1g4nge_55"
         d="m 211.4,172.1 c 2.8,-3.3 5.9,-7.7 3.9,-11.6 11.2,-6.6 21.1,-15.3 29.2,-25.5 -4.4,3.5 -9.2,6.3 -14.3,8.5 38.3,-37.8 95.9,-55 148.8,-44.4 -42.6,-1.6 -86,9.7 -121.2,33.7 -35.3,23.9 -62.1,60.6 -72.4,102 15.6,-45.3 48.5,-84.4 90.5,-107.4 -3.3,3.4 -6.6,6.9 -10,10.3 16,-6.6 30.5,-16.5 46.4,-23.4 46.7,-20.4 102.9,-12.7 146.4,13.9 43.5,26.6 74.8,70.2 93,117.8 8,20.8 13.6,43.9 6.5,65 -1.6,-27.5 -10.6,-54 -22.3,-78.9 -19.4,-41.5 -47.2,-80.4 -86.3,-104.2 -39.1,-23.7 -90.8,-30 -130.8,-7.7 20.5,-2.2 41.2,-3.4 61.5,-0.5 38.2,5.4 73.5,25.4 100.3,53.1 26.7,27.8 45.2,62.9 56.1,99.8 10.6,36.1 14.1,75.9 0.5,111.1 39.7,-64.2 33.1,-153.6 -15.4,-211.3 -20.3,-24.1 -46.6,-42.6 -75,-56 C 414,101 378,92.1 341.8,93.1 c -36.2,1 -72.4,12.3 -101.3,34.1 24,-21.2 55.3,-33.2 87.1,-36.5 31.9,-3.2 64.2,2 94.5,12.2 63,21.4 120.4,68.6 138.9,132.5 4.7,16.4 6.8,33.4 8.7,50.4 1.6,14.7 2.9,29.4 2.6,44.2 -1.4,73.1 -48.1,144.5 -116.2,171.2 -19.3,7.5 -39.7,11.6 -60.2,14.5 -32.8,4.6 -66.8,6 -98.4,-3.8 -16.3,-5.1 -31.5,-13 -45.6,-22.7 -58.4,-40 -95.3,-109.7 -95.3,-180.5 0,-12.6 1.1,-25.1 2.8,-37.5 1.5,-11.4 3.5,-22.7 6.8,-33.7 5,-16.2 12.8,-31.5 23.1,-45 1.8,-1.1 3.6,-2.3 5.3,-3.5 -23.7,50.1 -37.8,109.3 -16.1,160.4 -7.8,-33.3 -8.3,-68.2 -1.4,-101.6 2.2,-0.8 4.4,-1.7 6.5,-2.6 0.1,-2.2 0.2,-4.3 0.3,-6.5 -1.6,1.8 -3.1,3.6 -4.7,5.3 3.7,-26.5 15.1,-51.6 32.2,-71.9 m 16.1,-1.3 c 6.2,-4.2 12.4,-8.4 18.6,-12.6 -3.9,7.9 -11.1,14.1 -19.5,16.9 -39,40.3 -51,100.4 -46.4,156.2 1.8,21.1 6.1,43 19.7,59.2 -9.5,-39 -10,-80.2 -1.3,-119.4 1.7,-0.1 2.3,2.1 2.3,3.8 0.7,26.3 -3.8,52.6 -1.9,78.9 1.9,26.2 11.7,53.9 33.7,68.2 17.2,11.2 34.3,22.4 51.4,33.6 -40,-12.8 -74.9,-40.6 -96.5,-76.6 5.8,15.7 13.9,30.6 23.9,44 -1.3,-3.6 -2.5,-7.3 -3.8,-11 10.1,9.5 20.3,18.8 30.4,28.2 7.4,6.9 19,13.9 26.6,7.3 1.2,2.5 -1,5.6 -3.7,6.3 -2.7,0.8 -5.6,0 -8.3,-0.8 12.1,8.7 24.7,16.7 37.7,24 -1.9,0.3 -2.5,3.1 -1.3,4.7 1.2,1.6 3.2,2 5.1,2.5 47.7,10.3 98.5,6.5 144.1,-11.1 -39.2,9.2 -81,11.3 -119,-2 -32.1,-11.2 -60.2,-33.3 -78.6,-61.8 -5.9,-9.2 -10.8,-18.9 -15.3,-28.8 -14.5,-32.6 -23.7,-68.2 -21.1,-103.8 2.6,-35.6 18.2,-71.1 46.2,-93.1 2.9,-2.3 6.5,-4.5 10.1,-3.6 -27.6,20 -44,53.1 -48.3,86.9 -4.3,33.9 2.7,68.3 15,100.1 8.8,22.5 20.5,44.3 36.6,62.3 6.9,7.7 14.7,14.7 23.6,20 16.3,9.8 35.6,13.5 54.5,15.9 25.7,3.3 51.6,4.7 77.5,4.1 -32.7,7.7 -66.9,2.2 -100,-3.3 56.2,21.1 122.1,8.2 170.4,-27.3 9.6,-7.1 18.7,-15 26,-24.5 11.2,-14.6 17.9,-32.4 21.3,-50.5 8.8,-47.2 -3.8,-96.5 -26.7,-138.8 -15.9,-29.4 -37,-56.6 -64.8,-75.1 -26,-17.2 -56.9,-26.3 -88,-28 -47.8,-2.8 -98.4,13 -130.2,49 m 93.9,324.8 c 21.5,5.4 43.2,9.3 65.2,11.9 -27,6.2 -54.8,-3.3 -80.9,-12.6 -15.4,-5.4 -31,-11 -45.3,-19 -34.6,-19.2 -60.6,-52.1 -75.7,-88.7 -2.6,-6.5 -5,-13 -7,-19.6 -0.2,-0.8 -0.8,1.1 0,0.7 0.8,-0.3 0.7,-1.5 0.3,-2.3 -9,-21.7 -14.5,-45 -16.2,-68.4 -1.7,35.4 7.1,71 23.1,102.7 17.4,34.5 43.5,64.8 76.3,85.3 32.7,20.5 72.1,30.9 110.5,27.2 54,-5.3 101.4,-36.8 144.9,-69.1 -19.2,25.4 -48.3,41.1 -76.6,55.9 48.9,-13.7 88.1,-52.4 111.7,-97.4 -11.7,20 -30,35.7 -49.9,47.5 -20,11.8 -41.9,20 -63.8,27.9 -9.6,3.5 -19.3,6.9 -29.2,9.7 -28.3,8.1 -58.1,10.9 -87.4,8.3 m 200,-67.6 c 5,-4.7 9.9,-9.5 13.9,-14.9 6.3,-8.7 10.5,-18.8 14.5,-28.8 5.4,-13.6 10.9,-27.3 12.3,-41.9 -2.6,2.3 -3.5,5.7 -4.5,9 -13.3,46.1 -46.2,86.3 -88.9,108.3 20.1,-4.5 37.4,-17.6 52.7,-31.7 M 277,477 c 2.1,0.5 4.7,1.4 4.8,3.5 0.8,-1.4 3.2,-1.4 4.1,0 0.4,-0.1 0.1,-0.8 -0.4,-1 -3,-1.6 -6,-3.2 -8.9,-4.8 -12.1,-6.5 -23.2,-14.6 -33.1,-24 -1.2,2.6 -0.3,5.9 2,7.5 4.4,3.2 8.8,6.4 13.2,9.6 5.3,4.4 11.6,7.6 18.3,9.2 M 565.8,325.8 c -0.4,7.4 -0.8,14.9 -1.3,22.3 -0.1,1 -0.1,2 -0.1,3 -0.1,1.8 -0.2,3.6 -0.4,5.3 -0.1,2.2 -0.2,4.2 -0.2,6.4 4.2,-17 5.7,-34.8 4.4,-52.2 -0.5,-0.2 -1,-0.5 -1.4,-0.8 -0.3,5.3 -0.7,10.6 -1,16 M 177.1,216.2 c -0.7,1.3 -1.3,2.6 -1.9,3.9 0.7,0.9 2,-0.2 2.3,-1.3 0.3,-1 0.6,-2.4 1.7,-2.5 -0.5,-0.5 -1,-1 -1.5,-1.5 -0.2,0.4 -0.4,1 -0.2,1.4 m 72.3,-83 c 1,-0.8 2,-1.6 3,-2.5 -1.7,-0.7 -3.9,0.2 -4.6,2 0.5,0.2 1,0.4 1.6,0.5 m 3.1,-4.7 c 2.2,0.5 4.7,-0.1 6.5,-1.6 -2.3,-0.1 -4.6,0.4 -6.5,1.6 M 173.3,230 c -0.1,-0.5 -0.2,-1 -0.2,-1.4 -1.9,0.7 -2.8,3.3 -1.7,5 0.4,-1.3 1,-2.5 1.9,-3.6 M 162,281 c -0.5,0.7 -0.1,1.9 0.8,2 0.5,-1.6 0.4,-3.3 -0.1,-5 -1,0.5 -1.3,1.9 -0.7,2.8"
         fill="rgba(115,172,118,0.88)"
         transform="matrix(0.19573951,0,0,0.19573951,133.9767,259.7236)" />
      <path
         id="_ehe1g4nge_56"
         d="m 229.4,144 c 0.2,0.3 0.4,0.7 0.6,1 -0.9,1.3 -2.6,1.9 -4.1,1.5 0.8,-1.1 2,-1.9 3.3,-2.2"
         fill="rgba(115,172,118,0.88)"
         transform="matrix(0.19573951,0,0,0.19573951,133.9767,259.7236)" />
      <path
         id="_ehe1g4nge_57"
         d="m 221.5,150.4 c 1.4,-0.5 2.9,-0.8 4.4,-0.7 -0.3,2.2 -4,2.8 -4.9,0.7"
         fill="rgba(115,172,118,0.88)"
         transform="matrix(0.19573951,0,0,0.19573951,133.9767,259.7236)" />
      <path
         id="_ehe1g4nge_58"
         d="m 216.5,145.8 c 0.9,-1.4 2.6,-2.4 4.4,-2.2 0.4,1 0.1,2.2 -0.7,2.9 -1.4,0.2 -3.1,0.4 -4.1,-0.7"
         fill="rgba(115,172,118,0.88)"
         transform="matrix(0.19573951,0,0,0.19573951,133.9767,259.7236)" />
      <path
         id="_ehe1g4nge_59"
         d="m 496.8,152.4 c 0.6,-0.1 1.2,0.5 1.1,1.1 -0.1,0.6 -0.8,1 -1.4,0.8 -0.9,-1 -1.8,-2.1 -2.7,-3.2 1,-0.8 2.8,-0.1 3,1.1"
         fill="rgba(115,172,118,0.88)"
         transform="matrix(0.19573951,0,0,0.19573951,133.9767,259.7236)" />
      <path
         id="_ehe1g4nge_60"
         d="m 225.5,137.6 c 0.7,-0.8 2.1,-0.8 2.9,-0.1 -1.3,1.3 -3,2.2 -4.8,2.8 -0.2,-1.1 0.8,-2.4 1.9,-2.3"
         fill="rgba(115,172,118,0.88)"
         transform="matrix(0.19573951,0,0,0.19573951,133.9767,259.7236)" />
      <path
         id="_ehe1g4nge_61"
         d="m 209.1,230.6 c 0.9,-1.3 3.3,-0.8 3.6,0.8 -1.2,-0.2 -2.5,0.2 -3.3,1.1 -0.5,0.2 -1.3,-0.2 -1.3,-0.8 -0.1,-0.5 0.5,-1.1 1.1,-1"
         fill="rgba(115,172,118,0.88)"
         transform="matrix(0.19573951,0,0,0.19573951,133.9767,259.7236)" />
      <path
         id="_ehe1g4nge_62"
         d="m 266.3,166.6 c 0.5,-0.2 1.2,-0.4 1.7,-0.2 0.6,0.2 0.9,1.1 0.5,1.5 -1.9,1.2 -4.1,1.9 -6.3,2 1,-1.4 2.5,-2.5 4.1,-3.3"
         fill="rgba(115,172,118,0.88)"
         transform="matrix(0.19573951,0,0,0.19573951,133.9767,259.7236)" />
      <path
         id="_ehe1g4nge_63"
         d="m 295.8,479.1 c 1,0.7 2.1,1.4 3.1,2.1 -2.2,0.9 -4.8,0.4 -6.6,-1.2 -0.4,-0.7 0.4,-1.7 1.1,-1.7 0.9,-0.1 1.7,0.4 2.4,0.8"
         fill="rgba(115,172,118,0.88)"
         transform="matrix(0.19573951,0,0,0.19573951,133.9767,259.7236)" />
      <path
         id="_ehe1g4nge_64"
         d="m 250.1,157.4 c -0.5,-1.5 -0.1,-3.3 1.1,-4.4 0.8,-0.2 1.6,-0.8 1.9,-1.7 1.3,0.5 2.5,1 3.8,1.5 -2.2,1.5 -4.5,3 -6.8,4.6"
         fill="rgba(115,172,118,0.88)"
         transform="matrix(0.19573951,0,0,0.19573951,133.9767,259.7236)" />
      <path
         id="_ehe1g4nge_65"
         d="m 201.3,264.8 c 0,-0.6 0,-1.2 0,-1.8 1,-0.5 2.1,-0.5 3,-0.1 -1.8,1.9 -2.8,4.5 -2.6,7.1 -1.1,-0.8 -2.3,-1.7 -3.5,-2.5 1,-0.8 2.1,-1.7 3.2,-2.6"
         fill="rgba(115,172,118,0.88)"
         transform="matrix(0.19573951,0,0,0.19573951,133.9767,259.7236)" />
      <path
         id="_ehe1g4nge_66"
         d="m 194.7,176.5 c 0.4,-3.1 2.2,-5.9 4.7,-7.8 0.7,-0.5 1.8,-0.8 2.2,-0.1 -2.2,2.2 -4,4.7 -5.3,7.5 -0.3,0.5 -1.1,0.8 -1.6,0.4"
         fill="rgba(115,172,118,0.88)"
         transform="matrix(0.19573951,0,0,0.19573951,133.9767,259.7236)" />
      <path
         id="_ehe1g4nge_67"
         d="m 205,238.5 c 2,-1.5 3.9,-3 5.9,-4.5 -0.5,1.9 -1,3.6 -1.5,5.5 -0.7,0.4 -1.2,1.1 -1.9,1.5 -0.7,0.4 -1.7,0.5 -2.2,-0.2 -0.4,-0.7 0.7,-1.7 1.1,-1 -0.4,-0.4 -0.9,-0.8 -1.4,-1.3"
         fill="rgba(115,172,118,0.88)"
         transform="matrix(0.19573951,0,0,0.19573951,133.9767,259.7236)" />
      <path
         id="_ehe1g4nge_68"
         d="m 281.2,161 c -0.2,0.5 -0.4,1 -0.2,1.6 -1.6,0.3 -3.1,0.6 -4.5,0.9 -0.2,0.6 -0.4,1.2 -0.6,1.8 -1.2,-0.1 -2.4,-0.1 -3.5,-0.1 -1,-0.5 0,-1.9 1,-2.4 2,-1 4.1,-1.6 6.3,-1.9 -0.3,-0.5 -0.6,-0.9 -0.9,-1.4 1.6,-1.3 3.5,-2.2 5.6,-2.8 0.4,0.7 0.5,1.5 0.3,2.3 -0.7,0.3 -1.4,0.4 -2.1,0.2 0.1,0.5 0.2,1 0.3,1.6 -0.7,0.2 -1.2,0.3 -1.7,0.2"
         fill="rgba(115,172,118,0.88)"
         transform="matrix(0.19573951,0,0,0.19573951,133.9767,259.7236)" />
      <path
         id="_ehe1g4nge_69"
         d="m 203,170.4 c 0.8,-0.5 1.9,-0.7 2.8,-0.5 -0.4,-0.5 -0.7,-1 -1,-1.5 1,-0.2 2,-0.4 3.1,-0.5 0.4,-1 0.4,-2.2 0,-3.2 1.1,-0.1 2.3,0.1 3.3,0.5 0.3,0.4 0.4,1 0.3,1.5 -0.5,0.2 -1.1,0.4 -1.7,0.6 -0.2,1 -0.5,2 -0.7,3 -0.5,0.3 -1.3,0.4 -1.9,0.2 -0.9,5.4 -6.8,8.5 -8.9,13.5 -0.7,1.7 -1.4,3.9 -3.2,3.9 -0.5,-0.6 -0.4,-1.7 0.3,-2.2 -0.7,-0.2 -1.3,-0.4 -1.9,-0.6 -0.1,-1.1 1.7,-0.8 2.6,-0.1 0.8,-0.7 0.1,-2.3 -0.9,-2.3 1.1,-0.9 1.8,-2.3 2,-3.7 1.1,0.1 2.2,-0.3 2.9,-1.1 -0.8,0.2 -1.7,-0.4 -1.9,-1.3 1.6,0.3 3.2,-1.2 3.1,-2.8 1.2,-0.7 2.4,-1.4 3.6,-2.1 -0.5,-0.3 -1.2,-0.8 -1.9,-1.3"
         fill="rgba(115,172,118,0.88)"
         transform="matrix(0.19573951,0,0,0.19573951,133.9767,259.7236)" />
      <path
         id="_ehe1g4nge_70"
         d="m 517.1,175.7 c -2.2,-3 -4.5,-5.9 -7.3,-8.4 -3.9,-3.5 -8.9,-6.6 -9.7,-11.8 23.5,19.9 41.6,46.2 51.7,75.3 0.9,0.8 -0.1,2.6 -1.2,2.3 -8.8,-20.3 -20.1,-39.7 -33.5,-57.4"
         fill="rgba(115,172,118,0.88)"
         transform="matrix(0.19573951,0,0,0.19573951,133.9767,259.7236)" />
      <path
         id="_ehe1g4nge_71"
         d="m 253.1,159.9 c 4.1,-3.3 8.8,-6.4 10.5,-11.4 0.5,-1.4 1.9,-2.5 3.2,-3.3 20.2,-12.7 43.8,-19.7 67.6,-20.1 -11.9,3.2 -23.7,6.3 -35.6,9.5 -18.5,4.9 -32.1,20.2 -44.6,34.8 -10.8,12.7 -21.7,25.4 -32.5,38.2 -1.3,3.5 -2.5,7.1 -3.8,10.6 -0.5,1.6 -1.1,3.2 -2.5,4.2 -1.3,1 -3.5,1 -4.3,-0.5 4.8,-8.4 9.6,-16.9 14.5,-25.4 7.8,-13.2 15.6,-26.8 27.5,-36.6"
         fill="rgba(115,172,118,0.88)"
         transform="matrix(0.19573951,0,0,0.19573951,133.9767,259.7236)" />
    </g>
    <g
       id="trauma-icon-heart"
       transform="translate(-47.580322,3.1236043)">
      <path
         id="_ehe1g4nge_73"
         d="m 34.567,25.676 c 5.14,0 9.95,2.587 12.808,6.82 l -3.681,6.441 -0.717,1.255 0.966,1.075 4.915,5.467 -4.454,9.486 -0.602,1.282 1.01,0.994 3.971,3.908 -2.849,5.547 -0.672,1.308 1.048,1.031 2.984,2.937 -1.783,1.812 -0.806,0.819 0.302,1.109 0.544,1.997 C 36.528,75.087 19.273,60.555 19.118,41.248 19.085,37.122 20.66,33.23 23.554,30.289 26.448,27.348 30.314,25.71 34.44,25.677 l 0.127,-0.001 m 0,-2 c -0.048,0 -0.095,0 -0.143,0.001 -9.636,0.078 -17.384,7.952 -17.306,17.587 0.181,22.549 22.157,38.423 32.982,40.471 0.085,-0.017 0.176,-0.043 0.262,-0.062 l -1.426,-5.231 3.186,-3.238 -4.41,-4.34 3.521,-6.855 L 46.214,57.07 51.232,46.383 45.43,39.93 49.703,32.454 C 46.691,27.206 41.036,23.676 34.567,23.676 Z"
         fill="#1d398f"
         transform="matrix(0.65507311,0,0,0.65507311,171.88387,284.79861)" />
      <path
         id="_ehe1g4nge_74"
         d="m 67.498,26.497 c 0.286,0 0.574,0.008 0.862,0.024 4.12,0.226 7.905,2.044 10.658,5.117 2.753,3.073 4.145,7.035 3.918,11.155 -0.65,11.82 -7.426,20.554 -12.996,25.799 -6.229,5.866 -13.181,9.471 -18.032,10.768 l -0.455,-2.21 2.527,-2.264 1.49,-1.334 -1.334,-1.49 -3.147,-3.513 3.192,-5.356 0.753,-1.263 -0.981,-1.095 -3.753,-4.19 4.999,-9.108 0.638,-1.163 -0.823,-1.04 -4.488,-5.672 3.956,-6.009 c 2.858,-4.482 7.724,-7.156 13.016,-7.156 m 0,-2 c -6.128,0 -11.587,3.196 -14.702,8.078 l -4.735,7.193 5.385,6.806 -5.681,10.35 4.698,5.245 -3.945,6.62 4.128,4.609 -3.383,3.031 1.094,5.311 C 61.362,80.007 83.706,65.244 84.934,42.905 85.463,33.284 78.092,25.055 68.471,24.526 68.144,24.505 67.82,24.497 67.498,24.497 Z"
         fill="#1d398f"
         transform="matrix(0.65507311,0,0,0.65507311,171.88387,284.79861)" />
    </g>
    <path
       id="trauma-icon-text"
       text="trauma"
       fill="#f55e00"
       transform="matrix(0.31224066,0,0,0.31224066,158.23206,377.86261)"
       space="preserve"
       text-anchor="middle"
       offset="0.5"
       font-scale="contain"
       font-size="48px"
       font-family="'Open Sans'"
       data-fl-textpath=""
       d="m -69.599531,-2.74 v 0 q 1.03,0 1.99,-0.15 0.97,-0.16 1.53,-0.32 v 0 2.98 q -0.64,0.3 -1.87,0.5 -1.23,0.2 -2.21,0.2 v 0 q -7.45,0 -7.45,-7.85 v 0 -15.28 h -3.68 v -1.88 l 3.68,-1.62 1.64,-5.48 h 2.25 v 5.95 h 7.45 v 3.03 h -7.45 v 15.11 q 0,2.32 1.1,3.57 1.1,1.24 3.02,1.24 z m 20.365312,-23.42 v 0 q 1.71,0 3.07,0.28 v 0 l -0.53,3.61 q -1.6,-0.35 -2.82,-0.35 v 0 q -3.11,0 -5.33,2.53 -2.21,2.54 -2.21,6.31 v 0 V 0 h -3.89 v -25.69 h 3.21 l 0.44,4.76 h 0.19 q 1.43,-2.51 3.44,-3.87 2.02,-1.36 4.43,-1.36 z M -22.680469,0 h -2.88 l -0.77,-3.66 h -0.19 q -1.92,2.42 -3.83,3.27 -1.91,0.86 -4.77,0.86 v 0 q -3.82,0 -5.99,-1.97 -2.17,-1.97 -2.17,-5.6 v 0 q 0,-7.78 12.45,-8.16 v 0 l 4.36,-0.14 v -1.59 q 0,-3.03 -1.3,-4.47 -1.3,-1.44 -4.16,-1.44 v 0 q -3.21,0 -7.27,1.97 v 0 l -1.19,-2.98 q 1.89,-1.03 4.16,-1.61 2.26,-0.59 4.53,-0.59 v 0 q 4.6,0 6.81,2.04 2.21,2.04 2.21,6.54 v 0 z m -11.67,-2.74 v 0 q 3.64,0 5.71,-1.99 2.07,-2 2.07,-5.58 v 0 -2.32 l -3.89,0.16 q -4.64,0.17 -6.69,1.44 -2.05,1.28 -2.05,3.98 v 0 q 0,2.1 1.28,3.21 1.28,1.1 3.57,1.1 z m 19.405313,-22.95 h 3.94 v 16.67 q 0,3.14 1.4299998,4.68 1.4299999,1.55 4.4799999,1.55 v 0 q 4.03,0 5.89000005,-2.2 1.86999995,-2.21 1.86999995,-7.2 v 0 -13.5 h 3.89 V 0 h -3.21 l -0.57,-3.45 H 2.5648438 q -1.19,1.9 -3.31000005,2.91 -2.13000005,1.01 -4.84000005,1.01 v 0 q -4.6899997,0 -7.0199997,-2.23 -2.34,-2.22 -2.34,-7.12 v 0 z M 51.435781,0 h -3.89 v -16.71 q 0,-3.07 -1.32,-4.61 -1.31,-1.53 -4.07,-1.53 v 0 q -3.64,0 -5.37,2.08 -1.73,2.09 -1.73,6.43 v 0 V 0 h -3.9 v -16.71 q 0,-3.07 -1.31,-4.61 -1.31,-1.53 -4.1,-1.53 v 0 q -3.66,0 -5.36,2.19 -1.69,2.19 -1.69,7.18 v 0 V 0 h -3.89 v -25.69 h 3.16 l 0.63,3.52 h 0.19 q 1.1,-1.88 3.1,-2.93 2.01,-1.06 4.49,-1.06 v 0 q 6.03,0 7.88,4.36 v 0 h 0.19 q 1.14,-2.01 3.32,-3.18 2.18,-1.18 4.97,-1.18 v 0 q 4.36,0 6.53,2.24 2.17,2.24 2.17,7.16 v 0 z m 26.688438,0 h -2.88 l -0.77,-3.66 h -0.19 q -1.92,2.42 -3.83,3.27 -1.91,0.86 -4.77,0.86 v 0 q -3.82,0 -5.99,-1.97 -2.17,-1.97 -2.17,-5.6 v 0 q 0,-7.78 12.45,-8.16 v 0 l 4.36,-0.14 v -1.59 q 0,-3.03 -1.3,-4.47 -1.3,-1.44 -4.16,-1.44 v 0 q -3.21,0 -7.27,1.97 v 0 l -1.19,-2.98 q 1.89,-1.03 4.16,-1.61 2.26,-0.59 4.53,-0.59 v 0 q 4.6,0 6.81,2.04 2.21,2.04 2.21,6.54 v 0 z m -11.67,-2.74 v 0 q 3.64,0 5.71,-1.99 2.07,-2 2.07,-5.58 v 0 -2.32 l -3.89,0.16 q -4.64,0.17 -6.69,1.44 -2.05,1.28 -2.05,3.98 v 0 q 0,2.1 1.28,3.21 1.28,1.1 3.57,1.1 z" />
  </g>
</svg>
