<svg xmlns="http://www.w3.org/2000/svg" width="512" height="512" viewBox="0 0 512 512" data-svgdocument="" id="_QPbOH8Bvnff-nxIn-ryGS" class="fl-svgdocument" x="0" y="0" style="overflow: hidden;"
    xmlns:xlink="http://www.w3.org/1999/xlink">
    <defs id="_-Pf6sSTUS_QCObCL12lGl" transform="matrix(1.2307695150375366, 0, 0, 1.2307695150375366, -59.07701110839844, -67.29283142089844)"/>
    <g id="education-icon" transform="matrix(1, 0, 0, 1, -46.717323303222656, 5.1236348152160645)">
        <g id="_ehe1g4nge_28" transform="matrix(0.19573944807052612, 0, 0, 0.19573944807052612, 133.11375427246094, 363.72149658203125)" fill="rgba(115,172,118,0.88)">
            <svg id="_ehe1g4nge_29"
                xmlns="http://www.w3.org/2000/svg"
                xmlns:xlink="http://www.w3.org/1999/xlink" version="1.1" x="0px" y="0px" viewBox="0 0 792 612" width="792" height="612">
                <g id="_ehe1g4nge_30" fill="rgba(115,172,118,0.88)">
                    <desc id="_ehe1g4nge_31"
                        xmlns:shape="http://adobe.com/products/shape"/>
                    <path id="_ehe1g4nge_32" d="M211.4,172.1c2.8-3.3,5.9-7.7,3.9-11.6c11.2-6.6,21.1-15.3,29.2-25.5c-4.4,3.5-9.2,6.3-14.3,8.5   c38.3-37.8,95.9-55,148.8-44.4c-42.6-1.6-86,9.7-121.2,33.7c-35.3,23.9-62.1,60.6-72.4,102c15.6-45.3,48.5-84.4,90.5-107.4   c-3.3,3.4-6.6,6.9-10,10.3c16-6.6,30.5-16.5,46.4-23.4c46.7-20.4,102.9-12.7,146.4,13.9c43.5,26.6,74.8,70.2,93,117.8   c8,20.8,13.6,43.9,6.5,65c-1.6-27.5-10.6-54-22.3-78.9c-19.4-41.5-47.2-80.4-86.3-104.2c-39.1-23.7-90.8-30-130.8-7.7   c20.5-2.2,41.2-3.4,61.5-0.5c38.2,5.4,73.5,25.4,100.3,53.1c26.7,27.8,45.2,62.9,56.1,99.8c10.6,36.1,14.1,75.9,0.5,111.1   c39.7-64.2,33.1-153.6-15.4-211.3c-20.3-24.1-46.6-42.6-75-56c-32.8-15.4-68.8-24.3-105-23.3s-72.4,12.3-101.3,34.1   c24-21.2,55.3-33.2,87.1-36.5c31.9-3.2,64.2,2,94.5,12.2c63,21.4,120.4,68.6,138.9,132.5c4.7,16.4,6.8,33.4,8.7,50.4   c1.6,14.7,2.9,29.4,2.6,44.2c-1.4,73.1-48.1,144.5-116.2,171.2c-19.3,7.5-39.7,11.6-60.2,14.5c-32.8,4.6-66.8,6-98.4-3.8   c-16.3-5.1-31.5-13-45.6-22.7c-58.4-40-95.3-109.7-95.3-180.5c0-12.6,1.1-25.1,2.8-37.5c1.5-11.4,3.5-22.7,6.8-33.7   c5-16.2,12.8-31.5,23.1-45c1.8-1.1,3.6-2.3,5.3-3.5c-23.7,50.1-37.8,109.3-16.1,160.4c-7.8-33.3-8.3-68.2-1.4-101.6   c2.2-0.8,4.4-1.7,6.5-2.6c0.1-2.2,0.2-4.3,0.3-6.5c-1.6,1.8-3.1,3.6-4.7,5.3C182.9,217.5,194.3,192.4,211.4,172.1 M227.5,170.8   c6.2-4.2,12.4-8.4,18.6-12.6c-3.9,7.9-11.1,14.1-19.5,16.9c-39,40.3-51,100.4-46.4,156.2c1.8,21.1,6.1,43,19.7,59.2   c-9.5-39-10-80.2-1.3-119.4c1.7-0.1,2.3,2.1,2.3,3.8c0.7,26.3-3.8,52.6-1.9,78.9c1.9,26.2,11.7,53.9,33.7,68.2   c17.2,11.2,34.3,22.4,51.4,33.6c-40-12.8-74.9-40.6-96.5-76.6c5.8,15.7,13.9,30.6,23.9,44c-1.3-3.6-2.5-7.3-3.8-11   c10.1,9.5,20.3,18.8,30.4,28.2c7.4,6.9,19,13.9,26.6,7.3c1.2,2.5-1,5.6-3.7,6.3c-2.7,0.8-5.6,0-8.3-0.8c12.1,8.7,24.7,16.7,37.7,24   c-1.9,0.3-2.5,3.1-1.3,4.7c1.2,1.6,3.2,2,5.1,2.5c47.7,10.3,98.5,6.5,144.1-11.1c-39.2,9.2-81,11.3-119-2   c-32.1-11.2-60.2-33.3-78.6-61.8c-5.9-9.2-10.8-18.9-15.3-28.8c-14.5-32.6-23.7-68.2-21.1-103.8c2.6-35.6,18.2-71.1,46.2-93.1   c2.9-2.3,6.5-4.5,10.1-3.6c-27.6,20-44,53.1-48.3,86.9c-4.3,33.9,2.7,68.3,15,100.1c8.8,22.5,20.5,44.3,36.6,62.3   c6.9,7.7,14.7,14.7,23.6,20c16.3,9.8,35.6,13.5,54.5,15.9c25.7,3.3,51.6,4.7,77.5,4.1c-32.7,7.7-66.9,2.2-100-3.3   c56.2,21.1,122.1,8.2,170.4-27.3c9.6-7.1,18.7-15,26-24.5c11.2-14.6,17.9-32.4,21.3-50.5c8.8-47.2-3.8-96.5-26.7-138.8   c-15.9-29.4-37-56.6-64.8-75.1c-26-17.2-56.9-26.3-88-28C309.9,119,259.3,134.8,227.5,170.8 M321.4,495.6   c21.5,5.4,43.2,9.3,65.2,11.9c-27,6.2-54.8-3.3-80.9-12.6c-15.4-5.4-31-11-45.3-19c-34.6-19.2-60.6-52.1-75.7-88.7   c-2.6-6.5-5-13-7-19.6c-0.2-0.8-0.8,1.1,0,0.7c0.8-0.3,0.7-1.5,0.3-2.3c-9-21.7-14.5-45-16.2-68.4c-1.7,35.4,7.1,71,23.1,102.7   c17.4,34.5,43.5,64.8,76.3,85.3c32.7,20.5,72.1,30.9,110.5,27.2c54-5.3,101.4-36.8,144.9-69.1c-19.2,25.4-48.3,41.1-76.6,55.9   c48.9-13.7,88.1-52.4,111.7-97.4c-11.7,20-30,35.7-49.9,47.5c-20,11.8-41.9,20-63.8,27.9c-9.6,3.5-19.3,6.9-29.2,9.7   C380.5,495.4,350.7,498.2,321.4,495.6 M521.4,428c5-4.7,9.9-9.5,13.9-14.9c6.3-8.7,10.5-18.8,14.5-28.8   c5.4-13.6,10.9-27.3,12.3-41.9c-2.6,2.3-3.5,5.7-4.5,9c-13.3,46.1-46.2,86.3-88.9,108.3C488.8,455.2,506.1,442.1,521.4,428    M277,477c2.1,0.5,4.7,1.4,4.8,3.5c0.8-1.4,3.2-1.4,4.1,0c0.4-0.1,0.1-0.8-0.4-1c-3-1.6-6-3.2-8.9-4.8c-12.1-6.5-23.2-14.6-33.1-24   c-1.2,2.6-0.3,5.9,2,7.5c4.4,3.2,8.8,6.4,13.2,9.6C264,472.2,270.3,475.4,277,477 M565.8,325.8c-0.4,7.4-0.8,14.9-1.3,22.3   c-0.1,1-0.1,2-0.1,3c-0.1,1.8-0.2,3.6-0.4,5.3c-0.1,2.2-0.2,4.2-0.2,6.4c4.2-17,5.7-34.8,4.4-52.2c-0.5-0.2-1-0.5-1.4-0.8   C566.5,315.1,566.1,320.4,565.8,325.8 M177.1,216.2c-0.7,1.3-1.3,2.6-1.9,3.9c0.7,0.9,2-0.2,2.3-1.3c0.3-1,0.6-2.4,1.7-2.5   c-0.5-0.5-1-1-1.5-1.5c-0.2,0.4-0.4,1-0.2,1.4 M249.8,133.2c1-0.8,2-1.6,3-2.5c-1.7-0.7-3.9,0.2-4.6,2   C248.7,132.9,249.2,133.1,249.8,133.2 M252.9,128.5c2.2,0.5,4.7-0.1,6.5-1.6C257.1,126.8,254.8,127.3,252.9,128.5 M173.3,230   c-0.1-0.5-0.2-1-0.2-1.4c-1.9,0.7-2.8,3.3-1.7,5C171.8,232.3,172.4,231.1,173.3,230 M162,281c-0.5,0.7-0.1,1.9,0.8,2   c0.5-1.6,0.4-3.3-0.1-5c-1,0.5-1.3,1.9-0.7,2.8" fill="rgba(115,172,118,0.88)"/>
                    <path id="_ehe1g4nge_33" d="M229.4,144c0.2,0.3,0.4,0.7,0.6,1c-0.9,1.3-2.6,1.9-4.1,1.5c0.8-1.1,2-1.9,3.3-2.2" fill="rgba(115,172,118,0.88)"/>
                    <path id="_ehe1g4nge_34" d="M221.5,150.4c1.4-0.5,2.9-0.8,4.4-0.7c-0.3,2.2-4,2.8-4.9,0.7" fill="rgba(115,172,118,0.88)"/>
                    <path id="_ehe1g4nge_35" d="M216.5,145.8c0.9-1.4,2.6-2.4,4.4-2.2c0.4,1,0.1,2.2-0.7,2.9c-1.4,0.2-3.1,0.4-4.1-0.7" fill="rgba(115,172,118,0.88)"/>
                    <path id="_ehe1g4nge_36" d="M496.8,152.4c0.6-0.1,1.2,0.5,1.1,1.1c-0.1,0.6-0.8,1-1.4,0.8c-0.9-1-1.8-2.1-2.7-3.2c1-0.8,2.8-0.1,3,1.1" fill="rgba(115,172,118,0.88)"/>
                    <path id="_ehe1g4nge_37" d="M225.5,137.6c0.7-0.8,2.1-0.8,2.9-0.1c-1.3,1.3-3,2.2-4.8,2.8c-0.2-1.1,0.8-2.4,1.9-2.3" fill="rgba(115,172,118,0.88)"/>
                    <path id="_ehe1g4nge_38" d="M209.1,230.6c0.9-1.3,3.3-0.8,3.6,0.8c-1.2-0.2-2.5,0.2-3.3,1.1c-0.5,0.2-1.3-0.2-1.3-0.8   c-0.1-0.5,0.5-1.1,1.1-1" fill="rgba(115,172,118,0.88)"/>
                    <path id="_ehe1g4nge_39" d="M266.3,166.6c0.5-0.2,1.2-0.4,1.7-0.2c0.6,0.2,0.9,1.1,0.5,1.5c-1.9,1.2-4.1,1.9-6.3,2   C263.2,168.5,264.7,167.4,266.3,166.6" fill="rgba(115,172,118,0.88)"/>
                    <path id="_ehe1g4nge_40" d="M295.8,479.1c1,0.7,2.1,1.4,3.1,2.1c-2.2,0.9-4.8,0.4-6.6-1.2c-0.4-0.7,0.4-1.7,1.1-1.7   C294.3,478.2,295.1,478.7,295.8,479.1" fill="rgba(115,172,118,0.88)"/>
                    <path id="_ehe1g4nge_41" d="M250.1,157.4c-0.5-1.5-0.1-3.3,1.1-4.4c0.8-0.2,1.6-0.8,1.9-1.7c1.3,0.5,2.5,1,3.8,1.5   C254.7,154.3,252.4,155.8,250.1,157.4" fill="rgba(115,172,118,0.88)"/>
                    <path id="_ehe1g4nge_42" d="M201.3,264.8c0-0.6,0-1.2,0-1.8c1-0.5,2.1-0.5,3-0.1c-1.8,1.9-2.8,4.5-2.6,7.1c-1.1-0.8-2.3-1.7-3.5-2.5   c1-0.8,2.1-1.7,3.2-2.6" fill="rgba(115,172,118,0.88)"/>
                    <path id="_ehe1g4nge_43" d="M194.7,176.5c0.4-3.1,2.2-5.9,4.7-7.8c0.7-0.5,1.8-0.8,2.2-0.1c-2.2,2.2-4,4.7-5.3,7.5   C196,176.6,195.2,176.9,194.7,176.5" fill="rgba(115,172,118,0.88)"/>
                    <path id="_ehe1g4nge_44" d="M205,238.5c2-1.5,3.9-3,5.9-4.5c-0.5,1.9-1,3.6-1.5,5.5c-0.7,0.4-1.2,1.1-1.9,1.5c-0.7,0.4-1.7,0.5-2.2-0.2   c-0.4-0.7,0.7-1.7,1.1-1C206,239.4,205.5,239,205,238.5" fill="rgba(115,172,118,0.88)"/>
                    <path id="_ehe1g4nge_45" d="M281.2,161c-0.2,0.5-0.4,1-0.2,1.6c-1.6,0.3-3.1,0.6-4.5,0.9c-0.2,0.6-0.4,1.2-0.6,1.8   c-1.2-0.1-2.4-0.1-3.5-0.1c-1-0.5,0-1.9,1-2.4c2-1,4.1-1.6,6.3-1.9c-0.3-0.5-0.6-0.9-0.9-1.4c1.6-1.3,3.5-2.2,5.6-2.8   c0.4,0.7,0.5,1.5,0.3,2.3c-0.7,0.3-1.4,0.4-2.1,0.2c0.1,0.5,0.2,1,0.3,1.6C282.2,161,281.7,161.1,281.2,161" fill="rgba(115,172,118,0.88)"/>
                    <path id="_ehe1g4nge_46" d="M203,170.4c0.8-0.5,1.9-0.7,2.8-0.5c-0.4-0.5-0.7-1-1-1.5c1-0.2,2-0.4,3.1-0.5c0.4-1,0.4-2.2,0-3.2   c1.1-0.1,2.3,0.1,3.3,0.5c0.3,0.4,0.4,1,0.3,1.5c-0.5,0.2-1.1,0.4-1.7,0.6c-0.2,1-0.5,2-0.7,3c-0.5,0.3-1.3,0.4-1.9,0.2   c-0.9,5.4-6.8,8.5-8.9,13.5c-0.7,1.7-1.4,3.9-3.2,3.9c-0.5-0.6-0.4-1.7,0.3-2.2c-0.7-0.2-1.3-0.4-1.9-0.6c-0.1-1.1,1.7-0.8,2.6-0.1   c0.8-0.7,0.1-2.3-0.9-2.3c1.1-0.9,1.8-2.3,2-3.7c1.1,0.1,2.2-0.3,2.9-1.1c-0.8,0.2-1.7-0.4-1.9-1.3c1.6,0.3,3.2-1.2,3.1-2.8   c1.2-0.7,2.4-1.4,3.6-2.1C204.4,171.4,203.7,170.9,203,170.4" fill="rgba(115,172,118,0.88)"/>
                    <path id="_ehe1g4nge_47" d="M517.1,175.7c-2.2-3-4.5-5.9-7.3-8.4c-3.9-3.5-8.9-6.6-9.7-11.8c23.5,19.9,41.6,46.2,51.7,75.3   c0.9,0.8-0.1,2.6-1.2,2.3C541.8,212.8,530.5,193.4,517.1,175.7" fill="rgba(115,172,118,0.88)"/>
                    <path id="_ehe1g4nge_48" d="M253.1,159.9c4.1-3.3,8.8-6.4,10.5-11.4c0.5-1.4,1.9-2.5,3.2-3.3c20.2-12.7,43.8-19.7,67.6-20.1   c-11.9,3.2-23.7,6.3-35.6,9.5c-18.5,4.9-32.1,20.2-44.6,34.8c-10.8,12.7-21.7,25.4-32.5,38.2c-1.3,3.5-2.5,7.1-3.8,10.6   c-0.5,1.6-1.1,3.2-2.5,4.2c-1.3,1-3.5,1-4.3-0.5c4.8-8.4,9.6-16.9,14.5-25.4C233.4,183.3,241.2,169.7,253.1,159.9" fill="rgba(115,172,118,0.88)"/>
                </g>
            </svg>
        </g>
        <g id="_ehe1g4nge_49" fill="#1d398f" transform="matrix(0.5987328290939331, 0, 0, 0.5987328290939331, 83.95913696289062, 170.7445831298828)">
            <path id="_ehe1g4nge_50" d="M83.919,52.207c-0.513-0.738-1.066-1.474-1.641-2.207c0.574-0.734,1.128-1.469,1.641-2.208   c5.296-7.621,6.629-14.562,3.753-19.542c-2.481-4.299-7.966-6.666-15.441-6.666c-1.92,0-3.939,0.158-6.027,0.452   C62.381,12.488,56.591,6.5,50,6.5s-12.381,5.988-16.203,15.535c-2.088-0.294-4.107-0.452-6.026-0.452   c-7.476,0-12.96,2.368-15.441,6.666c-2.876,4.981-1.543,11.921,3.753,19.542c0.513,0.738,1.066,1.474,1.641,2.208   c-0.575,0.734-1.128,1.47-1.641,2.208c-5.296,7.621-6.63,14.562-3.754,19.543c2.482,4.298,7.965,6.665,15.441,6.665   c0,0,0.001,0,0.001,0c1.919,0,3.938-0.158,6.026-0.452C37.619,87.512,43.409,93.5,50,93.5s12.381-5.988,16.203-15.537   c2.089,0.294,4.108,0.452,6.028,0.452c7.476,0,12.959-2.367,15.441-6.665C90.549,66.769,89.216,59.828,83.919,52.207z    M72.23,23.584c6.731,0,11.6,2.012,13.709,5.666c2.467,4.272,1.166,10.452-3.663,17.401c-0.408,0.587-0.844,1.172-1.293,1.757   c-2.964-3.499-6.595-6.907-10.725-10.081c-0.685-5.28-1.823-10.136-3.333-14.377C68.762,23.709,70.537,23.584,72.23,23.584z    M59.501,66.455c-3.141,1.813-6.33,3.396-9.499,4.745c-3.17-1.349-6.36-2.933-9.502-4.746c-3.145-1.815-6.115-3.782-8.869-5.854   C31.221,57.215,31,53.663,31,50s0.221-7.215,0.631-10.601c2.754-2.071,5.726-4.039,8.87-5.854c3.141-1.813,6.33-3.397,9.5-4.746   c3.169,1.349,6.358,2.932,9.499,4.745c3.145,1.815,6.115,3.782,8.869,5.853C68.779,42.784,69,46.336,69,50   c0,3.664-0.221,7.216-0.631,10.603C65.615,62.673,62.645,64.64,59.501,66.455z M67.983,63.365   c-0.707,4.526-1.762,8.701-3.097,12.375c-3.918-0.68-8.075-1.863-12.303-3.49c2.649-1.199,5.301-2.553,7.917-4.062   C63.119,66.676,65.62,65.059,67.983,63.365z M47.42,72.25c-4.229,1.628-8.388,2.812-12.307,3.491   c-1.335-3.675-2.39-7.851-3.097-12.378c2.364,1.694,4.865,3.312,7.483,4.823C42.117,69.697,44.769,71.051,47.42,72.25z    M29.419,58.874c-3.496-2.827-6.576-5.818-9.125-8.874c2.549-3.056,5.629-6.047,9.125-8.874C29.144,43.983,29,46.95,29,50   S29.144,56.017,29.419,58.874z M32.017,36.637c0.707-4.528,1.762-8.704,3.097-12.378c3.919,0.679,8.077,1.863,12.306,3.492   c-2.65,1.199-5.302,2.553-7.918,4.063C36.882,33.325,34.38,34.942,32.017,36.637z M52.583,27.75   c4.228-1.628,8.386-2.812,12.304-3.491c1.335,3.674,2.39,7.85,3.097,12.376c-2.364-1.694-4.865-3.312-7.483-4.823   C57.885,30.302,55.232,28.949,52.583,27.75z M70.58,41.125c3.498,2.828,6.578,5.819,9.127,8.875   c-2.549,3.056-5.63,6.048-9.127,8.876C70.855,56.018,71,53.05,71,50C71,46.95,70.855,43.982,70.58,41.125z M50,8.5   c5.621,0,10.678,5.364,14.159,13.866c-4.514,0.816-9.31,2.258-14.158,4.262c-4.849-2.004-9.646-3.446-14.16-4.263   C39.323,13.863,44.379,8.5,50,8.5z M17.725,46.65c-4.83-6.949-6.13-13.129-3.664-17.401c2.109-3.654,6.978-5.666,13.709-5.666   c1.693,0,3.468,0.125,5.304,0.365c-1.51,4.242-2.648,9.098-3.333,14.379c-4.129,3.173-7.759,6.581-10.723,10.08   C18.569,47.823,18.133,47.238,17.725,46.65z M27.77,76.416c-6.731,0-11.6-2.013-13.709-5.665   c-2.467-4.272-1.166-10.452,3.664-17.401c0.408-0.588,0.845-1.174,1.294-1.758c2.964,3.499,6.594,6.906,10.723,10.08   c0.685,5.281,1.823,10.137,3.333,14.379C31.238,76.291,29.463,76.416,27.77,76.416z M50,91.5c-5.621,0-10.678-5.363-14.159-13.866   c4.514-0.816,9.311-2.258,14.161-4.262c4.849,2.003,9.645,3.444,14.158,4.261C60.678,86.136,55.621,91.5,50,91.5z M85.94,70.75   c-2.109,3.653-6.978,5.665-13.709,5.665c-1.694,0-3.469-0.125-5.305-0.365c1.509-4.241,2.647-9.097,3.332-14.376   c4.13-3.175,7.76-6.582,10.725-10.082c0.449,0.584,0.885,1.17,1.293,1.757C87.106,60.298,88.407,66.478,85.94,70.75z" transform="matrix(1, 0, 0, 1, 152.92108154296875, 371.8569641113281)" fill="#1d398f"/>
            <g id="_ehe1g4nge_51" transform="matrix(0.37258464097976685, 0, 0, 0.37258464097976685, 184.29263305664062, 404.6950378417969)" fill="#1d398f">
                <svg id="_ehe1g4nge_52"
                    xmlns="http://www.w3.org/2000/svg"
                    xmlns:xlink="http://www.w3.org/1999/xlink" version="1.1" x="0px" y="0px" viewBox="0 0 100 100" enable-background="new 0 0 100 100" width="100" height="100">
                    <path id="_ehe1g4nge_53" fill-rule="evenodd" clip-rule="evenodd" d="M48.306,23.784c-2.547-3.982-6.108-6.39-9.935-7.423  c-3.192-0.862-6.568-0.782-9.701,0.125c-3.132,0.907-6.021,2.639-8.24,5.08c-2.643,2.908-4.331,6.847-4.331,11.624  c0,8.897,3.664,18.254,9.515,26.899c6.25,9.234,14.964,17.62,24.386,23.778c9.422-6.158,18.137-14.544,24.386-23.778  c5.851-8.646,9.515-18.002,9.515-26.899c0-4.777-1.688-8.716-4.331-11.624c-2.219-2.44-5.108-4.173-8.239-5.08  c-3.133-0.907-6.51-0.988-9.702-0.125c-3.833,1.036-7.4,3.449-9.948,7.445c-0.591,0.927-1.822,1.2-2.75,0.609  C48.668,24.248,48.459,24.031,48.306,23.784L48.306,23.784z M39.403,12.501c3.946,1.066,7.658,3.303,10.597,6.854  c2.939-3.551,6.651-5.788,10.597-6.854c3.893-1.051,8.015-0.952,11.843,0.156c3.829,1.109,7.365,3.23,10.083,6.221  c3.282,3.61,5.378,8.465,5.378,14.311c0,9.742-3.929,19.863-10.202,29.134C70.922,72.337,61.375,81.397,51.103,87.9  c-0.633,0.42-1.48,0.457-2.165,0.025C38.651,81.421,29.087,72.35,22.302,62.323C16.028,53.053,12.1,42.931,12.1,33.189  c0-5.846,2.096-10.701,5.378-14.311c2.718-2.991,6.254-5.112,10.083-6.221C31.389,11.549,35.511,11.45,39.403,12.501z" fill="#1d398f"/>
                </svg>
            </g>
        </g>
    </g>
    <path id="education-icon-text" text="education" fill="#f55e00" transform="matrix(0.29988834261894226, 0, 0, 0.29988834261894226, 157.91346740722656, 488.0122375488281)" space="preserve" text-anchor="middle" offset="0.5" font-scale="contain" font-size="48" font-family="Open Sans" data-fl-textpath="" d="M-96.4653125 0.47L-96.4653125 0.47Q-102.1653125 0.47 -105.4553125-3Q-108.7453125-6.47 -108.7453125-12.63L-108.7453125-12.63Q-108.7453125-18.84 -105.6953125-22.5Q-102.6353125-26.16 -97.4753125-26.16L-97.4753125-26.16Q-92.6453125-26.16 -89.8353125-22.98Q-87.0253125-19.8 -87.0253125-14.6L-87.0253125-14.6L-87.0253125-12.14L-104.7153125-12.14Q-104.6053125-7.62 -102.4353125-5.27Q-100.2653125-2.93 -96.3253125-2.93L-96.3253125-2.93Q-92.1753125-2.93 -88.1253125-4.66L-88.1253125-4.66L-88.1253125-1.2Q-90.1853125-0.3 -92.0253125 0.08Q-93.8653125 0.47 -96.4653125 0.47ZM-97.5253125-22.9L-97.5253125-22.9Q-100.6153125-22.9 -102.4553125-20.88Q-104.2953125-18.87 -104.6253125-15.3L-104.6253125-15.3L-91.1953125-15.3Q-91.1953125-18.98 -92.8353125-20.94Q-94.4753125-22.9 -97.5253125-22.9ZM-62.385625000000005 0L-62.905625-3.45L-63.115625-3.45Q-65.815625 0.47 -71.175625 0.47L-71.175625 0.47Q-76.215625 0.47 -79.015625-2.98Q-81.815625-6.42 -81.815625-12.77L-81.815625-12.77Q-81.815625-19.13 -79.005625-22.64Q-76.195625-26.16 -71.175625-26.16L-71.175625-26.16Q-65.955625-26.16 -63.165625-22.36L-63.165625-22.36L-62.855625-22.36L-63.025625000000005-24.21L-63.115625-26.02L-63.115625-36.47L-59.225625-36.47L-59.225625 0L-62.385625000000005 0ZM-70.685625-2.79L-70.685625-2.79Q-66.705625-2.79 -64.905625-4.96Q-63.115625-7.13 -63.115625-11.95L-63.115625-11.95L-63.115625-12.77Q-63.115625-18.23 -64.935625-20.57Q-66.745625-22.9 -70.735625-22.9L-70.735625-22.9Q-74.155625-22.9 -75.97562500000001-20.24Q-77.785625-17.58 -77.785625-12.73L-77.785625-12.73Q-77.785625-7.8 -75.985625-5.3Q-74.175625-2.79 -70.685625-2.79ZM-51.2615625-25.69L-47.3215625-25.69L-47.3215625-9.02Q-47.3215625-5.88 -45.8915625-4.34Q-44.4615625-2.79 -41.4115625-2.79L-41.4115625-2.79Q-37.3815625-2.79 -35.5215625-4.99Q-33.6515625-7.2 -33.6515625-12.19L-33.6515625-12.19L-33.6515625-25.69L-29.7615625-25.69L-29.7615625 0L-32.971562500000005 0L-33.5415625-3.45L-33.7515625-3.45Q-34.9415625-1.55 -37.0615625-0.54Q-39.1915625 0.47 -41.9015625 0.47L-41.9015625 0.47Q-46.5915625 0.47 -48.9215625-1.76Q-51.2615625-3.98 -51.2615625-8.88L-51.2615625-8.88L-51.2615625-25.69ZM-11.250625 0.47L-11.250625 0.47Q-16.830624999999998 0.47 -19.890625-2.96Q-22.940625-6.4 -22.940625-12.68L-22.940625-12.68Q-22.940625-19.13 -19.840625-22.64Q-16.730625-26.16 -10.990625-26.16L-10.990625-26.16Q-9.140625-26.16 -7.290624999999999-25.76Q-5.440625000000001-25.36 -4.380624999999998-24.82L-4.380624999999998-24.82L-5.580625000000001-21.52Q-6.870625-22.03 -8.390625-22.37Q-9.910625-22.71 -11.090625-22.71L-11.090625-22.71Q-18.910625-22.71 -18.910625-12.73L-18.910625-12.73Q-18.910625-7.99 -17.000625-5.46Q-15.090625-2.93 -11.340625-2.93L-11.340625-2.93Q-8.130624999999998-2.93 -4.760625000000001-4.31L-4.760625000000001-4.31L-4.760625000000001-0.87Q-7.340624999999999 0.47 -11.250625 0.47ZM 20.0109375 0L 17.1309375 0L 16.3609375-3.66L 16.1709375-3.66Q 14.2509375-1.24  12.3409375-0.39Q 10.4309375 0.47  7.570937499999999 0.47L 7.570937499999999 0.47Q 3.7509375 0.47  1.5809375-1.5Q-0.5890624999999998-3.47 -0.5890624999999998-7.1L-0.5890624999999998-7.1Q-0.5890624999999998-14.88  11.8609375-15.26L 11.8609375-15.26L 16.2209375-15.4L 16.2209375-16.99Q 16.2209375-20.02  14.9209375-21.46Q 13.6209375-22.9  10.7609375-22.9L 10.7609375-22.9Q 7.5509375-22.9  3.4909375000000002-20.93L 3.4909375000000002-20.93L 2.3009375-23.91Q 4.1909375-24.94  6.4609375-25.52Q 8.7209375-26.11  10.9909375-26.11L 10.9909375-26.11Q 15.590937499999999-26.11  17.8009375-24.07Q 20.0109375-22.03  20.0109375-17.53L 20.0109375-17.53L 20.0109375 0ZM 8.3409375-2.74L 8.3409375-2.74Q 11.9809375-2.74  14.0509375-4.73Q 16.1209375-6.73  16.1209375-10.31L 16.1209375-10.31L 16.1209375-12.63L 12.2309375-12.47Q 7.590937500000001-12.3  5.5409375-11.03Q 3.4909375000000002-9.75  3.4909375000000002-7.05L 3.4909375000000002-7.05Q 3.4909375000000002-4.95  4.7709375-3.84Q 6.0509375-2.74  8.3409375-2.74ZM 36.32625-2.74L 36.32625-2.74Q 37.35625-2.74  38.31625-2.89Q 39.28625-3.05  39.84625-3.21L 39.84625-3.21L 39.84625-0.23Q 39.20625 0.07  37.97625 0.27Q 36.74625 0.47  35.76625 0.47L 35.76625 0.47Q 28.31625 0.47  28.31625-7.38L 28.31625-7.38L 28.31625-22.66L 24.63625-22.66L 24.63625-24.54L 28.31625-26.16L 29.95625-31.64L 32.20625-31.64L 32.20625-25.69L 39.65625-25.69L 39.65625-22.66L 32.20625-22.66L 32.20625-7.55Q 32.20625-5.23  33.30625-3.98Q 34.40625-2.74  36.32625-2.74ZM 48.871562499999996-25.69L 48.871562499999996 0L 44.9815625 0L 44.9815625-25.69L 48.871562499999996-25.69ZM 44.6515625-32.65L 44.6515625-32.65Q 44.6515625-33.98  45.3015625-34.61Q 45.9615625-35.23  46.9415625-35.23L 46.9415625-35.23Q 47.8815625-35.23  48.5615625-34.59Q 49.2415625-33.96  49.2415625-32.65L 49.2415625-32.65Q 49.2415625-31.34  48.5615625-30.69Q 47.8815625-30.05  46.9415625-30.05L 46.9415625-30.05Q 45.9615625-30.05  45.3015625-30.69Q 44.6515625-31.34  44.6515625-32.65ZM 79.2921875-12.87L 79.2921875-12.87Q 79.2921875-6.59  76.1221875-3.06Q 72.9621875 0.47  67.3821875 0.47L 67.3821875 0.47Q 63.9421875 0.47  61.262187499999996-1.15Q 58.5921875-2.77  57.1421875-5.79Q 55.6921875-8.81  55.6921875-12.87L 55.6921875-12.87Q 55.6921875-19.15  58.8321875-22.65Q 61.972187500000004-26.16  67.5421875-26.16L 67.5421875-26.16Q 72.9421875-26.16  76.1121875-22.57Q 79.2921875-18.98  79.2921875-12.87ZM 59.722187500000004-12.87L 59.722187500000004-12.87Q 59.722187500000004-7.95  61.6921875-5.37Q 63.6521875-2.79  67.4721875-2.79L 67.4721875-2.79Q 71.2921875-2.79  73.28218749999999-5.36Q 75.2621875-7.92  75.2621875-12.87L 75.2621875-12.87Q 75.2621875-17.77  73.28218749999999-20.31Q 71.2921875-22.85  67.4321875-22.85L 67.4321875-22.85Q 63.6121875-22.85  61.6621875-20.34Q 59.722187500000004-17.84  59.722187500000004-12.87ZM 107.574375 0L 103.684375 0L 103.684375-16.62Q 103.684375-19.76  102.254375-21.3Q 100.824375-22.85  97.784375-22.85L 97.784375-22.85Q 93.754375-22.85  91.874375-20.67Q 90.004375-18.49  90.004375-13.48L 90.004375-13.48L 90.004375 0L 86.114375 0L 86.114375-25.69L 89.274375-25.69L 89.904375-22.17L 90.094375-22.17Q 91.284375-24.07  93.44437500000001-25.11Q 95.604375-26.16  98.254375-26.16L 98.254375-26.16Q 102.894375-26.16  105.234375-23.92Q 107.574375-21.68  107.574375-16.76L 107.574375-16.76L 107.574375 0Z"></path>
</svg>