<?xml version="1.0" encoding="UTF-8" standalone="no"?>
<svg
   width="81.559639"
   height="102.4511"
   viewBox="0 0 81.559639 102.4511"
   data-svgdocument=""
   id="_QPbOH8Bvnff-nxIn-ryGS"
   class="fl-svgdocument"
   x="0"
   y="0"
   style="overflow:hidden"
   version="1.1"
   sodipodi:docname="nutrition.svg"
   inkscape:version="1.1 (c68e22c387, 2021-05-23)"
   xmlns:inkscape="http://www.inkscape.org/namespaces/inkscape"
   xmlns:sodipodi="http://sodipodi.sourceforge.net/DTD/sodipodi-0.dtd"
   xmlns="http://www.w3.org/2000/svg"
   xmlns:svg="http://www.w3.org/2000/svg">
  <sodipodi:namedview
     id="namedview25"
     pagecolor="#ffffff"
     bordercolor="#666666"
     borderopacity="1.0"
     inkscape:pageshadow="2"
     inkscape:pageopacity="0.0"
     inkscape:pagecheckerboard="0"
     showgrid="false"
     inkscape:zoom="1.2734375"
     inkscape:cx="-89.91411"
     inkscape:cy="-129.17791"
     inkscape:window-width="1600"
     inkscape:window-height="837"
     inkscape:window-x="-8"
     inkscape:window-y="-8"
     inkscape:window-maximized="1"
     inkscape:current-layer="_QPbOH8Bvnff-nxIn-ryGS" />
  <defs
     id="_-Pf6sSTUS_QCObCL12lGl"
     transform="matrix(1.2307695150375366, 0, 0, 1.2307695150375366, -59.07701110839844, -67.29283142089844)" />
  <g
     id="nutrition-icon"
     transform="translate(-394.85816,-386.45145)">
    <g
       id="_ehe1g4nge_102"
       transform="rotate(14.744902,435.76527,429.1632)">
      <path
         id="_ehe1g4nge_103"
         d="m 211.4,172.1 c 2.8,-3.3 5.9,-7.7 3.9,-11.6 11.2,-6.6 21.1,-15.3 29.2,-25.5 -4.4,3.5 -9.2,6.3 -14.3,8.5 38.3,-37.8 95.9,-55 148.8,-44.4 -42.6,-1.6 -86,9.7 -121.2,33.7 -35.3,23.9 -62.1,60.6 -72.4,102 15.6,-45.3 48.5,-84.4 90.5,-107.4 -3.3,3.4 -6.6,6.9 -10,10.3 16,-6.6 30.5,-16.5 46.4,-23.4 46.7,-20.4 102.9,-12.7 146.4,13.9 43.5,26.6 74.8,70.2 93,117.8 8,20.8 13.6,43.9 6.5,65 -1.6,-27.5 -10.6,-54 -22.3,-78.9 -19.4,-41.5 -47.2,-80.4 -86.3,-104.2 -39.1,-23.7 -90.8,-30 -130.8,-7.7 20.5,-2.2 41.2,-3.4 61.5,-0.5 38.2,5.4 73.5,25.4 100.3,53.1 26.7,27.8 45.2,62.9 56.1,99.8 10.6,36.1 14.1,75.9 0.5,111.1 39.7,-64.2 33.1,-153.6 -15.4,-211.3 -20.3,-24.1 -46.6,-42.6 -75,-56 C 414,101 378,92.1 341.8,93.1 c -36.2,1 -72.4,12.3 -101.3,34.1 24,-21.2 55.3,-33.2 87.1,-36.5 31.9,-3.2 64.2,2 94.5,12.2 63,21.4 120.4,68.6 138.9,132.5 4.7,16.4 6.8,33.4 8.7,50.4 1.6,14.7 2.9,29.4 2.6,44.2 -1.4,73.1 -48.1,144.5 -116.2,171.2 -19.3,7.5 -39.7,11.6 -60.2,14.5 -32.8,4.6 -66.8,6 -98.4,-3.8 -16.3,-5.1 -31.5,-13 -45.6,-22.7 -58.4,-40 -95.3,-109.7 -95.3,-180.5 0,-12.6 1.1,-25.1 2.8,-37.5 1.5,-11.4 3.5,-22.7 6.8,-33.7 5,-16.2 12.8,-31.5 23.1,-45 1.8,-1.1 3.6,-2.3 5.3,-3.5 -23.7,50.1 -37.8,109.3 -16.1,160.4 -7.8,-33.3 -8.3,-68.2 -1.4,-101.6 2.2,-0.8 4.4,-1.7 6.5,-2.6 0.1,-2.2 0.2,-4.3 0.3,-6.5 -1.6,1.8 -3.1,3.6 -4.7,5.3 3.7,-26.5 15.1,-51.6 32.2,-71.9 m 16.1,-1.3 c 6.2,-4.2 12.4,-8.4 18.6,-12.6 -3.9,7.9 -11.1,14.1 -19.5,16.9 -39,40.3 -51,100.4 -46.4,156.2 1.8,21.1 6.1,43 19.7,59.2 -9.5,-39 -10,-80.2 -1.3,-119.4 1.7,-0.1 2.3,2.1 2.3,3.8 0.7,26.3 -3.8,52.6 -1.9,78.9 1.9,26.2 11.7,53.9 33.7,68.2 17.2,11.2 34.3,22.4 51.4,33.6 -40,-12.8 -74.9,-40.6 -96.5,-76.6 5.8,15.7 13.9,30.6 23.9,44 -1.3,-3.6 -2.5,-7.3 -3.8,-11 10.1,9.5 20.3,18.8 30.4,28.2 7.4,6.9 19,13.9 26.6,7.3 1.2,2.5 -1,5.6 -3.7,6.3 -2.7,0.8 -5.6,0 -8.3,-0.8 12.1,8.7 24.7,16.7 37.7,24 -1.9,0.3 -2.5,3.1 -1.3,4.7 1.2,1.6 3.2,2 5.1,2.5 47.7,10.3 98.5,6.5 144.1,-11.1 -39.2,9.2 -81,11.3 -119,-2 -32.1,-11.2 -60.2,-33.3 -78.6,-61.8 -5.9,-9.2 -10.8,-18.9 -15.3,-28.8 -14.5,-32.6 -23.7,-68.2 -21.1,-103.8 2.6,-35.6 18.2,-71.1 46.2,-93.1 2.9,-2.3 6.5,-4.5 10.1,-3.6 -27.6,20 -44,53.1 -48.3,86.9 -4.3,33.9 2.7,68.3 15,100.1 8.8,22.5 20.5,44.3 36.6,62.3 6.9,7.7 14.7,14.7 23.6,20 16.3,9.8 35.6,13.5 54.5,15.9 25.7,3.3 51.6,4.7 77.5,4.1 -32.7,7.7 -66.9,2.2 -100,-3.3 56.2,21.1 122.1,8.2 170.4,-27.3 9.6,-7.1 18.7,-15 26,-24.5 11.2,-14.6 17.9,-32.4 21.3,-50.5 8.8,-47.2 -3.8,-96.5 -26.7,-138.8 -15.9,-29.4 -37,-56.6 -64.8,-75.1 -26,-17.2 -56.9,-26.3 -88,-28 -47.8,-2.8 -98.4,13 -130.2,49 m 93.9,324.8 c 21.5,5.4 43.2,9.3 65.2,11.9 -27,6.2 -54.8,-3.3 -80.9,-12.6 -15.4,-5.4 -31,-11 -45.3,-19 -34.6,-19.2 -60.6,-52.1 -75.7,-88.7 -2.6,-6.5 -5,-13 -7,-19.6 -0.2,-0.8 -0.8,1.1 0,0.7 0.8,-0.3 0.7,-1.5 0.3,-2.3 -9,-21.7 -14.5,-45 -16.2,-68.4 -1.7,35.4 7.1,71 23.1,102.7 17.4,34.5 43.5,64.8 76.3,85.3 32.7,20.5 72.1,30.9 110.5,27.2 54,-5.3 101.4,-36.8 144.9,-69.1 -19.2,25.4 -48.3,41.1 -76.6,55.9 48.9,-13.7 88.1,-52.4 111.7,-97.4 -11.7,20 -30,35.7 -49.9,47.5 -20,11.8 -41.9,20 -63.8,27.9 -9.6,3.5 -19.3,6.9 -29.2,9.7 -28.3,8.1 -58.1,10.9 -87.4,8.3 m 200,-67.6 c 5,-4.7 9.9,-9.5 13.9,-14.9 6.3,-8.7 10.5,-18.8 14.5,-28.8 5.4,-13.6 10.9,-27.3 12.3,-41.9 -2.6,2.3 -3.5,5.7 -4.5,9 -13.3,46.1 -46.2,86.3 -88.9,108.3 20.1,-4.5 37.4,-17.6 52.7,-31.7 M 277,477 c 2.1,0.5 4.7,1.4 4.8,3.5 0.8,-1.4 3.2,-1.4 4.1,0 0.4,-0.1 0.1,-0.8 -0.4,-1 -3,-1.6 -6,-3.2 -8.9,-4.8 -12.1,-6.5 -23.2,-14.6 -33.1,-24 -1.2,2.6 -0.3,5.9 2,7.5 4.4,3.2 8.8,6.4 13.2,9.6 5.3,4.4 11.6,7.6 18.3,9.2 M 565.8,325.8 c -0.4,7.4 -0.8,14.9 -1.3,22.3 -0.1,1 -0.1,2 -0.1,3 -0.1,1.8 -0.2,3.6 -0.4,5.3 -0.1,2.2 -0.2,4.2 -0.2,6.4 4.2,-17 5.7,-34.8 4.4,-52.2 -0.5,-0.2 -1,-0.5 -1.4,-0.8 -0.3,5.3 -0.7,10.6 -1,16 M 177.1,216.2 c -0.7,1.3 -1.3,2.6 -1.9,3.9 0.7,0.9 2,-0.2 2.3,-1.3 0.3,-1 0.6,-2.4 1.7,-2.5 -0.5,-0.5 -1,-1 -1.5,-1.5 -0.2,0.4 -0.4,1 -0.2,1.4 m 72.3,-83 c 1,-0.8 2,-1.6 3,-2.5 -1.7,-0.7 -3.9,0.2 -4.6,2 0.5,0.2 1,0.4 1.6,0.5 m 3.1,-4.7 c 2.2,0.5 4.7,-0.1 6.5,-1.6 -2.3,-0.1 -4.6,0.4 -6.5,1.6 M 173.3,230 c -0.1,-0.5 -0.2,-1 -0.2,-1.4 -1.9,0.7 -2.8,3.3 -1.7,5 0.4,-1.3 1,-2.5 1.9,-3.6 M 162,281 c -0.5,0.7 -0.1,1.9 0.8,2 0.5,-1.6 0.4,-3.3 -0.1,-5 -1,0.5 -1.3,1.9 -0.7,2.8"
         fill="rgba(115,172,118,0.88)"
         transform="matrix(0.19573946,0,0,0.19573946,364.42438,369.55984)" />
      <path
         id="_ehe1g4nge_104"
         d="m 229.4,144 c 0.2,0.3 0.4,0.7 0.6,1 -0.9,1.3 -2.6,1.9 -4.1,1.5 0.8,-1.1 2,-1.9 3.3,-2.2"
         fill="rgba(115,172,118,0.88)"
         transform="matrix(0.19573946,0,0,0.19573946,364.42438,369.55984)" />
      <path
         id="_ehe1g4nge_105"
         d="m 221.5,150.4 c 1.4,-0.5 2.9,-0.8 4.4,-0.7 -0.3,2.2 -4,2.8 -4.9,0.7"
         fill="rgba(115,172,118,0.88)"
         transform="matrix(0.19573946,0,0,0.19573946,364.42438,369.55984)" />
      <path
         id="_ehe1g4nge_106"
         d="m 216.5,145.8 c 0.9,-1.4 2.6,-2.4 4.4,-2.2 0.4,1 0.1,2.2 -0.7,2.9 -1.4,0.2 -3.1,0.4 -4.1,-0.7"
         fill="rgba(115,172,118,0.88)"
         transform="matrix(0.19573946,0,0,0.19573946,364.42438,369.55984)" />
      <path
         id="_ehe1g4nge_107"
         d="m 496.8,152.4 c 0.6,-0.1 1.2,0.5 1.1,1.1 -0.1,0.6 -0.8,1 -1.4,0.8 -0.9,-1 -1.8,-2.1 -2.7,-3.2 1,-0.8 2.8,-0.1 3,1.1"
         fill="rgba(115,172,118,0.88)"
         transform="matrix(0.19573946,0,0,0.19573946,364.42438,369.55984)" />
      <path
         id="_ehe1g4nge_108"
         d="m 225.5,137.6 c 0.7,-0.8 2.1,-0.8 2.9,-0.1 -1.3,1.3 -3,2.2 -4.8,2.8 -0.2,-1.1 0.8,-2.4 1.9,-2.3"
         fill="rgba(115,172,118,0.88)"
         transform="matrix(0.19573946,0,0,0.19573946,364.42438,369.55984)" />
      <path
         id="_ehe1g4nge_109"
         d="m 209.1,230.6 c 0.9,-1.3 3.3,-0.8 3.6,0.8 -1.2,-0.2 -2.5,0.2 -3.3,1.1 -0.5,0.2 -1.3,-0.2 -1.3,-0.8 -0.1,-0.5 0.5,-1.1 1.1,-1"
         fill="rgba(115,172,118,0.88)"
         transform="matrix(0.19573946,0,0,0.19573946,364.42438,369.55984)" />
      <path
         id="_ehe1g4nge_110"
         d="m 266.3,166.6 c 0.5,-0.2 1.2,-0.4 1.7,-0.2 0.6,0.2 0.9,1.1 0.5,1.5 -1.9,1.2 -4.1,1.9 -6.3,2 1,-1.4 2.5,-2.5 4.1,-3.3"
         fill="rgba(115,172,118,0.88)"
         transform="matrix(0.19573946,0,0,0.19573946,364.42438,369.55984)" />
      <path
         id="_ehe1g4nge_111"
         d="m 295.8,479.1 c 1,0.7 2.1,1.4 3.1,2.1 -2.2,0.9 -4.8,0.4 -6.6,-1.2 -0.4,-0.7 0.4,-1.7 1.1,-1.7 0.9,-0.1 1.7,0.4 2.4,0.8"
         fill="rgba(115,172,118,0.88)"
         transform="matrix(0.19573946,0,0,0.19573946,364.42438,369.55984)" />
      <path
         id="_ehe1g4nge_112"
         d="m 250.1,157.4 c -0.5,-1.5 -0.1,-3.3 1.1,-4.4 0.8,-0.2 1.6,-0.8 1.9,-1.7 1.3,0.5 2.5,1 3.8,1.5 -2.2,1.5 -4.5,3 -6.8,4.6"
         fill="rgba(115,172,118,0.88)"
         transform="matrix(0.19573946,0,0,0.19573946,364.42438,369.55984)" />
      <path
         id="_ehe1g4nge_113"
         d="m 201.3,264.8 c 0,-0.6 0,-1.2 0,-1.8 1,-0.5 2.1,-0.5 3,-0.1 -1.8,1.9 -2.8,4.5 -2.6,7.1 -1.1,-0.8 -2.3,-1.7 -3.5,-2.5 1,-0.8 2.1,-1.7 3.2,-2.6"
         fill="rgba(115,172,118,0.88)"
         transform="matrix(0.19573946,0,0,0.19573946,364.42438,369.55984)" />
      <path
         id="_ehe1g4nge_114"
         d="m 194.7,176.5 c 0.4,-3.1 2.2,-5.9 4.7,-7.8 0.7,-0.5 1.8,-0.8 2.2,-0.1 -2.2,2.2 -4,4.7 -5.3,7.5 -0.3,0.5 -1.1,0.8 -1.6,0.4"
         fill="rgba(115,172,118,0.88)"
         transform="matrix(0.19573946,0,0,0.19573946,364.42438,369.55984)" />
      <path
         id="_ehe1g4nge_115"
         d="m 205,238.5 c 2,-1.5 3.9,-3 5.9,-4.5 -0.5,1.9 -1,3.6 -1.5,5.5 -0.7,0.4 -1.2,1.1 -1.9,1.5 -0.7,0.4 -1.7,0.5 -2.2,-0.2 -0.4,-0.7 0.7,-1.7 1.1,-1 -0.4,-0.4 -0.9,-0.8 -1.4,-1.3"
         fill="rgba(115,172,118,0.88)"
         transform="matrix(0.19573946,0,0,0.19573946,364.42438,369.55984)" />
      <path
         id="_ehe1g4nge_116"
         d="m 281.2,161 c -0.2,0.5 -0.4,1 -0.2,1.6 -1.6,0.3 -3.1,0.6 -4.5,0.9 -0.2,0.6 -0.4,1.2 -0.6,1.8 -1.2,-0.1 -2.4,-0.1 -3.5,-0.1 -1,-0.5 0,-1.9 1,-2.4 2,-1 4.1,-1.6 6.3,-1.9 -0.3,-0.5 -0.6,-0.9 -0.9,-1.4 1.6,-1.3 3.5,-2.2 5.6,-2.8 0.4,0.7 0.5,1.5 0.3,2.3 -0.7,0.3 -1.4,0.4 -2.1,0.2 0.1,0.5 0.2,1 0.3,1.6 -0.7,0.2 -1.2,0.3 -1.7,0.2"
         fill="rgba(115,172,118,0.88)"
         transform="matrix(0.19573946,0,0,0.19573946,364.42438,369.55984)" />
      <path
         id="_ehe1g4nge_117"
         d="m 203,170.4 c 0.8,-0.5 1.9,-0.7 2.8,-0.5 -0.4,-0.5 -0.7,-1 -1,-1.5 1,-0.2 2,-0.4 3.1,-0.5 0.4,-1 0.4,-2.2 0,-3.2 1.1,-0.1 2.3,0.1 3.3,0.5 0.3,0.4 0.4,1 0.3,1.5 -0.5,0.2 -1.1,0.4 -1.7,0.6 -0.2,1 -0.5,2 -0.7,3 -0.5,0.3 -1.3,0.4 -1.9,0.2 -0.9,5.4 -6.8,8.5 -8.9,13.5 -0.7,1.7 -1.4,3.9 -3.2,3.9 -0.5,-0.6 -0.4,-1.7 0.3,-2.2 -0.7,-0.2 -1.3,-0.4 -1.9,-0.6 -0.1,-1.1 1.7,-0.8 2.6,-0.1 0.8,-0.7 0.1,-2.3 -0.9,-2.3 1.1,-0.9 1.8,-2.3 2,-3.7 1.1,0.1 2.2,-0.3 2.9,-1.1 -0.8,0.2 -1.7,-0.4 -1.9,-1.3 1.6,0.3 3.2,-1.2 3.1,-2.8 1.2,-0.7 2.4,-1.4 3.6,-2.1 -0.5,-0.3 -1.2,-0.8 -1.9,-1.3"
         fill="rgba(115,172,118,0.88)"
         transform="matrix(0.19573946,0,0,0.19573946,364.42438,369.55984)" />
      <path
         id="_ehe1g4nge_118"
         d="m 517.1,175.7 c -2.2,-3 -4.5,-5.9 -7.3,-8.4 -3.9,-3.5 -8.9,-6.6 -9.7,-11.8 23.5,19.9 41.6,46.2 51.7,75.3 0.9,0.8 -0.1,2.6 -1.2,2.3 -8.8,-20.3 -20.1,-39.7 -33.5,-57.4"
         fill="rgba(115,172,118,0.88)"
         transform="matrix(0.19573946,0,0,0.19573946,364.42438,369.55984)" />
      <path
         id="_ehe1g4nge_119"
         d="m 253.1,159.9 c 4.1,-3.3 8.8,-6.4 10.5,-11.4 0.5,-1.4 1.9,-2.5 3.2,-3.3 20.2,-12.7 43.8,-19.7 67.6,-20.1 -11.9,3.2 -23.7,6.3 -35.6,9.5 -18.5,4.9 -32.1,20.2 -44.6,34.8 -10.8,12.7 -21.7,25.4 -32.5,38.2 -1.3,3.5 -2.5,7.1 -3.8,10.6 -0.5,1.6 -1.1,3.2 -2.5,4.2 -1.3,1 -3.5,1 -4.3,-0.5 4.8,-8.4 9.6,-16.9 14.5,-25.4 7.8,-13.2 15.6,-26.8 27.5,-36.6"
         fill="rgba(115,172,118,0.88)"
         transform="matrix(0.19573946,0,0,0.19573946,364.42438,369.55984)" />
    </g>
    <path
       id="_ehe1g4nge_120"
       d="M 78.676,0 C 70.681,0 60.315,4.912 54.023,11.201 44.03,21.191 49.165,34.328 45.234,38.256 41.296,42.194 23.281,56.779 14.086,65.986 -2.788,82.848 -0.959,85.475 1.778,88.213 c 0.946,0.945 1.877,1.781 3.381,1.781 2.863,0 7.799,-3.023 18.85,-14.08 9.206,-9.199 23.8,-27.211 27.73,-31.145 C 55.67,40.837 68.664,46.105 78.794,35.98 87.761,27.01 93.92,9.771 87.077,2.93 85.034,0.887 82.067,0 78.676,0 Z m -1.219,34.643 c -5.73,5.727 -12.51,6.092 -17.959,6.387 -3.798,0.203 -7.075,0.381 -9.096,2.402 -1.6,1.6 -4.744,5.268 -8.727,9.908 C 35.671,60.342 28.197,69.053 22.67,74.576 13.57,83.68 7.844,88.101 5.158,88.101 4.456,88.101 3.979,87.74 3.115,86.874 2.003,85.763 1.445,85.204 2.321,83.132 3.65,79.974 7.936,74.804 15.422,67.323 20.938,61.8 29.642,54.337 36.636,48.341 c 4.654,-3.99 8.331,-7.145 9.935,-8.748 2.024,-2.021 2.216,-5.332 2.441,-9.166 C 49.33,24.966 49.725,18.167 55.36,12.538 61.433,6.468 71.457,1.89 78.675,1.89 c 3.111,0 5.486,0.801 7.064,2.375 5.846,5.846 0.238,21.854 -8.282,30.378 z"
       fill="#1d398f"
       transform="matrix(0.47289205,0,0,0.47289205,414.4856,407.88373)"
       stroke="#1d398f" />
  </g>
  <path
     id="nutrition-icon-text"
     text="nutrition"
     fill="#f55e00"
     space="preserve"
     text-anchor="middle"
     offset="0.5"
     font-scale="contain"
     font-size="48px"
     font-family="'Open Sans'"
     data-fl-textpath=""
     d="m 20.392134,102.30435 h -1.214616 v -5.18944 q 0,-0.980436 -0.446505,-1.461286 -0.446504,-0.483973 -1.395716,-0.483973 v 0 q -1.258329,0 -1.845342,0.680684 -0.58389,0.680685 -0.58389,2.245011 v 0 4.209004 h -1.214616 v -8.021463 h 0.986681 l 0.196711,1.099087 h 0.05933 q 0.371566,-0.593257 1.046006,-0.917987 0.67444,-0.327853 1.501878,-0.327853 v 0 q 1.448796,0 2.17944,0.699419 0.730643,0.699419 0.730643,2.235643 v 0 z m 2.407668,-8.021463 h 1.230228 v 5.205052 q 0,0.980431 0.446504,1.461291 0.446504,0.48397 1.398838,0.48397 v 0 q 1.25833,0 1.839098,-0.68693 0.58389,-0.69005 0.58389,-2.248134 v 0 -4.215249 h 1.214616 v 8.021463 h -1.002292 l -0.177978,-1.07723 h -0.06557 q -0.371567,0.59326 -1.033517,0.90862 -0.665072,0.31536 -1.511245,0.31536 v 0 q -1.464408,0 -2.191929,-0.69629 -0.730643,-0.69318 -0.730643,-2.223157 v 0 z m 11.877927,7.165923 v 0 q 0.321608,0 0.621359,-0.0468 0.302874,-0.05 0.477728,-0.0999 v 0 0.93047 q -0.199833,0.0937 -0.583889,0.15612 -0.384056,0.0624 -0.690052,0.0624 v 0 q -2.326194,0 -2.326194,-2.45109 v 0 -4.771033 h -1.149045 v -0.587013 l 1.149045,-0.50583 0.512075,-1.711079 h 0.702542 v 1.857832 h 2.326193 v 0.94609 h -2.326193 v 4.717956 q 0,0.724397 0.343464,1.114697 0.343465,0.38718 0.942967,0.38718 z m 6.358879,-7.312676 v 0 q 0.533931,0 0.958579,0.08743 v 0 l -0.165488,1.127188 q -0.499585,-0.109284 -0.880518,-0.109284 v 0 q -0.971069,0 -1.664243,0.789969 -0.690052,0.793091 -0.690052,1.970239 v 0 4.302674 H 37.38027 v -8.021461 h 1.002292 l 0.137386,1.486266 h 0.05933 q 0.446504,-0.783724 1.074108,-1.208371 0.630726,-0.424648 1.383226,-0.424648 z m 3.676243,0.146753 v 8.021463 h -1.214616 v -8.021463 z m -1.317655,-2.173195 v 0 q 0,-0.41528 0.202956,-0.611991 0.206079,-0.19359 0.512075,-0.19359 v 0 q 0.293506,0 0.50583,0.199834 0.212323,0.196712 0.212323,0.605747 v 0 q 0,0.409036 -0.212323,0.611992 -0.212324,0.199834 -0.50583,0.199834 v 0 q -0.305996,0 -0.512075,-0.199834 -0.202956,-0.202956 -0.202956,-0.611992 z m 6.482311,9.339118 v 0 q 0.321608,0 0.621359,-0.0468 0.302873,-0.05 0.477728,-0.0999 v 0 0.93047 q -0.199834,0.0937 -0.58389,0.15612 -0.384056,0.0624 -0.690052,0.0624 v 0 q -2.326193,0 -2.326193,-2.45109 v 0 -4.771033 h -1.149045 v -0.587013 l 1.149045,-0.50583 0.512075,-1.711079 h 0.702542 v 1.857832 h 2.326192 v 0.94609 h -2.326192 v 4.717956 q 0,0.724397 0.343464,1.114697 0.343465,0.38718 0.942967,0.38718 z m 3.917157,-7.165923 v 8.021463 h -1.214617 v -8.021463 z m -1.317656,-2.173195 v 0 q 0,-0.41528 0.202956,-0.611991 0.206079,-0.19359 0.512075,-0.19359 v 0 q 0.293506,0 0.50583,0.199834 0.212324,0.196712 0.212324,0.605747 v 0 q 0,0.409036 -0.212324,0.611992 -0.212324,0.199834 -0.50583,0.199834 v 0 q -0.305996,0 -0.512075,-0.199834 -0.202956,-0.202956 -0.202956,-0.611992 z m 10.816212,6.176121 v 0 q 0,1.960867 -0.989803,3.063077 -0.986681,1.10221 -2.728984,1.10221 v 0 q -1.074107,0 -1.910912,-0.50583 -0.833683,-0.50583 -1.286432,-1.44879 -0.452749,-0.94297 -0.452749,-2.210667 v 0 q 0,-1.960872 0.980436,-3.053714 0.980436,-1.095965 2.719616,-1.095965 v 0 q 1.6861,0 2.675903,1.120944 0.992925,1.120944 0.992925,3.028735 z m -6.11055,0 v 0 q 0,1.536224 0.615114,2.341807 0.611992,0.80558 1.804751,0.80558 v 0 q 1.192759,0 1.814118,-0.80246 0.618237,-0.799336 0.618237,-2.344927 v 0 q 0,-1.52998 -0.618237,-2.323071 -0.621359,-0.793091 -1.826608,-0.793091 v 0 q -1.192759,0 -1.801628,0.783724 -0.605747,0.780601 -0.605747,2.332438 z m 14.941399,4.018537 h -1.214617 v -5.18944 q 0,-0.980436 -0.446504,-1.461286 -0.446504,-0.483973 -1.395715,-0.483973 v 0 q -1.25833,0 -1.845343,0.680684 Q 66.638,96.53102 66.638,98.095346 v 0 4.209004 h -1.214616 v -8.021463 h 0.986681 l 0.196711,1.099087 h 0.05933 q 0.371566,-0.593257 1.046006,-0.917987 0.67444,-0.327853 1.501878,-0.327853 v 0 q 1.448796,0 2.17944,0.699419 0.730643,0.699419 0.730643,2.235643 v 0 z"
     style="stroke-width:0.312241" />
</svg>
