<svg xmlns="http://www.w3.org/2000/svg" width="150" height="150" viewBox="220 385 120 100" data-svgdocument="" id="_QPbOH8Bvnff-nxIn-ryGS" class="fl-svgdocument" x="0" y="0" style="overflow: hidden;"
    xmlns:xlink="http://www.w3.org/1999/xlink">
    <defs id="_-Pf6sSTUS_QCObCL12lGl" transform="matrix(1.2307695150375366, 0, 0, 1.2307695150375366, -59.07701110839844, -67.29283142089844)"/>
    <path id="order-icon-text" text="order" fill="#f55e00" transform="matrix(0.2955852746963501, 0, 0, 0.29558485746383667, 271.52911376953125, 487.93475341796875)" space="preserve" text-anchor="middle" offset="0.5" font-scale="contain" font-size="48" font-family="Open Sans" data-fl-textpath="" d="M-35.96171875-12.87L-35.96171875-12.87Q-35.96171875-6.59 -39.131718750000005-3.06Q-42.29171875 0.47 -47.87171875 0.47L-47.87171875 0.47Q-51.31171875 0.47 -53.991718750000004-1.15Q-56.66171875-2.77 -58.11171875-5.79Q-59.56171875-8.81 -59.56171875-12.87L-59.56171875-12.87Q-59.56171875-19.15 -56.42171875-22.65Q-53.281718749999996-26.16 -47.71171875-26.16L-47.71171875-26.16Q-42.31171875-26.16 -39.141718749999995-22.57Q-35.96171875-18.98 -35.96171875-12.87ZM-55.531718749999996-12.87L-55.531718749999996-12.87Q-55.531718749999996-7.95 -53.56171875-5.37Q-51.60171875-2.79 -47.781718749999996-2.79L-47.781718749999996-2.79Q-43.96171875-2.79 -41.97171875-5.36Q-39.991718750000004-7.92 -39.991718750000004-12.87L-39.991718750000004-12.87Q-39.991718750000004-17.77 -41.97171875-20.31Q-43.96171875-22.85 -47.82171875-22.85L-47.82171875-22.85Q-51.64171875-22.85 -53.59171875-20.34Q-55.531718749999996-17.84 -55.531718749999996-12.87ZM-17.42953125-26.16L-17.42953125-26.16Q-15.71953125-26.16 -14.35953125-25.88L-14.35953125-25.88L-14.889531250000001-22.27Q-16.48953125-22.62 -17.709531249999998-22.62L-17.709531249999998-22.62Q-20.81953125-22.62 -23.03953125-20.09Q-25.24953125-17.55 -25.24953125-13.78L-25.24953125-13.78L-25.24953125 0L-29.13953125 0L-29.13953125-25.69L-25.92953125-25.69L-25.48953125-20.93L-25.29953125-20.93Q-23.86953125-23.44 -21.85953125-24.8Q-19.83953125-26.16 -17.42953125-26.16ZM 8.454218749999999 0L 7.934218749999999-3.45L 7.724218749999999-3.45Q 5.024218749999999 0.47 -0.33578125000000014 0.47L-0.33578125000000014 0.47Q-5.375781249999999 0.47 -8.17578125-2.98Q-10.97578125-6.42 -10.97578125-12.77L-10.97578125-12.77Q-10.97578125-19.13 -8.16578125-22.64Q-5.35578125-26.16 -0.33578125000000014-26.16L-0.33578125000000014-26.16Q 4.884218749999999-26.16  7.674218750000001-22.36L 7.674218750000001-22.36L 7.98421875-22.36L 7.814218749999998-24.21L 7.724218749999999-26.02L 7.724218749999999-36.47L 11.61421875-36.47L 11.61421875 0L 8.454218749999999 0ZM 0.15421875000000007-2.79L 0.15421875000000007-2.79Q 4.134218749999999-2.79  5.934218749999999-4.96Q 7.724218749999999-7.13  7.724218749999999-11.95L 7.724218749999999-11.95L 7.724218749999999-12.77Q 7.724218749999999-18.23  5.904218749999998-20.57Q 4.09421875-22.9  0.10421874999999936-22.9L 0.10421874999999936-22.9Q-3.3157812500000006-22.9 -5.135781250000001-20.24Q-6.94578125-17.58 -6.94578125-12.73L-6.94578125-12.73Q-6.94578125-7.8 -5.145781250000001-5.3Q-3.33578125-2.79  0.15421875000000007-2.79ZM 30.71828125 0.47L 30.71828125 0.47Q 25.01828125 0.47  21.728281250000002-3Q 18.43828125-6.47  18.43828125-12.63L 18.43828125-12.63Q 18.43828125-18.84  21.48828125-22.5Q 24.548281250000002-26.16  29.70828125-26.16L 29.70828125-26.16Q 34.53828125-26.16  37.34828125-22.98Q 40.15828125-19.8  40.15828125-14.6L 40.15828125-14.6L 40.15828125-12.14L 22.46828125-12.14Q 22.57828125-7.62  24.748281249999998-5.27Q 26.91828125-2.93  30.858281249999997-2.93L 30.858281249999997-2.93Q 35.008281249999996-2.93  39.05828125-4.66L 39.05828125-4.66L 39.05828125-1.2Q 36.998281250000005-0.3  35.15828125 0.08Q 33.31828125 0.47  30.71828125 0.47ZM 29.65828125-22.9L 29.65828125-22.9Q 26.56828125-22.9  24.728281250000002-20.88Q 22.88828125-18.87  22.55828125-15.3L 22.55828125-15.3L 35.98828125-15.3Q 35.98828125-18.98  34.34828125-20.94Q 32.70828125-22.9  29.65828125-22.9ZM 58.50796875-26.16L 58.50796875-26.16Q 60.21796875-26.16  61.57796875-25.88L 61.57796875-25.88L 61.047968749999995-22.27Q 59.44796875-22.62  58.22796875-22.62L 58.22796875-22.62Q 55.11796875-22.62  52.897968750000004-20.09Q 50.687968749999996-17.55  50.687968749999996-13.78L 50.687968749999996-13.78L 50.687968749999996 0L 46.79796875 0L 46.79796875-25.69L 50.00796875-25.69L 50.44796875-20.93L 50.63796875-20.93Q 52.06796875-23.44  54.07796875-24.8Q 56.09796875-26.16  58.50796875-26.16Z"></path>
    <g id="order-icon" transform="matrix(1, 0, 0, 1, -54.58024597167969, 0.12360431998968124)">
        <g id="_ehe1g4nge_145" transform="matrix(0.166987806558609, -0.1021224856376648, 0.1021224856376648, 0.166987806558609, 234.44882202148438, 414.6971130371094)" fill="rgba(115,172,118,0.88)">
            <svg id="_ehe1g4nge_146"
                xmlns="http://www.w3.org/2000/svg"
                xmlns:xlink="http://www.w3.org/1999/xlink" version="1.1" x="0px" y="0px" viewBox="0 0 792 612" width="792" height="612">
                <g id="_ehe1g4nge_147" fill="rgba(115,172,118,0.88)">
                    <desc id="_ehe1g4nge_148"
                        xmlns:shape="http://adobe.com/products/shape"/>
                    <path id="_ehe1g4nge_149" d="M211.4,172.1c2.8-3.3,5.9-7.7,3.9-11.6c11.2-6.6,21.1-15.3,29.2-25.5c-4.4,3.5-9.2,6.3-14.3,8.5   c38.3-37.8,95.9-55,148.8-44.4c-42.6-1.6-86,9.7-121.2,33.7c-35.3,23.9-62.1,60.6-72.4,102c15.6-45.3,48.5-84.4,90.5-107.4   c-3.3,3.4-6.6,6.9-10,10.3c16-6.6,30.5-16.5,46.4-23.4c46.7-20.4,102.9-12.7,146.4,13.9c43.5,26.6,74.8,70.2,93,117.8   c8,20.8,13.6,43.9,6.5,65c-1.6-27.5-10.6-54-22.3-78.9c-19.4-41.5-47.2-80.4-86.3-104.2c-39.1-23.7-90.8-30-130.8-7.7   c20.5-2.2,41.2-3.4,61.5-0.5c38.2,5.4,73.5,25.4,100.3,53.1c26.7,27.8,45.2,62.9,56.1,99.8c10.6,36.1,14.1,75.9,0.5,111.1   c39.7-64.2,33.1-153.6-15.4-211.3c-20.3-24.1-46.6-42.6-75-56c-32.8-15.4-68.8-24.3-105-23.3s-72.4,12.3-101.3,34.1   c24-21.2,55.3-33.2,87.1-36.5c31.9-3.2,64.2,2,94.5,12.2c63,21.4,120.4,68.6,138.9,132.5c4.7,16.4,6.8,33.4,8.7,50.4   c1.6,14.7,2.9,29.4,2.6,44.2c-1.4,73.1-48.1,144.5-116.2,171.2c-19.3,7.5-39.7,11.6-60.2,14.5c-32.8,4.6-66.8,6-98.4-3.8   c-16.3-5.1-31.5-13-45.6-22.7c-58.4-40-95.3-109.7-95.3-180.5c0-12.6,1.1-25.1,2.8-37.5c1.5-11.4,3.5-22.7,6.8-33.7   c5-16.2,12.8-31.5,23.1-45c1.8-1.1,3.6-2.3,5.3-3.5c-23.7,50.1-37.8,109.3-16.1,160.4c-7.8-33.3-8.3-68.2-1.4-101.6   c2.2-0.8,4.4-1.7,6.5-2.6c0.1-2.2,0.2-4.3,0.3-6.5c-1.6,1.8-3.1,3.6-4.7,5.3C182.9,217.5,194.3,192.4,211.4,172.1 M227.5,170.8   c6.2-4.2,12.4-8.4,18.6-12.6c-3.9,7.9-11.1,14.1-19.5,16.9c-39,40.3-51,100.4-46.4,156.2c1.8,21.1,6.1,43,19.7,59.2   c-9.5-39-10-80.2-1.3-119.4c1.7-0.1,2.3,2.1,2.3,3.8c0.7,26.3-3.8,52.6-1.9,78.9c1.9,26.2,11.7,53.9,33.7,68.2   c17.2,11.2,34.3,22.4,51.4,33.6c-40-12.8-74.9-40.6-96.5-76.6c5.8,15.7,13.9,30.6,23.9,44c-1.3-3.6-2.5-7.3-3.8-11   c10.1,9.5,20.3,18.8,30.4,28.2c7.4,6.9,19,13.9,26.6,7.3c1.2,2.5-1,5.6-3.7,6.3c-2.7,0.8-5.6,0-8.3-0.8c12.1,8.7,24.7,16.7,37.7,24   c-1.9,0.3-2.5,3.1-1.3,4.7c1.2,1.6,3.2,2,5.1,2.5c47.7,10.3,98.5,6.5,144.1-11.1c-39.2,9.2-81,11.3-119-2   c-32.1-11.2-60.2-33.3-78.6-61.8c-5.9-9.2-10.8-18.9-15.3-28.8c-14.5-32.6-23.7-68.2-21.1-103.8c2.6-35.6,18.2-71.1,46.2-93.1   c2.9-2.3,6.5-4.5,10.1-3.6c-27.6,20-44,53.1-48.3,86.9c-4.3,33.9,2.7,68.3,15,100.1c8.8,22.5,20.5,44.3,36.6,62.3   c6.9,7.7,14.7,14.7,23.6,20c16.3,9.8,35.6,13.5,54.5,15.9c25.7,3.3,51.6,4.7,77.5,4.1c-32.7,7.7-66.9,2.2-100-3.3   c56.2,21.1,122.1,8.2,170.4-27.3c9.6-7.1,18.7-15,26-24.5c11.2-14.6,17.9-32.4,21.3-50.5c8.8-47.2-3.8-96.5-26.7-138.8   c-15.9-29.4-37-56.6-64.8-75.1c-26-17.2-56.9-26.3-88-28C309.9,119,259.3,134.8,227.5,170.8 M321.4,495.6   c21.5,5.4,43.2,9.3,65.2,11.9c-27,6.2-54.8-3.3-80.9-12.6c-15.4-5.4-31-11-45.3-19c-34.6-19.2-60.6-52.1-75.7-88.7   c-2.6-6.5-5-13-7-19.6c-0.2-0.8-0.8,1.1,0,0.7c0.8-0.3,0.7-1.5,0.3-2.3c-9-21.7-14.5-45-16.2-68.4c-1.7,35.4,7.1,71,23.1,102.7   c17.4,34.5,43.5,64.8,76.3,85.3c32.7,20.5,72.1,30.9,110.5,27.2c54-5.3,101.4-36.8,144.9-69.1c-19.2,25.4-48.3,41.1-76.6,55.9   c48.9-13.7,88.1-52.4,111.7-97.4c-11.7,20-30,35.7-49.9,47.5c-20,11.8-41.9,20-63.8,27.9c-9.6,3.5-19.3,6.9-29.2,9.7   C380.5,495.4,350.7,498.2,321.4,495.6 M521.4,428c5-4.7,9.9-9.5,13.9-14.9c6.3-8.7,10.5-18.8,14.5-28.8   c5.4-13.6,10.9-27.3,12.3-41.9c-2.6,2.3-3.5,5.7-4.5,9c-13.3,46.1-46.2,86.3-88.9,108.3C488.8,455.2,506.1,442.1,521.4,428    M277,477c2.1,0.5,4.7,1.4,4.8,3.5c0.8-1.4,3.2-1.4,4.1,0c0.4-0.1,0.1-0.8-0.4-1c-3-1.6-6-3.2-8.9-4.8c-12.1-6.5-23.2-14.6-33.1-24   c-1.2,2.6-0.3,5.9,2,7.5c4.4,3.2,8.8,6.4,13.2,9.6C264,472.2,270.3,475.4,277,477 M565.8,325.8c-0.4,7.4-0.8,14.9-1.3,22.3   c-0.1,1-0.1,2-0.1,3c-0.1,1.8-0.2,3.6-0.4,5.3c-0.1,2.2-0.2,4.2-0.2,6.4c4.2-17,5.7-34.8,4.4-52.2c-0.5-0.2-1-0.5-1.4-0.8   C566.5,315.1,566.1,320.4,565.8,325.8 M177.1,216.2c-0.7,1.3-1.3,2.6-1.9,3.9c0.7,0.9,2-0.2,2.3-1.3c0.3-1,0.6-2.4,1.7-2.5   c-0.5-0.5-1-1-1.5-1.5c-0.2,0.4-0.4,1-0.2,1.4 M249.8,133.2c1-0.8,2-1.6,3-2.5c-1.7-0.7-3.9,0.2-4.6,2   C248.7,132.9,249.2,133.1,249.8,133.2 M252.9,128.5c2.2,0.5,4.7-0.1,6.5-1.6C257.1,126.8,254.8,127.3,252.9,128.5 M173.3,230   c-0.1-0.5-0.2-1-0.2-1.4c-1.9,0.7-2.8,3.3-1.7,5C171.8,232.3,172.4,231.1,173.3,230 M162,281c-0.5,0.7-0.1,1.9,0.8,2   c0.5-1.6,0.4-3.3-0.1-5c-1,0.5-1.3,1.9-0.7,2.8" fill="rgba(115,172,118,0.88)"/>
                    <path id="_ehe1g4nge_150" d="M229.4,144c0.2,0.3,0.4,0.7,0.6,1c-0.9,1.3-2.6,1.9-4.1,1.5c0.8-1.1,2-1.9,3.3-2.2" fill="rgba(115,172,118,0.88)"/>
                    <path id="_ehe1g4nge_151" d="M221.5,150.4c1.4-0.5,2.9-0.8,4.4-0.7c-0.3,2.2-4,2.8-4.9,0.7" fill="rgba(115,172,118,0.88)"/>
                    <path id="_ehe1g4nge_152" d="M216.5,145.8c0.9-1.4,2.6-2.4,4.4-2.2c0.4,1,0.1,2.2-0.7,2.9c-1.4,0.2-3.1,0.4-4.1-0.7" fill="rgba(115,172,118,0.88)"/>
                    <path id="_ehe1g4nge_153" d="M496.8,152.4c0.6-0.1,1.2,0.5,1.1,1.1c-0.1,0.6-0.8,1-1.4,0.8c-0.9-1-1.8-2.1-2.7-3.2c1-0.8,2.8-0.1,3,1.1" fill="rgba(115,172,118,0.88)"/>
                    <path id="_ehe1g4nge_154" d="M225.5,137.6c0.7-0.8,2.1-0.8,2.9-0.1c-1.3,1.3-3,2.2-4.8,2.8c-0.2-1.1,0.8-2.4,1.9-2.3" fill="rgba(115,172,118,0.88)"/>
                    <path id="_ehe1g4nge_155" d="M209.1,230.6c0.9-1.3,3.3-0.8,3.6,0.8c-1.2-0.2-2.5,0.2-3.3,1.1c-0.5,0.2-1.3-0.2-1.3-0.8   c-0.1-0.5,0.5-1.1,1.1-1" fill="rgba(115,172,118,0.88)"/>
                    <path id="_ehe1g4nge_156" d="M266.3,166.6c0.5-0.2,1.2-0.4,1.7-0.2c0.6,0.2,0.9,1.1,0.5,1.5c-1.9,1.2-4.1,1.9-6.3,2   C263.2,168.5,264.7,167.4,266.3,166.6" fill="rgba(115,172,118,0.88)"/>
                    <path id="_ehe1g4nge_157" d="M295.8,479.1c1,0.7,2.1,1.4,3.1,2.1c-2.2,0.9-4.8,0.4-6.6-1.2c-0.4-0.7,0.4-1.7,1.1-1.7   C294.3,478.2,295.1,478.7,295.8,479.1" fill="rgba(115,172,118,0.88)"/>
                    <path id="_ehe1g4nge_158" d="M250.1,157.4c-0.5-1.5-0.1-3.3,1.1-4.4c0.8-0.2,1.6-0.8,1.9-1.7c1.3,0.5,2.5,1,3.8,1.5   C254.7,154.3,252.4,155.8,250.1,157.4" fill="rgba(115,172,118,0.88)"/>
                    <path id="_ehe1g4nge_159" d="M201.3,264.8c0-0.6,0-1.2,0-1.8c1-0.5,2.1-0.5,3-0.1c-1.8,1.9-2.8,4.5-2.6,7.1c-1.1-0.8-2.3-1.7-3.5-2.5   c1-0.8,2.1-1.7,3.2-2.6" fill="rgba(115,172,118,0.88)"/>
                    <path id="_ehe1g4nge_160" d="M194.7,176.5c0.4-3.1,2.2-5.9,4.7-7.8c0.7-0.5,1.8-0.8,2.2-0.1c-2.2,2.2-4,4.7-5.3,7.5   C196,176.6,195.2,176.9,194.7,176.5" fill="rgba(115,172,118,0.88)"/>
                    <path id="_ehe1g4nge_161" d="M205,238.5c2-1.5,3.9-3,5.9-4.5c-0.5,1.9-1,3.6-1.5,5.5c-0.7,0.4-1.2,1.1-1.9,1.5c-0.7,0.4-1.7,0.5-2.2-0.2   c-0.4-0.7,0.7-1.7,1.1-1C206,239.4,205.5,239,205,238.5" fill="rgba(115,172,118,0.88)"/>
                    <path id="_ehe1g4nge_162" d="M281.2,161c-0.2,0.5-0.4,1-0.2,1.6c-1.6,0.3-3.1,0.6-4.5,0.9c-0.2,0.6-0.4,1.2-0.6,1.8   c-1.2-0.1-2.4-0.1-3.5-0.1c-1-0.5,0-1.9,1-2.4c2-1,4.1-1.6,6.3-1.9c-0.3-0.5-0.6-0.9-0.9-1.4c1.6-1.3,3.5-2.2,5.6-2.8   c0.4,0.7,0.5,1.5,0.3,2.3c-0.7,0.3-1.4,0.4-2.1,0.2c0.1,0.5,0.2,1,0.3,1.6C282.2,161,281.7,161.1,281.2,161" fill="rgba(115,172,118,0.88)"/>
                    <path id="_ehe1g4nge_163" d="M203,170.4c0.8-0.5,1.9-0.7,2.8-0.5c-0.4-0.5-0.7-1-1-1.5c1-0.2,2-0.4,3.1-0.5c0.4-1,0.4-2.2,0-3.2   c1.1-0.1,2.3,0.1,3.3,0.5c0.3,0.4,0.4,1,0.3,1.5c-0.5,0.2-1.1,0.4-1.7,0.6c-0.2,1-0.5,2-0.7,3c-0.5,0.3-1.3,0.4-1.9,0.2   c-0.9,5.4-6.8,8.5-8.9,13.5c-0.7,1.7-1.4,3.9-3.2,3.9c-0.5-0.6-0.4-1.7,0.3-2.2c-0.7-0.2-1.3-0.4-1.9-0.6c-0.1-1.1,1.7-0.8,2.6-0.1   c0.8-0.7,0.1-2.3-0.9-2.3c1.1-0.9,1.8-2.3,2-3.7c1.1,0.1,2.2-0.3,2.9-1.1c-0.8,0.2-1.7-0.4-1.9-1.3c1.6,0.3,3.2-1.2,3.1-2.8   c1.2-0.7,2.4-1.4,3.6-2.1C204.4,171.4,203.7,170.9,203,170.4" fill="rgba(115,172,118,0.88)"/>
                    <path id="_ehe1g4nge_164" d="M517.1,175.7c-2.2-3-4.5-5.9-7.3-8.4c-3.9-3.5-8.9-6.6-9.7-11.8c23.5,19.9,41.6,46.2,51.7,75.3   c0.9,0.8-0.1,2.6-1.2,2.3C541.8,212.8,530.5,193.4,517.1,175.7" fill="rgba(115,172,118,0.88)"/>
                    <path id="_ehe1g4nge_165" d="M253.1,159.9c4.1-3.3,8.8-6.4,10.5-11.4c0.5-1.4,1.9-2.5,3.2-3.3c20.2-12.7,43.8-19.7,67.6-20.1   c-11.9,3.2-23.7,6.3-35.6,9.5c-18.5,4.9-32.1,20.2-44.6,34.8c-10.8,12.7-21.7,25.4-32.5,38.2c-1.3,3.5-2.5,7.1-3.8,10.6   c-0.5,1.6-1.1,3.2-2.5,4.2c-1.3,1-3.5,1-4.3-0.5c4.8-8.4,9.6-16.9,14.5-25.4C233.4,183.3,241.2,169.7,253.1,159.9" fill="rgba(115,172,118,0.88)"/>
                </g>
            </svg>
        </g>
        <g id="_ehe1g4nge_166" transform="matrix(0.7691630125045776, 0, 0, 0.7691630125045776, 229.3097686767578, 329.87054443359375)" stroke="#1d398f" stroke-width="2" fill="rgba(191,64,64,0)">
            <svg id="_ehe1g4nge_167"
                xmlns="http://www.w3.org/2000/svg"
                xmlns:xlink="http://www.w3.org/1999/xlink" version="1.1" x="0px" y="0px" viewBox="0 0 256 256" enable-background="new 0 0 256 256" width="256" height="256" stroke-width="2">
                <g id="_ehe1g4nge_168" stroke="#1d398f" fill="rgba(191,64,64,0)">
                    <path id="_ehe1g4nge_169" d="M118.37,144.001c-3.513,0-6.368-2.855-6.368-6.369c0-3.521,2.855-6.369,6.368-6.369   c3.523,0,6.369,2.848,6.369,6.369C124.739,141.146,121.893,144.001,118.37,144.001L118.37,144.001z" stroke="#1d398f" fill="rgba(191,64,64,0)"/>
                    <path id="_ehe1g4nge_170" d="M99.112,124.737c-3.515,0-6.371-2.848-6.371-6.369c0-3.512,2.856-6.367,6.371-6.367   c3.526,0,6.37,2.855,6.37,6.367C105.482,121.89,102.638,124.737,99.112,124.737L99.112,124.737z" stroke="#1d398f" fill="rgba(191,64,64,0)"/>
                    <path id="_ehe1g4nge_171" d="M118.37,124.737c-3.513,0-6.368-2.848-6.368-6.369c0-3.512,2.855-6.367,6.368-6.367   c3.523,0,6.369,2.855,6.369,6.367C124.739,121.89,121.893,124.737,118.37,124.737L118.37,124.737z" stroke="#1d398f" fill="rgba(191,64,64,0)"/>
                    <path id="_ehe1g4nge_172" d="M137.641,144.001c-3.53,0-6.377-2.855-6.377-6.369c0-3.521,2.847-6.369,6.377-6.369   c3.505,0,6.36,2.848,6.36,6.369C144.001,141.146,141.146,144.001,137.641,144.001L137.641,144.001z" stroke="#1d398f" fill="rgba(191,64,64,0)"/>
                    <path id="_ehe1g4nge_173" d="M156.892,144.001c-3.52,0-6.371-2.855-6.371-6.369c0-3.521,2.852-6.369,6.371-6.369   c3.514,0,6.37,2.848,6.37,6.369C163.262,141.146,160.406,144.001,156.892,144.001L156.892,144.001z" stroke="#1d398f" fill="rgba(191,64,64,0)"/>
                    <path id="_ehe1g4nge_174" d="M137.641,124.737c-3.53,0-6.377-2.848-6.377-6.369c0-3.512,2.847-6.367,6.377-6.367   c3.505,0,6.36,2.855,6.36,6.367C144.001,121.89,141.146,124.737,137.641,124.737L137.641,124.737z" stroke="#1d398f" fill="rgba(191,64,64,0)"/>
                </g>
            </svg>
        </g>
    </g>
</svg>