<?xml version="1.0" encoding="UTF-8" standalone="no"?>
<svg
   width="83.941933"
   height="100.38931"
   viewBox="0 0 83.941933 100.38931"
   data-svgdocument=""
   id="_QPbOH8Bvnff-nxIn-ryGS"
   class="fl-svgdocument"
   x="0"
   y="0"
   style="overflow:hidden"
   version="1.1"
   sodipodi:docname="order.svg"
   inkscape:version="1.1 (c68e22c387, 2021-05-23)"
   xmlns:inkscape="http://www.inkscape.org/namespaces/inkscape"
   xmlns:sodipodi="http://sodipodi.sourceforge.net/DTD/sodipodi-0.dtd"
   xmlns="http://www.w3.org/2000/svg"
   xmlns:svg="http://www.w3.org/2000/svg">
  <sodipodi:namedview
     id="namedview153"
     pagecolor="#ffffff"
     bordercolor="#666666"
     borderopacity="1.0"
     inkscape:pageshadow="2"
     inkscape:pageopacity="0.0"
     inkscape:pagecheckerboard="0"
     showgrid="false"
     inkscape:zoom="1.2734375"
     inkscape:cx="25.521472"
     inkscape:cy="-105.61963"
     inkscape:window-width="1600"
     inkscape:window-height="837"
     inkscape:window-x="-8"
     inkscape:window-y="-8"
     inkscape:window-maximized="1"
     inkscape:current-layer="_QPbOH8Bvnff-nxIn-ryGS" />
  <defs
     id="_-Pf6sSTUS_QCObCL12lGl"
     transform="matrix(1.2307695150375366, 0, 0, 1.2307695150375366, -59.07701110839844, -67.29283142089844)" />
  <path
     id="order-icon-text"
     text="order"
     fill="#f55e00"
     space="preserve"
     text-anchor="middle"
     offset="0.5"
     font-scale="contain"
     font-size="48px"
     font-family="'Open Sans'"
     data-fl-textpath=""
     d="m 30.676951,96.446207 v 0 q 0,1.856273 -0.937005,2.899688 -0.93405,1.043415 -2.583416,1.043415 v 0 q -1.016813,0 -1.808981,-0.478848 -0.789213,-0.478848 -1.217812,-1.371514 -0.428598,-0.892666 -0.428598,-2.092741 v 0 q 0,-1.856273 0.928137,-2.89082 0.928138,-1.037503 2.574548,-1.037503 v 0 q 1.59616,0 2.533166,1.06115 0.939961,1.06115 0.939961,2.867173 z m -5.784604,0 v 0 q 0,1.454278 0.582303,2.216887 0.579347,0.762609 1.708483,0.762609 v 0 q 1.129136,0 1.71735,-0.759654 0.585259,-0.756697 0.585259,-2.219842 v 0 q 0,-1.448366 -0.585259,-2.199151 Q 28.312269,93.49627 27.17131,93.49627 v 0 q -1.129136,0 -1.705527,0.741918 -0.573436,0.738962 -0.573436,2.208019 z m 11.262446,-3.928323 v 0 q 0.505451,0 0.907447,0.08276 v 0 l -0.156661,1.067061 q -0.472936,-0.103454 -0.83355,-0.103454 v 0 q -0.91927,0 -1.57547,0.747829 -0.653243,0.750786 -0.653243,1.865141 v 0 4.073159 h -1.149827 v -7.593575 h 0.948829 l 0.130057,1.406984 h 0.05616 q 0.422687,-0.741918 1.016813,-1.143913 0.597082,-0.401996 1.309443,-0.401996 z m 7.650855,7.732496 -0.153704,-1.019763 h -0.06207 q -0.798081,1.158693 -2.382418,1.158693 v 0 q -1.489749,0 -2.317388,-1.019769 -0.827639,-1.016812 -0.827639,-2.893775 v 0 q 0,-1.87992 0.830595,-2.917423 0.830594,-1.040459 2.314432,-1.040459 v 0 q 1.542955,0 2.367638,1.123223 v 0 h 0.09163 l -0.05025,-0.546832 -0.0266,-0.535009 V 89.470404 H 44.7397 V 100.25038 Z M 41.35229,99.425703 v 0 q 1.17643,0 1.708483,-0.64142 0.529098,-0.641419 0.529098,-2.066138 v 0 -0.242379 q 0,-1.613894 -0.537966,-2.305562 -0.535009,-0.688713 -1.714394,-0.688713 v 0 q -1.010902,0 -1.548867,0.786256 -0.535009,0.786255 -0.535009,2.219842 v 0 q 0,1.457233 0.532053,2.196196 0.53501,0.741918 1.566602,0.741918 z m 9.034287,0.963607 v 0 q -1.684836,0 -2.657312,-1.02568 -0.972475,-1.02568 -0.972475,-2.846483 v 0 q 0,-1.835581 0.901535,-2.917422 0.904491,-1.081841 2.429711,-1.081841 v 0 q 1.427676,0 2.258271,0.93996 0.830595,0.93996 0.830595,2.477001 v 0 0.727139 h -5.228904 q 0.03252,1.336044 0.673935,2.030668 0.64142,0.691669 1.806026,0.691669 v 0 q 1.226679,0 2.423799,-0.511362 v 0 1.022723 q -0.608906,0.266028 -1.152783,0.378348 -0.543877,0.11528 -1.312398,0.11528 z m -0.313321,-6.907819 v 0 q -0.913358,0 -1.457235,0.597081 -0.543877,0.594126 -0.64142,1.649364 v 0 h 3.96971 q 0,-1.087752 -0.48476,-1.667099 -0.48476,-0.579346 -1.386295,-0.579346 z m 8.527543,-0.963607 v 0 q 0.505451,0 0.907447,0.08276 v 0 l -0.15666,1.067061 q -0.472937,-0.103454 -0.833551,-0.103454 v 0 q -0.91927,0 -1.575469,0.747829 -0.653244,0.750786 -0.653244,1.865141 v 0 4.073159 h -1.149826 v -7.593575 h 0.948828 l 0.130058,1.406984 h 0.05616 q 0.422687,-0.741918 1.016813,-1.143913 0.597083,-0.401996 1.309443,-0.401996 z"
     style="stroke-width:0.295585" />
  <g
     id="order-icon"
     transform="translate(-284.80265,-387.56076)">
    <g
       id="_ehe1g4nge_145"
       transform="matrix(0.16698781,-0.10212249,0.10212249,0.16698781,234.44882,414.69711)"
       fill="rgba(115,172,118,0.88)">
      <svg
         id="_ehe1g4nge_146"
         version="1.1"
         x="0px"
         y="0px"
         viewBox="0 0 792 612"
         width="792"
         height="612">
        <g
           id="_ehe1g4nge_147"
           fill="rgba(115,172,118,0.88)">
          <desc
             id="_ehe1g4nge_148" />
          <path
             id="_ehe1g4nge_149"
             d="m 211.4,172.1 c 2.8,-3.3 5.9,-7.7 3.9,-11.6 11.2,-6.6 21.1,-15.3 29.2,-25.5 -4.4,3.5 -9.2,6.3 -14.3,8.5 38.3,-37.8 95.9,-55 148.8,-44.4 -42.6,-1.6 -86,9.7 -121.2,33.7 -35.3,23.9 -62.1,60.6 -72.4,102 15.6,-45.3 48.5,-84.4 90.5,-107.4 -3.3,3.4 -6.6,6.9 -10,10.3 16,-6.6 30.5,-16.5 46.4,-23.4 46.7,-20.4 102.9,-12.7 146.4,13.9 43.5,26.6 74.8,70.2 93,117.8 8,20.8 13.6,43.9 6.5,65 -1.6,-27.5 -10.6,-54 -22.3,-78.9 -19.4,-41.5 -47.2,-80.4 -86.3,-104.2 -39.1,-23.7 -90.8,-30 -130.8,-7.7 20.5,-2.2 41.2,-3.4 61.5,-0.5 38.2,5.4 73.5,25.4 100.3,53.1 26.7,27.8 45.2,62.9 56.1,99.8 10.6,36.1 14.1,75.9 0.5,111.1 39.7,-64.2 33.1,-153.6 -15.4,-211.3 -20.3,-24.1 -46.6,-42.6 -75,-56 C 414,101 378,92.1 341.8,93.1 c -36.2,1 -72.4,12.3 -101.3,34.1 24,-21.2 55.3,-33.2 87.1,-36.5 31.9,-3.2 64.2,2 94.5,12.2 63,21.4 120.4,68.6 138.9,132.5 4.7,16.4 6.8,33.4 8.7,50.4 1.6,14.7 2.9,29.4 2.6,44.2 -1.4,73.1 -48.1,144.5 -116.2,171.2 -19.3,7.5 -39.7,11.6 -60.2,14.5 -32.8,4.6 -66.8,6 -98.4,-3.8 -16.3,-5.1 -31.5,-13 -45.6,-22.7 -58.4,-40 -95.3,-109.7 -95.3,-180.5 0,-12.6 1.1,-25.1 2.8,-37.5 1.5,-11.4 3.5,-22.7 6.8,-33.7 5,-16.2 12.8,-31.5 23.1,-45 1.8,-1.1 3.6,-2.3 5.3,-3.5 -23.7,50.1 -37.8,109.3 -16.1,160.4 -7.8,-33.3 -8.3,-68.2 -1.4,-101.6 2.2,-0.8 4.4,-1.7 6.5,-2.6 0.1,-2.2 0.2,-4.3 0.3,-6.5 -1.6,1.8 -3.1,3.6 -4.7,5.3 3.7,-26.5 15.1,-51.6 32.2,-71.9 m 16.1,-1.3 c 6.2,-4.2 12.4,-8.4 18.6,-12.6 -3.9,7.9 -11.1,14.1 -19.5,16.9 -39,40.3 -51,100.4 -46.4,156.2 1.8,21.1 6.1,43 19.7,59.2 -9.5,-39 -10,-80.2 -1.3,-119.4 1.7,-0.1 2.3,2.1 2.3,3.8 0.7,26.3 -3.8,52.6 -1.9,78.9 1.9,26.2 11.7,53.9 33.7,68.2 17.2,11.2 34.3,22.4 51.4,33.6 -40,-12.8 -74.9,-40.6 -96.5,-76.6 5.8,15.7 13.9,30.6 23.9,44 -1.3,-3.6 -2.5,-7.3 -3.8,-11 10.1,9.5 20.3,18.8 30.4,28.2 7.4,6.9 19,13.9 26.6,7.3 1.2,2.5 -1,5.6 -3.7,6.3 -2.7,0.8 -5.6,0 -8.3,-0.8 12.1,8.7 24.7,16.7 37.7,24 -1.9,0.3 -2.5,3.1 -1.3,4.7 1.2,1.6 3.2,2 5.1,2.5 47.7,10.3 98.5,6.5 144.1,-11.1 -39.2,9.2 -81,11.3 -119,-2 -32.1,-11.2 -60.2,-33.3 -78.6,-61.8 -5.9,-9.2 -10.8,-18.9 -15.3,-28.8 -14.5,-32.6 -23.7,-68.2 -21.1,-103.8 2.6,-35.6 18.2,-71.1 46.2,-93.1 2.9,-2.3 6.5,-4.5 10.1,-3.6 -27.6,20 -44,53.1 -48.3,86.9 -4.3,33.9 2.7,68.3 15,100.1 8.8,22.5 20.5,44.3 36.6,62.3 6.9,7.7 14.7,14.7 23.6,20 16.3,9.8 35.6,13.5 54.5,15.9 25.7,3.3 51.6,4.7 77.5,4.1 -32.7,7.7 -66.9,2.2 -100,-3.3 56.2,21.1 122.1,8.2 170.4,-27.3 9.6,-7.1 18.7,-15 26,-24.5 11.2,-14.6 17.9,-32.4 21.3,-50.5 8.8,-47.2 -3.8,-96.5 -26.7,-138.8 -15.9,-29.4 -37,-56.6 -64.8,-75.1 -26,-17.2 -56.9,-26.3 -88,-28 -47.8,-2.8 -98.4,13 -130.2,49 m 93.9,324.8 c 21.5,5.4 43.2,9.3 65.2,11.9 -27,6.2 -54.8,-3.3 -80.9,-12.6 -15.4,-5.4 -31,-11 -45.3,-19 -34.6,-19.2 -60.6,-52.1 -75.7,-88.7 -2.6,-6.5 -5,-13 -7,-19.6 -0.2,-0.8 -0.8,1.1 0,0.7 0.8,-0.3 0.7,-1.5 0.3,-2.3 -9,-21.7 -14.5,-45 -16.2,-68.4 -1.7,35.4 7.1,71 23.1,102.7 17.4,34.5 43.5,64.8 76.3,85.3 32.7,20.5 72.1,30.9 110.5,27.2 54,-5.3 101.4,-36.8 144.9,-69.1 -19.2,25.4 -48.3,41.1 -76.6,55.9 48.9,-13.7 88.1,-52.4 111.7,-97.4 -11.7,20 -30,35.7 -49.9,47.5 -20,11.8 -41.9,20 -63.8,27.9 -9.6,3.5 -19.3,6.9 -29.2,9.7 -28.3,8.1 -58.1,10.9 -87.4,8.3 m 200,-67.6 c 5,-4.7 9.9,-9.5 13.9,-14.9 6.3,-8.7 10.5,-18.8 14.5,-28.8 5.4,-13.6 10.9,-27.3 12.3,-41.9 -2.6,2.3 -3.5,5.7 -4.5,9 -13.3,46.1 -46.2,86.3 -88.9,108.3 20.1,-4.5 37.4,-17.6 52.7,-31.7 M 277,477 c 2.1,0.5 4.7,1.4 4.8,3.5 0.8,-1.4 3.2,-1.4 4.1,0 0.4,-0.1 0.1,-0.8 -0.4,-1 -3,-1.6 -6,-3.2 -8.9,-4.8 -12.1,-6.5 -23.2,-14.6 -33.1,-24 -1.2,2.6 -0.3,5.9 2,7.5 4.4,3.2 8.8,6.4 13.2,9.6 5.3,4.4 11.6,7.6 18.3,9.2 M 565.8,325.8 c -0.4,7.4 -0.8,14.9 -1.3,22.3 -0.1,1 -0.1,2 -0.1,3 -0.1,1.8 -0.2,3.6 -0.4,5.3 -0.1,2.2 -0.2,4.2 -0.2,6.4 4.2,-17 5.7,-34.8 4.4,-52.2 -0.5,-0.2 -1,-0.5 -1.4,-0.8 -0.3,5.3 -0.7,10.6 -1,16 M 177.1,216.2 c -0.7,1.3 -1.3,2.6 -1.9,3.9 0.7,0.9 2,-0.2 2.3,-1.3 0.3,-1 0.6,-2.4 1.7,-2.5 -0.5,-0.5 -1,-1 -1.5,-1.5 -0.2,0.4 -0.4,1 -0.2,1.4 m 72.3,-83 c 1,-0.8 2,-1.6 3,-2.5 -1.7,-0.7 -3.9,0.2 -4.6,2 0.5,0.2 1,0.4 1.6,0.5 m 3.1,-4.7 c 2.2,0.5 4.7,-0.1 6.5,-1.6 -2.3,-0.1 -4.6,0.4 -6.5,1.6 M 173.3,230 c -0.1,-0.5 -0.2,-1 -0.2,-1.4 -1.9,0.7 -2.8,3.3 -1.7,5 0.4,-1.3 1,-2.5 1.9,-3.6 M 162,281 c -0.5,0.7 -0.1,1.9 0.8,2 0.5,-1.6 0.4,-3.3 -0.1,-5 -1,0.5 -1.3,1.9 -0.7,2.8"
             fill="rgba(115,172,118,0.88)" />
          <path
             id="_ehe1g4nge_150"
             d="m 229.4,144 c 0.2,0.3 0.4,0.7 0.6,1 -0.9,1.3 -2.6,1.9 -4.1,1.5 0.8,-1.1 2,-1.9 3.3,-2.2"
             fill="rgba(115,172,118,0.88)" />
          <path
             id="_ehe1g4nge_151"
             d="m 221.5,150.4 c 1.4,-0.5 2.9,-0.8 4.4,-0.7 -0.3,2.2 -4,2.8 -4.9,0.7"
             fill="rgba(115,172,118,0.88)" />
          <path
             id="_ehe1g4nge_152"
             d="m 216.5,145.8 c 0.9,-1.4 2.6,-2.4 4.4,-2.2 0.4,1 0.1,2.2 -0.7,2.9 -1.4,0.2 -3.1,0.4 -4.1,-0.7"
             fill="rgba(115,172,118,0.88)" />
          <path
             id="_ehe1g4nge_153"
             d="m 496.8,152.4 c 0.6,-0.1 1.2,0.5 1.1,1.1 -0.1,0.6 -0.8,1 -1.4,0.8 -0.9,-1 -1.8,-2.1 -2.7,-3.2 1,-0.8 2.8,-0.1 3,1.1"
             fill="rgba(115,172,118,0.88)" />
          <path
             id="_ehe1g4nge_154"
             d="m 225.5,137.6 c 0.7,-0.8 2.1,-0.8 2.9,-0.1 -1.3,1.3 -3,2.2 -4.8,2.8 -0.2,-1.1 0.8,-2.4 1.9,-2.3"
             fill="rgba(115,172,118,0.88)" />
          <path
             id="_ehe1g4nge_155"
             d="m 209.1,230.6 c 0.9,-1.3 3.3,-0.8 3.6,0.8 -1.2,-0.2 -2.5,0.2 -3.3,1.1 -0.5,0.2 -1.3,-0.2 -1.3,-0.8 -0.1,-0.5 0.5,-1.1 1.1,-1"
             fill="rgba(115,172,118,0.88)" />
          <path
             id="_ehe1g4nge_156"
             d="m 266.3,166.6 c 0.5,-0.2 1.2,-0.4 1.7,-0.2 0.6,0.2 0.9,1.1 0.5,1.5 -1.9,1.2 -4.1,1.9 -6.3,2 1,-1.4 2.5,-2.5 4.1,-3.3"
             fill="rgba(115,172,118,0.88)" />
          <path
             id="_ehe1g4nge_157"
             d="m 295.8,479.1 c 1,0.7 2.1,1.4 3.1,2.1 -2.2,0.9 -4.8,0.4 -6.6,-1.2 -0.4,-0.7 0.4,-1.7 1.1,-1.7 0.9,-0.1 1.7,0.4 2.4,0.8"
             fill="rgba(115,172,118,0.88)" />
          <path
             id="_ehe1g4nge_158"
             d="m 250.1,157.4 c -0.5,-1.5 -0.1,-3.3 1.1,-4.4 0.8,-0.2 1.6,-0.8 1.9,-1.7 1.3,0.5 2.5,1 3.8,1.5 -2.2,1.5 -4.5,3 -6.8,4.6"
             fill="rgba(115,172,118,0.88)" />
          <path
             id="_ehe1g4nge_159"
             d="m 201.3,264.8 c 0,-0.6 0,-1.2 0,-1.8 1,-0.5 2.1,-0.5 3,-0.1 -1.8,1.9 -2.8,4.5 -2.6,7.1 -1.1,-0.8 -2.3,-1.7 -3.5,-2.5 1,-0.8 2.1,-1.7 3.2,-2.6"
             fill="rgba(115,172,118,0.88)" />
          <path
             id="_ehe1g4nge_160"
             d="m 194.7,176.5 c 0.4,-3.1 2.2,-5.9 4.7,-7.8 0.7,-0.5 1.8,-0.8 2.2,-0.1 -2.2,2.2 -4,4.7 -5.3,7.5 -0.3,0.5 -1.1,0.8 -1.6,0.4"
             fill="rgba(115,172,118,0.88)" />
          <path
             id="_ehe1g4nge_161"
             d="m 205,238.5 c 2,-1.5 3.9,-3 5.9,-4.5 -0.5,1.9 -1,3.6 -1.5,5.5 -0.7,0.4 -1.2,1.1 -1.9,1.5 -0.7,0.4 -1.7,0.5 -2.2,-0.2 -0.4,-0.7 0.7,-1.7 1.1,-1 -0.4,-0.4 -0.9,-0.8 -1.4,-1.3"
             fill="rgba(115,172,118,0.88)" />
          <path
             id="_ehe1g4nge_162"
             d="m 281.2,161 c -0.2,0.5 -0.4,1 -0.2,1.6 -1.6,0.3 -3.1,0.6 -4.5,0.9 -0.2,0.6 -0.4,1.2 -0.6,1.8 -1.2,-0.1 -2.4,-0.1 -3.5,-0.1 -1,-0.5 0,-1.9 1,-2.4 2,-1 4.1,-1.6 6.3,-1.9 -0.3,-0.5 -0.6,-0.9 -0.9,-1.4 1.6,-1.3 3.5,-2.2 5.6,-2.8 0.4,0.7 0.5,1.5 0.3,2.3 -0.7,0.3 -1.4,0.4 -2.1,0.2 0.1,0.5 0.2,1 0.3,1.6 -0.7,0.2 -1.2,0.3 -1.7,0.2"
             fill="rgba(115,172,118,0.88)" />
          <path
             id="_ehe1g4nge_163"
             d="m 203,170.4 c 0.8,-0.5 1.9,-0.7 2.8,-0.5 -0.4,-0.5 -0.7,-1 -1,-1.5 1,-0.2 2,-0.4 3.1,-0.5 0.4,-1 0.4,-2.2 0,-3.2 1.1,-0.1 2.3,0.1 3.3,0.5 0.3,0.4 0.4,1 0.3,1.5 -0.5,0.2 -1.1,0.4 -1.7,0.6 -0.2,1 -0.5,2 -0.7,3 -0.5,0.3 -1.3,0.4 -1.9,0.2 -0.9,5.4 -6.8,8.5 -8.9,13.5 -0.7,1.7 -1.4,3.9 -3.2,3.9 -0.5,-0.6 -0.4,-1.7 0.3,-2.2 -0.7,-0.2 -1.3,-0.4 -1.9,-0.6 -0.1,-1.1 1.7,-0.8 2.6,-0.1 0.8,-0.7 0.1,-2.3 -0.9,-2.3 1.1,-0.9 1.8,-2.3 2,-3.7 1.1,0.1 2.2,-0.3 2.9,-1.1 -0.8,0.2 -1.7,-0.4 -1.9,-1.3 1.6,0.3 3.2,-1.2 3.1,-2.8 1.2,-0.7 2.4,-1.4 3.6,-2.1 -0.5,-0.3 -1.2,-0.8 -1.9,-1.3"
             fill="rgba(115,172,118,0.88)" />
          <path
             id="_ehe1g4nge_164"
             d="m 517.1,175.7 c -2.2,-3 -4.5,-5.9 -7.3,-8.4 -3.9,-3.5 -8.9,-6.6 -9.7,-11.8 23.5,19.9 41.6,46.2 51.7,75.3 0.9,0.8 -0.1,2.6 -1.2,2.3 -8.8,-20.3 -20.1,-39.7 -33.5,-57.4"
             fill="rgba(115,172,118,0.88)" />
          <path
             id="_ehe1g4nge_165"
             d="m 253.1,159.9 c 4.1,-3.3 8.8,-6.4 10.5,-11.4 0.5,-1.4 1.9,-2.5 3.2,-3.3 20.2,-12.7 43.8,-19.7 67.6,-20.1 -11.9,3.2 -23.7,6.3 -35.6,9.5 -18.5,4.9 -32.1,20.2 -44.6,34.8 -10.8,12.7 -21.7,25.4 -32.5,38.2 -1.3,3.5 -2.5,7.1 -3.8,10.6 -0.5,1.6 -1.1,3.2 -2.5,4.2 -1.3,1 -3.5,1 -4.3,-0.5 4.8,-8.4 9.6,-16.9 14.5,-25.4 7.8,-13.2 15.6,-26.8 27.5,-36.6"
             fill="rgba(115,172,118,0.88)" />
        </g>
      </svg>
    </g>
    <g
       id="_ehe1g4nge_166"
       transform="matrix(0.76916301,0,0,0.76916301,229.30977,329.87054)"
       stroke="#1d398f"
       stroke-width="2"
       fill="rgba(191,64,64,0)">
      <svg
         id="_ehe1g4nge_167"
         version="1.1"
         x="0px"
         y="0px"
         viewBox="0 0 256 256"
         enable-background="new 0 0 256 256"
         width="256"
         height="256"
         stroke-width="2">
        <g
           id="_ehe1g4nge_168"
           stroke="#1d398f"
           fill="rgba(191,64,64,0)">
          <path
             id="_ehe1g4nge_169"
             d="m 118.37,144.001 c -3.513,0 -6.368,-2.855 -6.368,-6.369 0,-3.521 2.855,-6.369 6.368,-6.369 3.523,0 6.369,2.848 6.369,6.369 0,3.514 -2.846,6.369 -6.369,6.369 z"
             stroke="#1d398f"
             fill="rgba(191,64,64,0)" />
          <path
             id="_ehe1g4nge_170"
             d="m 99.112,124.737 c -3.515,0 -6.371,-2.848 -6.371,-6.369 0,-3.512 2.856,-6.367 6.371,-6.367 3.526,0 6.37,2.855 6.37,6.367 0,3.522 -2.844,6.369 -6.37,6.369 z"
             stroke="#1d398f"
             fill="rgba(191,64,64,0)" />
          <path
             id="_ehe1g4nge_171"
             d="m 118.37,124.737 c -3.513,0 -6.368,-2.848 -6.368,-6.369 0,-3.512 2.855,-6.367 6.368,-6.367 3.523,0 6.369,2.855 6.369,6.367 0,3.522 -2.846,6.369 -6.369,6.369 z"
             stroke="#1d398f"
             fill="rgba(191,64,64,0)" />
          <path
             id="_ehe1g4nge_172"
             d="m 137.641,144.001 c -3.53,0 -6.377,-2.855 -6.377,-6.369 0,-3.521 2.847,-6.369 6.377,-6.369 3.505,0 6.36,2.848 6.36,6.369 0,3.514 -2.855,6.369 -6.36,6.369 z"
             stroke="#1d398f"
             fill="rgba(191,64,64,0)" />
          <path
             id="_ehe1g4nge_173"
             d="m 156.892,144.001 c -3.52,0 -6.371,-2.855 -6.371,-6.369 0,-3.521 2.852,-6.369 6.371,-6.369 3.514,0 6.37,2.848 6.37,6.369 0,3.514 -2.856,6.369 -6.37,6.369 z"
             stroke="#1d398f"
             fill="rgba(191,64,64,0)" />
          <path
             id="_ehe1g4nge_174"
             d="m 137.641,124.737 c -3.53,0 -6.377,-2.848 -6.377,-6.369 0,-3.512 2.847,-6.367 6.377,-6.367 3.505,0 6.36,2.855 6.36,6.367 0,3.522 -2.855,6.369 -6.36,6.369 z"
             stroke="#1d398f"
             fill="rgba(191,64,64,0)" />
        </g>
      </svg>
    </g>
  </g>
</svg>
