<?xml version="1.0" encoding="UTF-8" standalone="no"?>
<svg
   width="85.353905"
   height="101.44033"
   viewBox="0 0 85.353905 101.44033"
   data-svgdocument=""
   id="_QPbOH8Bvnff-nxIn-ryGS"
   class="fl-svgdocument"
   x="0"
   y="0"
   style="overflow:hidden"
   version="1.1"
   sodipodi:docname="sensory.svg"
   inkscape:version="1.1 (c68e22c387, 2021-05-23)"
   xmlns:inkscape="http://www.inkscape.org/namespaces/inkscape"
   xmlns:sodipodi="http://sodipodi.sourceforge.net/DTD/sodipodi-0.dtd"
   xmlns="http://www.w3.org/2000/svg"
   xmlns:svg="http://www.w3.org/2000/svg">
  <sodipodi:namedview
     id="namedview30"
     pagecolor="#ffffff"
     bordercolor="#666666"
     borderopacity="1.0"
     inkscape:pageshadow="2"
     inkscape:pageopacity="0.0"
     inkscape:pagecheckerboard="0"
     showgrid="false"
     inkscape:zoom="1.2734375"
     inkscape:cx="255.60736"
     inkscape:cy="256.39264"
     inkscape:window-width="1600"
     inkscape:window-height="837"
     inkscape:window-x="-8"
     inkscape:window-y="-8"
     inkscape:window-maximized="1"
     inkscape:current-layer="_QPbOH8Bvnff-nxIn-ryGS" />
  <defs
     id="_-Pf6sSTUS_QCObCL12lGl"
     transform="matrix(1.2307695150375366, 0, 0, 1.2307695150375366, -59.07701110839844, -67.29283142089844)" />
  <g
     id="sensory-icon-circle"
     transform="matrix(-0.42644745,0.90451336,-0.90451336,-0.42644745,471.15438,-119.15206)">
    <path
       id="_ehe1g4nge_77"
       d="m 211.4,172.1 c 2.8,-3.3 5.9,-7.7 3.9,-11.6 11.2,-6.6 21.1,-15.3 29.2,-25.5 -4.4,3.5 -9.2,6.3 -14.3,8.5 38.3,-37.8 95.9,-55 148.8,-44.4 -42.6,-1.6 -86,9.7 -121.2,33.7 -35.3,23.9 -62.1,60.6 -72.4,102 15.6,-45.3 48.5,-84.4 90.5,-107.4 -3.3,3.4 -6.6,6.9 -10,10.3 16,-6.6 30.5,-16.5 46.4,-23.4 46.7,-20.4 102.9,-12.7 146.4,13.9 43.5,26.6 74.8,70.2 93,117.8 8,20.8 13.6,43.9 6.5,65 -1.6,-27.5 -10.6,-54 -22.3,-78.9 -19.4,-41.5 -47.2,-80.4 -86.3,-104.2 -39.1,-23.7 -90.8,-30 -130.8,-7.7 20.5,-2.2 41.2,-3.4 61.5,-0.5 38.2,5.4 73.5,25.4 100.3,53.1 26.7,27.8 45.2,62.9 56.1,99.8 10.6,36.1 14.1,75.9 0.5,111.1 39.7,-64.2 33.1,-153.6 -15.4,-211.3 -20.3,-24.1 -46.6,-42.6 -75,-56 C 414,101 378,92.1 341.8,93.1 c -36.2,1 -72.4,12.3 -101.3,34.1 24,-21.2 55.3,-33.2 87.1,-36.5 31.9,-3.2 64.2,2 94.5,12.2 63,21.4 120.4,68.6 138.9,132.5 4.7,16.4 6.8,33.4 8.7,50.4 1.6,14.7 2.9,29.4 2.6,44.2 -1.4,73.1 -48.1,144.5 -116.2,171.2 -19.3,7.5 -39.7,11.6 -60.2,14.5 -32.8,4.6 -66.8,6 -98.4,-3.8 -16.3,-5.1 -31.5,-13 -45.6,-22.7 -58.4,-40 -95.3,-109.7 -95.3,-180.5 0,-12.6 1.1,-25.1 2.8,-37.5 1.5,-11.4 3.5,-22.7 6.8,-33.7 5,-16.2 12.8,-31.5 23.1,-45 1.8,-1.1 3.6,-2.3 5.3,-3.5 -23.7,50.1 -37.8,109.3 -16.1,160.4 -7.8,-33.3 -8.3,-68.2 -1.4,-101.6 2.2,-0.8 4.4,-1.7 6.5,-2.6 0.1,-2.2 0.2,-4.3 0.3,-6.5 -1.6,1.8 -3.1,3.6 -4.7,5.3 3.7,-26.5 15.1,-51.6 32.2,-71.9 m 16.1,-1.3 c 6.2,-4.2 12.4,-8.4 18.6,-12.6 -3.9,7.9 -11.1,14.1 -19.5,16.9 -39,40.3 -51,100.4 -46.4,156.2 1.8,21.1 6.1,43 19.7,59.2 -9.5,-39 -10,-80.2 -1.3,-119.4 1.7,-0.1 2.3,2.1 2.3,3.8 0.7,26.3 -3.8,52.6 -1.9,78.9 1.9,26.2 11.7,53.9 33.7,68.2 17.2,11.2 34.3,22.4 51.4,33.6 -40,-12.8 -74.9,-40.6 -96.5,-76.6 5.8,15.7 13.9,30.6 23.9,44 -1.3,-3.6 -2.5,-7.3 -3.8,-11 10.1,9.5 20.3,18.8 30.4,28.2 7.4,6.9 19,13.9 26.6,7.3 1.2,2.5 -1,5.6 -3.7,6.3 -2.7,0.8 -5.6,0 -8.3,-0.8 12.1,8.7 24.7,16.7 37.7,24 -1.9,0.3 -2.5,3.1 -1.3,4.7 1.2,1.6 3.2,2 5.1,2.5 47.7,10.3 98.5,6.5 144.1,-11.1 -39.2,9.2 -81,11.3 -119,-2 -32.1,-11.2 -60.2,-33.3 -78.6,-61.8 -5.9,-9.2 -10.8,-18.9 -15.3,-28.8 -14.5,-32.6 -23.7,-68.2 -21.1,-103.8 2.6,-35.6 18.2,-71.1 46.2,-93.1 2.9,-2.3 6.5,-4.5 10.1,-3.6 -27.6,20 -44,53.1 -48.3,86.9 -4.3,33.9 2.7,68.3 15,100.1 8.8,22.5 20.5,44.3 36.6,62.3 6.9,7.7 14.7,14.7 23.6,20 16.3,9.8 35.6,13.5 54.5,15.9 25.7,3.3 51.6,4.7 77.5,4.1 -32.7,7.7 -66.9,2.2 -100,-3.3 56.2,21.1 122.1,8.2 170.4,-27.3 9.6,-7.1 18.7,-15 26,-24.5 11.2,-14.6 17.9,-32.4 21.3,-50.5 8.8,-47.2 -3.8,-96.5 -26.7,-138.8 -15.9,-29.4 -37,-56.6 -64.8,-75.1 -26,-17.2 -56.9,-26.3 -88,-28 -47.8,-2.8 -98.4,13 -130.2,49 m 93.9,324.8 c 21.5,5.4 43.2,9.3 65.2,11.9 -27,6.2 -54.8,-3.3 -80.9,-12.6 -15.4,-5.4 -31,-11 -45.3,-19 -34.6,-19.2 -60.6,-52.1 -75.7,-88.7 -2.6,-6.5 -5,-13 -7,-19.6 -0.2,-0.8 -0.8,1.1 0,0.7 0.8,-0.3 0.7,-1.5 0.3,-2.3 -9,-21.7 -14.5,-45 -16.2,-68.4 -1.7,35.4 7.1,71 23.1,102.7 17.4,34.5 43.5,64.8 76.3,85.3 32.7,20.5 72.1,30.9 110.5,27.2 54,-5.3 101.4,-36.8 144.9,-69.1 -19.2,25.4 -48.3,41.1 -76.6,55.9 48.9,-13.7 88.1,-52.4 111.7,-97.4 -11.7,20 -30,35.7 -49.9,47.5 -20,11.8 -41.9,20 -63.8,27.9 -9.6,3.5 -19.3,6.9 -29.2,9.7 -28.3,8.1 -58.1,10.9 -87.4,8.3 m 200,-67.6 c 5,-4.7 9.9,-9.5 13.9,-14.9 6.3,-8.7 10.5,-18.8 14.5,-28.8 5.4,-13.6 10.9,-27.3 12.3,-41.9 -2.6,2.3 -3.5,5.7 -4.5,9 -13.3,46.1 -46.2,86.3 -88.9,108.3 20.1,-4.5 37.4,-17.6 52.7,-31.7 M 277,477 c 2.1,0.5 4.7,1.4 4.8,3.5 0.8,-1.4 3.2,-1.4 4.1,0 0.4,-0.1 0.1,-0.8 -0.4,-1 -3,-1.6 -6,-3.2 -8.9,-4.8 -12.1,-6.5 -23.2,-14.6 -33.1,-24 -1.2,2.6 -0.3,5.9 2,7.5 4.4,3.2 8.8,6.4 13.2,9.6 5.3,4.4 11.6,7.6 18.3,9.2 M 565.8,325.8 c -0.4,7.4 -0.8,14.9 -1.3,22.3 -0.1,1 -0.1,2 -0.1,3 -0.1,1.8 -0.2,3.6 -0.4,5.3 -0.1,2.2 -0.2,4.2 -0.2,6.4 4.2,-17 5.7,-34.8 4.4,-52.2 -0.5,-0.2 -1,-0.5 -1.4,-0.8 -0.3,5.3 -0.7,10.6 -1,16 M 177.1,216.2 c -0.7,1.3 -1.3,2.6 -1.9,3.9 0.7,0.9 2,-0.2 2.3,-1.3 0.3,-1 0.6,-2.4 1.7,-2.5 -0.5,-0.5 -1,-1 -1.5,-1.5 -0.2,0.4 -0.4,1 -0.2,1.4 m 72.3,-83 c 1,-0.8 2,-1.6 3,-2.5 -1.7,-0.7 -3.9,0.2 -4.6,2 0.5,0.2 1,0.4 1.6,0.5 m 3.1,-4.7 c 2.2,0.5 4.7,-0.1 6.5,-1.6 -2.3,-0.1 -4.6,0.4 -6.5,1.6 M 173.3,230 c -0.1,-0.5 -0.2,-1 -0.2,-1.4 -1.9,0.7 -2.8,3.3 -1.7,5 0.4,-1.3 1,-2.5 1.9,-3.6 M 162,281 c -0.5,0.7 -0.1,1.9 0.8,2 0.5,-1.6 0.4,-3.3 -0.1,-5 -1,0.5 -1.3,1.9 -0.7,2.8"
       fill="rgba(115,172,118,0.88)"
       transform="matrix(0.19573948,0,0,0.19573948,256.42215,259.7236)" />
    <path
       id="_ehe1g4nge_78"
       d="m 229.4,144 c 0.2,0.3 0.4,0.7 0.6,1 -0.9,1.3 -2.6,1.9 -4.1,1.5 0.8,-1.1 2,-1.9 3.3,-2.2"
       fill="rgba(115,172,118,0.88)"
       transform="matrix(0.19573948,0,0,0.19573948,256.42215,259.7236)" />
    <path
       id="_ehe1g4nge_79"
       d="m 221.5,150.4 c 1.4,-0.5 2.9,-0.8 4.4,-0.7 -0.3,2.2 -4,2.8 -4.9,0.7"
       fill="rgba(115,172,118,0.88)"
       transform="matrix(0.19573948,0,0,0.19573948,256.42215,259.7236)" />
    <path
       id="_ehe1g4nge_80"
       d="m 216.5,145.8 c 0.9,-1.4 2.6,-2.4 4.4,-2.2 0.4,1 0.1,2.2 -0.7,2.9 -1.4,0.2 -3.1,0.4 -4.1,-0.7"
       fill="rgba(115,172,118,0.88)"
       transform="matrix(0.19573948,0,0,0.19573948,256.42215,259.7236)" />
    <path
       id="_ehe1g4nge_81"
       d="m 496.8,152.4 c 0.6,-0.1 1.2,0.5 1.1,1.1 -0.1,0.6 -0.8,1 -1.4,0.8 -0.9,-1 -1.8,-2.1 -2.7,-3.2 1,-0.8 2.8,-0.1 3,1.1"
       fill="rgba(115,172,118,0.88)"
       transform="matrix(0.19573948,0,0,0.19573948,256.42215,259.7236)" />
    <path
       id="_ehe1g4nge_82"
       d="m 225.5,137.6 c 0.7,-0.8 2.1,-0.8 2.9,-0.1 -1.3,1.3 -3,2.2 -4.8,2.8 -0.2,-1.1 0.8,-2.4 1.9,-2.3"
       fill="rgba(115,172,118,0.88)"
       transform="matrix(0.19573948,0,0,0.19573948,256.42215,259.7236)" />
    <path
       id="_ehe1g4nge_83"
       d="m 209.1,230.6 c 0.9,-1.3 3.3,-0.8 3.6,0.8 -1.2,-0.2 -2.5,0.2 -3.3,1.1 -0.5,0.2 -1.3,-0.2 -1.3,-0.8 -0.1,-0.5 0.5,-1.1 1.1,-1"
       fill="rgba(115,172,118,0.88)"
       transform="matrix(0.19573948,0,0,0.19573948,256.42215,259.7236)" />
    <path
       id="_ehe1g4nge_84"
       d="m 266.3,166.6 c 0.5,-0.2 1.2,-0.4 1.7,-0.2 0.6,0.2 0.9,1.1 0.5,1.5 -1.9,1.2 -4.1,1.9 -6.3,2 1,-1.4 2.5,-2.5 4.1,-3.3"
       fill="rgba(115,172,118,0.88)"
       transform="matrix(0.19573948,0,0,0.19573948,256.42215,259.7236)" />
    <path
       id="_ehe1g4nge_85"
       d="m 295.8,479.1 c 1,0.7 2.1,1.4 3.1,2.1 -2.2,0.9 -4.8,0.4 -6.6,-1.2 -0.4,-0.7 0.4,-1.7 1.1,-1.7 0.9,-0.1 1.7,0.4 2.4,0.8"
       fill="rgba(115,172,118,0.88)"
       transform="matrix(0.19573948,0,0,0.19573948,256.42215,259.7236)" />
    <path
       id="_ehe1g4nge_86"
       d="m 250.1,157.4 c -0.5,-1.5 -0.1,-3.3 1.1,-4.4 0.8,-0.2 1.6,-0.8 1.9,-1.7 1.3,0.5 2.5,1 3.8,1.5 -2.2,1.5 -4.5,3 -6.8,4.6"
       fill="rgba(115,172,118,0.88)"
       transform="matrix(0.19573948,0,0,0.19573948,256.42215,259.7236)" />
    <path
       id="_ehe1g4nge_87"
       d="m 201.3,264.8 c 0,-0.6 0,-1.2 0,-1.8 1,-0.5 2.1,-0.5 3,-0.1 -1.8,1.9 -2.8,4.5 -2.6,7.1 -1.1,-0.8 -2.3,-1.7 -3.5,-2.5 1,-0.8 2.1,-1.7 3.2,-2.6"
       fill="rgba(115,172,118,0.88)"
       transform="matrix(0.19573948,0,0,0.19573948,256.42215,259.7236)" />
    <path
       id="_ehe1g4nge_88"
       d="m 194.7,176.5 c 0.4,-3.1 2.2,-5.9 4.7,-7.8 0.7,-0.5 1.8,-0.8 2.2,-0.1 -2.2,2.2 -4,4.7 -5.3,7.5 -0.3,0.5 -1.1,0.8 -1.6,0.4"
       fill="rgba(115,172,118,0.88)"
       transform="matrix(0.19573948,0,0,0.19573948,256.42215,259.7236)" />
    <path
       id="_ehe1g4nge_89"
       d="m 205,238.5 c 2,-1.5 3.9,-3 5.9,-4.5 -0.5,1.9 -1,3.6 -1.5,5.5 -0.7,0.4 -1.2,1.1 -1.9,1.5 -0.7,0.4 -1.7,0.5 -2.2,-0.2 -0.4,-0.7 0.7,-1.7 1.1,-1 -0.4,-0.4 -0.9,-0.8 -1.4,-1.3"
       fill="rgba(115,172,118,0.88)"
       transform="matrix(0.19573948,0,0,0.19573948,256.42215,259.7236)" />
    <path
       id="_ehe1g4nge_90"
       d="m 281.2,161 c -0.2,0.5 -0.4,1 -0.2,1.6 -1.6,0.3 -3.1,0.6 -4.5,0.9 -0.2,0.6 -0.4,1.2 -0.6,1.8 -1.2,-0.1 -2.4,-0.1 -3.5,-0.1 -1,-0.5 0,-1.9 1,-2.4 2,-1 4.1,-1.6 6.3,-1.9 -0.3,-0.5 -0.6,-0.9 -0.9,-1.4 1.6,-1.3 3.5,-2.2 5.6,-2.8 0.4,0.7 0.5,1.5 0.3,2.3 -0.7,0.3 -1.4,0.4 -2.1,0.2 0.1,0.5 0.2,1 0.3,1.6 -0.7,0.2 -1.2,0.3 -1.7,0.2"
       fill="rgba(115,172,118,0.88)"
       transform="matrix(0.19573948,0,0,0.19573948,256.42215,259.7236)" />
    <path
       id="_ehe1g4nge_91"
       d="m 203,170.4 c 0.8,-0.5 1.9,-0.7 2.8,-0.5 -0.4,-0.5 -0.7,-1 -1,-1.5 1,-0.2 2,-0.4 3.1,-0.5 0.4,-1 0.4,-2.2 0,-3.2 1.1,-0.1 2.3,0.1 3.3,0.5 0.3,0.4 0.4,1 0.3,1.5 -0.5,0.2 -1.1,0.4 -1.7,0.6 -0.2,1 -0.5,2 -0.7,3 -0.5,0.3 -1.3,0.4 -1.9,0.2 -0.9,5.4 -6.8,8.5 -8.9,13.5 -0.7,1.7 -1.4,3.9 -3.2,3.9 -0.5,-0.6 -0.4,-1.7 0.3,-2.2 -0.7,-0.2 -1.3,-0.4 -1.9,-0.6 -0.1,-1.1 1.7,-0.8 2.6,-0.1 0.8,-0.7 0.1,-2.3 -0.9,-2.3 1.1,-0.9 1.8,-2.3 2,-3.7 1.1,0.1 2.2,-0.3 2.9,-1.1 -0.8,0.2 -1.7,-0.4 -1.9,-1.3 1.6,0.3 3.2,-1.2 3.1,-2.8 1.2,-0.7 2.4,-1.4 3.6,-2.1 -0.5,-0.3 -1.2,-0.8 -1.9,-1.3"
       fill="rgba(115,172,118,0.88)"
       transform="matrix(0.19573948,0,0,0.19573948,256.42215,259.7236)" />
    <path
       id="_ehe1g4nge_92"
       d="m 517.1,175.7 c -2.2,-3 -4.5,-5.9 -7.3,-8.4 -3.9,-3.5 -8.9,-6.6 -9.7,-11.8 23.5,19.9 41.6,46.2 51.7,75.3 0.9,0.8 -0.1,2.6 -1.2,2.3 -8.8,-20.3 -20.1,-39.7 -33.5,-57.4"
       fill="rgba(115,172,118,0.88)"
       transform="matrix(0.19573948,0,0,0.19573948,256.42215,259.7236)" />
    <path
       id="_ehe1g4nge_93"
       d="m 253.1,159.9 c 4.1,-3.3 8.8,-6.4 10.5,-11.4 0.5,-1.4 1.9,-2.5 3.2,-3.3 20.2,-12.7 43.8,-19.7 67.6,-20.1 -11.9,3.2 -23.7,6.3 -35.6,9.5 -18.5,4.9 -32.1,20.2 -44.6,34.8 -10.8,12.7 -21.7,25.4 -32.5,38.2 -1.3,3.5 -2.5,7.1 -3.8,10.6 -0.5,1.6 -1.1,3.2 -2.5,4.2 -1.3,1 -3.5,1 -4.3,-0.5 4.8,-8.4 9.6,-16.9 14.5,-25.4 7.8,-13.2 15.6,-26.8 27.5,-36.6"
       fill="rgba(115,172,118,0.88)"
       transform="matrix(0.19573948,0,0,0.19573948,256.42215,259.7236)" />
  </g>
  <g
     id="sensory-icon-wheel"
     transform="matrix(0.91433251,0,0,0.91433251,-257.66677,-250.16165)"
     stroke="rgba(191,64,64,0)"
     fill="#1d398f"
     stroke-width="0">
    <path
       id="_ehe1g4nge_95"
       fill-rule="evenodd"
       clip-rule="evenodd"
       d="m 35.904,8.991 c 12.32,-1.519 24.885,4.016 29.356,12.072 2.26,4.069 5.699,13.749 5.214,19.755 -0.598,7.37 -3.913,12.675 -8.231,17.01 -2.946,2.959 -5.121,5.101 -9.328,7.409 -3.457,1.896 -6.588,3.144 -10.701,3.566 -1.298,0.133 -3.109,0.673 -4.664,0.549 C 36.317,69.254 35.153,68.42 33.984,68.254 30.731,67.793 28.369,68.191 25.479,67.156 18.014,64.482 10.736,58.871 7.371,52.065 1.946,41.097 8.382,26.075 14.23,19.141 19.032,13.448 25.618,10.258 35.904,8.991 Z m -21.95,14.267 c 0.086,-0.986 2.55,-3.138 1.372,-2.744 -2.884,4.545 -5.354,8.517 -6.311,13.993 -2.098,12.005 2.345,21.964 11.249,27.985 2.527,1.709 7.014,3.979 10.426,4.664 2.583,0.519 5.852,1.074 8.23,1.098 3.537,0.035 6.286,-1.313 8.506,-2.195 C 57.38,62.103 65.908,53.827 67.18,42.19 68.117,33.622 64.117,25.7 60.595,18.045 58.118,17.767 57.361,15.49 55.931,14.479 54.059,13.154 51.287,12.034 48.798,11.186 42.95,9.195 36.238,9.239 29.318,10.912 c -3.959,1.894 -8.512,3.194 -11.249,6.311 2.412,0.48 -2.094,1.672 -0.823,2.743 1.967,-1.601 3.5,-5.095 6.311,-4.938 -0.388,0.8 -1.507,0.87 -2.195,1.371 -1.198,1.892 -3.267,2.875 -4.665,4.665 -1.749,2.24 -1.808,5.606 -4.39,7.134 0.886,-1.421 2.109,-3.798 1.647,-4.94 z"
       fill="#1d398f"
       transform="matrix(0.89711195,0,0,0.89711195,294.31998,284.28949)"
       stroke="rgba(191,64,64,0)"
       stroke-width="0" />
    <path
       id="_ehe1g4nge_96"
       fill-rule="evenodd"
       clip-rule="evenodd"
       d="m 30.416,12.558 c -0.389,0.8 -0.926,1.451 -2.195,1.372 0.394,-0.796 1.247,-1.132 2.195,-1.372 z"
       fill="#1d398f"
       transform="matrix(0.89711195,0,0,0.89711195,294.31998,284.28949)"
       stroke="rgba(191,64,64,0)"
       stroke-width="0" />
    <path
       id="_ehe1g4nge_97"
       fill-rule="evenodd"
       clip-rule="evenodd"
       d="m 26.3,15.576 c -3.783,1.155 -5.847,4.03 -8.779,6.036 1.651,-2.428 5.835,-6.32 8.779,-6.036 z"
       fill="#1d398f"
       transform="matrix(0.89711195,0,0,0.89711195,294.31998,284.28949)"
       stroke="rgba(191,64,64,0)"
       stroke-width="0" />
    <path
       id="_ehe1g4nge_98"
       fill-rule="evenodd"
       clip-rule="evenodd"
       d="m 64.712,46.854 c -0.109,0.989 -0.447,1.748 -1.372,1.92 -0.475,-0.676 0.438,-1.795 1.372,-1.92 z"
       fill="#1d398f"
       transform="matrix(0.89711195,0,0,0.89711195,294.31998,284.28949)"
       stroke="rgba(191,64,64,0)"
       stroke-width="0" />
    <path
       id="_ehe1g4nge_99"
       fill-rule="evenodd"
       clip-rule="evenodd"
       d="m 60.871,50.969 c 0.757,-0.783 0.627,0.537 1.098,0.823 -1.974,5.067 -6.168,7.917 -10.426,10.7 2.256,-3.459 9.343,-5.774 9.328,-11.523 z"
       fill="#1d398f"
       transform="matrix(0.89711195,0,0,0.89711195,294.31998,284.28949)"
       stroke="rgba(191,64,64,0)"
       stroke-width="0" />
    <path
       id="_ehe1g4nge_100"
       fill-rule="evenodd"
       clip-rule="evenodd"
       d="m 49.622,14.204 c 9.38,3.301 15.559,11.916 15.091,23.87 -0.41,10.445 -6.391,17.722 -13.445,22.498 -2.489,1.687 -4.3,1.784 -7.133,2.744 -1.14,0.386 -1.859,1.235 -3.019,1.371 C 38.302,65.019 33.994,64.131 30.965,63.59 27.368,62.946 26.069,61.964 23.283,60.297 22.172,59.633 20.617,59.533 19.716,58.925 17.896,57.698 15.428,55.392 14.503,54.262 12.4,51.691 10.843,48.386 10.936,44.658 11.433,24.853 26.121,8.422 49.622,14.204 Z M 33.16,15.301 c 3.082,5.639 2.998,12.388 4.665,18.657 1.933,-5.749 1.4,-13.964 2.744,-20.303 -2.661,-0.217 -5.544,0.32 -7.409,1.646 z m 8.506,-1.646 c -0.89,6.149 -2.063,16.107 -1.646,20.852 1.694,-7.085 5.197,-12.362 7.683,-18.657 -2.025,-0.721 -3.477,-2.013 -6.037,-2.195 z m -17.012,5.762 c 4.162,4.709 5.95,11.792 11.25,15.364 -0.424,-6.694 -1.847,-14.69 -4.39,-19.48 -2.914,0.744 -5.174,2.143 -6.86,4.116 z m 24.145,-2.744 c -2.693,5.691 -5.961,10.621 -6.859,17.011 3.542,-5.328 7.772,-9.969 11.522,-15.091 -1.84,-0.353 -2.393,-1.994 -4.663,-1.92 z m -25.516,3.292 c -2.019,2.097 -4.372,3.859 -5.488,6.859 4.746,1.748 9.708,4.742 13.993,6.036 -3.044,-4.088 -4.978,-9.288 -8.505,-12.895 z m 31.004,0 c -4.205,4.657 -7.886,9.149 -11.799,14.542 5.76,-2.929 10.927,-6.451 16.188,-9.877 -1.588,-1.431 -2.195,-3.841 -4.389,-4.665 z m 4.664,6.036 c -5.181,3.234 -10.585,6.244 -15.64,9.604 6.011,-1.123 11.673,-2.595 18.109,-3.293 0.099,-3.026 -1.212,-4.641 -2.469,-6.311 z M 14.503,36.153 c 5.973,-0.684 12.219,0.292 17.56,0 -4.696,-2.986 -9.999,-5.366 -15.365,-7.682 -0.775,3.127 -2.015,4.14 -2.195,7.682 z M 61.145,33.41 c -4.257,1.267 -10.558,2.358 -14.815,3.292 -1.412,0.31 -3.447,-0.146 -4.116,1.372 5.315,0.652 13.922,0.53 19.755,1.098 -0.881,-1.316 0.53,-4.922 -0.824,-5.762 z m -25.241,6.035 c 0.319,0.504 1.456,0.191 1.098,1.373 0.951,-0.146 1.46,-0.733 2.469,-0.823 0.174,-1.015 0.745,-1.633 0.549,-3.019 -1.043,-0.146 -1.575,-0.802 -2.47,-1.097 -0.72,1.017 -1.358,2.118 -1.646,3.566 z m -21.401,3.294 c 5.933,-1.384 12.295,-2.338 17.56,-4.391 -5.139,-0.188 -11.766,-0.956 -17.834,-1.097 0.017,1.289 -0.357,4.753 0.274,5.488 z m 0,1.097 c -0.194,2.754 1.045,4.076 2.195,5.487 4.46,-1.45 8.233,-3.896 12.072,-6.037 1.651,-0.92 3.688,-1.171 4.939,-2.742 -6.339,-0.599 -13.015,2.486 -19.206,3.292 z m 44.721,5.212 c 1.219,-2.177 2.498,-5.407 2.196,-8.23 -5.528,0.136 -11.222,-0.383 -17.013,-0.549 4.276,3.591 9.921,5.812 14.817,8.779 z M 33.983,41.915 c -3.798,4.8 -7.708,9.485 -11.523,14.268 2.121,0.807 3.401,2.452 6.037,2.743 2.485,-5.47 5.277,-10.635 7.682,-16.187 -0.826,-0.182 -0.958,-1.055 -2.196,-0.824 z m -16.736,9.054 c 1.016,2.003 2.88,3.155 4.39,4.664 3.618,-4.063 6.974,-8.39 10.426,-12.621 -5.212,2.38 -10.384,4.799 -14.816,7.957 z m 30.728,8.781 c 1.562,-1.183 3.33,-2.157 4.939,-3.292 -4.384,-4.123 -8.442,-8.568 -12.072,-13.445 2.666,5.29 3.776,12.137 7.133,16.737 z m -18.656,0 c 2.096,0.921 3.735,2.301 6.585,2.47 0.661,-6.108 1.469,-12.067 1.646,-18.658 -0.06,-0.214 -0.229,-0.318 -0.548,-0.274 -2.817,5.231 -4.98,11.117 -7.683,16.462 z m 7.956,2.743 c 3.331,0.038 5.875,-0.709 8.505,-1.371 -2.748,-5.394 -3.989,-12.292 -6.859,-17.561 0.18,6.419 -1.237,13.204 -1.646,18.932 z M 54.834,54.81 c 1.144,-1.417 2.68,-2.442 3.292,-4.39 -5.138,-1.72 -9.114,-4.604 -13.719,-6.859 3.119,4.107 6.602,7.849 10.427,11.249 z"
       fill="#1d398f"
       transform="matrix(0.89711195,0,0,0.89711195,294.31998,284.28949)"
       stroke="rgba(191,64,64,0)"
       stroke-width="0" />
  </g>
  <path
     id="sensory-icon-text"
     text="sensory"
     fill="#f55e00"
     space="preserve"
     text-anchor="middle"
     offset="0.5"
     font-scale="contain"
     font-size="48px"
     font-family="'Open Sans'"
     data-fl-textpath=""
     d="m 21.314642,95.651392 v 0 q 0,1.12095 -0.836805,1.72669 -0.833683,0.60887 -2.341805,0.60887 v 0 q -1.59555,0 -2.488558,-0.50583 v 0 -1.12719 q 0.580767,0.29351 1.242718,0.46212 0.66195,0.16861 1.277064,0.16861 v 0 q 0.949211,0 1.461286,-0.30287 0.515197,-0.306 0.515197,-0.92736 v 0 q 0,-0.46836 -0.409035,-0.80246 -0.405913,-0.33097 -1.58306,-0.78684 v 0 q -1.120944,-0.41528 -1.592428,-0.72752 -0.471483,-0.30912 -0.702541,-0.70567 -0.231058,-0.39654 -0.231058,-0.94296 v 0 q 0,-0.98044 0.799336,-1.54872 0.796214,-0.56828 2.188807,-0.56828 v 0 q 1.295799,0 2.532272,0.52769 v 0 l -0.434015,0.9898 q -1.205249,-0.49958 -2.185684,-0.49958 v 0 q -0.864907,0 -1.305166,0.27165 -0.437137,0.27165 -0.437137,0.74625 v 0 q 0,0.32161 0.162365,0.54955 0.165487,0.22481 0.530809,0.43089 0.368444,0.20608 1.405083,0.59326 v 0 q 1.42694,0.51832 1.929647,1.046 0.502708,0.52769 0.502708,1.3239 z m 5.363806,2.33556 v 0 q -1.779771,0 -2.807043,-1.08347 -1.027272,-1.08348 -1.027272,-3.00688 v 0 q 0,-1.93901 0.952334,-3.08182 0.955456,-1.1428 2.566618,-1.1428 v 0 q 1.508123,0 2.385519,0.99293 0.877396,0.99292 0.877396,2.61658 v 0 0.76811 h -5.523537 q 0.03435,1.41133 0.711909,2.14509 0.677562,0.73064 1.90779,0.73064 v 0 q 1.295799,0 2.560373,-0.54017 v 0 1.08035 q -0.643215,0.28102 -1.217738,0.39967 -0.574523,0.12177 -1.386349,0.12177 z m -0.330975,-7.29706 v 0 q -0.964823,0 -1.539346,0.63072 -0.574523,0.62761 -0.677562,1.74231 v 0 h 4.193392 q 0,-1.14905 -0.512075,-1.76104 -0.512075,-0.61199 -1.464409,-0.61199 z m 12.052392,7.15031 h -1.214616 v -5.18944 q 0,-0.98044 -0.446504,-1.46129 -0.446504,-0.48397 -1.395716,-0.48397 v 0 q -1.25833,0 -1.845342,0.68069 -0.58389,0.68068 -0.58389,2.24501 v 0 4.209 h -1.214616 v -8.02146 h 0.98668 l 0.196712,1.09908 h 0.05933 q 0.371567,-0.59325 1.046007,-0.91798 0.674439,-0.32786 1.501877,-0.32786 v 0 q 1.448797,0 2.17944,0.69942 0.730643,0.69942 0.730643,2.23565 v 0 z m 7.672046,-2.18881 v 0 q 0,1.12095 -0.836805,1.72669 -0.833683,0.60887 -2.341805,0.60887 v 0 q -1.59555,0 -2.488558,-0.50583 v 0 -1.12719 q 0.580768,0.29351 1.242718,0.46212 0.66195,0.16861 1.277064,0.16861 v 0 q 0.949212,0 1.461286,-0.30287 0.515197,-0.306 0.515197,-0.92736 v 0 q 0,-0.46836 -0.409035,-0.80246 -0.405913,-0.33097 -1.58306,-0.78684 v 0 q -1.120944,-0.41528 -1.592427,-0.72752 -0.471484,-0.30912 -0.702542,-0.70567 -0.231058,-0.39654 -0.231058,-0.94296 v 0 q 0,-0.98044 0.799336,-1.54872 0.796214,-0.56828 2.188807,-0.56828 v 0 q 1.295799,0 2.532272,0.52769 v 0 l -0.434015,0.9898 q -1.205249,-0.49958 -2.185684,-0.49958 v 0 q -0.864907,0 -1.305166,0.27165 -0.437137,0.27165 -0.437137,0.74625 v 0 q 0,0.32161 0.162365,0.54955 0.165488,0.22481 0.530809,0.43089 0.368444,0.20608 1.405083,0.59326 v 0 q 1.42694,0.51832 1.929647,1.046 0.502708,0.52769 0.502708,1.3239 z m 8.898371,-1.82973 v 0 q 0,1.96087 -0.989803,3.06308 -0.986681,1.10221 -2.728983,1.10221 v 0 q -1.074108,0 -1.910913,-0.50583 -0.833683,-0.50583 -1.286432,-1.44879 -0.452749,-0.94297 -0.452749,-2.21067 v 0 q 0,-1.96087 0.980436,-3.05371 0.980436,-1.09597 2.719616,-1.09597 v 0 q 1.6861,0 2.675903,1.12095 0.992925,1.12094 0.992925,3.02873 z m -6.11055,0 v 0 q 0,1.53623 0.615114,2.34181 0.611992,0.80558 1.804751,0.80558 v 0 q 1.19276,0 1.814118,-0.80246 0.618237,-0.79934 0.618237,-2.34493 v 0 q 0,-1.52998 -0.618237,-2.32307 -0.621358,-0.79309 -1.826607,-0.79309 v 0 q -1.19276,0 -1.801629,0.78372 -0.605747,0.78061 -0.605747,2.33244 z m 11.897052,-4.14968 v 0 q 0.533932,0 0.958579,0.0874 v 0 l -0.165487,1.12719 q -0.499585,-0.10928 -0.880519,-0.10928 v 0 q -0.971069,0 -1.664243,0.78996 -0.690052,0.7931 -0.690052,1.97024 v 0 4.30268 h -1.214616 v -8.02146 h 1.002293 l 0.137386,1.48626 h 0.05933 q 0.446504,-0.78372 1.074108,-1.20837 0.630726,-0.42465 1.383226,-0.42465 z m 4.422499,8.21193 -3.234813,-8.06517 h 1.302043 l 1.754793,4.57432 q 0.580767,1.56745 0.718153,2.26063 v 0 h 0.05933 q 0.09367,-0.37157 0.399668,-1.27707 0.302874,-0.90237 1.985851,-5.55788 v 0 h 1.302043 l -3.447137,9.13304 q -0.512074,1.355118 -1.195881,1.920278 -0.683807,0.56827 -1.679855,0.56827 v 0 q -0.555789,0 -1.095965,-0.12489 v 0 -0.97107 q 0.399668,0.0874 0.899253,0.0874 v 0 q 1.252085,0 1.786017,-1.405088 v 0 z"
     style="stroke-width:0.312241" />
</svg>
