<svg xmlns="http://www.w3.org/2000/svg" width="512" height="512" viewBox="0 0 512 512" data-svgdocument="" id="_QPbOH8Bvnff-nxIn-ryGS" class="fl-svgdocument" x="0" y="0" style="overflow: hidden;"
    xmlns:xlink="http://www.w3.org/1999/xlink">
    <defs id="_-Pf6sSTUS_QCObCL12lGl" transform="matrix(1.2307695150375366, 0, 0, 1.2307695150375366, -59.07701110839844, -67.29283142089844)"/>
    <g id="sensory-icon-circle" transform="matrix(-0.42644745111465454, 0.9045133590698242, -0.9045133590698242, -0.42644745111465454, 700.4354858398438, 159.1592559814453)">
        <path id="_ehe1g4nge_77" d="M211.4,172.1c2.8-3.3,5.9-7.7,3.9-11.6c11.2-6.6,21.1-15.3,29.2-25.5c-4.4,3.5-9.2,6.3-14.3,8.5   c38.3-37.8,95.9-55,148.8-44.4c-42.6-1.6-86,9.7-121.2,33.7c-35.3,23.9-62.1,60.6-72.4,102c15.6-45.3,48.5-84.4,90.5-107.4   c-3.3,3.4-6.6,6.9-10,10.3c16-6.6,30.5-16.5,46.4-23.4c46.7-20.4,102.9-12.7,146.4,13.9c43.5,26.6,74.8,70.2,93,117.8   c8,20.8,13.6,43.9,6.5,65c-1.6-27.5-10.6-54-22.3-78.9c-19.4-41.5-47.2-80.4-86.3-104.2c-39.1-23.7-90.8-30-130.8-7.7   c20.5-2.2,41.2-3.4,61.5-0.5c38.2,5.4,73.5,25.4,100.3,53.1c26.7,27.8,45.2,62.9,56.1,99.8c10.6,36.1,14.1,75.9,0.5,111.1   c39.7-64.2,33.1-153.6-15.4-211.3c-20.3-24.1-46.6-42.6-75-56c-32.8-15.4-68.8-24.3-105-23.3s-72.4,12.3-101.3,34.1   c24-21.2,55.3-33.2,87.1-36.5c31.9-3.2,64.2,2,94.5,12.2c63,21.4,120.4,68.6,138.9,132.5c4.7,16.4,6.8,33.4,8.7,50.4   c1.6,14.7,2.9,29.4,2.6,44.2c-1.4,73.1-48.1,144.5-116.2,171.2c-19.3,7.5-39.7,11.6-60.2,14.5c-32.8,4.6-66.8,6-98.4-3.8   c-16.3-5.1-31.5-13-45.6-22.7c-58.4-40-95.3-109.7-95.3-180.5c0-12.6,1.1-25.1,2.8-37.5c1.5-11.4,3.5-22.7,6.8-33.7   c5-16.2,12.8-31.5,23.1-45c1.8-1.1,3.6-2.3,5.3-3.5c-23.7,50.1-37.8,109.3-16.1,160.4c-7.8-33.3-8.3-68.2-1.4-101.6   c2.2-0.8,4.4-1.7,6.5-2.6c0.1-2.2,0.2-4.3,0.3-6.5c-1.6,1.8-3.1,3.6-4.7,5.3C182.9,217.5,194.3,192.4,211.4,172.1 M227.5,170.8   c6.2-4.2,12.4-8.4,18.6-12.6c-3.9,7.9-11.1,14.1-19.5,16.9c-39,40.3-51,100.4-46.4,156.2c1.8,21.1,6.1,43,19.7,59.2   c-9.5-39-10-80.2-1.3-119.4c1.7-0.1,2.3,2.1,2.3,3.8c0.7,26.3-3.8,52.6-1.9,78.9c1.9,26.2,11.7,53.9,33.7,68.2   c17.2,11.2,34.3,22.4,51.4,33.6c-40-12.8-74.9-40.6-96.5-76.6c5.8,15.7,13.9,30.6,23.9,44c-1.3-3.6-2.5-7.3-3.8-11   c10.1,9.5,20.3,18.8,30.4,28.2c7.4,6.9,19,13.9,26.6,7.3c1.2,2.5-1,5.6-3.7,6.3c-2.7,0.8-5.6,0-8.3-0.8c12.1,8.7,24.7,16.7,37.7,24   c-1.9,0.3-2.5,3.1-1.3,4.7c1.2,1.6,3.2,2,5.1,2.5c47.7,10.3,98.5,6.5,144.1-11.1c-39.2,9.2-81,11.3-119-2   c-32.1-11.2-60.2-33.3-78.6-61.8c-5.9-9.2-10.8-18.9-15.3-28.8c-14.5-32.6-23.7-68.2-21.1-103.8c2.6-35.6,18.2-71.1,46.2-93.1   c2.9-2.3,6.5-4.5,10.1-3.6c-27.6,20-44,53.1-48.3,86.9c-4.3,33.9,2.7,68.3,15,100.1c8.8,22.5,20.5,44.3,36.6,62.3   c6.9,7.7,14.7,14.7,23.6,20c16.3,9.8,35.6,13.5,54.5,15.9c25.7,3.3,51.6,4.7,77.5,4.1c-32.7,7.7-66.9,2.2-100-3.3   c56.2,21.1,122.1,8.2,170.4-27.3c9.6-7.1,18.7-15,26-24.5c11.2-14.6,17.9-32.4,21.3-50.5c8.8-47.2-3.8-96.5-26.7-138.8   c-15.9-29.4-37-56.6-64.8-75.1c-26-17.2-56.9-26.3-88-28C309.9,119,259.3,134.8,227.5,170.8 M321.4,495.6   c21.5,5.4,43.2,9.3,65.2,11.9c-27,6.2-54.8-3.3-80.9-12.6c-15.4-5.4-31-11-45.3-19c-34.6-19.2-60.6-52.1-75.7-88.7   c-2.6-6.5-5-13-7-19.6c-0.2-0.8-0.8,1.1,0,0.7c0.8-0.3,0.7-1.5,0.3-2.3c-9-21.7-14.5-45-16.2-68.4c-1.7,35.4,7.1,71,23.1,102.7   c17.4,34.5,43.5,64.8,76.3,85.3c32.7,20.5,72.1,30.9,110.5,27.2c54-5.3,101.4-36.8,144.9-69.1c-19.2,25.4-48.3,41.1-76.6,55.9   c48.9-13.7,88.1-52.4,111.7-97.4c-11.7,20-30,35.7-49.9,47.5c-20,11.8-41.9,20-63.8,27.9c-9.6,3.5-19.3,6.9-29.2,9.7   C380.5,495.4,350.7,498.2,321.4,495.6 M521.4,428c5-4.7,9.9-9.5,13.9-14.9c6.3-8.7,10.5-18.8,14.5-28.8   c5.4-13.6,10.9-27.3,12.3-41.9c-2.6,2.3-3.5,5.7-4.5,9c-13.3,46.1-46.2,86.3-88.9,108.3C488.8,455.2,506.1,442.1,521.4,428    M277,477c2.1,0.5,4.7,1.4,4.8,3.5c0.8-1.4,3.2-1.4,4.1,0c0.4-0.1,0.1-0.8-0.4-1c-3-1.6-6-3.2-8.9-4.8c-12.1-6.5-23.2-14.6-33.1-24   c-1.2,2.6-0.3,5.9,2,7.5c4.4,3.2,8.8,6.4,13.2,9.6C264,472.2,270.3,475.4,277,477 M565.8,325.8c-0.4,7.4-0.8,14.9-1.3,22.3   c-0.1,1-0.1,2-0.1,3c-0.1,1.8-0.2,3.6-0.4,5.3c-0.1,2.2-0.2,4.2-0.2,6.4c4.2-17,5.7-34.8,4.4-52.2c-0.5-0.2-1-0.5-1.4-0.8   C566.5,315.1,566.1,320.4,565.8,325.8 M177.1,216.2c-0.7,1.3-1.3,2.6-1.9,3.9c0.7,0.9,2-0.2,2.3-1.3c0.3-1,0.6-2.4,1.7-2.5   c-0.5-0.5-1-1-1.5-1.5c-0.2,0.4-0.4,1-0.2,1.4 M249.8,133.2c1-0.8,2-1.6,3-2.5c-1.7-0.7-3.9,0.2-4.6,2   C248.7,132.9,249.2,133.1,249.8,133.2 M252.9,128.5c2.2,0.5,4.7-0.1,6.5-1.6C257.1,126.8,254.8,127.3,252.9,128.5 M173.3,230   c-0.1-0.5-0.2-1-0.2-1.4c-1.9,0.7-2.8,3.3-1.7,5C171.8,232.3,172.4,231.1,173.3,230 M162,281c-0.5,0.7-0.1,1.9,0.8,2   c0.5-1.6,0.4-3.3-0.1-5c-1,0.5-1.3,1.9-0.7,2.8" fill="rgba(115,172,118,0.88)" transform="matrix(0.1957394778728485, 0, 0, 0.1957394778728485, 256.4221496582031, 259.7236022949219)"/>
        <path id="_ehe1g4nge_78" d="M229.4,144c0.2,0.3,0.4,0.7,0.6,1c-0.9,1.3-2.6,1.9-4.1,1.5c0.8-1.1,2-1.9,3.3-2.2" fill="rgba(115,172,118,0.88)" transform="matrix(0.1957394778728485, 0, 0, 0.1957394778728485, 256.4221496582031, 259.7236022949219)"/>
        <path id="_ehe1g4nge_79" d="M221.5,150.4c1.4-0.5,2.9-0.8,4.4-0.7c-0.3,2.2-4,2.8-4.9,0.7" fill="rgba(115,172,118,0.88)" transform="matrix(0.1957394778728485, 0, 0, 0.1957394778728485, 256.4221496582031, 259.7236022949219)"/>
        <path id="_ehe1g4nge_80" d="M216.5,145.8c0.9-1.4,2.6-2.4,4.4-2.2c0.4,1,0.1,2.2-0.7,2.9c-1.4,0.2-3.1,0.4-4.1-0.7" fill="rgba(115,172,118,0.88)" transform="matrix(0.1957394778728485, 0, 0, 0.1957394778728485, 256.4221496582031, 259.7236022949219)"/>
        <path id="_ehe1g4nge_81" d="M496.8,152.4c0.6-0.1,1.2,0.5,1.1,1.1c-0.1,0.6-0.8,1-1.4,0.8c-0.9-1-1.8-2.1-2.7-3.2c1-0.8,2.8-0.1,3,1.1" fill="rgba(115,172,118,0.88)" transform="matrix(0.1957394778728485, 0, 0, 0.1957394778728485, 256.4221496582031, 259.7236022949219)"/>
        <path id="_ehe1g4nge_82" d="M225.5,137.6c0.7-0.8,2.1-0.8,2.9-0.1c-1.3,1.3-3,2.2-4.8,2.8c-0.2-1.1,0.8-2.4,1.9-2.3" fill="rgba(115,172,118,0.88)" transform="matrix(0.1957394778728485, 0, 0, 0.1957394778728485, 256.4221496582031, 259.7236022949219)"/>
        <path id="_ehe1g4nge_83" d="M209.1,230.6c0.9-1.3,3.3-0.8,3.6,0.8c-1.2-0.2-2.5,0.2-3.3,1.1c-0.5,0.2-1.3-0.2-1.3-0.8   c-0.1-0.5,0.5-1.1,1.1-1" fill="rgba(115,172,118,0.88)" transform="matrix(0.1957394778728485, 0, 0, 0.1957394778728485, 256.4221496582031, 259.7236022949219)"/>
        <path id="_ehe1g4nge_84" d="M266.3,166.6c0.5-0.2,1.2-0.4,1.7-0.2c0.6,0.2,0.9,1.1,0.5,1.5c-1.9,1.2-4.1,1.9-6.3,2   C263.2,168.5,264.7,167.4,266.3,166.6" fill="rgba(115,172,118,0.88)" transform="matrix(0.1957394778728485, 0, 0, 0.1957394778728485, 256.4221496582031, 259.7236022949219)"/>
        <path id="_ehe1g4nge_85" d="M295.8,479.1c1,0.7,2.1,1.4,3.1,2.1c-2.2,0.9-4.8,0.4-6.6-1.2c-0.4-0.7,0.4-1.7,1.1-1.7   C294.3,478.2,295.1,478.7,295.8,479.1" fill="rgba(115,172,118,0.88)" transform="matrix(0.1957394778728485, 0, 0, 0.1957394778728485, 256.4221496582031, 259.7236022949219)"/>
        <path id="_ehe1g4nge_86" d="M250.1,157.4c-0.5-1.5-0.1-3.3,1.1-4.4c0.8-0.2,1.6-0.8,1.9-1.7c1.3,0.5,2.5,1,3.8,1.5   C254.7,154.3,252.4,155.8,250.1,157.4" fill="rgba(115,172,118,0.88)" transform="matrix(0.1957394778728485, 0, 0, 0.1957394778728485, 256.4221496582031, 259.7236022949219)"/>
        <path id="_ehe1g4nge_87" d="M201.3,264.8c0-0.6,0-1.2,0-1.8c1-0.5,2.1-0.5,3-0.1c-1.8,1.9-2.8,4.5-2.6,7.1c-1.1-0.8-2.3-1.7-3.5-2.5   c1-0.8,2.1-1.7,3.2-2.6" fill="rgba(115,172,118,0.88)" transform="matrix(0.1957394778728485, 0, 0, 0.1957394778728485, 256.4221496582031, 259.7236022949219)"/>
        <path id="_ehe1g4nge_88" d="M194.7,176.5c0.4-3.1,2.2-5.9,4.7-7.8c0.7-0.5,1.8-0.8,2.2-0.1c-2.2,2.2-4,4.7-5.3,7.5   C196,176.6,195.2,176.9,194.7,176.5" fill="rgba(115,172,118,0.88)" transform="matrix(0.1957394778728485, 0, 0, 0.1957394778728485, 256.4221496582031, 259.7236022949219)"/>
        <path id="_ehe1g4nge_89" d="M205,238.5c2-1.5,3.9-3,5.9-4.5c-0.5,1.9-1,3.6-1.5,5.5c-0.7,0.4-1.2,1.1-1.9,1.5c-0.7,0.4-1.7,0.5-2.2-0.2   c-0.4-0.7,0.7-1.7,1.1-1C206,239.4,205.5,239,205,238.5" fill="rgba(115,172,118,0.88)" transform="matrix(0.1957394778728485, 0, 0, 0.1957394778728485, 256.4221496582031, 259.7236022949219)"/>
        <path id="_ehe1g4nge_90" d="M281.2,161c-0.2,0.5-0.4,1-0.2,1.6c-1.6,0.3-3.1,0.6-4.5,0.9c-0.2,0.6-0.4,1.2-0.6,1.8   c-1.2-0.1-2.4-0.1-3.5-0.1c-1-0.5,0-1.9,1-2.4c2-1,4.1-1.6,6.3-1.9c-0.3-0.5-0.6-0.9-0.9-1.4c1.6-1.3,3.5-2.2,5.6-2.8   c0.4,0.7,0.5,1.5,0.3,2.3c-0.7,0.3-1.4,0.4-2.1,0.2c0.1,0.5,0.2,1,0.3,1.6C282.2,161,281.7,161.1,281.2,161" fill="rgba(115,172,118,0.88)" transform="matrix(0.1957394778728485, 0, 0, 0.1957394778728485, 256.4221496582031, 259.7236022949219)"/>
        <path id="_ehe1g4nge_91" d="M203,170.4c0.8-0.5,1.9-0.7,2.8-0.5c-0.4-0.5-0.7-1-1-1.5c1-0.2,2-0.4,3.1-0.5c0.4-1,0.4-2.2,0-3.2   c1.1-0.1,2.3,0.1,3.3,0.5c0.3,0.4,0.4,1,0.3,1.5c-0.5,0.2-1.1,0.4-1.7,0.6c-0.2,1-0.5,2-0.7,3c-0.5,0.3-1.3,0.4-1.9,0.2   c-0.9,5.4-6.8,8.5-8.9,13.5c-0.7,1.7-1.4,3.9-3.2,3.9c-0.5-0.6-0.4-1.7,0.3-2.2c-0.7-0.2-1.3-0.4-1.9-0.6c-0.1-1.1,1.7-0.8,2.6-0.1   c0.8-0.7,0.1-2.3-0.9-2.3c1.1-0.9,1.8-2.3,2-3.7c1.1,0.1,2.2-0.3,2.9-1.1c-0.8,0.2-1.7-0.4-1.9-1.3c1.6,0.3,3.2-1.2,3.1-2.8   c1.2-0.7,2.4-1.4,3.6-2.1C204.4,171.4,203.7,170.9,203,170.4" fill="rgba(115,172,118,0.88)" transform="matrix(0.1957394778728485, 0, 0, 0.1957394778728485, 256.4221496582031, 259.7236022949219)"/>
        <path id="_ehe1g4nge_92" d="M517.1,175.7c-2.2-3-4.5-5.9-7.3-8.4c-3.9-3.5-8.9-6.6-9.7-11.8c23.5,19.9,41.6,46.2,51.7,75.3   c0.9,0.8-0.1,2.6-1.2,2.3C541.8,212.8,530.5,193.4,517.1,175.7" fill="rgba(115,172,118,0.88)" transform="matrix(0.1957394778728485, 0, 0, 0.1957394778728485, 256.4221496582031, 259.7236022949219)"/>
        <path id="_ehe1g4nge_93" d="M253.1,159.9c4.1-3.3,8.8-6.4,10.5-11.4c0.5-1.4,1.9-2.5,3.2-3.3c20.2-12.7,43.8-19.7,67.6-20.1   c-11.9,3.2-23.7,6.3-35.6,9.5c-18.5,4.9-32.1,20.2-44.6,34.8c-10.8,12.7-21.7,25.4-32.5,38.2c-1.3,3.5-2.5,7.1-3.8,10.6   c-0.5,1.6-1.1,3.2-2.5,4.2c-1.3,1-3.5,1-4.3-0.5c4.8-8.4,9.6-16.9,14.5-25.4C233.4,183.3,241.2,169.7,253.1,159.9" fill="rgba(115,172,118,0.88)" transform="matrix(0.1957394778728485, 0, 0, 0.1957394778728485, 256.4221496582031, 259.7236022949219)"/>
    </g>
    <g id="sensory-icon-wheel" transform="matrix(0.9143325090408325, 0, 0, 0.9143325090408325, -28.38566780090332, 28.149667739868164)" stroke="rgba(191,64,64,0)" fill="#1d398f" stroke-width="0">
        <path id="_ehe1g4nge_95" fill-rule="evenodd" clip-rule="evenodd" d="M35.904,8.991c12.32-1.519,24.885,4.016,29.356,12.072  c2.26,4.069,5.699,13.749,5.214,19.755c-0.598,7.37-3.913,12.675-8.231,17.01c-2.946,2.959-5.121,5.101-9.328,7.409  c-3.457,1.896-6.588,3.144-10.701,3.566c-1.298,0.133-3.109,0.673-4.664,0.549c-1.233-0.098-2.397-0.932-3.566-1.098  c-3.253-0.461-5.615-0.063-8.505-1.098c-7.465-2.674-14.743-8.285-18.108-15.091c-5.425-10.968,1.011-25.99,6.859-32.924  C19.032,13.448,25.618,10.258,35.904,8.991z M13.954,23.258c0.086-0.986,2.55-3.138,1.372-2.744  c-2.884,4.545-5.354,8.517-6.311,13.993c-2.098,12.005,2.345,21.964,11.249,27.985c2.527,1.709,7.014,3.979,10.426,4.664  c2.583,0.519,5.852,1.074,8.23,1.098c3.537,0.035,6.286-1.313,8.506-2.195c9.954-3.956,18.482-12.232,19.754-23.869  c0.937-8.568-3.063-16.49-6.585-24.145c-2.477-0.278-3.234-2.555-4.664-3.566c-1.872-1.325-4.644-2.445-7.133-3.293  c-5.848-1.991-12.56-1.947-19.48-0.274c-3.959,1.894-8.512,3.194-11.249,6.311c2.412,0.48-2.094,1.672-0.823,2.743  c1.967-1.601,3.5-5.095,6.311-4.938c-0.388,0.8-1.507,0.87-2.195,1.371c-1.198,1.892-3.267,2.875-4.665,4.665  c-1.749,2.24-1.808,5.606-4.39,7.134C13.193,26.777,14.416,24.4,13.954,23.258z" fill="#1d398f" transform="matrix(0.8971119523048401, 0, 0, 0.8971119523048401, 294.3199768066406, 284.28948974609375)" stroke="rgba(191,64,64,0)" stroke-width="0"/>
        <path id="_ehe1g4nge_96" fill-rule="evenodd" clip-rule="evenodd" d="M30.416,12.558c-0.389,0.8-0.926,1.451-2.195,1.372  C28.615,13.134,29.468,12.798,30.416,12.558z" fill="#1d398f" transform="matrix(0.8971119523048401, 0, 0, 0.8971119523048401, 294.3199768066406, 284.28948974609375)" stroke="rgba(191,64,64,0)" stroke-width="0"/>
        <path id="_ehe1g4nge_97" fill-rule="evenodd" clip-rule="evenodd" d="M26.3,15.576c-3.783,1.155-5.847,4.03-8.779,6.036  C19.172,19.184,23.356,15.292,26.3,15.576z" fill="#1d398f" transform="matrix(0.8971119523048401, 0, 0, 0.8971119523048401, 294.3199768066406, 284.28948974609375)" stroke="rgba(191,64,64,0)" stroke-width="0"/>
        <path id="_ehe1g4nge_98" fill-rule="evenodd" clip-rule="evenodd" d="M64.712,46.854c-0.109,0.989-0.447,1.748-1.372,1.92  C62.865,48.098,63.778,46.979,64.712,46.854z" fill="#1d398f" transform="matrix(0.8971119523048401, 0, 0, 0.8971119523048401, 294.3199768066406, 284.28948974609375)" stroke="rgba(191,64,64,0)" stroke-width="0"/>
        <path id="_ehe1g4nge_99" fill-rule="evenodd" clip-rule="evenodd" d="M60.871,50.969c0.757-0.783,0.627,0.537,1.098,0.823  c-1.974,5.067-6.168,7.917-10.426,10.7C53.799,59.033,60.886,56.718,60.871,50.969z" fill="#1d398f" transform="matrix(0.8971119523048401, 0, 0, 0.8971119523048401, 294.3199768066406, 284.28948974609375)" stroke="rgba(191,64,64,0)" stroke-width="0"/>
        <path id="_ehe1g4nge_100" fill-rule="evenodd" clip-rule="evenodd" d="M49.622,14.204c9.38,3.301,15.559,11.916,15.091,23.87  c-0.41,10.445-6.391,17.722-13.445,22.498c-2.489,1.687-4.3,1.784-7.133,2.744c-1.14,0.386-1.859,1.235-3.019,1.371  c-2.814,0.332-7.122-0.556-10.151-1.097c-3.597-0.644-4.896-1.626-7.682-3.293c-1.111-0.664-2.666-0.764-3.567-1.372  c-1.82-1.227-4.288-3.533-5.213-4.663c-2.103-2.571-3.66-5.876-3.567-9.604C11.433,24.853,26.121,8.422,49.622,14.204z   M33.16,15.301c3.082,5.639,2.998,12.388,4.665,18.657c1.933-5.749,1.4-13.964,2.744-20.303  C37.908,13.438,35.025,13.975,33.16,15.301z M41.666,13.655c-0.89,6.149-2.063,16.107-1.646,20.852  c1.694-7.085,5.197-12.362,7.683-18.657C45.678,15.129,44.226,13.837,41.666,13.655z M24.654,19.417  c4.162,4.709,5.95,11.792,11.25,15.364c-0.424-6.694-1.847-14.69-4.39-19.48C28.6,16.045,26.34,17.444,24.654,19.417z   M48.799,16.673c-2.693,5.691-5.961,10.621-6.859,17.011c3.542-5.328,7.772-9.969,11.522-15.091  C51.622,18.24,51.069,16.599,48.799,16.673z M23.283,19.965c-2.019,2.097-4.372,3.859-5.488,6.859  c4.746,1.748,9.708,4.742,13.993,6.036C28.744,28.772,26.81,23.572,23.283,19.965z M54.287,19.965  c-4.205,4.657-7.886,9.149-11.799,14.542c5.76-2.929,10.927-6.451,16.188-9.877C57.088,23.199,56.481,20.789,54.287,19.965z   M58.951,26.001c-5.181,3.234-10.585,6.244-15.64,9.604c6.011-1.123,11.673-2.595,18.109-3.293  C61.519,29.286,60.208,27.671,58.951,26.001z M14.503,36.153c5.973-0.684,12.219,0.292,17.56,0  c-4.696-2.986-9.999-5.366-15.365-7.682C15.923,31.598,14.683,32.611,14.503,36.153z M61.145,33.41  c-4.257,1.267-10.558,2.358-14.815,3.292c-1.412,0.31-3.447-0.146-4.116,1.372c5.315,0.652,13.922,0.53,19.755,1.098  C61.088,37.856,62.499,34.25,61.145,33.41z M35.904,39.445c0.319,0.504,1.456,0.191,1.098,1.373c0.951-0.146,1.46-0.733,2.469-0.823  c0.174-1.015,0.745-1.633,0.549-3.019c-1.043-0.146-1.575-0.802-2.47-1.097C36.83,36.896,36.192,37.997,35.904,39.445z   M14.503,42.739c5.933-1.384,12.295-2.338,17.56-4.391c-5.139-0.188-11.766-0.956-17.834-1.097  C14.246,38.54,13.872,42.004,14.503,42.739z M14.503,43.836c-0.194,2.754,1.045,4.076,2.195,5.487  c4.46-1.45,8.233-3.896,12.072-6.037c1.651-0.92,3.688-1.171,4.939-2.742C27.37,39.945,20.694,43.03,14.503,43.836z M59.224,49.048  c1.219-2.177,2.498-5.407,2.196-8.23c-5.528,0.136-11.222-0.383-17.013-0.549C48.683,43.86,54.328,46.081,59.224,49.048z   M33.983,41.915c-3.798,4.8-7.708,9.485-11.523,14.268c2.121,0.807,3.401,2.452,6.037,2.743c2.485-5.47,5.277-10.635,7.682-16.187  C35.353,42.557,35.221,41.684,33.983,41.915z M17.247,50.969c1.016,2.003,2.88,3.155,4.39,4.664  c3.618-4.063,6.974-8.39,10.426-12.621C26.851,45.392,21.679,47.811,17.247,50.969z M47.975,59.75  c1.562-1.183,3.33-2.157,4.939-3.292c-4.384-4.123-8.442-8.568-12.072-13.445C43.508,48.303,44.618,55.15,47.975,59.75z   M29.319,59.75c2.096,0.921,3.735,2.301,6.585,2.47c0.661-6.108,1.469-12.067,1.646-18.658c-0.06-0.214-0.229-0.318-0.548-0.274  C34.185,48.519,32.022,54.405,29.319,59.75z M37.275,62.493c3.331,0.038,5.875-0.709,8.505-1.371  c-2.748-5.394-3.989-12.292-6.859-17.561C39.101,49.98,37.684,56.765,37.275,62.493z M54.834,54.81  c1.144-1.417,2.68-2.442,3.292-4.39c-5.138-1.72-9.114-4.604-13.719-6.859C47.526,47.668,51.009,51.41,54.834,54.81z" fill="#1d398f" transform="matrix(0.8971119523048401, 0, 0, 0.8971119523048401, 294.3199768066406, 284.28948974609375)" stroke="rgba(191,64,64,0)" stroke-width="0"/>
    </g>
    <path id="sensory-icon-text" text="sensory" fill="#f55e00" transform="matrix(0.3122406601905823, 0, 0, 0.3122406601905823, 271.44732666015625, 376.1515197753906)" space="preserve" text-anchor="middle" offset="0.5" font-scale="contain" font-size="48" font-family="Open Sans" data-fl-textpath="" d="M-66.78046875-7.01L-66.78046875-7.01Q-66.78046875-3.42 -69.46046875-1.48Q-72.13046875 0.47 -76.96046875 0.47L-76.96046875 0.47Q-82.07046875 0.47 -84.93046875-1.15L-84.93046875-1.15L-84.93046875-4.76Q-83.07046875-3.82 -80.95046875-3.28Q-78.83046875-2.74 -76.86046875-2.74L-76.86046875-2.74Q-73.82046875-2.74 -72.18046875-3.71Q-70.53046875-4.69 -70.53046875-6.68L-70.53046875-6.68Q-70.53046875-8.18 -71.84046875-9.25Q-73.14046875-10.31 -76.91046875-11.77L-76.91046875-11.77Q-80.50046875-13.1 -82.01046875-14.1Q-83.52046875-15.09 -84.26046875-16.36Q-85.00046875-17.63 -85.00046875-19.38L-85.00046875-19.38Q-85.00046875-22.52 -82.44046875-24.34Q-79.89046875-26.16 -75.43046875-26.16L-75.43046875-26.16Q-71.28046875-26.16 -67.32046875-24.47L-67.32046875-24.47L-68.71046875-21.3Q-72.57046875-22.9 -75.71046875-22.9L-75.71046875-22.9Q-78.48046875-22.9 -79.89046875-22.03Q-81.29046875-21.16 -81.29046875-19.64L-81.29046875-19.64Q-81.29046875-18.61 -80.77046875-17.88Q-80.24046875-17.16 -79.07046875-16.5Q-77.89046875-15.84 -74.57046875-14.6L-74.57046875-14.6Q-70.00046875-12.94 -68.39046875-11.25Q-66.78046875-9.56 -66.78046875-7.01ZM-49.602031249999996 0.47L-49.602031249999996 0.47Q-55.30203125 0.47 -58.59203125-3Q-61.88203125-6.47 -61.88203125-12.63L-61.88203125-12.63Q-61.88203125-18.84 -58.83203125-22.5Q-55.77203125-26.16 -50.61203125-26.16L-50.61203125-26.16Q-45.78203125-26.16 -42.97203125-22.98Q-40.16203125-19.8 -40.16203125-14.6L-40.16203125-14.6L-40.16203125-12.14L-57.852031249999996-12.14Q-57.74203125-7.62 -55.57203125-5.27Q-53.40203125-2.93 -49.46203125-2.93L-49.46203125-2.93Q-45.312031250000004-2.93 -41.26203125-4.66L-41.26203125-4.66L-41.26203125-1.2Q-43.322031249999995-0.3 -45.16203125 0.08Q-47.00203125 0.47 -49.602031249999996 0.47ZM-50.66203125-22.9L-50.66203125-22.9Q-53.75203125-22.9 -55.59203125-20.88Q-57.43203125-18.87 -57.76203125-15.3L-57.76203125-15.3L-44.33203125-15.3Q-44.33203125-18.98 -45.97203125-20.94Q-47.61203125-22.9 -50.66203125-22.9ZM-12.06234375 0L-15.95234375 0L-15.95234375-16.62Q-15.95234375-19.76 -17.38234375-21.3Q-18.81234375-22.85 -21.85234375-22.85L-21.85234375-22.85Q-25.88234375-22.85 -27.76234375-20.67Q-29.63234375-18.49 -29.63234375-13.48L-29.63234375-13.48L-29.63234375 0L-33.52234375 0L-33.52234375-25.69L-30.36234375-25.69L-29.73234375-22.17L-29.54234375-22.17Q-28.35234375-24.07 -26.19234375-25.11Q-24.032343750000003-26.16 -21.38234375-26.16L-21.38234375-26.16Q-16.74234375-26.16 -14.40234375-23.92Q-12.06234375-21.68 -12.06234375-16.76L-12.06234375-16.76L-12.06234375 0ZM 12.50859375-7.01L 12.50859375-7.01Q 12.50859375-3.42  9.82859375-1.48Q 7.15859375 0.47  2.3285937499999996 0.47L 2.3285937499999996 0.47Q-2.78140625 0.47 -5.64140625-1.15L-5.64140625-1.15L-5.64140625-4.76Q-3.78140625-3.82 -1.6614062499999998-3.28Q 0.45859375000000036-2.74  2.428593749999999-2.74L 2.428593749999999-2.74Q 5.46859375-2.74  7.108593750000001-3.71Q 8.75859375-4.69  8.75859375-6.68L 8.75859375-6.68Q 8.75859375-8.18  7.448593750000001-9.25Q 6.14859375-10.31  2.3785937500000003-11.77L 2.3785937500000003-11.77Q-1.2114062499999996-13.1 -2.7214062500000002-14.1Q-4.23140625-15.09 -4.971406249999999-16.36Q-5.71140625-17.63 -5.71140625-19.38L-5.71140625-19.38Q-5.71140625-22.52 -3.15140625-24.34Q-0.6014062500000001-26.16  3.8585937500000007-26.16L 3.8585937500000007-26.16Q 8.00859375-26.16  11.96859375-24.47L 11.96859375-24.47L 10.57859375-21.3Q 6.71859375-22.9  3.5785937499999996-22.9L 3.5785937499999996-22.9Q 0.80859375-22.9 -0.6014062500000001-22.03Q-2.0014062499999996-21.16 -2.0014062499999996-19.64L-2.0014062499999996-19.64Q-2.0014062499999996-18.61 -1.48140625-17.88Q-0.9514062499999998-17.16  0.21859375000000014-16.5Q 1.3985937499999999-15.84  4.71859375-14.6L 4.71859375-14.6Q 9.28859375-12.94  10.89859375-11.25Q 12.50859375-9.56  12.50859375-7.01ZM 41.00703125-12.87L 41.00703125-12.87Q 41.00703125-6.59  37.837031249999995-3.06Q 34.67703125 0.47  29.09703125 0.47L 29.09703125 0.47Q 25.65703125 0.47  22.97703125-1.15Q 20.30703125-2.77  18.85703125-5.79Q 17.40703125-8.81  17.40703125-12.87L 17.40703125-12.87Q 17.40703125-19.15  20.54703125-22.65Q 23.68703125-26.16  29.25703125-26.16L 29.25703125-26.16Q 34.65703125-26.16  37.827031250000005-22.57Q 41.00703125-18.98  41.00703125-12.87ZM 21.43703125-12.87L 21.43703125-12.87Q 21.43703125-7.95  23.40703125-5.37Q 25.36703125-2.79  29.18703125-2.79L 29.18703125-2.79Q 33.00703125-2.79  34.99703125-5.36Q 36.977031249999996-7.92  36.977031249999996-12.87L 36.977031249999996-12.87Q 36.977031249999996-17.77  34.99703125-20.31Q 33.00703125-22.85  29.147031249999998-22.85L 29.147031249999998-22.85Q 25.327031249999997-22.85  23.37703125-20.34Q 21.43703125-17.84  21.43703125-12.87ZM 59.53921875-26.16L 59.53921875-26.16Q 61.24921875-26.16  62.60921875-25.88L 62.60921875-25.88L 62.079218749999995-22.27Q 60.47921875-22.62  59.25921875-22.62L 59.25921875-22.62Q 56.14921875-22.62  53.929218750000004-20.09Q 51.719218749999996-17.55  51.719218749999996-13.78L 51.719218749999996-13.78L 51.719218749999996 0L 47.82921875 0L 47.82921875-25.69L 51.03921875-25.69L 51.47921875-20.93L 51.66921875-20.93Q 53.09921875-23.44  55.10921875-24.8Q 57.12921875-26.16  59.53921875-26.16ZM 73.70296875 0.14L 63.34296875-25.69L 67.51296875-25.69L 73.13296875-11.04Q 74.99296875-6.02  75.43296875-3.8L 75.43296875-3.8L 75.62296875-3.8Q 75.92296875-4.99  76.90296875-7.89Q 77.87296875-10.78  83.26296875-25.69L 83.26296875-25.69L 87.43296875-25.69L 76.39296875 3.56Q 74.75296875000001 7.9  72.56296875 9.71Q 70.37296875 11.53  67.18296875 11.53L 67.18296875 11.53Q 65.40296875 11.53  63.67296875 11.13L 63.67296875 11.13L 63.67296875 8.02Q 64.95296875 8.3  66.55296875 8.3L 66.55296875 8.3Q 70.56296875 8.3  72.27296875 3.8L 72.27296875 3.8L 73.70296875 0.14Z"></path>
</svg>