<svg xmlns="http://www.w3.org/2000/svg" width="512" height="512" viewBox="250 150 512 512" data-svgdocument="" id="_QPbOH8Bvnff-nxIn-ryGS" class="fl-svgdocument" x="0" y="0" style="overflow: hidden;"
    xmlns:xlink="http://www.w3.org/1999/xlink">
    <defs id="_-Pf6sSTUS_QCObCL12lGl" transform="matrix(1.2307695150375366, 0, 0, 1.2307695150375366, -59.07701110839844, -67.29283142089844)"/>
    <g id="tagline" transform="matrix(0.5531982183456421, 0, 0, 0.5531982183456421, 226.8336181640625, 31.13680076599121)">
        <path text="creative resources |" fill="#f55e00" transform="matrix(0.5745434761047363, 0, 0, 0.5933661460876465, 187.81529235839844, 277.6400451660156)" space="preserve" text-anchor="middle" offset="0.5" font-scale="contain" font-size="48" font-family="Open Sans" data-fl-textpath="" id="_ehe1g4nge_24" d="M-209.438125 0.47L-209.438125 0.47Q-215.018125 0.47 -218.078125-2.96Q-221.128125-6.4 -221.128125-12.68L-221.128125-12.68Q-221.128125-19.13 -218.028125-22.64Q-214.918125-26.16 -209.178125-26.16L-209.178125-26.16Q-207.328125-26.16 -205.478125-25.76Q-203.628125-25.36 -202.568125-24.82L-202.568125-24.82L-203.768125-21.52Q-205.058125-22.03 -206.578125-22.37Q-208.098125-22.71 -209.278125-22.71L-209.278125-22.71Q-217.098125-22.71 -217.098125-12.73L-217.098125-12.73Q-217.098125-7.99 -215.188125-5.46Q-213.278125-2.93 -209.528125-2.93L-209.528125-2.93Q-206.318125-2.93 -202.948125-4.31L-202.948125-4.31L-202.948125-0.87Q-205.528125 0.47 -209.438125 0.47ZM-185.1365625-26.16L-185.1365625-26.16Q-183.4265625-26.16 -182.0665625-25.88L-182.0665625-25.88L-182.5965625-22.27Q-184.1965625-22.62 -185.4165625-22.62L-185.4165625-22.62Q-188.5265625-22.62 -190.7465625-20.09Q-192.9565625-17.55 -192.9565625-13.78L-192.9565625-13.78L-192.9565625 0L-196.8465625 0L-196.8465625-25.69L-193.6365625-25.69L-193.1965625-20.93L-193.0065625-20.93Q-191.5765625-23.44 -189.5665625-24.8Q-187.5465625-26.16 -185.1365625-26.16ZM-166.4028125 0.47L-166.4028125 0.47Q-172.1028125 0.47 -175.3928125-3Q-178.6828125-6.47 -178.6828125-12.63L-178.6828125-12.63Q-178.6828125-18.84 -175.6328125-22.5Q-172.5728125-26.16 -167.4128125-26.16L-167.4128125-26.16Q-162.5828125-26.16 -159.7728125-22.98Q-156.96281249999998-19.8 -156.96281249999998-14.6L-156.96281249999998-14.6L-156.96281249999998-12.14L-174.6528125-12.14Q-174.5428125-7.62 -172.3728125-5.27Q-170.2028125-2.93 -166.2628125-2.93L-166.2628125-2.93Q-162.1128125-2.93 -158.0628125-4.66L-158.0628125-4.66L-158.0628125-1.2Q-160.1228125-0.3 -161.96281249999998 0.08Q-163.80281250000002 0.47 -166.4028125 0.47ZM-167.4628125-22.9L-167.4628125-22.9Q-170.5528125-22.9 -172.3928125-20.88Q-174.2328125-18.87 -174.5628125-15.3L-174.5628125-15.3L-161.1328125-15.3Q-161.1328125-18.98 -162.7728125-20.94Q-164.4128125-22.9 -167.4628125-22.9ZM-131.653125 0L-134.53312499999998 0L-135.303125-3.66L-135.493125-3.66Q-137.413125-1.24 -139.323125-0.39Q-141.233125 0.47 -144.093125 0.47L-144.093125 0.47Q-147.913125 0.47 -150.083125-1.5Q-152.253125-3.47 -152.253125-7.1L-152.253125-7.1Q-152.253125-14.88 -139.803125-15.26L-139.803125-15.26L-135.443125-15.4L-135.443125-16.99Q-135.443125-20.02 -136.743125-21.46Q-138.043125-22.9 -140.903125-22.9L-140.903125-22.9Q-144.113125-22.9 -148.173125-20.93L-148.173125-20.93L-149.363125-23.91Q-147.473125-24.94 -145.203125-25.52Q-142.943125-26.11 -140.673125-26.11L-140.673125-26.11Q-136.073125-26.11 -133.863125-24.07Q-131.653125-22.03 -131.653125-17.53L-131.653125-17.53L-131.653125 0ZM-143.323125-2.74L-143.323125-2.74Q-139.683125-2.74 -137.613125-4.73Q-135.543125-6.73 -135.543125-10.31L-135.543125-10.31L-135.543125-12.63L-139.433125-12.47Q-144.073125-12.3 -146.123125-11.03Q-148.173125-9.75 -148.173125-7.05L-148.173125-7.05Q-148.173125-4.95 -146.893125-3.84Q-145.613125-2.74 -143.323125-2.74ZM-115.3378125-2.74L-115.3378125-2.74Q-114.3078125-2.74 -113.3478125-2.89Q-112.3778125-3.05 -111.8178125-3.21L-111.8178125-3.21L-111.8178125-0.23Q-112.4578125 0.07 -113.6878125 0.27Q-114.9178125 0.47 -115.8978125 0.47L-115.8978125 0.47Q-123.3478125 0.47 -123.3478125-7.38L-123.3478125-7.38L-123.3478125-22.66L-127.0278125-22.66L-127.0278125-24.54L-123.3478125-26.16L-121.7078125-31.64L-119.4578125-31.64L-119.4578125-25.69L-112.0078125-25.69L-112.0078125-22.66L-119.4578125-22.66L-119.4578125-7.55Q-119.4578125-5.23 -118.3578125-3.98Q-117.2578125-2.74 -115.3378125-2.74ZM-102.7925-25.69L-102.7925 0L-106.6825 0L-106.6825-25.69L-102.7925-25.69ZM-107.0125-32.65L-107.0125-32.65Q-107.0125-33.98 -106.3625-34.61Q-105.7025-35.23 -104.7225-35.23L-104.7225-35.23Q-103.7825-35.23 -103.1025-34.59Q-102.4225-33.96 -102.4225-32.65L-102.4225-32.65Q-102.4225-31.34 -103.1025-30.69Q-103.7825-30.05 -104.7225-30.05L-104.7225-30.05Q-105.7025-30.05 -106.3625-30.69Q-107.0125-31.34 -107.0125-32.65ZM-84.371875 0L-88.921875 0L-98.671875-25.69L-94.501875-25.69L-88.971875-10.45Q-87.091875-5.11 -86.761875-3.52L-86.761875-3.52L-86.581875-3.52Q-86.321875-4.76 -84.951875-8.66Q-83.581875-12.56 -78.791875-25.69L-78.791875-25.69L-74.621875-25.69L-84.371875 0ZM-59.644999999999996 0.47L-59.644999999999996 0.47Q-65.345 0.47 -68.635-3Q-71.925-6.47 -71.925-12.63L-71.925-12.63Q-71.925-18.84 -68.875-22.5Q-65.815-26.16 -60.655-26.16L-60.655-26.16Q-55.825-26.16 -53.015-22.98Q-50.205-19.8 -50.205-14.6L-50.205-14.6L-50.205-12.14L-67.895-12.14Q-67.785-7.62 -65.615-5.27Q-63.445-2.93 -59.505-2.93L-59.505-2.93Q-55.355000000000004-2.93 -51.305-4.66L-51.305-4.66L-51.305-1.2Q-53.364999999999995-0.3 -55.205 0.08Q-57.045 0.47 -59.644999999999996 0.47ZM-60.705-22.9L-60.705-22.9Q-63.795-22.9 -65.635-20.88Q-67.475-18.87 -67.805-15.3L-67.805-15.3L-54.375-15.3Q-54.375-18.98 -56.015-20.94Q-57.655-22.9 -60.705-22.9ZM-19.3865625-26.16L-19.3865625-26.16Q-17.6765625-26.16 -16.3165625-25.88L-16.3165625-25.88L-16.8465625-22.27Q-18.4465625-22.62 -19.666562499999998-22.62L-19.666562499999998-22.62Q-22.7765625-22.62 -24.9965625-20.09Q-27.2065625-17.55 -27.2065625-13.78L-27.2065625-13.78L-27.2065625 0L-31.0965625 0L-31.0965625-25.69L-27.8865625-25.69L-27.4465625-20.93L-27.2565625-20.93Q-25.8265625-23.44 -23.8165625-24.8Q-21.7965625-26.16 -19.3865625-26.16ZM-0.6528124999999996 0.47L-0.6528124999999996 0.47Q-6.352812500000001 0.47 -9.6428125-3Q-12.9328125-6.47 -12.9328125-12.63L-12.9328125-12.63Q-12.9328125-18.84 -9.8828125-22.5Q-6.8228124999999995-26.16 -1.6628124999999994-26.16L-1.6628124999999994-26.16Q 3.1671875000000007-26.16  5.977187499999999-22.98Q 8.787187500000002-19.8  8.787187500000002-14.6L 8.787187500000002-14.6L 8.787187500000002-12.14L-8.9028125-12.14Q-8.7928125-7.62 -6.6228125-5.27Q-4.4528125-2.93 -0.5128125000000008-2.93L-0.5128125000000008-2.93Q 3.6371874999999996-2.93  7.6871875-4.66L 7.6871875-4.66L 7.6871875-1.2Q 5.627187500000002-0.3  3.7871875000000017 0.08Q 1.9471874999999983 0.47 -0.6528124999999996 0.47ZM-1.7128125-22.9L-1.7128125-22.9Q-4.8028125-22.9 -6.6428125-20.88Q-8.4828125-18.87 -8.8128125-15.3L-8.8128125-15.3L 4.6171875-15.3Q 4.6171875-18.98  2.9771874999999994-20.94Q 1.3371874999999989-22.9 -1.7128125-22.9ZM 31.996875-7.01L 31.996875-7.01Q 31.996875-3.42  29.316875-1.48Q 26.646875 0.47  21.816875 0.47L 21.816875 0.47Q 16.706875 0.47  13.846875-1.15L 13.846875-1.15L 13.846875-4.76Q 15.706875-3.82  17.826875-3.28Q 19.946875-2.74  21.916874999999997-2.74L 21.916874999999997-2.74Q 24.956875-2.74  26.596875-3.71Q 28.246875-4.69  28.246875-6.68L 28.246875-6.68Q 28.246875-8.18  26.936875-9.25Q 25.636875-10.31  21.866875-11.77L 21.866875-11.77Q 18.276875-13.1  16.766875-14.1Q 15.256875-15.09  14.516875-16.36Q 13.776875-17.63  13.776875-19.38L 13.776875-19.38Q 13.776875-22.52  16.336875-24.34Q 18.886875-26.16  23.346875-26.16L 23.346875-26.16Q 27.496875-26.16  31.456875-24.47L 31.456875-24.47L 30.066875-21.3Q 26.206875-22.9  23.066875-22.9L 23.066875-22.9Q 20.296875-22.9  18.886875-22.03Q 17.486875-21.16  17.486875-19.64L 17.486875-19.64Q 17.486875-18.61  18.006875-17.88Q 18.536875000000002-17.16  19.706875-16.5Q 20.886875-15.84  24.206875-14.6L 24.206875-14.6Q 28.776875-12.94  30.386875-11.25Q 31.996875-9.56  31.996875-7.01ZM 60.4953125-12.87L 60.4953125-12.87Q 60.4953125-6.59  57.325312499999995-3.06Q 54.1653125 0.47  48.5853125 0.47L 48.5853125 0.47Q 45.1453125 0.47  42.465312499999996-1.15Q 39.7953125-2.77  38.3453125-5.79Q 36.8953125-8.81  36.8953125-12.87L 36.8953125-12.87Q 36.8953125-19.15  40.0353125-22.65Q 43.175312500000004-26.16  48.7453125-26.16L 48.7453125-26.16Q 54.1453125-26.16  57.315312500000005-22.57Q 60.4953125-18.98  60.4953125-12.87ZM 40.925312500000004-12.87L 40.925312500000004-12.87Q 40.925312500000004-7.95  42.8953125-5.37Q 44.8553125-2.79  48.675312500000004-2.79L 48.675312500000004-2.79Q 52.4953125-2.79  54.4853125-5.36Q 56.465312499999996-7.92  56.465312499999996-12.87L 56.465312499999996-12.87Q 56.465312499999996-17.77  54.4853125-20.31Q 52.4953125-22.85  48.6353125-22.85L 48.6353125-22.85Q 44.8153125-22.85  42.8653125-20.34Q 40.925312500000004-17.84  40.925312500000004-12.87ZM 67.0275-25.69L 70.9675-25.69L 70.9675-9.02Q 70.9675-5.88  72.39750000000001-4.34Q 73.8275-2.79  76.8775-2.79L 76.8775-2.79Q 80.9075-2.79  82.7675-4.99Q 84.6375-7.2  84.6375-12.19L 84.6375-12.19L 84.6375-25.69L 88.5275-25.69L 88.5275 0L 85.3175 0L 84.7475-3.45L 84.5375-3.45Q 83.3475-1.55  81.22749999999999-0.54Q 79.0975 0.47  76.3875 0.47L 76.3875 0.47Q 71.6975 0.47  69.3675-1.76Q 67.0275-3.98  67.0275-8.88L 67.0275-8.88L 67.0275-25.69ZM 108.4884375-26.16L 108.4884375-26.16Q 110.1984375-26.16  111.5584375-25.88L 111.5584375-25.88L 111.0284375-22.27Q 109.4284375-22.62  108.2084375-22.62L 108.2084375-22.62Q 105.0984375-22.62  102.8784375-20.09Q 100.6684375-17.55  100.6684375-13.78L 100.6684375-13.78L 100.6684375 0L 96.7784375 0L 96.7784375-25.69L 99.9884375-25.69L 100.4284375-20.93L 100.6184375-20.93Q 102.0484375-23.44  104.0584375-24.8Q 106.0784375-26.16  108.4884375-26.16ZM 126.6321875 0.47L 126.6321875 0.47Q 121.0521875 0.47  117.9921875-2.96Q 114.9421875-6.4  114.9421875-12.68L 114.9421875-12.68Q 114.9421875-19.13  118.0421875-22.64Q 121.1521875-26.16  126.8921875-26.16L 126.8921875-26.16Q 128.7421875-26.16  130.5921875-25.76Q 132.4421875-25.36  133.5021875-24.82L 133.5021875-24.82L 132.3021875-21.52Q 131.0121875-22.03  129.4921875-22.37Q 127.9721875-22.71  126.7921875-22.71L 126.7921875-22.71Q 118.9721875-22.71  118.9721875-12.73L 118.9721875-12.73Q 118.9721875-7.99  120.8821875-5.46Q 122.7921875-2.93  126.5421875-2.93L 126.5421875-2.93Q 129.7521875-2.93  133.1221875-4.31L 133.1221875-4.31L 133.1221875-0.87Q 130.5421875 0.47  126.6321875 0.47ZM 150.07375 0.47L 150.07375 0.47Q 144.37375 0.47  141.08375-3Q 137.79375-6.47  137.79375-12.63L 137.79375-12.63Q 137.79375-18.84  140.84375-22.5Q 143.90375-26.16  149.06375-26.16L 149.06375-26.16Q 153.89375-26.16  156.70375-22.98Q 159.51375000000002-19.8  159.51375000000002-14.6L 159.51375000000002-14.6L 159.51375000000002-12.14L 141.82375-12.14Q 141.93375-7.62  144.10375-5.27Q 146.27375-2.93  150.21375-2.93L 150.21375-2.93Q 154.36375-2.93  158.41375-4.66L 158.41375-4.66L 158.41375-1.2Q 156.35375-0.3  154.51375000000002 0.08Q 152.67374999999998 0.47  150.07375 0.47ZM 149.01375-22.9L 149.01375-22.9Q 145.92375-22.9  144.08375-20.88Q 142.24375-18.87  141.91375-15.3L 141.91375-15.3L 155.34375-15.3Q 155.34375-18.98  153.70375-20.94Q 152.06375-22.9  149.01375-22.9ZM 182.7234375-7.01L 182.7234375-7.01Q 182.7234375-3.42  180.0434375-1.48Q 177.3734375 0.47  172.5434375 0.47L 172.5434375 0.47Q 167.4334375 0.47  164.5734375-1.15L 164.5734375-1.15L 164.5734375-4.76Q 166.4334375-3.82  168.5534375-3.28Q 170.6734375-2.74  172.6434375-2.74L 172.6434375-2.74Q 175.6834375-2.74  177.3234375-3.71Q 178.9734375-4.69  178.9734375-6.68L 178.9734375-6.68Q 178.9734375-8.18  177.6634375-9.25Q 176.3634375-10.31  172.5934375-11.77L 172.5934375-11.77Q 169.0034375-13.1  167.4934375-14.1Q 165.9834375-15.09  165.2434375-16.36Q 164.5034375-17.63  164.5034375-19.38L 164.5034375-19.38Q 164.5034375-22.52  167.0634375-24.34Q 169.6134375-26.16  174.0734375-26.16L 174.0734375-26.16Q 178.2234375-26.16  182.1834375-24.47L 182.1834375-24.47L 180.7934375-21.3Q 176.9334375-22.9  173.7934375-22.9L 173.7934375-22.9Q 171.0234375-22.9  169.6134375-22.03Q 168.2134375-21.16  168.2134375-19.64L 168.2134375-19.64Q 168.2134375-18.61  168.7334375-17.88Q 169.2634375-17.16  170.4334375-16.5Q 171.6134375-15.84  174.9334375-14.6L 174.9334375-14.6Q 179.5034375-12.94  181.1134375-11.25Q 182.7234375-9.56  182.7234375-7.01ZM 208.970625 11.63L 208.970625-36.47L 212.270625-36.47L 212.270625 11.63L 208.970625 11.63Z"></path>
        <path text="bringing order to chaos" fill="#73ac76" transform="matrix(0.7548978328704834, 0, 0, 0.7796252965927124, 255.2709503173828, 311.7233581542969)" space="preserve" text-anchor="middle" offset="0.5" font-scale="contain" font-size="48" font-family="Open Sans" data-fl-textpath="" id="_ehe1g4nge_25" d="M-245.70515625000002-26.11L-245.70515625000002-26.11Q-240.64515625-26.11 -237.84515625-22.65Q-235.04515625-19.2 -235.04515625-12.87L-235.04515625-12.87Q-235.04515625-6.54 -237.86515624999998-3.04Q-240.69515625 0.47 -245.70515625000002 0.47L-245.70515625000002 0.47Q-248.21515625 0.47 -250.28515625-0.46Q-252.36515625-1.38 -253.76515625-3.3L-253.76515625-3.3L-254.05515625-3.3L-254.87515625 0L-257.65515625 0L-257.65515625-36.47L-253.76515625-36.47L-253.76515625-27.61Q-253.76515625-24.63 -253.95515625-22.27L-253.95515625-22.27L-253.76515625-22.27Q-251.05515625-26.11 -245.70515625000002-26.11ZM-246.26515625-22.85L-246.26515625-22.85Q-250.25515625-22.85 -252.01515625-20.57Q-253.76515625-18.28 -253.76515625-12.87L-253.76515625-12.87Q-253.76515625-7.45 -251.96515625-5.12Q-250.15515625-2.79 -246.17515625-2.79L-246.17515625-2.79Q-242.58515625-2.79 -240.83515625-5.4Q-239.07515625-8.02 -239.07515625-12.91L-239.07515625-12.91Q-239.07515625-17.93 -240.83515625-20.39Q-242.58515625-22.85 -246.26515625-22.85ZM-216.53109375-26.16L-216.53109375-26.16Q-214.82109375-26.16 -213.46109375-25.88L-213.46109375-25.88L-213.99109375-22.27Q-215.59109375-22.62 -216.81109375-22.62L-216.81109375-22.62Q-219.92109375-22.62 -222.14109375-20.09Q-224.35109375-17.55 -224.35109375-13.78L-224.35109375-13.78L-224.35109375 0L-228.24109375 0L-228.24109375-25.69L-225.03109375-25.69L-224.59109375-20.93L-224.40109375-20.93Q-222.97109375-23.44 -220.96109375-24.8Q-218.94109375-26.16 -216.53109375-26.16ZM-204.75734375-25.69L-204.75734375 0L-208.64734375 0L-208.64734375-25.69L-204.75734375-25.69ZM-208.97734375-32.65L-208.97734375-32.65Q-208.97734375-33.98 -208.32734375-34.61Q-207.66734375-35.23 -206.68734375-35.23L-206.68734375-35.23Q-205.74734375-35.23 -205.06734375-34.59Q-204.38734375-33.96 -204.38734375-32.65L-204.38734375-32.65Q-204.38734375-31.34 -205.06734375-30.69Q-205.74734375-30.05 -206.68734375-30.05L-206.68734375-30.05Q-207.66734375-30.05 -208.32734375-30.69Q-208.97734375-31.34 -208.97734375-32.65ZM-175.04671875 0L-178.93671875 0L-178.93671875-16.62Q-178.93671875-19.76 -180.36671875-21.3Q-181.79671875-22.85 -184.83671875-22.85L-184.83671875-22.85Q-188.86671875-22.85 -190.74671875-20.67Q-192.61671875-18.49 -192.61671875-13.48L-192.61671875-13.48L-192.61671875 0L-196.50671875 0L-196.50671875-25.69L-193.34671875-25.69L-192.71671875-22.17L-192.52671875-22.17Q-191.33671875-24.07 -189.17671875-25.11Q-187.01671875-26.16 -184.36671875-26.16L-184.36671875-26.16Q-179.72671875-26.16 -177.38671875-23.92Q-175.04671875-21.68 -175.04671875-16.76L-175.04671875-16.76L-175.04671875 0ZM-154.90578125-25.69L-146.02578125-25.69L-146.02578125-23.23L-150.78578125-22.66Q-150.12578125-21.84 -149.61578125-20.52Q-149.09578125000002-19.2 -149.09578125000002-17.53L-149.09578125000002-17.53Q-149.09578125000002-13.76 -151.67578125-11.51Q-154.25578124999998-9.26 -158.75578125-9.26L-158.75578125-9.26Q-159.90578125-9.26 -160.90578125-9.45L-160.90578125-9.45Q-163.39578125-8.13 -163.39578125-6.14L-163.39578125-6.14Q-163.39578125-5.09 -162.52578125-4.58Q-161.65578125-4.08 -159.54578125-4.08L-159.54578125-4.08L-155.00578124999998-4.08Q-150.83578125-4.08 -148.59578125000002-2.32Q-146.35578125-0.56 -146.35578125 2.79L-146.35578125 2.79Q-146.35578125 7.05 -149.77578125 9.29Q-153.19578125 11.53 -159.76578125 11.53L-159.76578125 11.53Q-164.79578125 11.53 -167.53578125 9.66Q-170.26578125 7.78 -170.26578125 4.36L-170.26578125 4.36Q-170.26578125 2.02 -168.76578125 0.3Q-167.26578125-1.41 -164.54578125-2.02L-164.54578125-2.02Q-165.52578125-2.46 -166.19578125-3.4Q-166.86578125-4.34 -166.86578125-5.58L-166.86578125-5.58Q-166.86578125-6.98 -166.11578125-8.04Q-165.36578125-9.09 -163.74578125-10.08L-163.74578125-10.08Q-165.73578125-10.9 -166.99578125-12.87Q-168.24578125-14.84 -168.24578125-17.37L-168.24578125-17.37Q-168.24578125-21.59 -165.71578125-23.87Q-163.18578125-26.16 -158.54578125-26.16L-158.54578125-26.16Q-156.52578125-26.16 -154.90578125-25.69L-154.90578125-25.69ZM-166.51578125 4.31L-166.51578125 4.31Q-166.51578125 6.4 -164.75578125 7.48Q-162.99578125 8.55 -159.71578125 8.55L-159.71578125 8.55Q-154.81578125 8.55 -152.46578125 7.09Q-150.10578125 5.63 -150.10578125 3.12L-150.10578125 3.12Q-150.10578125 1.03 -151.39578125 0.22Q-152.68578125-0.59 -156.24578125-0.59L-156.24578125-0.59L-160.90578125-0.59Q-163.55578125-0.59 -165.03578125 0.68Q-166.51578125 1.95 -166.51578125 4.31ZM-164.40578125-17.46L-164.40578125-17.46Q-164.40578125-14.77 -162.87578125-13.38Q-161.35578125-12 -158.63578125-12L-158.63578125-12Q-152.94578125-12 -152.94578125-17.53L-152.94578125-17.53Q-152.94578125-23.32 -158.70578125-23.32L-158.70578125-23.32Q-161.44578125-23.32 -162.92578125-21.84Q-164.40578125-20.37 -164.40578125-17.46ZM-136.85890625-25.69L-136.85890625 0L-140.74890625 0L-140.74890625-25.69L-136.85890625-25.69ZM-141.07890625-32.65L-141.07890625-32.65Q-141.07890625-33.98 -140.42890625-34.61Q-139.76890625-35.23 -138.78890625-35.23L-138.78890625-35.23Q-137.84890625-35.23 -137.16890625-34.59Q-136.48890625-33.96 -136.48890625-32.65L-136.48890625-32.65Q-136.48890625-31.34 -137.16890625-30.69Q-137.84890625-30.05 -138.78890625-30.05L-138.78890625-30.05Q-139.76890625-30.05 -140.42890625-30.69Q-141.07890625-31.34 -141.07890625-32.65ZM-107.14828125 0L-111.03828125 0L-111.03828125-16.62Q-111.03828125-19.76 -112.46828125-21.3Q-113.89828125-22.85 -116.93828125-22.85L-116.93828125-22.85Q-120.96828125-22.85 -122.84828125-20.67Q-124.71828125-18.49 -124.71828125-13.48L-124.71828125-13.48L-124.71828125 0L-128.60828125 0L-128.60828125-25.69L-125.44828125-25.69L-124.81828125-22.17L-124.62828125-22.17Q-123.43828125-24.07 -121.27828124999999-25.11Q-119.11828125-26.16 -116.46828125-26.16L-116.46828125-26.16Q-111.82828125-26.16 -109.48828125-23.92Q-107.14828125-21.68 -107.14828125-16.76L-107.14828125-16.76L-107.14828125 0ZM-87.00734375-25.69L-78.12734375-25.69L-78.12734375-23.23L-82.88734375-22.66Q-82.22734375-21.84 -81.71734375-20.52Q-81.19734375-19.2 -81.19734375-17.53L-81.19734375-17.53Q-81.19734375-13.76 -83.77734375-11.51Q-86.35734375-9.26 -90.85734375-9.26L-90.85734375-9.26Q-92.00734375-9.26 -93.00734375-9.45L-93.00734375-9.45Q-95.49734375-8.13 -95.49734375-6.14L-95.49734375-6.14Q-95.49734375-5.09 -94.62734375-4.58Q-93.75734375-4.08 -91.64734375-4.08L-91.64734375-4.08L-87.10734375-4.08Q-82.93734375-4.08 -80.69734375-2.32Q-78.45734375-0.56 -78.45734375 2.79L-78.45734375 2.79Q-78.45734375 7.05 -81.87734375 9.29Q-85.29734375 11.53 -91.86734375 11.53L-91.86734375 11.53Q-96.89734375 11.53 -99.63734375 9.66Q-102.36734375 7.78 -102.36734375 4.36L-102.36734375 4.36Q-102.36734375 2.02 -100.86734375 0.3Q-99.36734375-1.41 -96.64734375-2.02L-96.64734375-2.02Q-97.62734375-2.46 -98.29734375-3.4Q-98.96734375-4.34 -98.96734375-5.58L-98.96734375-5.58Q-98.96734375-6.98 -98.21734375-8.04Q-97.46734375-9.09 -95.84734375-10.08L-95.84734375-10.08Q-97.83734375-10.9 -99.09734375-12.87Q-100.34734375-14.84 -100.34734375-17.37L-100.34734375-17.37Q-100.34734375-21.59 -97.81734375-23.87Q-95.28734375-26.16 -90.64734375-26.16L-90.64734375-26.16Q-88.62734375-26.16 -87.00734375-25.69L-87.00734375-25.69ZM-98.61734375 4.31L-98.61734375 4.31Q-98.61734375 6.4 -96.85734375 7.48Q-95.09734375 8.55 -91.81734374999999 8.55L-91.81734374999999 8.55Q-86.91734375 8.55 -84.56734374999999 7.09Q-82.20734375 5.63 -82.20734375 3.12L-82.20734375 3.12Q-82.20734375 1.03 -83.49734375 0.22Q-84.78734375-0.59 -88.34734375-0.59L-88.34734375-0.59L-93.00734375-0.59Q-95.65734375-0.59 -97.13734375 0.68Q-98.61734375 1.95 -98.61734375 4.31ZM-96.50734375-17.46L-96.50734375-17.46Q-96.50734375-14.77 -94.97734375-13.38Q-93.45734375-12 -90.73734375000001-12L-90.73734375000001-12Q-85.04734375-12 -85.04734375-17.53L-85.04734375-17.53Q-85.04734375-23.32 -90.80734375-23.32L-90.80734375-23.32Q-93.54734375-23.32 -95.02734375-21.84Q-96.50734375-20.37 -96.50734375-17.46ZM-38.21171875-12.87L-38.21171875-12.87Q-38.21171875-6.59 -41.381718750000005-3.06Q-44.54171875 0.47 -50.12171875 0.47L-50.12171875 0.47Q-53.56171875 0.47 -56.241718750000004-1.15Q-58.91171875-2.77 -60.36171875-5.79Q-61.81171875-8.81 -61.81171875-12.87L-61.81171875-12.87Q-61.81171875-19.15 -58.67171875-22.65Q-55.531718749999996-26.16 -49.96171875-26.16L-49.96171875-26.16Q-44.56171875-26.16 -41.391718749999995-22.57Q-38.21171875-18.98 -38.21171875-12.87ZM-57.781718749999996-12.87L-57.781718749999996-12.87Q-57.781718749999996-7.95 -55.81171875-5.37Q-53.85171875-2.79 -50.031718749999996-2.79L-50.031718749999996-2.79Q-46.21171875-2.79 -44.22171875-5.36Q-42.241718750000004-7.92 -42.241718750000004-12.87L-42.241718750000004-12.87Q-42.241718750000004-17.77 -44.22171875-20.31Q-46.21171875-22.85 -50.07171875-22.85L-50.07171875-22.85Q-53.89171875-22.85 -55.84171875-20.34Q-57.781718749999996-17.84 -57.781718749999996-12.87ZM-19.67953125-26.16L-19.67953125-26.16Q-17.96953125-26.16 -16.60953125-25.88L-16.60953125-25.88L-17.13953125-22.27Q-18.73953125-22.62 -19.959531249999998-22.62L-19.959531249999998-22.62Q-23.06953125-22.62 -25.28953125-20.09Q-27.49953125-17.55 -27.49953125-13.78L-27.49953125-13.78L-27.49953125 0L-31.38953125 0L-31.38953125-25.69L-28.17953125-25.69L-27.73953125-20.93L-27.54953125-20.93Q-26.11953125-23.44 -24.10953125-24.8Q-22.08953125-26.16 -19.67953125-26.16ZM 6.204218749999999 0L 5.684218749999999-3.45L 5.474218749999999-3.45Q 2.7742187499999993 0.47 -2.58578125 0.47L-2.58578125 0.47Q-7.625781249999999 0.47 -10.42578125-2.98Q-13.22578125-6.42 -13.22578125-12.77L-13.22578125-12.77Q-13.22578125-19.13 -10.41578125-22.64Q-7.60578125-26.16 -2.58578125-26.16L-2.58578125-26.16Q 2.6342187499999987-26.16  5.424218750000001-22.36L 5.424218750000001-22.36L 5.73421875-22.36L 5.564218749999998-24.21L 5.474218749999999-26.02L 5.474218749999999-36.47L 9.36421875-36.47L 9.36421875 0L 6.204218749999999 0ZM-2.09578125-2.79L-2.09578125-2.79Q 1.8842187499999987-2.79  3.6842187499999994-4.96Q 5.474218749999999-7.13  5.474218749999999-11.95L 5.474218749999999-11.95L 5.474218749999999-12.77Q 5.474218749999999-18.23  3.6542187499999983-20.57Q 1.8442187499999996-22.9 -2.1457812500000006-22.9L-2.1457812500000006-22.9Q-5.565781250000001-22.9 -7.385781250000001-20.24Q-9.19578125-17.58 -9.19578125-12.73L-9.19578125-12.73Q-9.19578125-7.8 -7.395781250000001-5.3Q-5.58578125-2.79 -2.09578125-2.79ZM 28.46828125 0.47L 28.46828125 0.47Q 22.76828125 0.47  19.478281250000002-3Q 16.18828125-6.47  16.18828125-12.63L 16.18828125-12.63Q 16.18828125-18.84  19.23828125-22.5Q 22.298281250000002-26.16  27.45828125-26.16L 27.45828125-26.16Q 32.28828125-26.16  35.09828125-22.98Q 37.90828125-19.8  37.90828125-14.6L 37.90828125-14.6L 37.90828125-12.14L 20.21828125-12.14Q 20.32828125-7.62  22.498281249999998-5.27Q 24.66828125-2.93  28.608281249999997-2.93L 28.608281249999997-2.93Q 32.758281249999996-2.93  36.80828125-4.66L 36.80828125-4.66L 36.80828125-1.2Q 34.748281250000005-0.3  32.90828125 0.08Q 31.06828125 0.47  28.46828125 0.47ZM 27.40828125-22.9L 27.40828125-22.9Q 24.31828125-22.9  22.478281250000002-20.88Q 20.63828125-18.87  20.30828125-15.3L 20.30828125-15.3L 33.73828125-15.3Q 33.73828125-18.98  32.09828125-20.94Q 30.45828125-22.9  27.40828125-22.9ZM 56.25796875-26.16L 56.25796875-26.16Q 57.96796875-26.16  59.32796875-25.88L 59.32796875-25.88L 58.797968749999995-22.27Q 57.19796875-22.62  55.97796875-22.62L 55.97796875-22.62Q 52.86796875-22.62  50.647968750000004-20.09Q 48.437968749999996-17.55  48.437968749999996-13.78L 48.437968749999996-13.78L 48.437968749999996 0L 44.54796875 0L 44.54796875-25.69L 47.75796875-25.69L 48.19796875-20.93L 48.38796875-20.93Q 49.81796875-23.44  51.82796875-24.8Q 53.84796875-26.16  56.25796875-26.16ZM 84.90046875-2.74L 84.90046875-2.74Q 85.93046875-2.74  86.89046875-2.89Q 87.86046875-3.05  88.42046875-3.21L 88.42046875-3.21L 88.42046875-0.23Q 87.78046875 0.07  86.55046875 0.27Q 85.32046875 0.47  84.34046875 0.47L 84.34046875 0.47Q 76.89046875 0.47  76.89046875-7.38L 76.89046875-7.38L 76.89046875-22.66L 73.21046875-22.66L 73.21046875-24.54L 76.89046875-26.16L 78.53046875-31.64L 80.78046875-31.64L 80.78046875-25.69L 88.23046875-25.69L 88.23046875-22.66L 80.78046875-22.66L 80.78046875-7.55Q 80.78046875-5.23  81.88046875-3.98Q 82.98046875-2.74  84.90046875-2.74ZM 115.72578125-12.87L 115.72578125-12.87Q 115.72578125-6.59  112.55578125-3.06Q 109.39578125 0.47  103.81578125 0.47L 103.81578125 0.47Q 100.37578125 0.47  97.69578125-1.15Q 95.02578125-2.77  93.57578125-5.79Q 92.12578125-8.81  92.12578125-12.87L 92.12578125-12.87Q 92.12578125-19.15  95.26578125-22.65Q 98.40578125-26.16  103.97578125-26.16L 103.97578125-26.16Q 109.37578125-26.16  112.54578125-22.57Q 115.72578125-18.98  115.72578125-12.87ZM 96.15578125-12.87L 96.15578125-12.87Q 96.15578125-7.95  98.12578125-5.37Q 100.08578125-2.79  103.90578125-2.79L 103.90578125-2.79Q 107.72578125-2.79  109.71578124999999-5.36Q 111.69578125-7.92  111.69578125-12.87L 111.69578125-12.87Q 111.69578125-17.77  109.71578124999999-20.31Q 107.72578125-22.85  103.86578125-22.85L 103.86578125-22.85Q 100.04578125-22.85  98.09578125-20.34Q 96.15578125-17.84  96.15578125-12.87ZM 145.27671875 0.47L 145.27671875 0.47Q 139.69671875 0.47  136.63671875-2.96Q 133.58671875-6.4  133.58671875-12.68L 133.58671875-12.68Q 133.58671875-19.13  136.68671875-22.64Q 139.79671875-26.16  145.53671875-26.16L 145.53671875-26.16Q 147.38671875-26.16  149.23671875-25.76Q 151.08671875-25.36  152.14671875-24.82L 152.14671875-24.82L 150.94671875-21.52Q 149.65671875-22.03  148.13671875-22.37Q 146.61671875-22.71  145.43671875-22.71L 145.43671875-22.71Q 137.61671875-22.71  137.61671875-12.73L 137.61671875-12.73Q 137.61671875-7.99  139.52671875-5.46Q 141.43671875-2.93  145.18671875-2.93L 145.18671875-2.93Q 148.39671875-2.93  151.76671875-4.31L 151.76671875-4.31L 151.76671875-0.87Q 149.18671875 0.47  145.27671875 0.47ZM 179.32828125 0L 175.43828125 0L 175.43828125-16.62Q 175.43828125-19.76  174.00828125-21.3Q 172.57828125-22.85  169.53828125-22.85L 169.53828125-22.85Q 165.47828125-22.85  163.61828125-20.65Q 161.75828125-18.45  161.75828125-13.43L 161.75828125-13.43L 161.75828125 0L 157.86828125 0L 157.86828125-36.47L 161.75828125-36.47L 161.75828125-25.43Q 161.75828125-23.44  161.56828125-22.13L 161.56828125-22.13L 161.79828125-22.13Q 162.94828125-23.98  165.06828125-25.04Q 167.18828125-26.11  169.90828125000002-26.11L 169.90828125000002-26.11Q 174.61828125-26.11  176.97828125-23.87Q 179.32828125-21.63  179.32828125-16.76L 179.32828125-16.76L 179.32828125 0ZM 205.99921875 0L 203.11921875000002 0L 202.34921875-3.66L 202.15921875-3.66Q 200.23921875-1.24  198.32921875-0.39Q 196.41921875 0.47  193.55921875 0.47L 193.55921875 0.47Q 189.73921875 0.47  187.56921875-1.5Q 185.39921875-3.47  185.39921875-7.1L 185.39921875-7.1Q 185.39921875-14.88  197.84921875-15.26L 197.84921875-15.26L 202.20921875-15.4L 202.20921875-16.99Q 202.20921875-20.02  200.90921875-21.46Q 199.60921875-22.9  196.74921875-22.9L 196.74921875-22.9Q 193.53921875-22.9  189.47921875-20.93L 189.47921875-20.93L 188.28921875-23.91Q 190.17921875-24.94  192.44921875-25.52Q 194.70921875-26.11  196.97921875-26.11L 196.97921875-26.11Q 201.57921875-26.11  203.78921875-24.07Q 205.99921875-22.03  205.99921875-17.53L 205.99921875-17.53L 205.99921875 0ZM 194.32921875-2.74L 194.32921875-2.74Q 197.96921875-2.74  200.03921875-4.73Q 202.10921875-6.73  202.10921875-10.31L 202.10921875-10.31L 202.10921875-12.63L 198.21921875-12.47Q 193.57921875-12.3  191.52921875-11.03Q 189.47921875-9.75  189.47921875-7.05L 189.47921875-7.05Q 189.47921875-4.95  190.75921875-3.84Q 192.03921875-2.74  194.32921875-2.74ZM 236.19453125-12.87L 236.19453125-12.87Q 236.19453125-6.59  233.02453125-3.06Q 229.86453125 0.47  224.28453125 0.47L 224.28453125 0.47Q 220.84453125 0.47  218.16453125-1.15Q 215.49453125-2.77  214.04453125-5.79Q 212.59453125-8.81  212.59453125-12.87L 212.59453125-12.87Q 212.59453125-19.15  215.73453125-22.65Q 218.87453125-26.16  224.44453125-26.16L 224.44453125-26.16Q 229.84453125-26.16  233.01453125-22.57Q 236.19453125-18.98  236.19453125-12.87ZM 216.62453125-12.87L 216.62453125-12.87Q 216.62453125-7.95  218.59453125-5.37Q 220.55453125-2.79  224.37453125-2.79L 224.37453125-2.79Q 228.19453125-2.79  230.18453125-5.36Q 232.16453125-7.92  232.16453125-12.87L 232.16453125-12.87Q 232.16453125-17.77  230.18453125-20.31Q 228.19453125-22.85  224.33453125-22.85L 224.33453125-22.85Q 220.51453125-22.85  218.56453125-20.34Q 216.62453125-17.84  216.62453125-12.87ZM 259.58671875-7.01L 259.58671875-7.01Q 259.58671875-3.42  256.90671875-1.48Q 254.23671875 0.47  249.40671875 0.47L 249.40671875 0.47Q 244.29671875 0.47  241.43671875-1.15L 241.43671875-1.15L 241.43671875-4.76Q 243.29671875-3.82  245.41671875-3.28Q 247.53671875-2.74  249.50671875-2.74L 249.50671875-2.74Q 252.54671875-2.74  254.18671875-3.71Q 255.83671875-4.69  255.83671875-6.68L 255.83671875-6.68Q 255.83671875-8.18  254.52671875-9.25Q 253.22671875-10.31  249.45671875-11.77L 249.45671875-11.77Q 245.86671875-13.1  244.35671875-14.1Q 242.84671875-15.09  242.10671875-16.36Q 241.36671875-17.63  241.36671875-19.38L 241.36671875-19.38Q 241.36671875-22.52  243.92671875-24.34Q 246.47671875-26.16  250.93671875-26.16L 250.93671875-26.16Q 255.08671875-26.16  259.04671875-24.47L 259.04671875-24.47L 257.65671875-21.3Q 253.79671875-22.9  250.65671875-22.9L 250.65671875-22.9Q 247.88671875-22.9  246.47671875-22.03Q 245.07671875-21.16  245.07671875-19.64L 245.07671875-19.64Q 245.07671875-18.61  245.59671875-17.88Q 246.12671875-17.16  247.29671875-16.5Q 248.47671875-15.84  251.79671875-14.6L 251.79671875-14.6Q 256.36671875-12.94  257.97671875-11.25Q 259.58671875-9.56  259.58671875-7.01Z"></path>
        <path text="| for families" fill="#1d398f" transform="matrix(0.5119597911834717, 0, 0, 0.5287298560142517, 378.1017150878906, 340.1327209472656)" space="preserve" text-anchor="middle" offset="0.5" font-scale="contain" font-size="48" font-family="Open Sans" data-fl-textpath="" id="_ehe1g4nge_26" d="M-133.46296875 11.63L-133.46296875-36.47L-130.16296875-36.47L-130.16296875 11.63L-133.46296875 11.63ZM-90.43671875-25.69L-90.43671875-22.66L-96.97671875-22.66L-96.97671875 0L-100.86671875 0L-100.86671875-22.66L-105.45671875-22.66L-105.45671875-24.42L-100.86671875-25.83L-100.86671875-27.26Q-100.86671875-36.73 -92.58671875-36.73L-92.58671875-36.73Q-90.54671875-36.73 -87.80671875-35.91L-87.80671875-35.91L-88.81671875-32.79Q-91.06671875-33.52 -92.65671875-33.52L-92.65671875-33.52Q-94.86671875-33.52 -95.91671875-32.05Q-96.97671875-30.59 -96.97671875-27.35L-96.97671875-27.35L-96.97671875-25.69L-90.43671875-25.69ZM-63.57109375-12.87L-63.57109375-12.87Q-63.57109375-6.59 -66.74109375-3.06Q-69.90109375 0.47 -75.48109375 0.47L-75.48109375 0.47Q-78.92109375 0.47 -81.60109375-1.15Q-84.27109375-2.77 -85.72109375-5.79Q-87.17109375-8.81 -87.17109375-12.87L-87.17109375-12.87Q-87.17109375-19.15 -84.03109375-22.65Q-80.89109375-26.16 -75.32109375-26.16L-75.32109375-26.16Q-69.92109375-26.16 -66.75109375-22.57Q-63.57109375-18.98 -63.57109375-12.87ZM-83.14109375-12.87L-83.14109375-12.87Q-83.14109375-7.95 -81.17109375-5.37Q-79.21109375-2.79 -75.39109375-2.79L-75.39109375-2.79Q-71.57109375-2.79 -69.58109375000001-5.36Q-67.60109375-7.92 -67.60109375-12.87L-67.60109375-12.87Q-67.60109375-17.77 -69.58109375000001-20.31Q-71.57109375-22.85 -75.43109375-22.85L-75.43109375-22.85Q-79.25109375-22.85 -81.20109375-20.34Q-83.14109375-17.84 -83.14109375-12.87ZM-45.03890625-26.16L-45.03890625-26.16Q-43.32890625-26.16 -41.96890625-25.88L-41.96890625-25.88L-42.498906250000005-22.27Q-44.09890625-22.62 -45.31890625-22.62L-45.31890625-22.62Q-48.42890625-22.62 -50.648906249999996-20.09Q-52.858906250000004-17.55 -52.858906250000004-13.78L-52.858906250000004-13.78L-52.858906250000004 0L-56.74890625 0L-56.74890625-25.69L-53.53890625-25.69L-53.09890625-20.93L-52.90890625-20.93Q-51.47890625-23.44 -49.46890625-24.8Q-47.44890625-26.16 -45.03890625-26.16ZM-13.11640625-25.69L-13.11640625-22.66L-19.65640625-22.66L-19.65640625 0L-23.54640625 0L-23.54640625-22.66L-28.13640625-22.66L-28.13640625-24.42L-23.54640625-25.83L-23.54640625-27.26Q-23.54640625-36.73 -15.26640625-36.73L-15.26640625-36.73Q-13.22640625-36.73 -10.486406250000002-35.91L-10.486406250000002-35.91L-11.49640625-32.79Q-13.74640625-33.52 -15.33640625-33.52L-15.33640625-33.52Q-17.54640625-33.52 -18.59640625-32.05Q-19.65640625-30.59 -19.65640625-27.35L-19.65640625-27.35L-19.65640625-25.69L-13.11640625-25.69ZM 10.24921875 0L 7.369218750000002 0L 6.599218749999999-3.66L 6.409218750000001-3.66Q 4.489218749999999-1.24  2.579218750000001-0.39Q 0.6692187500000006 0.47 -2.1907812500000006 0.47L-2.1907812500000006 0.47Q-6.01078125 0.47 -8.180781249999999-1.5Q-10.35078125-3.47 -10.35078125-7.1L-10.35078125-7.1Q-10.35078125-14.88  2.0992187500000004-15.26L 2.0992187500000004-15.26L 6.459218750000002-15.4L 6.459218750000002-16.99Q 6.459218750000002-20.02  5.159218750000001-21.46Q 3.85921875-22.9  0.9992187500000007-22.9L 0.9992187500000007-22.9Q-2.21078125-22.9 -6.27078125-20.93L-6.27078125-20.93L-7.46078125-23.91Q-5.57078125-24.94 -3.30078125-25.52Q-1.0407812500000002-26.11  1.2292187499999994-26.11L 1.2292187499999994-26.11Q 5.829218749999999-26.11  8.03921875-24.07Q 10.24921875-22.03  10.24921875-17.53L 10.24921875-17.53L 10.24921875 0ZM-1.4207812499999992-2.74L-1.4207812499999992-2.74Q 2.2192187499999996-2.74  4.28921875-4.73Q 6.35921875-6.73  6.35921875-10.31L 6.35921875-10.31L 6.35921875-12.63L 2.4692187499999996-12.47Q-2.170781249999999-12.3 -4.22078125-11.03Q-6.27078125-9.75 -6.27078125-7.05L-6.27078125-7.05Q-6.27078125-4.95 -4.99078125-3.84Q-3.71078125-2.74 -1.4207812499999992-2.74ZM 54.90453125 0L 51.01453125 0L 51.01453125-16.71Q 51.01453125-19.78  49.69453125-21.32Q 48.38453125-22.85  45.624531250000004-22.85L 45.624531250000004-22.85Q 41.98453125-22.85  40.25453125-20.77Q 38.524531249999995-18.68  38.524531249999995-14.34L 38.524531249999995-14.34L 38.524531249999995 0L 34.624531250000004 0L 34.624531250000004-16.71Q 34.624531250000004-19.78  33.31453125-21.32Q 32.00453125-22.85  29.21453125-22.85L 29.21453125-22.85Q 25.55453125-22.85  23.85453125-20.66Q 22.16453125-18.47  22.16453125-13.48L 22.16453125-13.48L 22.16453125 0L 18.27453125 0L 18.27453125-25.69L 21.43453125-25.69L 22.06453125-22.17L 22.25453125-22.17Q 23.35453125-24.05  25.35453125-25.1Q 27.36453125-26.16  29.84453125-26.16L 29.84453125-26.16Q 35.874531250000004-26.16  37.72453125-21.8L 37.72453125-21.8L 37.914531249999996-21.8Q 39.05453125-23.81  41.23453125-24.98Q 43.414531249999996-26.16  46.20453125-26.16L 46.20453125-26.16Q 50.56453125-26.16  52.73453125-23.92Q 54.90453125-21.68  54.90453125-16.76L 54.90453125-16.76L 54.90453125 0ZM 66.81296875-25.69L 66.81296875 0L 62.92296875 0L 62.92296875-25.69L 66.81296875-25.69ZM 62.59296875-32.65L 62.59296875-32.65Q 62.59296875-33.98  63.24296875-34.61Q 63.90296875-35.23  64.88296875-35.23L 64.88296875-35.23Q 65.82296875-35.23  66.50296875-34.59Q 67.18296875-33.96  67.18296875-32.65L 67.18296875-32.65Q 67.18296875-31.34  66.50296875-30.69Q 65.82296875-30.05  64.88296875-30.05L 64.88296875-30.05Q 63.90296875-30.05  63.24296875-30.69Q 62.59296875-31.34  62.59296875-32.65ZM 78.95359375-36.47L 78.95359375 0L 75.06359375 0L 75.06359375-36.47L 78.95359375-36.47ZM 91.09421875-25.69L 91.09421875 0L 87.20421875 0L 87.20421875-25.69L 91.09421875-25.69ZM 86.87421875-32.65L 86.87421875-32.65Q 86.87421875-33.98  87.52421875-34.61Q 88.18421875-35.23  89.16421875-35.23L 89.16421875-35.23Q 90.10421875-35.23  90.78421875-34.59Q 91.46421875-33.96  91.46421875-32.65L 91.46421875-32.65Q 91.46421875-31.34  90.78421875-30.69Q 90.10421875-30.05  89.16421875-30.05L 89.16421875-30.05Q 88.18421875-30.05  87.52421875-30.69Q 86.87421875-31.34  86.87421875-32.65ZM 110.19484375 0.47L 110.19484375 0.47Q 104.49484375 0.47  101.20484375-3Q 97.91484375-6.47  97.91484375-12.63L 97.91484375-12.63Q 97.91484375-18.84  100.96484375-22.5Q 104.02484375-26.16  109.18484375-26.16L 109.18484375-26.16Q 114.01484375-26.16  116.82484375-22.98Q 119.63484375-19.8  119.63484375-14.6L 119.63484375-14.6L 119.63484375-12.14L 101.94484375-12.14Q 102.05484375-7.62  104.22484375-5.27Q 106.39484375-2.93  110.33484375-2.93L 110.33484375-2.93Q 114.48484375-2.93  118.53484375-4.66L 118.53484375-4.66L 118.53484375-1.2Q 116.47484375-0.3  114.63484375 0.08Q 112.79484375 0.47  110.19484375 0.47ZM 109.13484375-22.9L 109.13484375-22.9Q 106.04484375-22.9  104.20484375-20.88Q 102.36484375-18.87  102.03484375-15.3L 102.03484375-15.3L 115.46484375-15.3Q 115.46484375-18.98  113.82484375-20.94Q 112.18484375-22.9  109.13484375-22.9ZM 142.84453125-7.01L 142.84453125-7.01Q 142.84453125-3.42  140.16453125-1.48Q 137.49453125 0.47  132.66453125 0.47L 132.66453125 0.47Q 127.55453125 0.47  124.69453125-1.15L 124.69453125-1.15L 124.69453125-4.76Q 126.55453125-3.82  128.67453125-3.28Q 130.79453125-2.74  132.76453125-2.74L 132.76453125-2.74Q 135.80453125-2.74  137.44453125-3.71Q 139.09453125-4.69  139.09453125-6.68L 139.09453125-6.68Q 139.09453125-8.18  137.78453125-9.25Q 136.48453125-10.31  132.71453125-11.77L 132.71453125-11.77Q 129.12453125-13.1  127.61453125-14.1Q 126.10453125-15.09  125.36453125-16.36Q 124.62453125-17.63  124.62453125-19.38L 124.62453125-19.38Q 124.62453125-22.52  127.18453125-24.34Q 129.73453125-26.16  134.19453125-26.16L 134.19453125-26.16Q 138.34453125-26.16  142.30453125-24.47L 142.30453125-24.47L 140.91453125-21.3Q 137.05453125-22.9  133.91453125-22.9L 133.91453125-22.9Q 131.14453125-22.9  129.73453125-22.03Q 128.33453125-21.16  128.33453125-19.64L 128.33453125-19.64Q 128.33453125-18.61  128.85453125-17.88Q 129.38453125-17.16  130.55453125-16.5Q 131.73453125-15.84  135.05453125-14.6L 135.05453125-14.6Q 139.62453125-12.94  141.23453125-11.25Q 142.84453125-9.56  142.84453125-7.01Z"></path>
    </g>
</svg>