<?xml version="1.0" encoding="UTF-8" standalone="no"?>
<svg
   width="216.00446"
   height="49.943764"
   viewBox="250 150 216.00446 49.943764"
   data-svgdocument=""
   id="_QPbOH8Bvnff-nxIn-ryGS"
   class="fl-svgdocument"
   x="0"
   y="0"
   style="overflow:hidden"
   version="1.1"
   sodipodi:docname="tagline.svg"
   inkscape:version="1.1 (c68e22c387, 2021-05-23)"
   xmlns:inkscape="http://www.inkscape.org/namespaces/inkscape"
   xmlns:sodipodi="http://sodipodi.sourceforge.net/DTD/sodipodi-0.dtd"
   xmlns="http://www.w3.org/2000/svg"
   xmlns:svg="http://www.w3.org/2000/svg">
  <sodipodi:namedview
     id="namedview8"
     pagecolor="#ffffff"
     bordercolor="#666666"
     borderopacity="1.0"
     inkscape:pageshadow="2"
     inkscape:pageopacity="0.0"
     inkscape:pagecheckerboard="0"
     showgrid="false"
     inkscape:zoom="1.2734375"
     inkscape:cx="255.60736"
     inkscape:cy="256.39264"
     inkscape:window-width="1600"
     inkscape:window-height="837"
     inkscape:window-x="-8"
     inkscape:window-y="-8"
     inkscape:window-maximized="1"
     inkscape:current-layer="_QPbOH8Bvnff-nxIn-ryGS" />
  <defs
     id="_-Pf6sSTUS_QCObCL12lGl"
     transform="matrix(1.2307695150375366, 0, 0, 1.2307695150375366, -59.07701110839844, -67.29283142089844)" />
  <g
     id="tagline"
     transform="matrix(0.55319822,0,0,0.55319822,216.38349,8.3812631)">
    <path
       text="creative resources |"
       fill="#f55e00"
       transform="matrix(0.57454348,0,0,0.59336615,187.81529,277.64005)"
       space="preserve"
       text-anchor="middle"
       offset="0.5"
       font-scale="contain"
       font-size="48px"
       font-family="'Open Sans'"
       data-fl-textpath=""
       id="_ehe1g4nge_24"
       d="m -209.43813,0.47 v 0 q -5.57999,0 -8.63999,-3.43 -3.05,-3.44 -3.05,-9.72 v 0 q 0,-6.45 3.1,-9.96 3.11,-3.52 8.85,-3.52 v 0 q 1.85,0 3.7,0.4 1.85,0.4 2.91,0.94 v 0 l -1.2,3.3 q -1.29,-0.51 -2.81,-0.85 -1.52,-0.34 -2.7,-0.34 v 0 q -7.82,0 -7.82,9.98 v 0 q 0,4.74 1.90999,7.27 1.91001,2.53 5.66001,2.53 v 0 q 3.21,0 6.58,-1.38 v 0 3.44 q -2.58,1.34 -6.49001,1.34 z m 24.30157,-26.63 v 0 q 1.71,0 3.07,0.28 v 0 l -0.53,3.61 q -1.6,-0.35 -2.82,-0.35 v 0 q -3.11,0 -5.33,2.53 -2.21,2.54 -2.21,6.31 v 0 V 0 h -3.89 v -25.69 h 3.21 l 0.44,4.76 h 0.19 q 1.43,-2.51 3.44,-3.87 2.02,-1.36 4.43,-1.36 z m 18.73375,26.63 v 0 q -5.7,0 -8.99,-3.47 -3.29,-3.47 -3.29,-9.63 v 0 q 0,-6.21 3.05,-9.87 3.06,-3.66 8.22,-3.66 v 0 q 4.83,0 7.64,3.18 2.81,3.18 2.81,8.38 v 0 2.46 h -17.69 q 0.11,4.52 2.28,6.87 2.17,2.34 6.11,2.34 v 0 q 4.15,0 8.2,-1.73 v 0 3.46 q -2.06,0.9 -3.9,1.28 -1.84,0.39 -4.44,0.39 z m -1.06,-23.37 v 0 q -3.09,0 -4.93,2.02 -1.84,2.01 -2.17,5.58 v 0 h 13.43 q 0,-3.68 -1.64,-5.64 -1.64,-1.96 -4.69,-1.96 z M -131.65312,0 h -2.88 l -0.77,-3.66 h -0.19 q -1.92,2.42 -3.83,3.27 -1.91,0.86 -4.77,0.86 v 0 q -3.82,0 -5.99,-1.97 -2.17,-1.97 -2.17,-5.6 v 0 q 0,-7.78 12.45,-8.16 v 0 l 4.36,-0.14 v -1.59 q 0,-3.03 -1.3,-4.47 -1.3,-1.44 -4.16,-1.44 v 0 q -3.21,0 -7.27,1.97 v 0 l -1.19,-2.98 q 1.89,-1.03 4.16,-1.61 2.26,-0.59 4.53,-0.59 v 0 q 4.6,0 6.81,2.04 2.21,2.04 2.21,6.54 v 0 z m -11.67,-2.74 v 0 q 3.64,0 5.71,-1.99 2.07,-2 2.07,-5.58 v 0 -2.32 l -3.89,0.16 q -4.64,0.17 -6.69,1.44 -2.05,1.28 -2.05,3.98 v 0 q 0,2.1 1.28,3.21 1.28,1.1 3.57,1.1 z m 27.98531,0 v 0 q 1.03,0 1.99,-0.15 0.97,-0.16 1.53,-0.32 v 0 2.98 q -0.64,0.3 -1.87,0.5 -1.23,0.2 -2.21,0.2 v 0 q -7.45,0 -7.45,-7.85 v 0 -15.28 h -3.68 v -1.88 l 3.68,-1.62 1.64,-5.48 h 2.25 v 5.95 h 7.45 v 3.03 h -7.45 v 15.11 q 0,2.32 1.1,3.57 1.1,1.24 3.02,1.24 z m 12.54531,-22.95 V 0 h -3.89 v -25.69 z m -4.22,-6.96 v 0 q 0,-1.33 0.65,-1.96 0.66,-0.62 1.64,-0.62 v 0 q 0.94,0 1.62,0.64 0.68,0.63 0.68,1.94 v 0 q 0,1.31 -0.68,1.96 -0.68,0.64 -1.62,0.64 v 0 q -0.98,0 -1.64,-0.64 -0.65,-0.65 -0.65,-1.96 z M -84.371875,0 h -4.55 l -9.75,-25.69 h 4.17 l 5.53,15.24 q 1.88,5.34 2.21,6.93 v 0 h 0.18 q 0.26,-1.24 1.63,-5.14 1.37,-3.9 6.16,-17.03 v 0 h 4.17 z M -59.645,0.47 v 0 q -5.7,0 -8.99,-3.47 -3.29,-3.47 -3.29,-9.63 v 0 q 0,-6.21 3.05,-9.87 3.06,-3.66 8.22,-3.66 v 0 q 4.83,0 7.64,3.18 2.81,3.18 2.81,8.38 v 0 2.46 h -17.69 q 0.11,4.52 2.28,6.87 2.17,2.34 6.11,2.34 v 0 q 4.15,0 8.2,-1.73 v 0 3.46 q -2.06,0.9 -3.9,1.28 -1.84,0.39 -4.44,0.39 z m -1.06,-23.37 v 0 q -3.09,0 -4.93,2.02 -1.84,2.01 -2.17,5.58 v 0 h 13.43 q 0,-3.68 -1.64,-5.64 -1.64,-1.96 -4.69,-1.96 z m 41.318438,-3.26 v 0 q 1.71,0 3.07,0.28 v 0 l -0.53,3.61 q -1.6,-0.35 -2.82,-0.35 v 0 q -3.11,0 -5.33,2.53 -2.21,2.54 -2.21,6.31 v 0 V 0 h -3.89 v -25.69 h 3.21 l 0.44,4.76 h 0.19 q 1.429999,-2.51 3.44,-3.87 2.02,-1.36 4.43,-1.36 z M -0.6528125,0.47 v 0 q -5.7,0 -8.99,-3.47 -3.2900005,-3.47 -3.2900005,-9.63 v 0 q 0,-6.21 3.0500005,-9.87 3.06,-3.66 8.22,-3.66 v 0 q 4.83,0 7.64,3.18 2.81,3.18 2.81,8.38 v 0 2.46 h -17.69 q 0.11,4.52 2.28,6.87 2.17,2.34 6.11,2.34 v 0 q 4.15,0 8.2,-1.73 v 0 3.46 q -2.06,0.9 -3.9,1.28 -1.84,0.39 -4.44,0.39 z m -1.06,-23.37 v 0 q -3.09,0 -4.93,2.02 -1.84,2.01 -2.17,5.58 v 0 h 13.43 q 0,-3.68 -1.64,-5.64 -1.64,-1.96 -4.69,-1.96 z M 31.996875,-7.01 v 0 q 0,3.59 -2.68,5.53 -2.67,1.95 -7.5,1.95 v 0 q -5.11,0 -7.97,-1.62 v 0 -3.61 q 1.86,0.94 3.98,1.48 2.12,0.54 4.09,0.54 v 0 q 3.04,0 4.68,-0.97 1.65,-0.98 1.65,-2.97 v 0 q 0,-1.5 -1.31,-2.57 -1.3,-1.06 -5.07,-2.52 v 0 q -3.59,-1.33 -5.1,-2.33 -1.51,-0.99 -2.25,-2.26 -0.74,-1.27 -0.74,-3.02 v 0 q 0,-3.14 2.56,-4.96 2.55,-1.82 7.01,-1.82 v 0 q 4.15,0 8.11,1.69 v 0 l -1.39,3.17 q -3.86,-1.6 -7,-1.6 v 0 q -2.77,0 -4.18,0.87 -1.4,0.87 -1.4,2.39 v 0 q 0,1.03 0.52,1.76 0.53,0.72 1.7,1.38 1.18,0.66 4.5,1.9 v 0 q 4.57,1.66 6.18,3.35 1.61,1.69 1.61,4.24 z m 28.498437,-5.86 v 0 q 0,6.28 -3.17,9.81 -3.16,3.53 -8.74,3.53 v 0 q -3.439999,0 -6.12,-1.62 -2.669999,-1.62 -4.12,-4.64 -1.449999,-3.02 -1.449999,-7.08 v 0 q 0,-6.28 3.14,-9.78 3.14,-3.51 8.709999,-3.51 v 0 q 5.400001,0 8.570001,3.59 3.179999,3.59 3.179999,9.7 z m -19.569999,0 v 0 q 0,4.92 1.97,7.5 1.959999,2.58 5.78,2.58 v 0 q 3.819999,0 5.809999,-2.57 1.98,-2.56 1.98,-7.51 v 0 q 0,-4.9 -1.98,-7.44 -1.99,-2.54 -5.85,-2.54 v 0 q -3.82,0 -5.769999,2.51 -1.94,2.5 -1.94,7.47 z M 67.0275,-25.69 h 3.94 v 16.67 q 0,3.14 1.43,4.68 1.43,1.55 4.48,1.55 v 0 q 4.03,0 5.89,-2.2 1.87,-2.21 1.87,-7.2 v 0 -13.5 h 3.89 V 0 h -3.21 l -0.57,-3.45 h -0.21 q -1.19,1.9 -3.31,2.91 -2.13,1.01 -4.84,1.01 v 0 q -4.69,0 -7.02,-2.23 -2.34,-2.22 -2.34,-7.12 v 0 z m 41.46094,-0.47 v 0 q 1.71,0 3.07,0.28 v 0 l -0.53,3.61 q -1.6,-0.35 -2.82,-0.35 v 0 q -3.11,0 -5.33,2.53 -2.21,2.54 -2.21,6.31 v 0 V 0 h -3.890003 v -25.69 h 3.210001 l 0.440002,4.76 h 0.19 q 1.43,-2.51 3.44,-3.87 2.02,-1.36 4.43,-1.36 z m 18.14375,26.63 v 0 q -5.58,0 -8.64,-3.43 -3.05,-3.44 -3.05,-9.72 v 0 q 0,-6.45 3.1,-9.96 3.11,-3.52 8.85,-3.52 v 0 q 1.85,0 3.7,0.4 1.85,0.4 2.91,0.94 v 0 l -1.2,3.3 q -1.29,-0.51 -2.81,-0.85 -1.52,-0.34 -2.7,-0.34 v 0 q -7.82,0 -7.82,9.98 v 0 q 0,4.74 1.91,7.27 1.91,2.53 5.66,2.53 v 0 q 3.21,0 6.58,-1.38 v 0 3.44 q -2.58,1.34 -6.49,1.34 z m 23.44156,0 v 0 q -5.7,0 -8.99,-3.47 -3.29,-3.47 -3.29,-9.63 v 0 q 0,-6.21 3.05,-9.87 3.06,-3.66 8.22,-3.66 v 0 q 4.83,0 7.64,3.18 2.81,3.18 2.81,8.38 v 0 2.46 h -17.69 q 0.11,4.52 2.28,6.87 2.17,2.34 6.11,2.34 v 0 q 4.15,0 8.2,-1.73 v 0 3.46 q -2.06,0.9 -3.9,1.28 -1.84,0.39 -4.44,0.39 z m -1.06,-23.37 v 0 q -3.09,0 -4.93,2.02 -1.84,2.01 -2.17,5.58 v 0 h 13.43 q 0,-3.68 -1.64,-5.64 -1.64,-1.96 -4.69,-1.96 z m 33.70969,15.89 v 0 q 0,3.59 -2.68,5.53 -2.67,1.95 -7.5,1.95 v 0 q -5.11,0 -7.97,-1.62 v 0 -3.61 q 1.86,0.94 3.98,1.48 2.12,0.54 4.09,0.54 v 0 q 3.04,0 4.68,-0.97 1.65,-0.98 1.65,-2.97 v 0 q 0,-1.5 -1.31,-2.57 -1.3,-1.06 -5.07,-2.52 v 0 q -3.59,-1.33 -5.1,-2.33 -1.51,-0.99 -2.25,-2.26 -0.74,-1.27 -0.74,-3.02 v 0 q 0,-3.14 2.56,-4.96 2.55,-1.82 7.01,-1.82 v 0 q 4.15,0 8.11,1.69 v 0 l -1.39,3.17 q -3.86,-1.6 -7,-1.6 v 0 q -2.77,0 -4.18,0.87 -1.4,0.87 -1.4,2.39 v 0 q 0,1.03 0.52,1.76 0.53,0.72 1.7,1.38 1.18,0.66 4.5,1.9 v 0 q 4.57,1.66 6.18,3.35 1.61,1.69 1.61,4.24 z m 26.24718,18.64 v -48.1 h 3.3 v 48.1 z" />
    <path
       text="bringing order to chaos"
       fill="#73ac76"
       transform="matrix(0.75489783,0,0,0.7796253,255.27095,311.72336)"
       space="preserve"
       text-anchor="middle"
       offset="0.5"
       font-scale="contain"
       font-size="48px"
       font-family="'Open Sans'"
       data-fl-textpath=""
       id="_ehe1g4nge_25"
       d="m -245.70516,-26.11 v 0 q 5.06,0 7.86,3.46 2.8,3.45 2.8,9.78 v 0 q 0,6.33 -2.82,9.83 -2.83,3.51 -7.84,3.51 v 0 q -2.51,0 -4.58,-0.93 -2.08,-0.92 -3.48,-2.84 v 0 h -0.29 l -0.82,3.3 h -2.78 v -36.47 h 3.89 v 8.86 q 0,2.98 -0.19,5.34 v 0 h 0.19 q 2.71,-3.84 8.06,-3.84 z m -0.56,3.26 v 0 q -3.99,0 -5.75,2.28 -1.75,2.29 -1.75,7.7 v 0 q 0,5.42 1.8,7.75 1.81,2.33 5.79,2.33 v 0 q 3.59,0 5.34,-2.61 1.76,-2.62 1.76,-7.51 v 0 q 0,-5.02 -1.76,-7.48 -1.75,-2.46 -5.43,-2.46 z m 29.73407,-3.31 v 0 q 1.71,0 3.07,0.28 v 0 l -0.53,3.61 q -1.6,-0.35 -2.82,-0.35 v 0 q -3.11,0 -5.33,2.53 -2.21,2.54 -2.21,6.31 v 0 V 0 h -3.89 v -25.69 h 3.21 l 0.44,4.76 h 0.19 q 1.43,-2.51 3.44,-3.87 2.02,-1.36 4.43,-1.36 z m 11.77375,0.47 V 0 h -3.89 v -25.69 z m -4.22,-6.96 v 0 q 0,-1.33 0.65,-1.96 0.66,-0.62 1.64,-0.62 v 0 q 0.94,0 1.62,0.64 0.68,0.63 0.68,1.94 v 0 q 0,1.31 -0.68,1.96 -0.68,0.64 -1.62,0.64 v 0 q -0.98,0 -1.64,-0.64 -0.65,-0.65 -0.65,-1.96 z M -175.04672,0 h -3.89 v -16.62 q 0,-3.14 -1.43,-4.68 -1.43,-1.55 -4.47,-1.55 v 0 q -4.03,0 -5.91,2.18 -1.87,2.18 -1.87,7.19 v 0 V 0 h -3.89 v -25.69 h 3.16 l 0.63,3.52 h 0.19 q 1.19,-1.9 3.35,-2.94 2.16,-1.05 4.81,-1.05 v 0 q 4.64,0 6.98,2.24 2.34,2.24 2.34,7.16 v 0 z m 20.14094,-25.69 h 8.88 v 2.46 l -4.76,0.57 q 0.66,0.82 1.17,2.14 0.52,1.32 0.52,2.99 v 0 q 0,3.77 -2.58,6.02 -2.58,2.25 -7.08,2.25 v 0 q -1.15,0 -2.15,-0.19 v 0 q -2.49,1.32 -2.49,3.31 v 0 q 0,1.05 0.87,1.56 0.87,0.5 2.98,0.5 v 0 h 4.54 q 4.17,0 6.41,1.76 2.24,1.76 2.24,5.11 v 0 q 0,4.26 -3.42,6.5 -3.42,2.24 -9.99,2.24 v 0 q -5.03,0 -7.77,-1.87 -2.73,-1.88 -2.73,-5.3 v 0 q 0,-2.34 1.5,-4.06 1.5,-1.71 4.22,-2.32 v 0 q -0.98,-0.44 -1.65,-1.38 -0.67,-0.94 -0.67,-2.18 v 0 q 0,-1.4 0.75,-2.46 0.75,-1.05 2.37,-2.04 v 0 q -1.99,-0.82 -3.25,-2.79 -1.25,-1.97 -1.25,-4.5 v 0 q 0,-4.22 2.53,-6.5 2.53,-2.29 7.17,-2.29 v 0 q 2.02,0 3.64,0.47 z m -11.61,30 v 0 q 0,2.09 1.76,3.17 1.76,1.07 5.04,1.07 v 0 q 4.9,0 7.25,-1.46 2.36,-1.46 2.36,-3.97 v 0 q 0,-2.09 -1.29,-2.9 -1.29,-0.81 -4.85,-0.81 v 0 h -4.66 q -2.65,0 -4.13,1.27 -1.48,1.27 -1.48,3.63 z m 2.11,-21.77 v 0 q 0,2.69 1.53,4.08 1.52,1.38 4.24,1.38 v 0 q 5.69,0 5.69,-5.53 v 0 q 0,-5.79 -5.76,-5.79 v 0 q -2.74,0 -4.22,1.48 -1.48,1.47 -1.48,4.38 z m 27.54687,-8.23 V 0 h -3.89 v -25.69 z m -4.22,-6.96 v 0 q 0,-1.33 0.65,-1.96 0.66,-0.62 1.64,-0.62 v 0 q 0.94,0 1.62,0.64 0.68,0.63 0.68,1.94 v 0 q 0,1.31 -0.68,1.96 -0.68,0.64 -1.62,0.64 v 0 q -0.98,0 -1.64,-0.64 -0.65,-0.65 -0.65,-1.96 z M -107.14828,0 h -3.89 v -16.62 q 0,-3.14 -1.43,-4.68 -1.43,-1.55 -4.47,-1.55 v 0 q -4.03,0 -5.91,2.18 -1.87,2.18 -1.87,7.19 v 0 V 0 h -3.89 v -25.69 h 3.16 l 0.63,3.52 h 0.19 q 1.19,-1.9 3.35,-2.94 2.16,-1.05 4.81,-1.05 v 0 q 4.64,0 6.98,2.24 2.34,2.24 2.34,7.16 v 0 z m 20.140936,-25.69 h 8.88 v 2.46 l -4.76,0.57 q 0.66,0.82 1.17,2.14 0.52,1.32 0.52,2.99 v 0 q 0,3.77 -2.58,6.02 -2.58,2.25 -7.08,2.25 v 0 q -1.15,0 -2.15,-0.19 v 0 q -2.49,1.32 -2.49,3.31 v 0 q 0,1.05 0.87,1.56 0.87,0.5 2.98,0.5 v 0 h 4.54 q 4.17,0 6.41,1.76 2.24,1.76 2.24,5.11 v 0 q 0,4.26 -3.42,6.5 -3.42,2.24 -9.99,2.24 v 0 q -5.03,0 -7.77,-1.87 -2.729996,-1.88 -2.729996,-5.3 v 0 q 0,-2.34 1.5,-4.06 1.499996,-1.71 4.219996,-2.32 v 0 q -0.98,-0.44 -1.65,-1.38 -0.67,-0.94 -0.67,-2.18 v 0 q 0,-1.4 0.75,-2.46 0.75,-1.05 2.37,-2.04 v 0 q -1.99,-0.82 -3.25,-2.79 -1.249996,-1.97 -1.249996,-4.5 v 0 q 0,-4.22 2.529996,-6.5 2.53,-2.29 7.17,-2.29 v 0 q 2.02,0 3.64,0.47 z m -11.61,30 v 0 q 0,2.09 1.76,3.17 1.76,1.07 5.04,1.07 v 0 q 4.9,0 7.25,-1.46 2.36,-1.46 2.36,-3.97 v 0 q 0,-2.09 -1.29,-2.9 -1.29,-0.81 -4.85,-0.81 v 0 h -4.66 q -2.65,0 -4.13,1.27 -1.48,1.27 -1.48,3.63 z m 2.11,-21.77 v 0 q 0,2.69 1.53,4.08 1.52,1.38 4.24,1.38 v 0 q 5.69,0 5.69,-5.53 v 0 q 0,-5.79 -5.76,-5.79 v 0 q -2.74,0 -4.22,1.48 -1.48,1.47 -1.48,4.38 z m 58.295625,4.59 v 0 q 0,6.28 -3.17,9.81 -3.16,3.53 -8.74,3.53 v 0 q -3.44,0 -6.12,-1.62 -2.67,-1.62 -4.12,-4.64 -1.45,-3.02 -1.45,-7.08 v 0 q 0,-6.28 3.14,-9.78 3.14,-3.51 8.71,-3.51 v 0 q 5.4,0 8.57,3.59 3.18,3.59 3.18,9.7 z m -19.57,0 v 0 q 0,4.92 1.97,7.5 1.96,2.58 5.78,2.58 v 0 q 3.82,0 5.81,-2.57 1.98,-2.56 1.98,-7.51 v 0 q 0,-4.9 -1.98,-7.44 -1.99,-2.54 -5.85,-2.54 v 0 q -3.82,0 -5.77,2.51 -1.94,2.5 -1.94,7.47 z m 38.102188,-13.29 v 0 q 1.71,0 3.07,0.28 v 0 l -0.53,3.61 q -1.6,-0.35 -2.82,-0.35 v 0 q -3.11,0 -5.33,2.53 -2.21,2.54 -2.21,6.31 v 0 V 0 h -3.89 v -25.69 h 3.21 l 0.44,4.76 h 0.19 q 1.43,-2.51 3.44,-3.87 2.02,-1.36 4.43,-1.36 z M 6.2042187,0 l -0.52,-3.45 h -0.21 q -2.7,3.92 -8.06,3.92 v 0 q -5.0399999,0 -7.8399997,-3.45 -2.8,-3.44 -2.8,-9.79 v 0 q 0,-6.36 2.81,-9.87 2.8099998,-3.52 7.8299997,-3.52 v 0 q 5.22,0 8.0100001,3.8 v 0 h 0.3099999 l -0.17,-1.85 -0.09,-1.81 v -10.45 h 3.89 V 0 Z m -8.3,-2.79 v 0 q 3.98,0 5.78,-2.17 1.79,-2.17 1.79,-6.99 v 0 -0.82 q 0,-5.46 -1.82,-7.8 -1.81,-2.33 -5.8,-2.33 v 0 q -3.42,0 -5.24,2.66 -1.81,2.66 -1.81,7.51 v 0 q 0,4.93 1.8,7.43 1.8100001,2.51 5.3,2.51 z M 28.468281,0.47 v 0 q -5.7,0 -8.99,-3.47 -3.29,-3.47 -3.29,-9.63 v 0 q 0,-6.21 3.05,-9.87 3.06,-3.66 8.22,-3.66 v 0 q 4.83,0 7.64,3.18 2.81,3.18 2.81,8.38 v 0 2.46 h -17.69 q 0.11,4.52 2.28,6.87 2.17,2.34 6.11,2.34 v 0 q 4.15,0 8.2,-1.73 v 0 3.46 q -2.06,0.9 -3.9,1.28 -1.84,0.39 -4.44,0.39 z m -1.06,-23.37 v 0 q -3.09,0 -4.93,2.02 -1.84,2.01 -2.17,5.58 v 0 h 13.43 q 0,-3.68 -1.64,-5.64 -1.64,-1.96 -4.69,-1.96 z m 28.849688,-3.26 v 0 q 1.71,0 3.07,0.28 v 0 l -0.53,3.61 q -1.6,-0.35 -2.82,-0.35 v 0 q -3.11,0 -5.33,2.53 -2.21,2.54 -2.21,6.31 v 0 V 0 h -3.89 v -25.69 h 3.21 l 0.44,4.76 h 0.19 q 1.43,-2.51 3.44,-3.87 2.02,-1.36 4.43,-1.36 z m 28.6425,23.42 v 0 q 1.03,0 1.99,-0.15 0.97,-0.16 1.53,-0.32 v 0 2.98 q -0.64,0.3 -1.87,0.5 -1.23,0.2 -2.21,0.2 v 0 q -7.45,0 -7.45,-7.85 v 0 -15.28 h -3.68 v -1.88 l 3.68,-1.62 1.64,-5.48 h 2.25 v 5.95 h 7.45 v 3.03 h -7.45 v 15.11 q 0,2.32 1.1,3.57 1.1,1.24 3.02,1.24 z m 30.825311,-10.13 v 0 q 0,6.28 -3.17,9.81 -3.16,3.53 -8.74,3.53 v 0 q -3.44,0 -6.119999,-1.62 -2.67,-1.62 -4.12,-4.64 -1.45,-3.02 -1.45,-7.08 v 0 q 0,-6.28 3.14,-9.78 3.14,-3.51 8.709999,-3.51 v 0 q 5.4,0 8.57,3.59 3.18,3.59 3.18,9.7 z m -19.569999,0 v 0 q 0,4.92 1.97,7.5 1.959999,2.58 5.779999,2.58 v 0 q 3.82,0 5.81,-2.57 1.98,-2.56 1.98,-7.51 v 0 q 0,-4.9 -1.98,-7.44 -1.99,-2.54 -5.85,-2.54 v 0 q -3.82,0 -5.769999,2.51 -1.94,2.5 -1.94,7.47 z M 145.27672,0.47 v 0 q -5.58,0 -8.64,-3.43 -3.05,-3.44 -3.05,-9.72 v 0 q 0,-6.45 3.1,-9.96 3.11,-3.52 8.85,-3.52 v 0 q 1.85,0 3.7,0.4 1.85,0.4 2.91,0.94 v 0 l -1.2,3.3 q -1.29,-0.51 -2.81,-0.85 -1.52,-0.34 -2.7,-0.34 v 0 q -7.82,0 -7.82,9.98 v 0 q 0,4.74 1.91,7.27 1.91,2.53 5.66,2.53 v 0 q 3.21,0 6.58,-1.38 v 0 3.44 q -2.58,1.34 -6.49,1.34 z M 179.32828,0 h -3.89 v -16.62 q 0,-3.14 -1.43,-4.68 -1.43,-1.55 -4.47,-1.55 v 0 q -4.06,0 -5.92,2.2 -1.86,2.2 -1.86,7.22 v 0 V 0 h -3.89 v -36.47 h 3.89 v 11.04 q 0,1.99 -0.19,3.3 v 0 h 0.23 q 1.15,-1.85 3.27,-2.91 2.12,-1.07 4.84,-1.07 v 0 q 4.71,0 7.07,2.24 2.35,2.24 2.35,7.11 v 0 z m 26.67094,0 h -2.88 l -0.77,-3.66 h -0.19 q -1.92,2.42 -3.83,3.27 -1.91,0.86 -4.77,0.86 v 0 q -3.82,0 -5.99,-1.97 -2.17,-1.97 -2.17,-5.6 v 0 q 0,-7.78 12.45,-8.16 v 0 l 4.36,-0.14 v -1.59 q 0,-3.03 -1.3,-4.47 -1.3,-1.44 -4.16,-1.44 v 0 q -3.21,0 -7.27,1.97 v 0 l -1.19,-2.98 q 1.89,-1.03 4.16,-1.61 2.26,-0.59 4.53,-0.59 v 0 q 4.6,0 6.81,2.04 2.21,2.04 2.21,6.54 v 0 z m -11.67,-2.74 v 0 q 3.64,0 5.71,-1.99 2.07,-2 2.07,-5.58 v 0 -2.32 l -3.89,0.16 q -4.64,0.17 -6.69,1.44 -2.05,1.28 -2.05,3.98 v 0 q 0,2.1 1.28,3.21 1.28,1.1 3.57,1.1 z m 41.86531,-10.13 v 0 q 0,6.28 -3.17,9.81 -3.16,3.53 -8.74,3.53 v 0 q -3.44,0 -6.12,-1.62 -2.67,-1.62 -4.12,-4.64 -1.45,-3.02 -1.45,-7.08 v 0 q 0,-6.28 3.14,-9.78 3.14,-3.51 8.71,-3.51 v 0 q 5.4,0 8.57,3.59 3.18,3.59 3.18,9.7 z m -19.57,0 v 0 q 0,4.92 1.97,7.5 1.96,2.58 5.78,2.58 v 0 q 3.82,0 5.81,-2.57 1.98,-2.56 1.98,-7.51 v 0 q 0,-4.9 -1.98,-7.44 -1.99,-2.54 -5.85,-2.54 v 0 q -3.82,0 -5.77,2.51 -1.94,2.5 -1.94,7.47 z m 42.96219,5.86 v 0 q 0,3.59 -2.68,5.53 -2.67,1.95 -7.5,1.95 v 0 q -5.11,0 -7.97,-1.62 v 0 -3.61 q 1.86,0.94 3.98,1.48 2.12,0.54 4.09,0.54 v 0 q 3.04,0 4.68,-0.97 1.65,-0.98 1.65,-2.97 v 0 q 0,-1.5 -1.31,-2.57 -1.3,-1.06 -5.07,-2.52 v 0 q -3.59,-1.33 -5.1,-2.33 -1.51,-0.99 -2.25,-2.26 -0.74,-1.27 -0.74,-3.02 v 0 q 0,-3.14 2.56,-4.96 2.55,-1.82 7.01,-1.82 v 0 q 4.15,0 8.11,1.69 v 0 l -1.39,3.17 q -3.86,-1.6 -7,-1.6 v 0 q -2.77,0 -4.18,0.87 -1.4,0.87 -1.4,2.39 v 0 q 0,1.03 0.52,1.76 0.53,0.72 1.7,1.38 1.18,0.66 4.5,1.9 v 0 q 4.57,1.66 6.18,3.35 1.61,1.69 1.61,4.24 z" />
    <path
       text="| for families"
       fill="#1d398f"
       transform="matrix(0.51195979,0,0,0.52872986,378.10172,340.13272)"
       space="preserve"
       text-anchor="middle"
       offset="0.5"
       font-scale="contain"
       font-size="48px"
       font-family="'Open Sans'"
       data-fl-textpath=""
       id="_ehe1g4nge_26"
       d="m -133.46297,11.63 v -48.1 h 3.3 v 48.1 z m 43.026251,-37.32 v 3.03 h -6.54 V 0 h -3.890001 v -22.66 h -4.59 v -1.76 l 4.59,-1.41 v -1.43 q 0,-9.47 8.280001,-9.47 v 0 q 2.04,0 4.78,0.82 v 0 l -1.01,3.12 q -2.25,-0.73 -3.84,-0.73 v 0 q -2.21,0 -3.26,1.47 -1.06,1.46 -1.06,4.7 v 0 1.66 z m 26.865625,12.82 v 0 q 0,6.28 -3.17,9.81 -3.16,3.53 -8.74,3.53 v 0 q -3.44,0 -6.12,-1.62 -2.67,-1.62 -4.12,-4.64 -1.45,-3.02 -1.45,-7.08 v 0 q 0,-6.28 3.14,-9.78 3.14,-3.51 8.71,-3.51 v 0 q 5.4,0 8.57,3.59 3.18,3.59 3.18,9.7 z m -19.57,0 v 0 q 0,4.92 1.97,7.5 1.96,2.58 5.78,2.58 v 0 q 3.82,0 5.81,-2.57 1.98,-2.56 1.98,-7.51 v 0 q 0,-4.9 -1.98,-7.44 -1.99,-2.54 -5.85,-2.54 v 0 q -3.82,0 -5.77,2.51 -1.94,2.5 -1.94,7.47 z m 38.102188,-13.29 v 0 q 1.71,0 3.07,0.28 v 0 l -0.53,3.61 q -1.6,-0.35 -2.82,-0.35 v 0 q -3.11,0 -5.33,2.53 -2.21,2.54 -2.21,6.31 v 0 V 0 h -3.89 v -25.69 h 3.21 l 0.44,4.76 h 0.19 q 1.43,-2.51 3.44,-3.87 2.02,-1.36 4.43,-1.36 z m 31.9225,0.47 v 3.03 h -6.54 V 0 h -3.89 v -22.66 h -4.59 v -1.76 l 4.59,-1.41 v -1.43 q 0,-9.47 8.28,-9.47 v 0 q 2.04,0 4.78,0.82 v 0 l -1.01,3.12 q -2.25,-0.73 -3.84,-0.73 v 0 q -2.21,0 -3.26,1.47 -1.06,1.46 -1.06,4.7 v 0 1.66 z M 10.249219,0 H 7.3692188 L 6.5992187,-3.66 H 6.4092188 q -1.9200001,2.42 -3.83,3.27 -1.91000005,0.86 -4.7700001,0.86 v 0 q -3.8199999,0 -5.9899999,-1.97 -2.1699998,-1.97 -2.1699998,-5.6 v 0 q 0,-7.78 12.4499998,-8.16 v 0 l 4.36,-0.14 v -1.59 q 0,-3.03 -1.3,-4.47 -1.3,-1.44 -4.16000005,-1.44 v 0 q -3.21000005,0 -7.26999995,1.97 v 0 l -1.19,-2.98 q 1.89,-1.03 4.1599999,-1.61 2.26,-0.59 4.53,-0.59 v 0 q 4.6,0 6.8100001,2.04 2.2100002,2.04 2.2100002,6.54 v 0 z M -1.4207812,-2.74 v 0 q 3.6399999,0 5.7099999,-1.99 2.07,-2 2.07,-5.58 v 0 -2.32 l -3.89,0.16 q -4.6399999,0.17 -6.6899999,1.44 -2.05,1.28 -2.05,3.98 v 0 q 0,2.1 1.2799999,3.21 1.28,1.1 3.5700001,1.1 z M 54.904531,0 h -3.89 v -16.71 q 0,-3.07 -1.32,-4.61 -1.31,-1.53 -4.07,-1.53 v 0 q -3.64,0 -5.37,2.08 -1.73,2.09 -1.73,6.43 v 0 V 0 h -3.9 v -16.71 q 0,-3.07 -1.31,-4.61 -1.31,-1.53 -4.1,-1.53 v 0 q -3.66,0 -5.36,2.19 -1.69,2.19 -1.69,7.18 v 0 V 0 h -3.89 v -25.69 h 3.16 l 0.63,3.52 h 0.19 q 1.1,-1.88 3.1,-2.93 2.01,-1.06 4.49,-1.06 v 0 q 6.03,0 7.88,4.36 v 0 h 0.19 q 1.14,-2.01 3.32,-3.18 2.18,-1.18 4.97,-1.18 v 0 q 4.36,0 6.53,2.24 2.17,2.24 2.17,7.16 v 0 z M 66.812969,-25.69 V 0 h -3.89 v -25.69 z m -4.22,-6.96 v 0 q 0,-1.33 0.65,-1.96 0.66,-0.62 1.64,-0.62 v 0 q 0.94,0 1.62,0.64 0.68,0.63 0.68,1.94 v 0 q 0,1.31 -0.68,1.96 -0.68,0.64 -1.62,0.64 v 0 q -0.98,0 -1.64,-0.64 -0.65,-0.65 -0.65,-1.96 z m 16.360625,-3.82 V 0 h -3.89 v -36.47 z m 12.140625,10.78 V 0 h -3.89 v -25.69 z m -4.22,-6.96 v 0 q 0,-1.33 0.65,-1.96 0.66,-0.62 1.64,-0.62 v 0 q 0.94,0 1.62,0.64 0.68,0.63 0.68,1.94 v 0 q 0,1.31 -0.68,1.96 -0.68,0.64 -1.62,0.64 v 0 q -0.98,0 -1.64,-0.64 -0.65,-0.65 -0.65,-1.96 z M 110.19484,0.47 v 0 q -5.7,0 -8.99,-3.47 -3.289996,-3.47 -3.289996,-9.63 v 0 q 0,-6.21 3.049996,-9.87 3.06,-3.66 8.22,-3.66 v 0 q 4.83,0 7.64,3.18 2.81,3.18 2.81,8.38 v 0 2.46 h -17.69 q 0.11,4.52 2.28,6.87 2.17,2.34 6.11,2.34 v 0 q 4.15,0 8.2,-1.73 v 0 3.46 q -2.06,0.9 -3.9,1.28 -1.84,0.39 -4.44,0.39 z m -1.06,-23.37 v 0 q -3.09,0 -4.93,2.02 -1.84,2.01 -2.17,5.58 v 0 h 13.43 q 0,-3.68 -1.64,-5.64 -1.64,-1.96 -4.69,-1.96 z m 33.70969,15.89 v 0 q 0,3.59 -2.68,5.53 -2.67,1.95 -7.5,1.95 v 0 q -5.11,0 -7.97,-1.62 v 0 -3.61 q 1.86,0.94 3.98,1.48 2.12,0.54 4.09,0.54 v 0 q 3.04,0 4.68,-0.97 1.65,-0.98 1.65,-2.97 v 0 q 0,-1.5 -1.31,-2.57 -1.3,-1.06 -5.07,-2.52 v 0 q -3.59,-1.33 -5.1,-2.33 -1.51,-0.99 -2.25,-2.26 -0.74,-1.27 -0.74,-3.02 v 0 q 0,-3.14 2.56,-4.96 2.55,-1.82 7.01,-1.82 v 0 q 4.15,0 8.11,1.69 v 0 l -1.39,3.17 q -3.86,-1.6 -7,-1.6 v 0 q -2.77,0 -4.18,0.87 -1.4,0.87 -1.4,2.39 v 0 q 0,1.03 0.52,1.76 0.53,0.72 1.7,1.38 1.18,0.66 4.5,1.9 v 0 q 4.57,1.66 6.18,3.35 1.61,1.69 1.61,4.24 z" />
  </g>
</svg>
