<svg xmlns="http://www.w3.org/2000/svg" width="512" height="512" viewBox="0 0 512 512" data-svgdocument="" id="_QPbOH8Bvnff-nxIn-ryGS" class="fl-svgdocument" x="0" y="0" style="overflow: hidden;"
    xmlns:xlink="http://www.w3.org/1999/xlink">
    <defs id="_-Pf6sSTUS_QCObCL12lGl" transform="matrix(1.2307695150375366, 0, 0, 1.2307695150375366, -59.07701110839844, -67.29283142089844)"/>
    <g id="trauma-icon-circle" transform="matrix(0.3176068961620331, 0.9482234716415405, -0.9482234716415405, 0.3176068961620331, 395.31976318359375, 23.34226417541504)">
        <path id="_ehe1g4nge_55" d="M211.4,172.1c2.8-3.3,5.9-7.7,3.9-11.6c11.2-6.6,21.1-15.3,29.2-25.5c-4.4,3.5-9.2,6.3-14.3,8.5   c38.3-37.8,95.9-55,148.8-44.4c-42.6-1.6-86,9.7-121.2,33.7c-35.3,23.9-62.1,60.6-72.4,102c15.6-45.3,48.5-84.4,90.5-107.4   c-3.3,3.4-6.6,6.9-10,10.3c16-6.6,30.5-16.5,46.4-23.4c46.7-20.4,102.9-12.7,146.4,13.9c43.5,26.6,74.8,70.2,93,117.8   c8,20.8,13.6,43.9,6.5,65c-1.6-27.5-10.6-54-22.3-78.9c-19.4-41.5-47.2-80.4-86.3-104.2c-39.1-23.7-90.8-30-130.8-7.7   c20.5-2.2,41.2-3.4,61.5-0.5c38.2,5.4,73.5,25.4,100.3,53.1c26.7,27.8,45.2,62.9,56.1,99.8c10.6,36.1,14.1,75.9,0.5,111.1   c39.7-64.2,33.1-153.6-15.4-211.3c-20.3-24.1-46.6-42.6-75-56c-32.8-15.4-68.8-24.3-105-23.3s-72.4,12.3-101.3,34.1   c24-21.2,55.3-33.2,87.1-36.5c31.9-3.2,64.2,2,94.5,12.2c63,21.4,120.4,68.6,138.9,132.5c4.7,16.4,6.8,33.4,8.7,50.4   c1.6,14.7,2.9,29.4,2.6,44.2c-1.4,73.1-48.1,144.5-116.2,171.2c-19.3,7.5-39.7,11.6-60.2,14.5c-32.8,4.6-66.8,6-98.4-3.8   c-16.3-5.1-31.5-13-45.6-22.7c-58.4-40-95.3-109.7-95.3-180.5c0-12.6,1.1-25.1,2.8-37.5c1.5-11.4,3.5-22.7,6.8-33.7   c5-16.2,12.8-31.5,23.1-45c1.8-1.1,3.6-2.3,5.3-3.5c-23.7,50.1-37.8,109.3-16.1,160.4c-7.8-33.3-8.3-68.2-1.4-101.6   c2.2-0.8,4.4-1.7,6.5-2.6c0.1-2.2,0.2-4.3,0.3-6.5c-1.6,1.8-3.1,3.6-4.7,5.3C182.9,217.5,194.3,192.4,211.4,172.1 M227.5,170.8   c6.2-4.2,12.4-8.4,18.6-12.6c-3.9,7.9-11.1,14.1-19.5,16.9c-39,40.3-51,100.4-46.4,156.2c1.8,21.1,6.1,43,19.7,59.2   c-9.5-39-10-80.2-1.3-119.4c1.7-0.1,2.3,2.1,2.3,3.8c0.7,26.3-3.8,52.6-1.9,78.9c1.9,26.2,11.7,53.9,33.7,68.2   c17.2,11.2,34.3,22.4,51.4,33.6c-40-12.8-74.9-40.6-96.5-76.6c5.8,15.7,13.9,30.6,23.9,44c-1.3-3.6-2.5-7.3-3.8-11   c10.1,9.5,20.3,18.8,30.4,28.2c7.4,6.9,19,13.9,26.6,7.3c1.2,2.5-1,5.6-3.7,6.3c-2.7,0.8-5.6,0-8.3-0.8c12.1,8.7,24.7,16.7,37.7,24   c-1.9,0.3-2.5,3.1-1.3,4.7c1.2,1.6,3.2,2,5.1,2.5c47.7,10.3,98.5,6.5,144.1-11.1c-39.2,9.2-81,11.3-119-2   c-32.1-11.2-60.2-33.3-78.6-61.8c-5.9-9.2-10.8-18.9-15.3-28.8c-14.5-32.6-23.7-68.2-21.1-103.8c2.6-35.6,18.2-71.1,46.2-93.1   c2.9-2.3,6.5-4.5,10.1-3.6c-27.6,20-44,53.1-48.3,86.9c-4.3,33.9,2.7,68.3,15,100.1c8.8,22.5,20.5,44.3,36.6,62.3   c6.9,7.7,14.7,14.7,23.6,20c16.3,9.8,35.6,13.5,54.5,15.9c25.7,3.3,51.6,4.7,77.5,4.1c-32.7,7.7-66.9,2.2-100-3.3   c56.2,21.1,122.1,8.2,170.4-27.3c9.6-7.1,18.7-15,26-24.5c11.2-14.6,17.9-32.4,21.3-50.5c8.8-47.2-3.8-96.5-26.7-138.8   c-15.9-29.4-37-56.6-64.8-75.1c-26-17.2-56.9-26.3-88-28C309.9,119,259.3,134.8,227.5,170.8 M321.4,495.6   c21.5,5.4,43.2,9.3,65.2,11.9c-27,6.2-54.8-3.3-80.9-12.6c-15.4-5.4-31-11-45.3-19c-34.6-19.2-60.6-52.1-75.7-88.7   c-2.6-6.5-5-13-7-19.6c-0.2-0.8-0.8,1.1,0,0.7c0.8-0.3,0.7-1.5,0.3-2.3c-9-21.7-14.5-45-16.2-68.4c-1.7,35.4,7.1,71,23.1,102.7   c17.4,34.5,43.5,64.8,76.3,85.3c32.7,20.5,72.1,30.9,110.5,27.2c54-5.3,101.4-36.8,144.9-69.1c-19.2,25.4-48.3,41.1-76.6,55.9   c48.9-13.7,88.1-52.4,111.7-97.4c-11.7,20-30,35.7-49.9,47.5c-20,11.8-41.9,20-63.8,27.9c-9.6,3.5-19.3,6.9-29.2,9.7   C380.5,495.4,350.7,498.2,321.4,495.6 M521.4,428c5-4.7,9.9-9.5,13.9-14.9c6.3-8.7,10.5-18.8,14.5-28.8   c5.4-13.6,10.9-27.3,12.3-41.9c-2.6,2.3-3.5,5.7-4.5,9c-13.3,46.1-46.2,86.3-88.9,108.3C488.8,455.2,506.1,442.1,521.4,428    M277,477c2.1,0.5,4.7,1.4,4.8,3.5c0.8-1.4,3.2-1.4,4.1,0c0.4-0.1,0.1-0.8-0.4-1c-3-1.6-6-3.2-8.9-4.8c-12.1-6.5-23.2-14.6-33.1-24   c-1.2,2.6-0.3,5.9,2,7.5c4.4,3.2,8.8,6.4,13.2,9.6C264,472.2,270.3,475.4,277,477 M565.8,325.8c-0.4,7.4-0.8,14.9-1.3,22.3   c-0.1,1-0.1,2-0.1,3c-0.1,1.8-0.2,3.6-0.4,5.3c-0.1,2.2-0.2,4.2-0.2,6.4c4.2-17,5.7-34.8,4.4-52.2c-0.5-0.2-1-0.5-1.4-0.8   C566.5,315.1,566.1,320.4,565.8,325.8 M177.1,216.2c-0.7,1.3-1.3,2.6-1.9,3.9c0.7,0.9,2-0.2,2.3-1.3c0.3-1,0.6-2.4,1.7-2.5   c-0.5-0.5-1-1-1.5-1.5c-0.2,0.4-0.4,1-0.2,1.4 M249.8,133.2c1-0.8,2-1.6,3-2.5c-1.7-0.7-3.9,0.2-4.6,2   C248.7,132.9,249.2,133.1,249.8,133.2 M252.9,128.5c2.2,0.5,4.7-0.1,6.5-1.6C257.1,126.8,254.8,127.3,252.9,128.5 M173.3,230   c-0.1-0.5-0.2-1-0.2-1.4c-1.9,0.7-2.8,3.3-1.7,5C171.8,232.3,172.4,231.1,173.3,230 M162,281c-0.5,0.7-0.1,1.9,0.8,2   c0.5-1.6,0.4-3.3-0.1-5c-1,0.5-1.3,1.9-0.7,2.8" fill="rgba(115,172,118,0.88)" transform="matrix(0.1957395076751709, 0, 0, 0.1957395076751709, 133.97669982910156, 259.7236022949219)"/>
        <path id="_ehe1g4nge_56" d="M229.4,144c0.2,0.3,0.4,0.7,0.6,1c-0.9,1.3-2.6,1.9-4.1,1.5c0.8-1.1,2-1.9,3.3-2.2" fill="rgba(115,172,118,0.88)" transform="matrix(0.1957395076751709, 0, 0, 0.1957395076751709, 133.97669982910156, 259.7236022949219)"/>
        <path id="_ehe1g4nge_57" d="M221.5,150.4c1.4-0.5,2.9-0.8,4.4-0.7c-0.3,2.2-4,2.8-4.9,0.7" fill="rgba(115,172,118,0.88)" transform="matrix(0.1957395076751709, 0, 0, 0.1957395076751709, 133.97669982910156, 259.7236022949219)"/>
        <path id="_ehe1g4nge_58" d="M216.5,145.8c0.9-1.4,2.6-2.4,4.4-2.2c0.4,1,0.1,2.2-0.7,2.9c-1.4,0.2-3.1,0.4-4.1-0.7" fill="rgba(115,172,118,0.88)" transform="matrix(0.1957395076751709, 0, 0, 0.1957395076751709, 133.97669982910156, 259.7236022949219)"/>
        <path id="_ehe1g4nge_59" d="M496.8,152.4c0.6-0.1,1.2,0.5,1.1,1.1c-0.1,0.6-0.8,1-1.4,0.8c-0.9-1-1.8-2.1-2.7-3.2c1-0.8,2.8-0.1,3,1.1" fill="rgba(115,172,118,0.88)" transform="matrix(0.1957395076751709, 0, 0, 0.1957395076751709, 133.97669982910156, 259.7236022949219)"/>
        <path id="_ehe1g4nge_60" d="M225.5,137.6c0.7-0.8,2.1-0.8,2.9-0.1c-1.3,1.3-3,2.2-4.8,2.8c-0.2-1.1,0.8-2.4,1.9-2.3" fill="rgba(115,172,118,0.88)" transform="matrix(0.1957395076751709, 0, 0, 0.1957395076751709, 133.97669982910156, 259.7236022949219)"/>
        <path id="_ehe1g4nge_61" d="M209.1,230.6c0.9-1.3,3.3-0.8,3.6,0.8c-1.2-0.2-2.5,0.2-3.3,1.1c-0.5,0.2-1.3-0.2-1.3-0.8   c-0.1-0.5,0.5-1.1,1.1-1" fill="rgba(115,172,118,0.88)" transform="matrix(0.1957395076751709, 0, 0, 0.1957395076751709, 133.97669982910156, 259.7236022949219)"/>
        <path id="_ehe1g4nge_62" d="M266.3,166.6c0.5-0.2,1.2-0.4,1.7-0.2c0.6,0.2,0.9,1.1,0.5,1.5c-1.9,1.2-4.1,1.9-6.3,2   C263.2,168.5,264.7,167.4,266.3,166.6" fill="rgba(115,172,118,0.88)" transform="matrix(0.1957395076751709, 0, 0, 0.1957395076751709, 133.97669982910156, 259.7236022949219)"/>
        <path id="_ehe1g4nge_63" d="M295.8,479.1c1,0.7,2.1,1.4,3.1,2.1c-2.2,0.9-4.8,0.4-6.6-1.2c-0.4-0.7,0.4-1.7,1.1-1.7   C294.3,478.2,295.1,478.7,295.8,479.1" fill="rgba(115,172,118,0.88)" transform="matrix(0.1957395076751709, 0, 0, 0.1957395076751709, 133.97669982910156, 259.7236022949219)"/>
        <path id="_ehe1g4nge_64" d="M250.1,157.4c-0.5-1.5-0.1-3.3,1.1-4.4c0.8-0.2,1.6-0.8,1.9-1.7c1.3,0.5,2.5,1,3.8,1.5   C254.7,154.3,252.4,155.8,250.1,157.4" fill="rgba(115,172,118,0.88)" transform="matrix(0.1957395076751709, 0, 0, 0.1957395076751709, 133.97669982910156, 259.7236022949219)"/>
        <path id="_ehe1g4nge_65" d="M201.3,264.8c0-0.6,0-1.2,0-1.8c1-0.5,2.1-0.5,3-0.1c-1.8,1.9-2.8,4.5-2.6,7.1c-1.1-0.8-2.3-1.7-3.5-2.5   c1-0.8,2.1-1.7,3.2-2.6" fill="rgba(115,172,118,0.88)" transform="matrix(0.1957395076751709, 0, 0, 0.1957395076751709, 133.97669982910156, 259.7236022949219)"/>
        <path id="_ehe1g4nge_66" d="M194.7,176.5c0.4-3.1,2.2-5.9,4.7-7.8c0.7-0.5,1.8-0.8,2.2-0.1c-2.2,2.2-4,4.7-5.3,7.5   C196,176.6,195.2,176.9,194.7,176.5" fill="rgba(115,172,118,0.88)" transform="matrix(0.1957395076751709, 0, 0, 0.1957395076751709, 133.97669982910156, 259.7236022949219)"/>
        <path id="_ehe1g4nge_67" d="M205,238.5c2-1.5,3.9-3,5.9-4.5c-0.5,1.9-1,3.6-1.5,5.5c-0.7,0.4-1.2,1.1-1.9,1.5c-0.7,0.4-1.7,0.5-2.2-0.2   c-0.4-0.7,0.7-1.7,1.1-1C206,239.4,205.5,239,205,238.5" fill="rgba(115,172,118,0.88)" transform="matrix(0.1957395076751709, 0, 0, 0.1957395076751709, 133.97669982910156, 259.7236022949219)"/>
        <path id="_ehe1g4nge_68" d="M281.2,161c-0.2,0.5-0.4,1-0.2,1.6c-1.6,0.3-3.1,0.6-4.5,0.9c-0.2,0.6-0.4,1.2-0.6,1.8   c-1.2-0.1-2.4-0.1-3.5-0.1c-1-0.5,0-1.9,1-2.4c2-1,4.1-1.6,6.3-1.9c-0.3-0.5-0.6-0.9-0.9-1.4c1.6-1.3,3.5-2.2,5.6-2.8   c0.4,0.7,0.5,1.5,0.3,2.3c-0.7,0.3-1.4,0.4-2.1,0.2c0.1,0.5,0.2,1,0.3,1.6C282.2,161,281.7,161.1,281.2,161" fill="rgba(115,172,118,0.88)" transform="matrix(0.1957395076751709, 0, 0, 0.1957395076751709, 133.97669982910156, 259.7236022949219)"/>
        <path id="_ehe1g4nge_69" d="M203,170.4c0.8-0.5,1.9-0.7,2.8-0.5c-0.4-0.5-0.7-1-1-1.5c1-0.2,2-0.4,3.1-0.5c0.4-1,0.4-2.2,0-3.2   c1.1-0.1,2.3,0.1,3.3,0.5c0.3,0.4,0.4,1,0.3,1.5c-0.5,0.2-1.1,0.4-1.7,0.6c-0.2,1-0.5,2-0.7,3c-0.5,0.3-1.3,0.4-1.9,0.2   c-0.9,5.4-6.8,8.5-8.9,13.5c-0.7,1.7-1.4,3.9-3.2,3.9c-0.5-0.6-0.4-1.7,0.3-2.2c-0.7-0.2-1.3-0.4-1.9-0.6c-0.1-1.1,1.7-0.8,2.6-0.1   c0.8-0.7,0.1-2.3-0.9-2.3c1.1-0.9,1.8-2.3,2-3.7c1.1,0.1,2.2-0.3,2.9-1.1c-0.8,0.2-1.7-0.4-1.9-1.3c1.6,0.3,3.2-1.2,3.1-2.8   c1.2-0.7,2.4-1.4,3.6-2.1C204.4,171.4,203.7,170.9,203,170.4" fill="rgba(115,172,118,0.88)" transform="matrix(0.1957395076751709, 0, 0, 0.1957395076751709, 133.97669982910156, 259.7236022949219)"/>
        <path id="_ehe1g4nge_70" d="M517.1,175.7c-2.2-3-4.5-5.9-7.3-8.4c-3.9-3.5-8.9-6.6-9.7-11.8c23.5,19.9,41.6,46.2,51.7,75.3   c0.9,0.8-0.1,2.6-1.2,2.3C541.8,212.8,530.5,193.4,517.1,175.7" fill="rgba(115,172,118,0.88)" transform="matrix(0.1957395076751709, 0, 0, 0.1957395076751709, 133.97669982910156, 259.7236022949219)"/>
        <path id="_ehe1g4nge_71" d="M253.1,159.9c4.1-3.3,8.8-6.4,10.5-11.4c0.5-1.4,1.9-2.5,3.2-3.3c20.2-12.7,43.8-19.7,67.6-20.1   c-11.9,3.2-23.7,6.3-35.6,9.5c-18.5,4.9-32.1,20.2-44.6,34.8c-10.8,12.7-21.7,25.4-32.5,38.2c-1.3,3.5-2.5,7.1-3.8,10.6   c-0.5,1.6-1.1,3.2-2.5,4.2c-1.3,1-3.5,1-4.3-0.5c4.8-8.4,9.6-16.9,14.5-25.4C233.4,183.3,241.2,169.7,253.1,159.9" fill="rgba(115,172,118,0.88)" transform="matrix(0.1957395076751709, 0, 0, 0.1957395076751709, 133.97669982910156, 259.7236022949219)"/>
    </g>
    <g id="trauma-icon-heart" transform="matrix(1, 0, 0, 1, -47.580322265625, 3.1236042976379395)">
        <path id="_ehe1g4nge_73" d="M34.567,25.676c5.14,0,9.95,2.587,12.808,6.82l-3.681,6.441l-0.717,1.255l0.966,1.075l4.915,5.467   l-4.454,9.486l-0.602,1.282l1.01,0.994l3.971,3.908l-2.849,5.547l-0.672,1.308l1.048,1.031l2.984,2.937l-1.783,1.812l-0.806,0.819   l0.302,1.109l0.544,1.997c-11.023-3.877-28.278-18.409-28.433-37.716c-0.033-4.126,1.542-8.018,4.436-10.959   c2.894-2.941,6.76-4.579,10.886-4.612L34.567,25.676 M34.567,23.676c-0.048,0-0.095,0-0.143,0.001   c-9.636,0.078-17.384,7.952-17.306,17.587c0.181,22.549,22.157,38.423,32.982,40.471c0.085-0.017,0.176-0.043,0.262-0.062   l-1.426-5.231l3.186-3.238l-4.41-4.34l3.521-6.855l-5.019-4.939l5.018-10.687l-5.802-6.453l4.273-7.476   C46.691,27.206,41.036,23.676,34.567,23.676L34.567,23.676z" fill="#1d398f" transform="matrix(0.6550731062889099, 0, 0, 0.6550731062889099, 171.8838653564453, 284.7986145019531)"/>
        <path id="_ehe1g4nge_74" d="M67.498,26.497c0.286,0,0.574,0.008,0.862,0.024c4.12,0.226,7.905,2.044,10.658,5.117   c2.753,3.073,4.145,7.035,3.918,11.155c-0.65,11.82-7.426,20.554-12.996,25.799c-6.229,5.866-13.181,9.471-18.032,10.768   l-0.455-2.21l2.527-2.264l1.49-1.334l-1.334-1.49l-3.147-3.513l3.192-5.356l0.753-1.263l-0.981-1.095l-3.753-4.19l4.999-9.108   l0.638-1.163l-0.823-1.04l-4.488-5.672l3.956-6.009C57.34,29.171,62.206,26.497,67.498,26.497 M67.498,24.497   c-6.128,0-11.587,3.196-14.702,8.078l-4.735,7.193l5.385,6.806l-5.681,10.35l4.698,5.245l-3.945,6.62l4.128,4.609l-3.383,3.031   l1.094,5.311c11.005-1.733,33.349-16.496,34.577-38.835c0.529-9.621-6.842-17.85-16.463-18.379   C68.144,24.505,67.82,24.497,67.498,24.497L67.498,24.497z" fill="#1d398f" transform="matrix(0.6550731062889099, 0, 0, 0.6550731062889099, 171.8838653564453, 284.7986145019531)"/>
    </g>
    <path id="trauma-icon-text" text="trauma" fill="#f55e00" transform="matrix(0.3122406601905823, 0, 0, 0.3122406601905823, 158.2320556640625, 377.86260986328125)" space="preserve" text-anchor="middle" offset="0.5" font-scale="contain" font-size="48" font-family="Open Sans" data-fl-textpath="" d="M-69.59953125-2.74L-69.59953125-2.74Q-68.56953125-2.74 -67.60953125-2.89Q-66.63953125-3.05 -66.07953125-3.21L-66.07953125-3.21L-66.07953125-0.23Q-66.71953125 0.07 -67.94953125 0.27Q-69.17953125 0.47 -70.15953125 0.47L-70.15953125 0.47Q-77.60953125 0.47 -77.60953125-7.38L-77.60953125-7.38L-77.60953125-22.66L-81.28953125-22.66L-81.28953125-24.54L-77.60953125-26.16L-75.96953125-31.64L-73.71953125-31.64L-73.71953125-25.69L-66.26953125-25.69L-66.26953125-22.66L-73.71953125-22.66L-73.71953125-7.55Q-73.71953125-5.23 -72.61953125-3.98Q-71.51953125-2.74 -69.59953125-2.74ZM-49.23421875-26.16L-49.23421875-26.16Q-47.52421875-26.16 -46.16421875-25.88L-46.16421875-25.88L-46.694218750000005-22.27Q-48.29421875-22.62 -49.51421875-22.62L-49.51421875-22.62Q-52.62421875-22.62 -54.844218749999996-20.09Q-57.054218750000004-17.55 -57.054218750000004-13.78L-57.054218750000004-13.78L-57.054218750000004 0L-60.94421875 0L-60.94421875-25.69L-57.73421875-25.69L-57.29421875-20.93L-57.10421875-20.93Q-55.67421875-23.44 -53.66421875-24.8Q-51.64421875-26.16 -49.23421875-26.16ZM-22.68046875 0L-25.56046875 0L-26.33046875-3.66L-26.52046875-3.66Q-28.44046875-1.24 -30.350468749999997-0.39Q-32.26046875 0.47 -35.12046875 0.47L-35.12046875 0.47Q-38.94046875 0.47 -41.11046875-1.5Q-43.28046875-3.47 -43.28046875-7.1L-43.28046875-7.1Q-43.28046875-14.88 -30.83046875-15.26L-30.83046875-15.26L-26.47046875-15.4L-26.47046875-16.99Q-26.47046875-20.02 -27.77046875-21.46Q-29.07046875-22.9 -31.93046875-22.9L-31.93046875-22.9Q-35.14046875-22.9 -39.20046875-20.93L-39.20046875-20.93L-40.39046875-23.91Q-38.500468749999996-24.94 -36.23046875-25.52Q-33.97046875-26.11 -31.70046875-26.11L-31.70046875-26.11Q-27.10046875-26.11 -24.89046875-24.07Q-22.68046875-22.03 -22.68046875-17.53L-22.68046875-17.53L-22.68046875 0ZM-34.35046875-2.74L-34.35046875-2.74Q-30.71046875-2.74 -28.64046875-4.73Q-26.57046875-6.73 -26.57046875-10.31L-26.57046875-10.31L-26.57046875-12.63L-30.46046875-12.47Q-35.10046875-12.3 -37.15046875-11.03Q-39.20046875-9.75 -39.20046875-7.05L-39.20046875-7.05Q-39.20046875-4.95 -37.92046875-3.84Q-36.64046875-2.74 -34.35046875-2.74ZM-14.94515625-25.69L-11.005156249999999-25.69L-11.005156249999999-9.02Q-11.005156249999999-5.88 -9.57515625-4.34Q-8.14515625-2.79 -5.0951562500000005-2.79L-5.0951562500000005-2.79Q-1.0651562500000011-2.79  0.7948437499999983-4.99Q 2.6648437499999993-7.2  2.6648437499999993-12.19L 2.6648437499999993-12.19L 2.6648437499999993-25.69L 6.55484375-25.69L 6.55484375 0L 3.344843749999999 0L 2.7748437499999987-3.45L 2.5648437500000014-3.45Q 1.3748437500000001-1.55 -0.7451562500000009-0.54Q-2.87515625 0.47 -5.585156250000001 0.47L-5.585156250000001 0.47Q-10.27515625 0.47 -12.60515625-1.76Q-14.94515625-3.98 -14.94515625-8.88L-14.94515625-8.88L-14.94515625-25.69ZM 51.43578125 0L 47.54578125 0L 47.54578125-16.71Q 47.54578125-19.78  46.22578125-21.32Q 44.91578125-22.85  42.155781250000004-22.85L 42.155781250000004-22.85Q 38.51578125-22.85  36.78578125-20.77Q 35.055781249999995-18.68  35.055781249999995-14.34L 35.055781249999995-14.34L 35.055781249999995 0L 31.15578125 0L 31.15578125-16.71Q 31.15578125-19.78  29.84578125-21.32Q 28.53578125-22.85  25.74578125-22.85L 25.74578125-22.85Q 22.08578125-22.85  20.38578125-20.66Q 18.69578125-18.47  18.69578125-13.48L 18.69578125-13.48L 18.69578125 0L 14.805781249999999 0L 14.805781249999999-25.69L 17.96578125-25.69L 18.59578125-22.17L 18.78578125-22.17Q 19.88578125-24.05  21.88578125-25.1Q 23.89578125-26.16  26.37578125-26.16L 26.37578125-26.16Q 32.405781250000004-26.16  34.25578125-21.8L 34.25578125-21.8L 34.445781249999996-21.8Q 35.58578125-23.81  37.76578125-24.98Q 39.945781249999996-26.16  42.73578125-26.16L 42.73578125-26.16Q 47.09578125-26.16  49.26578125-23.92Q 51.43578125-21.68  51.43578125-16.76L 51.43578125-16.76L 51.43578125 0ZM 78.12421875 0L 75.24421875 0L 74.47421875-3.66L 74.28421875000001-3.66Q 72.36421874999999-1.24  70.45421875-0.39Q 68.54421875 0.47  65.68421875 0.47L 65.68421875 0.47Q 61.86421875 0.47  59.69421875-1.5Q 57.52421875-3.47  57.52421875-7.1L 57.52421875-7.1Q 57.52421875-14.88  69.97421875-15.26L 69.97421875-15.26L 74.33421875-15.4L 74.33421875-16.99Q 74.33421875-20.02  73.03421875000001-21.46Q 71.73421875-22.9  68.87421875-22.9L 68.87421875-22.9Q 65.66421875-22.9  61.60421875-20.93L 61.60421875-20.93L 60.41421875-23.91Q 62.304218750000004-24.94  64.57421875-25.52Q 66.83421875-26.11  69.10421875-26.11L 69.10421875-26.11Q 73.70421875-26.11  75.91421875-24.07Q 78.12421875-22.03  78.12421875-17.53L 78.12421875-17.53L 78.12421875 0ZM 66.45421875-2.74L 66.45421875-2.74Q 70.09421875-2.74  72.16421875-4.73Q 74.23421875-6.73  74.23421875-10.31L 74.23421875-10.31L 74.23421875-12.63L 70.34421875-12.47Q 65.70421875-12.3  63.65421875-11.03Q 61.60421875-9.75  61.60421875-7.05L 61.60421875-7.05Q 61.60421875-4.95  62.88421875-3.84Q 64.16421875-2.74  66.45421875-2.74Z"></path>
</svg>