<svg xmlns="http://www.w3.org/2000/svg" width="512" height="512" viewBox="0 0 512 512" data-svgdocument="" id="_QPbOH8Bvnff-nxIn-ryGS" class="fl-svgdocument" x="0" y="0" style="overflow: hidden;"
    xmlns:xlink="http://www.w3.org/1999/xlink">
    <defs id="_-Pf6sSTUS_QCObCL12lGl" transform="matrix(1.2307695150375366, 0, 0, 1.2307695150375366, -59.07701110839844, -67.29283142089844)"/>
    <g id="main-logo-circle" transform="matrix(0.497079998254776, 0, 0, 0.497079998254776, -28.500349044799805, -16.55093002319336)" fill="rgba(115,172,118,0.88)">
        <svg id="_ehe1g4nge_3"
            xmlns="http://www.w3.org/2000/svg"
            xmlns:xlink="http://www.w3.org/1999/xlink" version="1.1" x="0px" y="0px" viewBox="0 0 792 612" width="792" height="612">
            <g id="_ehe1g4nge_4" fill="rgba(115,172,118,0.88)">
                <desc id="_ehe1g4nge_5"
                    xmlns:shape="http://adobe.com/products/shape"/>
                <path id="_ehe1g4nge_6" d="M211.4,172.1c2.8-3.3,5.9-7.7,3.9-11.6c11.2-6.6,21.1-15.3,29.2-25.5c-4.4,3.5-9.2,6.3-14.3,8.5   c38.3-37.8,95.9-55,148.8-44.4c-42.6-1.6-86,9.7-121.2,33.7c-35.3,23.9-62.1,60.6-72.4,102c15.6-45.3,48.5-84.4,90.5-107.4   c-3.3,3.4-6.6,6.9-10,10.3c16-6.6,30.5-16.5,46.4-23.4c46.7-20.4,102.9-12.7,146.4,13.9c43.5,26.6,74.8,70.2,93,117.8   c8,20.8,13.6,43.9,6.5,65c-1.6-27.5-10.6-54-22.3-78.9c-19.4-41.5-47.2-80.4-86.3-104.2c-39.1-23.7-90.8-30-130.8-7.7   c20.5-2.2,41.2-3.4,61.5-0.5c38.2,5.4,73.5,25.4,100.3,53.1c26.7,27.8,45.2,62.9,56.1,99.8c10.6,36.1,14.1,75.9,0.5,111.1   c39.7-64.2,33.1-153.6-15.4-211.3c-20.3-24.1-46.6-42.6-75-56c-32.8-15.4-68.8-24.3-105-23.3s-72.4,12.3-101.3,34.1   c24-21.2,55.3-33.2,87.1-36.5c31.9-3.2,64.2,2,94.5,12.2c63,21.4,120.4,68.6,138.9,132.5c4.7,16.4,6.8,33.4,8.7,50.4   c1.6,14.7,2.9,29.4,2.6,44.2c-1.4,73.1-48.1,144.5-116.2,171.2c-19.3,7.5-39.7,11.6-60.2,14.5c-32.8,4.6-66.8,6-98.4-3.8   c-16.3-5.1-31.5-13-45.6-22.7c-58.4-40-95.3-109.7-95.3-180.5c0-12.6,1.1-25.1,2.8-37.5c1.5-11.4,3.5-22.7,6.8-33.7   c5-16.2,12.8-31.5,23.1-45c1.8-1.1,3.6-2.3,5.3-3.5c-23.7,50.1-37.8,109.3-16.1,160.4c-7.8-33.3-8.3-68.2-1.4-101.6   c2.2-0.8,4.4-1.7,6.5-2.6c0.1-2.2,0.2-4.3,0.3-6.5c-1.6,1.8-3.1,3.6-4.7,5.3C182.9,217.5,194.3,192.4,211.4,172.1 M227.5,170.8   c6.2-4.2,12.4-8.4,18.6-12.6c-3.9,7.9-11.1,14.1-19.5,16.9c-39,40.3-51,100.4-46.4,156.2c1.8,21.1,6.1,43,19.7,59.2   c-9.5-39-10-80.2-1.3-119.4c1.7-0.1,2.3,2.1,2.3,3.8c0.7,26.3-3.8,52.6-1.9,78.9c1.9,26.2,11.7,53.9,33.7,68.2   c17.2,11.2,34.3,22.4,51.4,33.6c-40-12.8-74.9-40.6-96.5-76.6c5.8,15.7,13.9,30.6,23.9,44c-1.3-3.6-2.5-7.3-3.8-11   c10.1,9.5,20.3,18.8,30.4,28.2c7.4,6.9,19,13.9,26.6,7.3c1.2,2.5-1,5.6-3.7,6.3c-2.7,0.8-5.6,0-8.3-0.8c12.1,8.7,24.7,16.7,37.7,24   c-1.9,0.3-2.5,3.1-1.3,4.7c1.2,1.6,3.2,2,5.1,2.5c47.7,10.3,98.5,6.5,144.1-11.1c-39.2,9.2-81,11.3-119-2   c-32.1-11.2-60.2-33.3-78.6-61.8c-5.9-9.2-10.8-18.9-15.3-28.8c-14.5-32.6-23.7-68.2-21.1-103.8c2.6-35.6,18.2-71.1,46.2-93.1   c2.9-2.3,6.5-4.5,10.1-3.6c-27.6,20-44,53.1-48.3,86.9c-4.3,33.9,2.7,68.3,15,100.1c8.8,22.5,20.5,44.3,36.6,62.3   c6.9,7.7,14.7,14.7,23.6,20c16.3,9.8,35.6,13.5,54.5,15.9c25.7,3.3,51.6,4.7,77.5,4.1c-32.7,7.7-66.9,2.2-100-3.3   c56.2,21.1,122.1,8.2,170.4-27.3c9.6-7.1,18.7-15,26-24.5c11.2-14.6,17.9-32.4,21.3-50.5c8.8-47.2-3.8-96.5-26.7-138.8   c-15.9-29.4-37-56.6-64.8-75.1c-26-17.2-56.9-26.3-88-28C309.9,119,259.3,134.8,227.5,170.8 M321.4,495.6   c21.5,5.4,43.2,9.3,65.2,11.9c-27,6.2-54.8-3.3-80.9-12.6c-15.4-5.4-31-11-45.3-19c-34.6-19.2-60.6-52.1-75.7-88.7   c-2.6-6.5-5-13-7-19.6c-0.2-0.8-0.8,1.1,0,0.7c0.8-0.3,0.7-1.5,0.3-2.3c-9-21.7-14.5-45-16.2-68.4c-1.7,35.4,7.1,71,23.1,102.7   c17.4,34.5,43.5,64.8,76.3,85.3c32.7,20.5,72.1,30.9,110.5,27.2c54-5.3,101.4-36.8,144.9-69.1c-19.2,25.4-48.3,41.1-76.6,55.9   c48.9-13.7,88.1-52.4,111.7-97.4c-11.7,20-30,35.7-49.9,47.5c-20,11.8-41.9,20-63.8,27.9c-9.6,3.5-19.3,6.9-29.2,9.7   C380.5,495.4,350.7,498.2,321.4,495.6 M521.4,428c5-4.7,9.9-9.5,13.9-14.9c6.3-8.7,10.5-18.8,14.5-28.8   c5.4-13.6,10.9-27.3,12.3-41.9c-2.6,2.3-3.5,5.7-4.5,9c-13.3,46.1-46.2,86.3-88.9,108.3C488.8,455.2,506.1,442.1,521.4,428    M277,477c2.1,0.5,4.7,1.4,4.8,3.5c0.8-1.4,3.2-1.4,4.1,0c0.4-0.1,0.1-0.8-0.4-1c-3-1.6-6-3.2-8.9-4.8c-12.1-6.5-23.2-14.6-33.1-24   c-1.2,2.6-0.3,5.9,2,7.5c4.4,3.2,8.8,6.4,13.2,9.6C264,472.2,270.3,475.4,277,477 M565.8,325.8c-0.4,7.4-0.8,14.9-1.3,22.3   c-0.1,1-0.1,2-0.1,3c-0.1,1.8-0.2,3.6-0.4,5.3c-0.1,2.2-0.2,4.2-0.2,6.4c4.2-17,5.7-34.8,4.4-52.2c-0.5-0.2-1-0.5-1.4-0.8   C566.5,315.1,566.1,320.4,565.8,325.8 M177.1,216.2c-0.7,1.3-1.3,2.6-1.9,3.9c0.7,0.9,2-0.2,2.3-1.3c0.3-1,0.6-2.4,1.7-2.5   c-0.5-0.5-1-1-1.5-1.5c-0.2,0.4-0.4,1-0.2,1.4 M249.8,133.2c1-0.8,2-1.6,3-2.5c-1.7-0.7-3.9,0.2-4.6,2   C248.7,132.9,249.2,133.1,249.8,133.2 M252.9,128.5c2.2,0.5,4.7-0.1,6.5-1.6C257.1,126.8,254.8,127.3,252.9,128.5 M173.3,230   c-0.1-0.5-0.2-1-0.2-1.4c-1.9,0.7-2.8,3.3-1.7,5C171.8,232.3,172.4,231.1,173.3,230 M162,281c-0.5,0.7-0.1,1.9,0.8,2   c0.5-1.6,0.4-3.3-0.1-5c-1,0.5-1.3,1.9-0.7,2.8" fill="rgba(115,172,118,0.88)"/>
                <path id="_ehe1g4nge_7" d="M229.4,144c0.2,0.3,0.4,0.7,0.6,1c-0.9,1.3-2.6,1.9-4.1,1.5c0.8-1.1,2-1.9,3.3-2.2" fill="rgba(115,172,118,0.88)"/>
                <path id="_ehe1g4nge_8" d="M221.5,150.4c1.4-0.5,2.9-0.8,4.4-0.7c-0.3,2.2-4,2.8-4.9,0.7" fill="rgba(115,172,118,0.88)"/>
                <path id="_ehe1g4nge_9" d="M216.5,145.8c0.9-1.4,2.6-2.4,4.4-2.2c0.4,1,0.1,2.2-0.7,2.9c-1.4,0.2-3.1,0.4-4.1-0.7" fill="rgba(115,172,118,0.88)"/>
                <path id="_ehe1g4nge_10" d="M496.8,152.4c0.6-0.1,1.2,0.5,1.1,1.1c-0.1,0.6-0.8,1-1.4,0.8c-0.9-1-1.8-2.1-2.7-3.2c1-0.8,2.8-0.1,3,1.1" fill="rgba(115,172,118,0.88)"/>
                <path id="_ehe1g4nge_11" d="M225.5,137.6c0.7-0.8,2.1-0.8,2.9-0.1c-1.3,1.3-3,2.2-4.8,2.8c-0.2-1.1,0.8-2.4,1.9-2.3" fill="rgba(115,172,118,0.88)"/>
                <path id="_ehe1g4nge_12" d="M209.1,230.6c0.9-1.3,3.3-0.8,3.6,0.8c-1.2-0.2-2.5,0.2-3.3,1.1c-0.5,0.2-1.3-0.2-1.3-0.8   c-0.1-0.5,0.5-1.1,1.1-1" fill="rgba(115,172,118,0.88)"/>
                <path id="_ehe1g4nge_13" d="M266.3,166.6c0.5-0.2,1.2-0.4,1.7-0.2c0.6,0.2,0.9,1.1,0.5,1.5c-1.9,1.2-4.1,1.9-6.3,2   C263.2,168.5,264.7,167.4,266.3,166.6" fill="rgba(115,172,118,0.88)"/>
                <path id="_ehe1g4nge_14" d="M295.8,479.1c1,0.7,2.1,1.4,3.1,2.1c-2.2,0.9-4.8,0.4-6.6-1.2c-0.4-0.7,0.4-1.7,1.1-1.7   C294.3,478.2,295.1,478.7,295.8,479.1" fill="rgba(115,172,118,0.88)"/>
                <path id="_ehe1g4nge_15" d="M250.1,157.4c-0.5-1.5-0.1-3.3,1.1-4.4c0.8-0.2,1.6-0.8,1.9-1.7c1.3,0.5,2.5,1,3.8,1.5   C254.7,154.3,252.4,155.8,250.1,157.4" fill="rgba(115,172,118,0.88)"/>
                <path id="_ehe1g4nge_16" d="M201.3,264.8c0-0.6,0-1.2,0-1.8c1-0.5,2.1-0.5,3-0.1c-1.8,1.9-2.8,4.5-2.6,7.1c-1.1-0.8-2.3-1.7-3.5-2.5   c1-0.8,2.1-1.7,3.2-2.6" fill="rgba(115,172,118,0.88)"/>
                <path id="_ehe1g4nge_17" d="M194.7,176.5c0.4-3.1,2.2-5.9,4.7-7.8c0.7-0.5,1.8-0.8,2.2-0.1c-2.2,2.2-4,4.7-5.3,7.5   C196,176.6,195.2,176.9,194.7,176.5" fill="rgba(115,172,118,0.88)"/>
                <path id="_ehe1g4nge_18" d="M205,238.5c2-1.5,3.9-3,5.9-4.5c-0.5,1.9-1,3.6-1.5,5.5c-0.7,0.4-1.2,1.1-1.9,1.5c-0.7,0.4-1.7,0.5-2.2-0.2   c-0.4-0.7,0.7-1.7,1.1-1C206,239.4,205.5,239,205,238.5" fill="rgba(115,172,118,0.88)"/>
                <path id="_ehe1g4nge_19" d="M281.2,161c-0.2,0.5-0.4,1-0.2,1.6c-1.6,0.3-3.1,0.6-4.5,0.9c-0.2,0.6-0.4,1.2-0.6,1.8   c-1.2-0.1-2.4-0.1-3.5-0.1c-1-0.5,0-1.9,1-2.4c2-1,4.1-1.6,6.3-1.9c-0.3-0.5-0.6-0.9-0.9-1.4c1.6-1.3,3.5-2.2,5.6-2.8   c0.4,0.7,0.5,1.5,0.3,2.3c-0.7,0.3-1.4,0.4-2.1,0.2c0.1,0.5,0.2,1,0.3,1.6C282.2,161,281.7,161.1,281.2,161" fill="rgba(115,172,118,0.88)"/>
                <path id="_ehe1g4nge_20" d="M203,170.4c0.8-0.5,1.9-0.7,2.8-0.5c-0.4-0.5-0.7-1-1-1.5c1-0.2,2-0.4,3.1-0.5c0.4-1,0.4-2.2,0-3.2   c1.1-0.1,2.3,0.1,3.3,0.5c0.3,0.4,0.4,1,0.3,1.5c-0.5,0.2-1.1,0.4-1.7,0.6c-0.2,1-0.5,2-0.7,3c-0.5,0.3-1.3,0.4-1.9,0.2   c-0.9,5.4-6.8,8.5-8.9,13.5c-0.7,1.7-1.4,3.9-3.2,3.9c-0.5-0.6-0.4-1.7,0.3-2.2c-0.7-0.2-1.3-0.4-1.9-0.6c-0.1-1.1,1.7-0.8,2.6-0.1   c0.8-0.7,0.1-2.3-0.9-2.3c1.1-0.9,1.8-2.3,2-3.7c1.1,0.1,2.2-0.3,2.9-1.1c-0.8,0.2-1.7-0.4-1.9-1.3c1.6,0.3,3.2-1.2,3.1-2.8   c1.2-0.7,2.4-1.4,3.6-2.1C204.4,171.4,203.7,170.9,203,170.4" fill="rgba(115,172,118,0.88)"/>
                <path id="_ehe1g4nge_21" d="M517.1,175.7c-2.2-3-4.5-5.9-7.3-8.4c-3.9-3.5-8.9-6.6-9.7-11.8c23.5,19.9,41.6,46.2,51.7,75.3   c0.9,0.8-0.1,2.6-1.2,2.3C541.8,212.8,530.5,193.4,517.1,175.7" fill="rgba(115,172,118,0.88)"/>
                <path id="_ehe1g4nge_22" d="M253.1,159.9c4.1-3.3,8.8-6.4,10.5-11.4c0.5-1.4,1.9-2.5,3.2-3.3c20.2-12.7,43.8-19.7,67.6-20.1   c-11.9,3.2-23.7,6.3-35.6,9.5c-18.5,4.9-32.1,20.2-44.6,34.8c-10.8,12.7-21.7,25.4-32.5,38.2c-1.3,3.5-2.5,7.1-3.8,10.6   c-0.5,1.6-1.1,3.2-2.5,4.2c-1.3,1-3.5,1-4.3-0.5c4.8-8.4,9.6-16.9,14.5-25.4C233.4,183.3,241.2,169.7,253.1,159.9" fill="rgba(115,172,118,0.88)"/>
            </g>
        </svg>
    </g>
    <path id="out-of-our-text" fill="#f55e00" transform="matrix(0.36361971497535706, 0, 0, 0.36361971497535706, 161.0442352294922, 127.59514617919922)" text="Out of Our" text-anchor="middle" font-size="100" letter-spacing="0" side="left" offset="0.5" dx="0" dy="0" space="preserve" href="" font-family="Open Sans Condensed Light" font-scale="contain" x="0" y="0" font-weight="400" font-style="normal" data-fl-textpath="" stroke="#f55e00" stroke-width="3" d="M-123.1221484375-35.79L-123.1221484375-35.79Q-123.1221484375-18.07 -128.4221484375-8.54Q-133.7121484375 0.98 -143.7221484375 0.98L-143.7221484375 0.98Q-153.8321484375 0.98 -159.0621484375-8.62Q-164.2821484375-18.21 -164.2821484375-35.89L-164.2821484375-35.89Q-164.2821484375-54.35 -159.1021484375-63.38Q-153.9321484375-72.41 -143.5821484375-72.41L-143.5821484375-72.41Q-133.62214843750002-72.41 -128.37214843750002-62.92Q-123.1221484375-53.42 -123.1221484375-35.79ZM-159.3021484375-35.79L-159.3021484375-35.79Q-159.3021484375-19.87 -155.3221484375-11.74Q-151.3421484375-3.61 -143.7221484375-3.61L-143.7221484375-3.61Q-136.0621484375-3.61 -132.0821484375-11.67Q-128.1021484375-19.73 -128.1021484375-35.79L-128.1021484375-35.79Q-128.1021484375-51.66 -132.0021484375-59.74Q-135.9121484375-67.82 -143.5821484375-67.82L-143.5821484375-67.82Q-151.4421484375-67.82 -155.3721484375-59.64Q-159.3021484375-51.46 -159.3021484375-35.79ZM-110.8201953125-52.98L-106.1801953125-52.98L-106.1801953125-18.41Q-106.1801953125-10.55 -104.3001953125-6.93Q-102.4201953125-3.32 -98.5101953125-3.32L-98.5101953125-3.32Q-92.5001953125-3.32 -89.7001953125-8.18Q-86.8901953125-13.04 -86.8901953125-23.88L-86.8901953125-23.88L-86.8901953125-52.98L-82.3001953125-52.98L-82.3001953125 0L-86.2101953125 0L-86.7901953125-7.42L-87.1801953125-7.42Q-88.8901953125-3.37 -91.9201953125-1.2Q-94.9501953125 0.98 -98.5101953125 0.98L-98.5101953125 0.98Q-104.91019531250001 0.98 -107.8601953125-3.56Q-110.8201953125-8.11 -110.8201953125-18.41L-110.8201953125-18.41L-110.8201953125-52.98ZM-58.4197265625-3.32L-58.4197265625-3.32Q-56.2697265625-3.32 -54.6097265625-3.91L-54.6097265625-3.91L-54.6097265625 0Q-56.7597265625 0.98 -60.1297265625 0.98L-60.1297265625 0.98Q-68.3397265625 0.98 -68.3397265625-11.28L-68.3397265625-11.28L-68.3397265625-48.88L-73.1197265625-48.88L-73.1197265625-51.61L-68.4297265625-52.98L-66.9197265625-65.58L-63.699726562500004-65.58L-63.699726562500004-52.98L-55.2997265625-52.98L-55.2997265625-48.88L-63.699726562500004-48.88L-63.699726562500004-12.6Q-63.699726562500004-7.23 -62.5197265625-5.27Q-61.3497265625-3.32 -58.4197265625-3.32ZM 2.4129296874999966-26.61L 2.4129296874999966-26.61Q 2.4129296874999966-13.23 -1.8070703125000023-6.13Q-6.027070312500001 0.98 -13.8870703125 0.98L-13.8870703125 0.98Q-21.6570703125 0.98 -25.7770703125-6.13Q-29.9070703125-13.23 -29.9070703125-26.61L-29.9070703125-26.61Q-29.9070703125-54 -13.6970703125-54L-13.6970703125-54Q-6.077070312499998-54 -1.8270703124999983-46.83Q 2.4129296874999966-39.65  2.4129296874999966-26.61ZM-25.0770703125-26.61L-25.0770703125-26.61Q-25.0770703125-15.14 -22.3370703125-9.28Q-19.6070703125-3.42 -13.7970703125-3.42L-13.7970703125-3.42Q-2.4170703125000017-3.42 -2.4170703125000017-26.61L-2.4170703125000017-26.61Q-2.4170703125000017-49.61 -13.7970703125-49.61L-13.7970703125-49.61Q-19.7470703125-49.61 -22.4170703125-43.85Q-25.0770703125-38.09 -25.0770703125-26.61ZM 27.6168359375-52.98L 27.6168359375-48.88L 19.3068359375-48.88L 19.3068359375 0L 14.7168359375 0L 14.7168359375-48.88L 7.9868359375-48.88L 7.9868359375-51.51L 14.7168359375-53.52L 14.7168359375-57.52Q 14.7168359375-67.63  17.1168359375-72.07Q 19.5068359375-76.51  25.4168359375-76.51L 25.4168359375-76.51Q 28.8368359375-76.51  31.6168359375-75.29L 31.6168359375-75.29L 30.0068359375-71Q 27.4168359375-72.22  25.3168359375-72.22L 25.3168359375-72.22Q 22.9268359375-72.22  21.7068359375-70.8Q 20.4868359375-69.38  19.8968359375-66.21Q 19.3068359375-63.04  19.3068359375-57.42L 19.3068359375-57.42L 19.3068359375-52.98L 27.6168359375-52.98ZM 94.5048046875-35.79L 94.5048046875-35.79Q 94.5048046875-18.07  89.2048046875-8.54Q 83.91480468750001 0.98  73.9048046875 0.98L 73.9048046875 0.98Q 63.7948046875 0.98  58.5648046875-8.62Q 53.3448046875-18.21  53.3448046875-35.89L 53.3448046875-35.89Q 53.3448046875-54.35  58.5248046875-63.38Q 63.694804687499996-72.41  74.0448046875-72.41L 74.0448046875-72.41Q 84.0048046875-72.41  89.2548046875-62.92Q 94.5048046875-53.42  94.5048046875-35.79ZM 58.3248046875-35.79L 58.3248046875-35.79Q 58.3248046875-19.87  62.3048046875-11.74Q 66.2848046875-3.61  73.9048046875-3.61L 73.9048046875-3.61Q 81.5648046875-3.61  85.5448046875-11.67Q 89.5248046875-19.73  89.5248046875-35.79L 89.5248046875-35.79Q 89.5248046875-51.66  85.6248046875-59.74Q 81.71480468749999-67.82  74.0448046875-67.82L 74.0448046875-67.82Q 66.1848046875-67.82  62.2548046875-59.64Q 58.3248046875-51.46  58.3248046875-35.79ZM 106.8067578125-52.98L 111.4467578125-52.98L 111.4467578125-18.41Q 111.4467578125-10.55  113.3267578125-6.93Q 115.2067578125-3.32  119.1167578125-3.32L 119.1167578125-3.32Q 125.1267578125-3.32  127.9267578125-8.18Q 130.7367578125-13.04  130.7367578125-23.88L 130.7367578125-23.88L 130.7367578125-52.98L 135.3267578125-52.98L 135.3267578125 0L 131.4167578125 0L 130.8367578125-7.42L 130.4467578125-7.42Q 128.7367578125-3.37  125.7067578125-1.2Q 122.6767578125 0.98  119.1167578125 0.98L 119.1167578125 0.98Q 112.71675781249999 0.98  109.7667578125-3.56Q 106.8067578125-8.11  106.8067578125-18.41L 106.8067578125-18.41L 106.8067578125-52.98ZM 164.1872265625-54L 164.1872265625-54Q 166.6772265625-54  168.82722656250002-53.32L 168.82722656250002-53.32L 167.6972265625-48.68Q 165.9472265625-49.41  164.0872265625-49.41L 164.0872265625-49.41Q 161.3972265625-49.41  159.07722656250002-46.66Q 156.7672265625-43.9  155.4472265625-38.96Q 154.1272265625-34.03  154.1272265625-28.08L 154.1272265625-28.08L 154.1272265625 0L 149.4872265625 0L 149.4872265625-52.98L 153.2972265625-52.98L 153.7872265625-43.7L 154.1272265625-43.7Q 157.8372265625-54  164.1872265625-54Z"></path>
    <path id="minds-without-m-text" text="inds" text-anchor="middle" font-size="100" letter-spacing="0" side="left" offset="0.5" dx="0" dy="0" space="preserve" href="" font-family="Rock Salt" font-scale="contain" transform="matrix(0.6209069490432739, 0, 0, 0.6209069490432739, 162.58877563476562, 182.61370849609375)" x="0" y="0" fill="#1d398f" font-weight="400" font-style="normal" data-fl-textpath="" d="M-93.509140625-13.38L-93.509140625-13.38Q-93.989140625-12.6 -94.679140625-11.96Q-95.359140625-11.33 -95.949140625-10.64L-95.949140625-10.64Q-96.629140625-10.35 -97.459140625-10.35Q-98.289140625-10.35 -99.019140625-10.4Q-99.759140625-10.45 -100.389140625-10.4Q-101.029140625-10.35 -101.419140625-9.96L-101.419140625-9.96Q-102.199140625-10.16 -102.589140625-10.69Q-102.979140625-11.23 -103.959140625-11.33L-103.959140625-11.33Q-104.349140625-11.43 -104.739140625-11.33L-104.739140625-11.33Q-106.199140625-12.99 -107.419140625-14.84Q-108.639140625-16.7 -109.719140625-18.36L-109.719140625-18.36Q-109.819140625-21.97 -110.299140625-25.68L-110.299140625-25.68Q-110.399140625-26.56 -110.599140625-27.44Q-110.789140625-28.32 -110.889140625-29.1L-110.889140625-29.1Q-110.889140625-30.08 -110.739140625-31.01Q-110.599140625-31.93 -110.499140625-32.71L-110.499140625-32.71Q-110.109140625-35.55 -109.619140625-38.28Q-109.129140625-41.02 -108.739140625-43.85L-108.739140625-43.85Q-108.349140625-46.39 -108.349140625-49.17Q-108.349140625-51.95 -109.229140625-54.39L-109.229140625-54.39L-109.329140625-54.88Q-109.129140625-55.66 -108.889140625-56.2Q-108.639140625-56.74 -108.549140625-57.42L-108.549140625-57.42Q-108.349140625-58.5 -109.029140625-58.98L-109.029140625-58.98Q-108.739140625-59.77 -108.059140625-60.01Q-107.369140625-60.25 -107.279140625-61.13L-107.279140625-61.13Q-107.179140625-61.52 -107.279140625-61.91L-107.279140625-61.91Q-106.489140625-62.21 -105.65914062499999-62.45Q-104.82914062500001-62.7 -104.049140625-62.5L-104.049140625-62.5Q-102.779140625-62.3 -101.809140625-61.67Q-100.82914062500001-61.04 -99.949140625-60.25L-99.949140625-60.25Q-98.389140625-55.57 -98.679140625-50.34Q-98.979140625-45.12 -99.65914062499999-39.84Q-100.339140625-34.57 -100.539140625-29.54Q-100.729140625-24.51 -98.979140625-20.21L-98.979140625-20.21L-98.779140625-20.12Q-98.289140625-20.02 -97.999140625-20.46Q-97.709140625-20.9 -97.219140625-20.8L-97.219140625-20.8Q-96.82914062500001-20.61 -96.729140625-20.61L-96.729140625-20.61Q-96.339140625-18.65 -95.459140625-16.89Q-94.57914062500001-15.14 -93.509140625-13.38ZM-19.968046875-64.16L-19.968046875-64.16Q-20.168046875-62.99 -20.508046875000005-62.16Q-20.848046874999994-61.33 -20.658046874999997-59.96L-20.658046874999997-59.96Q-21.628046875000003-59.86 -22.168046875-59.33Q-22.708046875-58.79 -23.048046874999997-58.11Q-23.388046875-57.42 -23.728046874999997-56.69Q-24.068046875-55.96 -24.558046875000002-55.37L-24.558046875000002-55.37Q-23.778046875-51.86 -23.678046875-48.24Q-23.588046875000003-44.63 -23.198046875000003-41.11L-23.198046875000003-41.11Q-22.708046875-36.62 -21.678046875-32.28Q-20.658046874999997-27.93 -20.658046874999997-23.44L-20.658046874999997-23.44Q-20.658046874999997-22.07 -20.708046874999994-20.9Q-20.748046875-19.73 -20.748046875-18.46L-20.748046875-18.46Q-20.748046875-17.68 -20.708046874999994-16.85Q-20.658046874999997-16.02 -20.658046874999997-15.23L-20.658046874999997-15.23Q-20.658046874999997-12.4 -21.388046875-9.57Q-22.118046874999997-6.74 -22.508046874999998-3.91L-22.508046874999998-3.91Q-23.678046875-2.83 -24.508046874999998-1.56Q-25.338046875000003-0.29 -26.218046875 0.78Q-27.098046875 1.86 -28.268046875000003 2.69Q-29.448046875000003 3.52 -31.198046875000003 3.81L-31.198046875000003 3.81Q-31.498046875 4.79 -32.328046875 5.27Q-33.158046875 5.76 -33.738046875 6.64L-33.738046875 6.64L-33.938046875 6.64Q-36.378046875 6.64 -38.138046875 5.96Q-39.888046875 5.27 -41.408046875 4.39Q-42.918046875 3.52 -44.478046875 2.54Q-46.048046875 1.56 -48.098046875 0.98L-48.098046875 0.98Q-50.828046875-1.27 -53.078046875-3.96Q-55.318046875-6.64 -58.158046875-8.79L-58.158046875-8.79Q-58.838046875-10.74 -59.958046875-12.01Q-61.088046875-13.28 -62.158046875-14.94L-62.158046875-14.94Q-62.648046875-15.63 -62.888046875-16.21Q-63.138046875-16.8 -63.528046875-17.58L-63.528046875-17.58Q-63.818046875-18.36 -64.45804687500001-18.65Q-65.088046875-18.95 -65.578046875-19.34L-65.578046875-19.34Q-66.358046875-22.36 -67.818046875-24.9Q-69.28804687499999-27.44 -71.238046875-29.79L-71.238046875-29.79Q-71.828046875-28.71 -72.168046875-27.49Q-72.508046875-26.27 -72.798046875-25.05Q-73.098046875-23.83 -73.53804687499999-22.61Q-73.978046875-21.39 -74.658046875-20.41L-74.658046875-20.41L-74.658046875-20.12Q-74.658046875-19.63 -74.268046875-19.53Q-73.878046875-19.43 -73.878046875-18.95L-73.878046875-18.95Q-73.878046875-18.85 -73.928046875-18.75Q-73.978046875-18.65 -73.978046875-18.55L-73.978046875-18.55Q-74.45804687500001-18.16 -74.70804687500001-17.58Q-74.948046875-16.99 -75.728046875-16.89L-75.728046875-16.89Q-75.638046875-16.41 -75.638046875-15.92L-75.638046875-15.92L-75.638046875-15.04Q-75.638046875-12.21 -76.268046875-9.38Q-76.908046875-6.54 -76.908046875-3.61L-76.908046875-3.61L-76.908046875-2.34Q-76.908046875-1.66 -76.808046875-1.07L-76.808046875-1.07Q-76.608046875-0.49 -76.218046875 0.1Q-75.828046875 0.68 -75.828046875 1.17L-75.828046875 1.17Q-75.828046875 1.86 -76.418046875 2.44L-76.418046875 2.44Q-75.728046875 2.93 -74.858046875 3.52Q-73.978046875 4.1 -73.238046875 4.83Q-72.508046875 5.57 -72.018046875 6.4Q-71.53804687499999 7.23 -71.53804687499999 8.2L-71.53804687499999 8.2Q-71.53804687499999 9.86 -72.608046875 10.55Q-73.678046875 11.23 -75.198046875 11.62Q-76.70804687500001 12.01 -78.318046875 12.35Q-79.928046875 12.7 -81.008046875 13.57L-81.008046875 13.57L-81.298046875 13.57Q-82.468046875 13.57 -83.058046875 12.89Q-83.638046875 12.21 -84.818046875 12.21L-84.818046875 12.21Q-86.668046875 9.18-87.358046875 5.42Q-88.038046875 1.66-88.038046875-1.76L-88.038046875-1.76Q-88.038046875-5.96-87.308046875-10.16Q-86.568046875-14.36-85.548046875-18.46Q-84.518046875-22.56 -83.298046875-26.61Q-82.078046875-30.66 -81.008046875-34.77L-81.008046875-34.77L-80.908046875-35.06Q-80.908046875-35.55 -81.148046875-35.74Q-81.398046875-35.94 -81.398046875-36.33L-81.398046875-36.33Q-81.398046875-36.52 -81.298046875-36.52L-81.298046875-36.52Q-81.008046875-37.5 -80.668046875-38.38Q-80.318046875-39.26 -80.128046875-40.33L-80.128046875-40.33Q-79.538046875-43.07 -79.298046875-45.95Q-79.048046875-48.83 -79.008046875-51.66Q-78.958046875-54.49 -78.808046875-57.37Q-78.658046875-60.25 -78.178046875-63.09L-78.178046875-63.09Q-77.388046875-63.87 -76.70804687500001-64.75Q-76.028046875-65.63 -74.948046875-66.31L-74.948046875-66.31Q-72.998046875-66.21 -71.048046875-65.72Q-69.088046875-65.23 -67.338046875-64.16L-67.338046875-64.16Q-66.158046875-59.96 -65.718046875-55.76Q-65.28804687499999-51.56 -64.20804687500001-47.36L-64.20804687500001-47.36L-64.20804687500001-47.07Q-64.20804687500001-46.58 -63.668046875-46.63Q-63.138046875-46.68 -62.838046875-46.29L-62.838046875-46.29Q-63.038046875-46 -63.088046875-45.61Q-63.138046875-45.21 -63.138046875-44.82L-63.138046875-44.82L-63.138046875-43.16Q-62.938046875-42.38 -62.648046875-41.5Q-62.358046875-40.63 -61.378046874999995-40.43L-61.378046874999995-40.43Q-60.888046875-37.3 -59.908046875-34.67Q-58.938046875-32.03 -57.668046875-29.59Q-56.398046875-27.15 -54.928046875-24.76Q-53.468046875-22.36 -51.908046875-19.73L-51.908046875-19.73Q-49.458046875-17.87 -47.708046875-15.48Q-45.948046875-13.09 -44.138046875-10.89Q-42.338046875-8.69 -40.038046875-7.03Q-37.748046875-5.37 -34.038046875-4.98L-34.038046875-4.98Q-33.548046875-5.37 -33.348046875-6.05L-33.348046875-6.05L-32.858046875-7.42Q-32.568046875-8.11 -32.228046875-8.64Q-31.888046875-9.18 -31.198046875000003-9.47L-31.198046875000003-9.47Q-31.008046874999998-12.21 -30.758046874999998-15.04Q-30.518046875000003-17.87 -29.538046875-20.41L-29.538046875-20.41Q-30.028046875-21.29 -30.028046875-22.56L-30.028046875-22.56Q-30.028046875-23.54 -29.878046875000003-24.41Q-29.738046875000002-25.29 -29.738046875000002-26.17L-29.738046875000002-26.17Q-29.738046875000002-28.03 -30.518046875000003-29.2L-30.518046875000003-29.2Q-30.518046875000003-29.88 -30.418046875-30.62Q-30.318046875-31.35 -29.838046875000003-32.03L-29.838046875000003-32.03Q-30.618046874999997-33.98 -31.058046875000002-36.13Q-31.498046875-38.28 -31.498046875-40.53L-31.498046875-40.53Q-31.498046875-41.8 -31.198046875000003-43.16L-31.198046875000003-43.16Q-31.788046875-44.63 -31.978046874999997-46.58L-31.978046874999997-46.58L-32.368046875-50.59Q-32.568046875-52.64 -32.958046875-54.39Q-33.348046875-56.15 -34.428046875-57.23L-34.428046875-57.23Q-33.838046875-58.11 -33.838046875-59.28L-33.838046875-59.28Q-33.838046875-61.23 -34.428046875-62.99Q-35.008046875-64.75 -35.008046875-66.7L-35.008046875-66.7Q-35.008046875-68.07 -34.428046875-69.43L-34.428046875-69.43Q-32.278046875-69.34 -30.178046875-68.99Q-28.078046875-68.65 -26.028046875-68.65L-26.028046875-68.65Q-25.438046874999998-67.87 -24.658046874999997-67.38Q-23.878046875000003-66.89 -22.998046875-66.46Q-22.118046874999997-66.02 -21.288046875000006-65.53Q-20.458046874999994-65.04 -19.968046875-64.16ZM 55.415390625-48.14L 55.415390625-48.14Q 55.415390625-47.17  54.735390624999994-46.88Q 54.055390625-46.58  54.055390625-45.7L 54.055390625-45.7Q 54.055390625-45.41  54.245390625-45.21Q 54.445390625-45.02  54.445390625-44.63L 54.445390625-44.63L 54.445390625-44.24Q 53.275390625-38.57  51.075390625-34.38Q 48.875390625-30.18  45.945390625-26.66Q 43.015390625-23.14  39.355390625-20.02Q 35.695390625-16.89  31.495390625-13.48L 31.495390625-13.48Q 30.325390624999997-12.5  29.105390625-11.52Q 27.885390625-10.55  26.805390625-9.47L 26.805390625-9.47L 24.655390625000003-7.42Q 24.565390625-7.32  23.585390625000002-6.98Q 22.605390625-6.64  22.415390625-6.54L 22.415390625-6.54Q 21.045390625000003-5.96  19.535390625-5.18Q 18.015390625-4.39  16.945390625-3.22L 16.945390625-3.22Q 14.985390625-3.22  13.625390625000001-2.64Q 12.255390625-2.05  10.595390625-1.07L 10.595390625-1.07Q 10.105390624999998-1.07  9.765390624999998-1.27Q 9.425390624999999-1.46  9.035390625000002-1.66Q 8.645390625000001-1.86  8.205390625-1.9Q 7.765390624999998-1.95  7.075390625000001-1.76L 7.075390625000001-1.76Q 5.905390624999999-3.71  4.545390625-5.08Q 3.1753906250000004-6.45  0.8253906250000007-6.74L 0.8253906250000007-6.74Q 0.5353906249999998-8.4 -0.5346093750000005-9.33Q-1.6146093750000006-10.25 -2.684609375000001-11.33L-2.684609375000001-11.33Q-2.884609375-11.91 -2.974609375-12.7Q-3.0746093749999996-13.48 -3.3646093750000006-14.16Q-3.6646093750000004-14.84 -4.154609375-15.33Q-4.634609375-15.82 -5.514609375-15.82L-5.514609375-15.82Q-5.614609375-16.41 -5.024609375-16.41Q-4.444609375-16.41 -4.444609375-16.89L-4.444609375-16.89Q-4.444609375-17.48 -4.634609375-18.07Q-4.834609375-18.65 -4.834609375-19.34L-4.834609375-19.34Q-4.834609375-19.82 -4.734609375-20.21Q-4.634609375-20.61 -4.444609375-21.09L-4.444609375-21.09Q-4.734609375-23.73 -4.734609375-26.46L-4.734609375-26.46Q-4.734609375-31.74 -4.004609375-36.87Q-3.2746093750000007-41.99 -3.2746093750000007-47.27L-3.2746093750000007-47.27Q-3.2746093750000007-49.61 -3.514609375-51.95Q-3.764609375-54.3 -4.444609375-56.54L-4.444609375-56.54Q-6.684609375-56.05 -8.934609375-55.42Q-11.184609375-54.79-13.134609375-53.71L-13.134609375-53.71Q-14.204609375-54.39-15.434609375-54.54Q-16.654609375-54.69-17.824609375-55.08L-17.824609375-55.08Q-18.504609375-56.45-18.504609375-57.91L-18.504609375-57.91Q-18.504609375-59.28-18.014609375-60.55L-18.014609375-60.55L-17.044609375-63.09Q-14.694609375-63.57-12.404609375-64.55Q-10.104609374999999-65.53 -7.764609375-66.31L-7.764609375-66.31Q-6.984609375-66.5 -5.764609375-66.8Q-4.544609375-67.09 -4.054609375-67.29L-4.054609375-67.29Q-3.3646093750000006-67.58 -3.1246093750000004-68.41Q-2.884609375-69.24 -2.394609375-69.82L-2.394609375-69.82L-0.7346093749999998-69.82Q-0.14460937499999993-69.82  0.5353906249999998-69.78Q 1.2253906249999993-69.73  1.8053906249999994-69.43L 1.8053906249999994-69.43Q 5.325390625000001-70.31  8.835390624999999-70.56Q 12.355390624999998-70.8  16.065390625-71.29L 16.065390625-71.29Q 16.455390625-71.29  17.235390625-71.39L 17.235390625-71.39L 18.895390625-71.68Q 19.775390625-71.88  20.505390625-72.02Q 21.235390625-72.17  21.535390624999998-72.17L 21.535390624999998-72.17Q 21.825390624999997-72.17  21.825390624999997-71.88L 21.825390624999997-71.88L 23.485390625-71.88Q 27.685390624999997-71.88  31.685390624999997-70.8L 31.685390624999997-70.8L 39.695390625-68.65Q 41.355390625-67.29  43.015390625-66.02Q 44.675390625-64.75  46.725390625-63.77L 46.725390625-63.77Q 47.215390625-62.21  48.245390625-61.28Q 49.265390625-60.35  50.535390625-59.28L 50.535390625-59.28Q 51.025390625-58.01  51.855390625-56.59Q 52.685390625-55.18  53.465390625-53.71Q 54.245390625-52.25  54.835390625-50.83Q 55.415390625-49.41  55.415390625-48.14ZM 46.335390625-46.68L 46.335390625-46.68Q 45.265390625-48.93  44.285390625-51.37Q 43.315390625-53.81  41.845390625-55.76L 41.845390625-55.76Q 40.085390625-56.25  38.285390625-56.98Q 36.475390625-57.71  35.795390625-59.57L 35.795390625-59.57Q 35.595390625-59.47  35.105390625-59.47L 35.105390625-59.47Q 34.225390625-59.47  33.545390625-60.16Q 32.865390625-60.84  31.985390625-61.04L 31.985390625-61.04Q 31.205390625-61.13  29.885390625-61.33Q 28.565390625-61.52  27.095390625-61.62Q 25.635390625-61.72  24.215390624999998-61.82Q 22.805390625-61.91  22.025390625-61.91L 22.025390625-61.91Q 21.235390625-61.91  20.405390625-61.87Q 19.575390625-61.82  18.705390625-61.72L 18.705390625-61.72Q 17.915390625-61.72  17.725390625-61.47Q 17.525390625-61.23  16.945390625-61.04L 16.945390625-61.04Q 16.455390625-61.23  15.865390625-61.23L 15.865390625-61.23L 14.695390625000002-61.23Q 12.645390625000001-61.23  10.645390625000001-60.6Q 8.645390625000001-59.96  6.685390625-58.89L 6.685390625-58.89L 6.685390625-58.5Q 6.685390625-57.71  7.375390625000001-57.62Q 8.055390625000001-57.52  8.155390624999999-56.84L 8.155390624999999-56.84Q 7.665390625000001-56.84  7.375390625000001-56.79Q 7.075390625000001-56.74  7.075390625000001-56.05L 7.075390625000001-56.05Q 7.075390625000001-55.08  7.325390625000001-53.91Q 7.565390624999999-52.73  7.565390624999999-51.56L 7.565390624999999-51.56Q 7.565390624999999-50.68  7.375390625000001-49.51Q 7.175390624999999-48.34  6.395390625000001-47.66L 6.395390625000001-47.66Q 7.375390625000001-46.78  7.375390625000001-45.31L 7.375390625000001-45.31Q 7.375390625000001-44.34  6.985390625000001-43.26Q 6.595390625-42.19  6.005390625-41.41L 6.005390625-41.41Q 5.815390624999999-37.3  5.225390624999999-33.11Q 4.635390624999999-28.91  4.635390624999999-24.8L 4.635390624999999-24.8Q 4.635390624999999-22.75  4.885390624999999-20.8Q 5.125390625000001-18.85  5.715390625000001-16.89L 5.715390625000001-16.89Q 6.785390625000002-15.82  8.005390625-15.23Q 9.225390625-14.65  10.595390625-14.06L 10.595390625-14.06L 10.595390625-13.77Q 10.595390625-13.48  10.205390625-13.18Q 9.815390625-12.89  9.815390625-12.4L 9.815390625-12.4Q 9.815390625-12.01  10.205390625-12.01L 10.205390625-12.01Q 14.305390625000001-13.18  17.915390625-14.84Q 21.535390624999998-16.5  24.655390625000003-19.34L 24.655390625000003-19.34Q 24.955390625-19.63  25.245390625-19.63L 25.245390625-19.63Q 25.435390624999997-19.63  25.785390624999998-19.53Q 26.125390625-19.43  26.415390625-19.34L 26.415390625-19.34L 26.315390625-19.73Q 26.315390625-20.31  26.655390625000003-20.8Q 27.005390624999997-21.29  27.485390625-21.68L 27.485390625-21.68L 28.465390624999998-22.56Q 28.955390625-23.05  29.245390625-23.54L 29.245390625-23.54Q 30.025390625-23.73  30.375390625-24.32Q 30.715390624999998-24.9  31.595390625-24.9L 31.595390625-24.9Q 31.785390624999998-25.98  32.665390625-26.51Q 33.545390625-27.05  33.735390625-28.13L 33.735390625-28.13Q 35.695390625-29.2  37.205390625-30.76Q 38.725390625-32.32  40.035390625-34.08Q 41.355390625-35.84  42.525390625-37.74Q 43.705390625-39.65  44.975390625-41.41L 44.975390625-41.41L 44.975390625-41.8Q 44.975390625-43.36  45.505390625-44.34Q 46.045390625-45.31  46.335390625-46.68ZM 111.377265625-12.3L 111.377265625-12.3Q 111.377265625-10.64  110.547265625-9.42Q 109.71726562500001-8.2  109.90726562500001-6.45L 109.90726562500001-6.45Q 108.547265625-5.66  107.667265625-4.39Q 106.787265625-3.13  106.007265625-1.76L 106.007265625-1.76Q 99.557265625 2.44  92.18726562500001 5.03Q 84.817265625 7.62  76.997265625 7.62L 76.997265625 7.62Q 76.517265625 7.62  76.127265625 7.18Q 75.73726562499999 6.74  75.337265625 6.25Q 74.947265625 5.76  74.507265625 5.32Q 74.077265625 4.88  73.48726562499999 4.88L 73.48726562499999 4.88Q 72.807265625 4.88  72.40726562500001 5.18L 72.40726562500001 5.18Q 72.40726562500001 4.98  72.457265625 4.83Q 72.507265625 4.69  72.507265625 4.49L 72.507265625 4.49Q 72.507265625 3.32  72.217265625 2.1Q 71.927265625 0.88  71.927265625-0.29L 71.927265625-0.29Q 71.927265625-1.66  72.40726562500001-2.54L 72.40726562500001-2.54L 73.587265625-2.54Q 74.557265625-2.54  75.48726562499999-2.69Q 76.417265625-2.83  77.48726562499999-2.83L 77.48726562499999-2.83Q 78.567265625-2.83  79.447265625-2.25L 79.447265625-2.25Q 84.817265625-2.44  89.647265625-4.25Q 94.48726562499999-6.05  99.46726562500001-7.81L 99.46726562500001-7.81Q 100.247265625-8.89  100.387265625-10.21Q 100.537265625-11.52  101.127265625-12.7L 101.127265625-12.7Q 98.587265625-14.84  95.997265625-16.06Q 93.40726562500001-17.29  89.98726562499999-16.89L 89.98726562499999-16.89Q 87.937265625-18.16  85.647265625-18.36Q 83.347265625-18.55  81.007265625-18.95L 81.007265625-18.95Q 80.417265625-19.04  79.787265625-19.19Q 79.147265625-19.34  78.467265625-19.34L 78.467265625-19.34Q 77.977265625-19.34  77.537265625-19.09Q 77.097265625-18.85  77.297265625-18.36L 77.297265625-18.36Q 76.807265625-19.14  75.977265625-19.29Q 75.147265625-19.43  74.557265625-20.02L 74.557265625-20.02Q 71.437265625-20.21  69.087265625-21.14Q 66.747265625-22.07  63.917265625-23.24L 63.917265625-23.24Q 63.137265625-23.54  62.407265625-23.68Q 61.667265625-23.83  60.987265625-24.22L 60.987265625-24.22Q 59.227265625-25.1 58.157265625-26.56Q 57.077265625-28.03 56.447265625-29.83Q 55.807265625-31.64 55.517265625-33.59Q 55.227265625-35.55 54.927265625-37.21L 54.927265625-37.21Q 55.807265625-38.77 56.547265625-40.43Q 57.277265625-42.09 57.767265625-43.95L 57.767265625-43.95Q 58.347265625-44.24  58.937265625-44.43Q 59.517265625-44.63  60.207265625-44.92L 60.207265625-44.92Q 60.107265625-45.12  60.107265625-45.41L 60.107265625-45.41Q 60.107265625-45.9  60.447265625-46.39Q 60.787265625-46.88  60.597265625-47.36L 60.597265625-47.36Q 62.747265625-49.32  64.747265625-51.42Q 66.747265625-53.52  68.217265625-56.05L 68.217265625-56.05Q 69.677265625-56.54  70.557265625-57.52Q 71.437265625-58.5  72.317265625-59.52Q 73.197265625-60.55  74.267265625-61.38Q 75.337265625-62.21  76.997265625-62.4L 76.997265625-62.4Q 77.397265625-63.09  78.077265625-63.53Q 78.757265625-63.96  79.447265625-64.36Q 80.127265625-64.75  80.717265625-65.23Q 81.297265625-65.72  81.587265625-66.6L 81.587265625-66.6Q 83.15726562500001-66.6  84.477265625-67.19Q 85.787265625-67.77  87.057265625-68.46Q 88.327265625-69.14  89.647265625-69.73Q 90.96726562500001-70.31  92.527265625-70.31L 92.527265625-70.31Q 92.917265625-70.31  93.307265625-70.26Q 93.697265625-70.21  94.18726562500001-70.12L 94.18726562500001-70.12Q 94.877265625-69.43  95.117265625-68.51Q 95.357265625-67.58  95.45726562499999-66.5Q 95.557265625-65.43  95.607265625-64.36Q 95.65726562500001-63.28  95.947265625-62.4L 95.947265625-62.4Q 95.067265625-60.74  94.047265625-59.08Q 93.017265625-57.42  91.357265625-56.54L 91.357265625-56.54L 91.15726562500001-56.54Q 90.477265625-56.45  89.897265625-56.84Q 89.307265625-57.23  88.527265625-57.23L 88.527265625-57.23Q 88.037265625-57.23  87.747265625-56.93L 87.747265625-56.93L 87.257265625-56.45Q 87.057265625-56.25  86.717265625-56.05Q 86.377265625-55.86  85.787265625-56.05L 85.787265625-56.05Q 84.427265625-55.57  84.717265625-54.39L 84.717265625-54.39Q 82.857265625-54.2  81.587265625-53.27Q 80.327265625-52.34  79.247265625-51.22Q 78.177265625-50.1  77.097265625-49.17Q 76.027265625-48.24  74.557265625-48.14L 74.557265625-48.14Q 72.897265625-45.21  70.507265625-42.97Q 68.117265625-40.72  66.557265625-37.89L 66.557265625-37.89Q 66.847265625-37.11  66.947265625-36.23Q 67.037265625-35.35  67.23726562499999-34.38L 67.23726562499999-34.38Q 68.117265625-33.2  69.337265625-32.32Q 70.557265625-31.45  71.727265625-30.57L 71.727265625-30.57L 72.017265625-30.57Q 73.977265625-30.57  75.637265625-29.83Q 77.297265625-29.1  79.147265625-29.1L 79.147265625-29.1Q 80.127265625-29.1  80.807265625-29.49L 80.807265625-29.49Q 83.347265625-28.91  85.837265625-28.52Q 88.327265625-28.13  90.867265625-27.93L 90.867265625-27.93Q 92.137265625-27.73  93.45726562499999-27.73Q 94.777265625-27.73  95.947265625-27.44L 95.947265625-27.44Q 97.017265625-27.15  98.097265625-26.71Q 99.167265625-26.27  100.247265625-25.78L 100.247265625-25.78Q 102.48726562499999-24.8  104.48726562499999-23.63Q 106.497265625-22.46  108.057265625-20.85Q 109.617265625-19.24  110.497265625-17.14Q 111.377265625-15.04  111.377265625-12.3Z"></path>
    <path id="minds-first-letter-text" text="M" text-anchor="middle" font-size="100" letter-spacing="0" side="left" offset="0.5" dx="0" dy="0" space="preserve" href="" font-family="Rock Salt" font-scale="contain" transform="matrix(0.7444130182266235, 0, 0, 0.7444130182266235, 48.397186279296875, 175.77467346191406)" x="0" y="0" fill="#1d398f" font-weight="400" font-style="normal" data-fl-textpath="" d="M 50.149609375 25.29L 50.149609375 25.29Q 50.149609375 26.17  49.509609375 26.86Q 48.879609375 27.54  47.999609375000006 27.98Q 47.119609374999996 28.42  46.189609375 28.81Q 45.259609375 29.2  44.579609375000004 29.49L 44.579609375000004 29.49Q 43.509609375 28.91  42.379609375 28.71Q 41.259609375 28.52  40.379609375 27.73L 40.379609375 27.73L 39.699609374999994 27.73Q 38.139609375000006 27.73  37.259609375 28.13L 37.259609375 28.13Q 35.889609375000006 27.64  35.009609375 26.71Q 34.129609375 25.78  33.349609375 24.76Q 32.569609375 23.73  31.789609374999998 22.75Q 31.009609374999997 21.78  29.829609375000004 21.09L 29.829609375000004 21.09Q 28.079609375000004 16.21  26.709609375 11.23Q 25.339609374999995 6.25  24.659609375000002 1.07L 24.659609375000002 1.07Q 24.849609375 0.59  24.949609374999994 0Q 25.049609375000003-0.59  25.049609375000003-1.07L 25.049609375000003-1.07Q 25.049609375000003-1.46  24.899609374999997-1.9Q 24.759609374999997-2.34  24.269609375-2.44L 24.269609375-2.44Q 24.759609374999997-3.22  24.899609374999997-4.25Q 25.049609375000003-5.27  25.049609375000003-6.15L 25.049609375000003-6.15Q 25.049609375000003-8.11  24.659609375000002-9.38L 24.659609375000002-9.38Q 25.239609375-9.86  25.149609374999997-10.99Q 25.049609375000003-12.11  25.639609375000006-12.6L 25.639609375000006-12.6Q 25.149609374999997-14.26  25.149609374999997-15.82L 25.149609374999997-15.82Q 25.149609374999997-17.97  25.679609375-20.02Q 26.219609375000005-22.07  26.219609375000005-24.22L 26.219609375000005-24.22Q 26.219609375000005-24.71  26.169609374999993-25.2Q 26.119609374999996-25.68  26.029609375000007-26.17L 26.029609375000007-26.17Q 26.509609374999997-27.73  26.949609374999994-29.35Q 27.389609375000006-30.96  27.389609375000006-32.62L 27.389609375000006-32.62Q 27.389609375000006-33.79  26.999609375000006-34.57L 26.999609375000006-34.57Q 28.269609375-39.06  28.809609374999994-43.51Q 29.349609375-47.95  29.829609375000004-52.54L 29.829609375000004-52.54Q 29.739609375-52.73  29.639609375000006-52.83Q 29.539609374999998-52.93  29.539609374999998-53.13L 29.539609374999998-53.13Q 29.539609374999998-53.61  30.079609375000004-53.91Q 30.619609374999996-54.2  30.519609375-54.98L 30.519609375-54.98Q 29.349609375-53.81  28.609609375000005-52.25Q 27.879609375-50.68  27.249609375000006-49.12Q 26.609609375000005-47.56  25.879609375-46.04Q 25.149609374999997-44.53  23.979609374999995-43.36L 23.979609374999995-43.36Q 23.879609375-42.29  23.339609374999995-41.31Q 22.799609375000003-40.33  22.799609375000003-39.16L 22.799609375000003-39.16Q 22.709609375-39.16  22.609609375000005-39.21Q 22.509609374999997-39.26  22.309609374999994-39.26L 22.309609374999994-39.26Q 21.919609374999993-39.26  21.779609375000007-38.77Q 21.629609375-38.28  21.139609375000006-38.48L 21.139609375000006-38.48Q 18.899609374999997-34.08  16.209609375-29.88Q 13.529609375000007-25.68  9.229609375000003-23.14L 9.229609375000003-23.14Q 8.449609375000001-23.44  7.759609374999997-23.44L 7.759609374999997-23.44Q 6.489609375000001-23.44  5.269609375000002-22.71Q 4.049609375000003-21.97  3.6596093750000023-21.97L 3.6596093750000023-21.97Q 2.6896093750000034-21.97  1.2696093750000017-23Q-0.150390625-24.02 -1.6103906250000009-24.12L-1.6103906250000009-24.12Q-3.170390625000003-25.2 -4.200390624999997-26.32Q-5.220390625-27.44 -7.270390624999997-27.64L-7.270390624999997-27.64Q-8.640390625000002-29.69 -9.960390625000002-31.54Q-11.280390625000003-33.4 -12.500390625000001-35.21Q-13.720390625-37.01 -14.650390625-39.06Q-15.580390625-41.11 -16.060390624999997-43.65L-16.060390624999997-43.65Q-15.970390625-43.85 -15.970390625-44.04L-15.970390625-44.04Q-15.970390625-44.63 -16.500390625-44.53Q-17.040390625-44.43 -17.040390625-45.12L-17.040390625-45.12L-17.040390625-45.8Q-17.040390625-46.58 -17.280390625000003-47.22Q-17.530390625000003-47.85 -17.430390625-48.63L-17.430390625-48.63Q-18.110390625-49.71 -18.510390625-50.88Q-18.900390625-52.05 -19.870390625-52.93L-19.870390625-52.93L-19.870390625-53.81Q-19.870390625-54.39 -19.920390625000003-54.93Q-19.970390625-55.47 -20.210390625000002-55.91Q-20.460390625000002-56.35 -20.950390624999997-56.45L-20.950390624999997-56.45Q-21.040390625-59.96 -22.360390625-63.62Q-23.680390625-67.29 -24.760390625-70.7L-24.760390625-70.7Q-25.540390625-68.16 -25.930390625-65.58Q-26.320390625-62.99 -26.320390625-60.35L-26.320390625-60.35L-26.320390625-58.69Q-26.320390625-57.91 -26.120390625-57.13L-26.120390625-57.13Q-26.420390625-56.64 -26.950390625-56.45Q-27.490390625-56.25 -27.590390625-55.66L-27.590390625-55.66Q-27.690390625-55.18 -27.640390625-54.69Q-27.590390625-54.2 -27.690390625-53.71L-27.690390625-53.71Q-27.880390625-51.37 -28.270390625-49.22L-28.270390625-49.22Q-28.860390625-46 -29.640390625-42.72Q-30.420390625-39.45 -30.420390625-36.04L-30.420390625-36.04Q-30.420390625-35.84 -30.370390625-35.5Q-30.320390625-35.16 -30.320390625-34.96L-30.320390625-34.96Q-31.880390625-33.59 -31.980390625-31.54Q-32.080390625-29.49 -32.470390625-27.64L-32.470390625-27.64Q-32.960390625-24.9 -33.640390624999995-22.22Q-34.330390625-19.53 -34.810390625-16.7L-34.810390625-16.7Q-35.110390625-15.14 -35.300390625-13.62Q-35.500390625-12.11 -35.690390625-10.55L-35.690390625-10.55Q-35.790390625-9.67 -36.330390625-9.08Q-36.860390625-8.5 -37.060390625-7.71L-37.060390625-7.71Q-37.160390625000005-7.03 -37.110390625-6.2Q-37.060390625-5.37 -37.060390625-4.69L-37.060390625-4.69Q-37.060390625-3.52 -37.260390625-2.49Q-37.450390625-1.46 -38.430390625-0.68L-38.430390625-0.68Q-38.230390625 1.86 -37.550390625 3.66Q-36.860390625 5.47 -35.990390625 7.71L-35.990390625 7.71L-33.540390625 7.71L-33.540390625 8.11Q-33.540390625 9.08 -33.200390625 9.86Q-32.860390625 10.64 -31.790390625 10.55L-31.790390625 10.55Q-31.880390625 10.94 -31.880390625 11.52L-31.880390625 11.52Q-31.880390625 12.4 -31.540390625 13.13Q-31.200390625 13.87 -31.010390625 14.75L-31.010390625 14.75Q-32.960390625 17.97 -35.200390625 19.53Q-37.450390625 21.09 -41.360390625 21.09L-41.360390625 21.09L-42.920390624999996 21.09Q-43.410390625 19.53 -44.090390625 18.07Q-44.770390625 16.6 -45.410390625 15.14Q-46.040390625 13.67 -46.480390625 12.16Q-46.920390624999996 10.64 -46.920390624999996 8.98L-46.920390624999996 8.98Q-46.920390624999996 8.59 -46.830390625 8.25Q-46.730390625 7.91 -46.730390625 7.52L-46.730390625 7.52Q-46.730390625 7.03 -47.120390625 6.93Q-47.510390625 6.84 -47.510390625 5.96L-47.510390625 5.96Q-47.510390625 5.27 -47.560390625 4.69Q-47.610390625 4.1 -47.610390625 3.42L-47.610390625 3.42Q-47.610390625 0.2 -47.120390625-2.98Q-46.630390625000004-6.15 -46.440390625-9.38L-46.440390625-9.38Q-45.950390625-9.86 -45.950390625-10.64Q-45.950390625-11.43 -45.460390625-11.91L-45.460390625-11.91L-45.460390625-12.6Q-45.460390625-14.36 -45.070390625-16.11Q-44.680390625-17.87 -44.190390625-19.53Q-43.700390625-21.19 -43.310390625-22.95Q-42.920390624999996-24.71 -42.920390624999996-26.46L-42.920390624999996-26.46L-42.920390624999996-28.03Q-42.920390624999996-28.71 -42.280390625-28.66Q-41.650390625-28.61 -41.550390625-29.39L-41.550390625-29.39Q-41.360390625-30.76 -41.310390625-32.08Q-41.260390625-33.4 -41.060390625-34.77L-41.060390625-34.77Q-40.580390625-37.4 -39.990390625-40.09Q-39.400390625-42.77 -39.400390625-45.51L-39.400390625-45.51L-39.400390625-45.8Q-39.400390625-46.09 -38.920390624999996-47.02Q-38.430390625-47.95 -38.430390625-48.83L-38.430390625-48.83Q-38.430390625-49.51 -38.720390625-50.1L-38.720390625-50.1Q-38.620390625-50 -38.330390625-50L-38.330390625-50Q-37.940390625-50 -37.790390625-50.24Q-37.650390625-50.49 -37.350390625-50.68L-37.350390625-50.68Q-37.650390625-51.07 -37.650390625-51.46L-37.650390625-51.46Q-37.650390625-51.95 -37.500390625-52.39Q-37.350390625-52.83 -37.350390625-53.32L-37.350390625-53.32Q-37.350390625-54 -38.040390625-54.3L-38.040390625-54.3Q-36.860390625-56.45 -36.330390625-58.89Q-35.790390625-61.33 -35.550390625-63.87Q-35.300390625-66.41 -35.110390625-68.99Q-34.910390625000005-71.58 -34.230390625-73.93L-34.230390625-73.93Q-34.420390624999996-74.51 -34.470390625-75.2Q-34.520390625000005-75.88 -34.520390625000005-76.46L-34.520390625000005-76.46Q-34.520390625000005-76.86 -34.620390625-77.29Q-34.720390625-77.73 -34.520390625000005-78.13L-34.520390625000005-78.13Q-34.520390625000005-78.32 -34.420390624999996-78.61L-34.420390624999996-78.61L-34.230390625-79.2Q-34.030390624999995-79.88 -33.980390625-80.62Q-33.940390625-81.35 -33.840390625-82.13L-33.840390625-82.13Q-33.640390624999995-84.38 -33.690390625-86.72Q-33.740390625-89.06 -33.540390625-91.41L-33.540390625-91.41Q-33.840390625-91.8 -34.130390625000004-92.04Q-34.420390624999996-92.29 -34.520390625000005-92.77L-34.520390625000005-92.77Q-33.740390625-94.14 -32.810390625-95.36Q-31.880390625-96.58 -30.320390625-97.27L-30.320390625-97.27Q-30.030390625-96.19 -28.760390625-96.19L-28.760390625-96.19Q-28.170390625-96.19 -27.290390625-96.48Q-26.420390625-96.78 -26.120390625-97.27L-26.120390625-97.27Q-24.460390625-96.68 -22.750390625-96.73Q-21.040390625-96.78 -19.580390625-95.9L-19.580390625-95.9Q-19.290390625-94.43 -18.800390625-92.87Q-18.310390624999997-91.31 -17.430390625-90.04L-17.430390625-90.04Q-17.240390625000003-88.77 -17.040390625-86.96Q-16.850390625000003-85.16 -16.650390625-83.25Q-16.450390624999997-81.35 -16.060390624999997-79.64Q-15.670390625000003-77.93 -14.990390625000003-76.95L-14.990390625000003-76.95Q-14.890390625000002-75.2 -14.400390625-73.44Q-13.920390625000003-71.68 -13.330390625-70.07Q-12.740390625000003-68.46 -12.300390624999999-67.09Q-11.860390625-65.72 -11.860390625-64.84L-11.860390625-64.84Q-11.860390625-64.06 -12.110390625-63.82Q-12.350390625000003-63.57 -12.550390624999999-62.99L-12.550390624999999-62.99Q-12.160390624999998-61.91 -11.470390625-61.18Q-10.790390625-60.45 -10.010390625-59.47L-10.010390625-59.47Q-8.540390625-53.91 -6.200390624999997-48.63Q-3.860390625000001-43.36 -0.5403906250000006-38.48L-0.5403906250000006-38.48Q 0.339609375000002-38.38  0.8796093750000011-37.99Q 1.4196093750000003-37.6  2.589609375000002-37.79L 2.589609375000002-37.79L 2.589609375000002-37.11Q 2.589609375000002-36.13  2.9796093750000026-35.74L 2.9796093750000026-35.74Q 3.859609374999998-35.16  5.029609375-35.16L 5.029609375-35.16Q 6.299609375000003-35.16  7.029609375-35.89Q 7.759609374999997-36.62  8.449609375000001-37.6Q 9.129609375000001-38.57  9.809609375-39.45Q 10.499609375000006-40.33  11.669609374999993-40.63L 11.669609374999993-40.63L 11.669609374999993-40.82Q 11.669609374999993-41.6  12.009609374999997-42.14Q 12.349609375-42.68  12.349609375-43.36L 12.349609375-43.36Q 13.429609374999998-44.14  14.009609374999997-45.31Q 14.599609375-46.48  15.089609374999995-47.71Q 15.579609375000004-48.93  16.209609375-50Q 16.849609375-51.07  17.919609374999993-51.76L 17.919609374999993-51.76Q 19.289609374999998-55.96  21.239609375-59.57Q 23.189609375000003-63.18  25.339609374999995-66.89L 25.339609374999995-66.89Q 25.339609374999995-67.19  25.239609375-67.53Q 25.149609374999997-67.87  25.149609374999997-68.16L 25.149609374999997-68.16Q 25.149609374999997-68.26  25.339609374999995-69.04L 25.339609374999995-69.04Q 25.829609375000004-70.02  26.219609375000005-70.9Q 26.609609375000005-71.78  26.899609374999997-72.85L 26.899609374999997-72.85Q 27.879609375-75.88  28.709609375-78.81Q 29.539609374999998-81.74  31.199609374999994-84.38L 31.199609374999994-84.38L 31.199609374999994-86.82Q 32.959609375-90.33  33.689609375-94.24Q 34.41960937499999-98.14  35.499609375000006-101.86L 35.499609375000006-101.86Q 35.689609375-102.93  36.229609374999995-104.05Q 36.769609375-105.18  37.549609375-105.66L 37.549609375-105.66Q 37.259609375-106.25  37.259609375-106.84L 37.259609375-106.84Q 37.259609375-107.62  37.499609375000006-108.25Q 37.739609375-108.89  37.939609375-109.57L 37.939609375-109.57Q 37.649609375-110.25  37.649609375-111.33L 37.649609375-111.33Q 37.649609375-112.7  38.429609375-113.92Q 39.209609375-115.14  40.769609375-115.53L 40.769609375-115.53Q 41.749609375000006-115.23  42.429609375-114.55Q 43.119609374999996-113.87  43.749609375000006-113.13Q 44.389609375000006-112.4  45.119609374999996-111.96Q 45.849609375-111.52  47.019609375-111.72L 47.019609375-111.72Q 47.799609375-110.25  48.099609375-108.64Q 48.389609375000006-107.03  48.389609375000006-105.37L 48.389609375000006-105.37Q 48.389609375000006-103.13  47.999609375000006-100.73Q 47.609609375000005-98.34  47.709609375-95.9L 47.709609375-95.9Q 46.91960937499999-94.34  46.579609375000004-92.53Q 46.239609375-90.72  45.949609374999994-88.87Q 45.649609375-87.01  45.259609375-85.25Q 44.869609374999996-83.5  43.899609375-81.93L 43.899609375-81.93Q 43.599609375-77.54  43.259609375-73.34Q 42.91960937499999-69.14  42.239609375-64.94L 42.239609375-64.94L 41.359609375000005-59.38Q 41.159609375-58.69  40.969609375000005-57.86Q 40.769609375-57.03  40.769609375-56.45L 40.769609375-56.45Q 40.769609375-55.86  40.869609374999996-55.22Q 40.969609375000005-54.59  41.459609375-54.3L 41.459609375-54.3Q 40.769609375-53.32  40.479609374999995-51.95Q 40.189609375-50.59  39.889609375000006-49.02L 39.889609375000006-49.02L 39.399609375-46Q 39.209609375-44.53  38.619609374999996-43.36L 38.619609374999996-43.36L 38.619609374999996-42.29Q 38.619609374999996-38.38  37.259609375-34.28L 37.259609375-34.28L 37.259609375-33.79Q 37.259609375-33.3  37.209609375-32.96Q 37.159609375-32.62  37.159609375-32.13L 37.159609375-32.13Q 37.159609375-31.45  37.549609375-31.05L 37.549609375-31.05Q 36.769609375-28.52  36.079609375000004-25.83Q 35.399609375-23.14  35.109609375000005-20.31L 35.109609375000005-20.31Q 34.809609374999994-16.5  35.009609375-12.55Q 35.209609375-8.59  34.02960937500001-4.88L 34.02960937500001-4.88Q 34.619609374999996-3.13  34.809609374999994-1.07L 34.809609374999994-1.07L 35.209609375 3.03Q 35.399609375 5.08  35.839609374999995 6.98Q 36.27960937500001 8.89  37.549609375 10.16L 37.549609375 10.16Q 37.649609375 10.35  37.649609375 10.74L 37.649609375 10.74Q 37.649609375 11.52  37.259609375 11.91L 37.259609375 11.91Q 37.449609374999994 12.89  37.939609375 13.57Q 38.429609375 14.26  38.91960937499999 14.89Q 39.399609375 15.53  39.749609375000006 16.31Q 40.089609374999995 17.09  40.089609374999995 18.26L 40.089609374999995 18.26Q 40.869609374999996 19.34  42.52960937500001 19.92Q 44.189609375 20.51  45.899609375 21.09Q 47.609609375000005 21.68  48.879609375 22.61Q 50.149609375 23.54  50.149609375 25.29Z"></path>
</svg>