<svg xmlns="http://www.w3.org/2000/svg" width="512" height="512" viewBox="0 0 512 512" data-svgdocument="" id="_QPbOH8Bvnff-nxIn-ryGS" class="fl-svgdocument" x="0" y="0" style="overflow: hidden;"
    xmlns:xlink="http://www.w3.org/1999/xlink">
    <defs id="_-Pf6sSTUS_QCObCL12lGl" transform="matrix(1.2307695150375366, 0, 0, 1.2307695150375366, -59.07701110839844, -67.29283142089844)"/>
    <g id="nurture-icon-circle" transform="matrix(0.17709922790527344, 0.9841930270195007, -0.9841930270195007, 0.17709922790527344, 625.2904663085938, -165.9803924560547)">
        <path id="_ehe1g4nge_125" d="M211.4,172.1c2.8-3.3,5.9-7.7,3.9-11.6c11.2-6.6,21.1-15.3,29.2-25.5c-4.4,3.5-9.2,6.3-14.3,8.5   c38.3-37.8,95.9-55,148.8-44.4c-42.6-1.6-86,9.7-121.2,33.7c-35.3,23.9-62.1,60.6-72.4,102c15.6-45.3,48.5-84.4,90.5-107.4   c-3.3,3.4-6.6,6.9-10,10.3c16-6.6,30.5-16.5,46.4-23.4c46.7-20.4,102.9-12.7,146.4,13.9c43.5,26.6,74.8,70.2,93,117.8   c8,20.8,13.6,43.9,6.5,65c-1.6-27.5-10.6-54-22.3-78.9c-19.4-41.5-47.2-80.4-86.3-104.2c-39.1-23.7-90.8-30-130.8-7.7   c20.5-2.2,41.2-3.4,61.5-0.5c38.2,5.4,73.5,25.4,100.3,53.1c26.7,27.8,45.2,62.9,56.1,99.8c10.6,36.1,14.1,75.9,0.5,111.1   c39.7-64.2,33.1-153.6-15.4-211.3c-20.3-24.1-46.6-42.6-75-56c-32.8-15.4-68.8-24.3-105-23.3s-72.4,12.3-101.3,34.1   c24-21.2,55.3-33.2,87.1-36.5c31.9-3.2,64.2,2,94.5,12.2c63,21.4,120.4,68.6,138.9,132.5c4.7,16.4,6.8,33.4,8.7,50.4   c1.6,14.7,2.9,29.4,2.6,44.2c-1.4,73.1-48.1,144.5-116.2,171.2c-19.3,7.5-39.7,11.6-60.2,14.5c-32.8,4.6-66.8,6-98.4-3.8   c-16.3-5.1-31.5-13-45.6-22.7c-58.4-40-95.3-109.7-95.3-180.5c0-12.6,1.1-25.1,2.8-37.5c1.5-11.4,3.5-22.7,6.8-33.7   c5-16.2,12.8-31.5,23.1-45c1.8-1.1,3.6-2.3,5.3-3.5c-23.7,50.1-37.8,109.3-16.1,160.4c-7.8-33.3-8.3-68.2-1.4-101.6   c2.2-0.8,4.4-1.7,6.5-2.6c0.1-2.2,0.2-4.3,0.3-6.5c-1.6,1.8-3.1,3.6-4.7,5.3C182.9,217.5,194.3,192.4,211.4,172.1 M227.5,170.8   c6.2-4.2,12.4-8.4,18.6-12.6c-3.9,7.9-11.1,14.1-19.5,16.9c-39,40.3-51,100.4-46.4,156.2c1.8,21.1,6.1,43,19.7,59.2   c-9.5-39-10-80.2-1.3-119.4c1.7-0.1,2.3,2.1,2.3,3.8c0.7,26.3-3.8,52.6-1.9,78.9c1.9,26.2,11.7,53.9,33.7,68.2   c17.2,11.2,34.3,22.4,51.4,33.6c-40-12.8-74.9-40.6-96.5-76.6c5.8,15.7,13.9,30.6,23.9,44c-1.3-3.6-2.5-7.3-3.8-11   c10.1,9.5,20.3,18.8,30.4,28.2c7.4,6.9,19,13.9,26.6,7.3c1.2,2.5-1,5.6-3.7,6.3c-2.7,0.8-5.6,0-8.3-0.8c12.1,8.7,24.7,16.7,37.7,24   c-1.9,0.3-2.5,3.1-1.3,4.7c1.2,1.6,3.2,2,5.1,2.5c47.7,10.3,98.5,6.5,144.1-11.1c-39.2,9.2-81,11.3-119-2   c-32.1-11.2-60.2-33.3-78.6-61.8c-5.9-9.2-10.8-18.9-15.3-28.8c-14.5-32.6-23.7-68.2-21.1-103.8c2.6-35.6,18.2-71.1,46.2-93.1   c2.9-2.3,6.5-4.5,10.1-3.6c-27.6,20-44,53.1-48.3,86.9c-4.3,33.9,2.7,68.3,15,100.1c8.8,22.5,20.5,44.3,36.6,62.3   c6.9,7.7,14.7,14.7,23.6,20c16.3,9.8,35.6,13.5,54.5,15.9c25.7,3.3,51.6,4.7,77.5,4.1c-32.7,7.7-66.9,2.2-100-3.3   c56.2,21.1,122.1,8.2,170.4-27.3c9.6-7.1,18.7-15,26-24.5c11.2-14.6,17.9-32.4,21.3-50.5c8.8-47.2-3.8-96.5-26.7-138.8   c-15.9-29.4-37-56.6-64.8-75.1c-26-17.2-56.9-26.3-88-28C309.9,119,259.3,134.8,227.5,170.8 M321.4,495.6   c21.5,5.4,43.2,9.3,65.2,11.9c-27,6.2-54.8-3.3-80.9-12.6c-15.4-5.4-31-11-45.3-19c-34.6-19.2-60.6-52.1-75.7-88.7   c-2.6-6.5-5-13-7-19.6c-0.2-0.8-0.8,1.1,0,0.7c0.8-0.3,0.7-1.5,0.3-2.3c-9-21.7-14.5-45-16.2-68.4c-1.7,35.4,7.1,71,23.1,102.7   c17.4,34.5,43.5,64.8,76.3,85.3c32.7,20.5,72.1,30.9,110.5,27.2c54-5.3,101.4-36.8,144.9-69.1c-19.2,25.4-48.3,41.1-76.6,55.9   c48.9-13.7,88.1-52.4,111.7-97.4c-11.7,20-30,35.7-49.9,47.5c-20,11.8-41.9,20-63.8,27.9c-9.6,3.5-19.3,6.9-29.2,9.7   C380.5,495.4,350.7,498.2,321.4,495.6 M521.4,428c5-4.7,9.9-9.5,13.9-14.9c6.3-8.7,10.5-18.8,14.5-28.8   c5.4-13.6,10.9-27.3,12.3-41.9c-2.6,2.3-3.5,5.7-4.5,9c-13.3,46.1-46.2,86.3-88.9,108.3C488.8,455.2,506.1,442.1,521.4,428    M277,477c2.1,0.5,4.7,1.4,4.8,3.5c0.8-1.4,3.2-1.4,4.1,0c0.4-0.1,0.1-0.8-0.4-1c-3-1.6-6-3.2-8.9-4.8c-12.1-6.5-23.2-14.6-33.1-24   c-1.2,2.6-0.3,5.9,2,7.5c4.4,3.2,8.8,6.4,13.2,9.6C264,472.2,270.3,475.4,277,477 M565.8,325.8c-0.4,7.4-0.8,14.9-1.3,22.3   c-0.1,1-0.1,2-0.1,3c-0.1,1.8-0.2,3.6-0.4,5.3c-0.1,2.2-0.2,4.2-0.2,6.4c4.2-17,5.7-34.8,4.4-52.2c-0.5-0.2-1-0.5-1.4-0.8   C566.5,315.1,566.1,320.4,565.8,325.8 M177.1,216.2c-0.7,1.3-1.3,2.6-1.9,3.9c0.7,0.9,2-0.2,2.3-1.3c0.3-1,0.6-2.4,1.7-2.5   c-0.5-0.5-1-1-1.5-1.5c-0.2,0.4-0.4,1-0.2,1.4 M249.8,133.2c1-0.8,2-1.6,3-2.5c-1.7-0.7-3.9,0.2-4.6,2   C248.7,132.9,249.2,133.1,249.8,133.2 M252.9,128.5c2.2,0.5,4.7-0.1,6.5-1.6C257.1,126.8,254.8,127.3,252.9,128.5 M173.3,230   c-0.1-0.5-0.2-1-0.2-1.4c-1.9,0.7-2.8,3.3-1.7,5C171.8,232.3,172.4,231.1,173.3,230 M162,281c-0.5,0.7-0.1,1.9,0.8,2   c0.5-1.6,0.4-3.3-0.1-5c-1,0.5-1.3,1.9-0.7,2.8" fill="rgba(115,172,118,0.88)" transform="matrix(0.19573944807052612, 0, 0, 0.19573944807052612, 364.4244384765625, 259.7236022949219)"/>
        <path id="_ehe1g4nge_126" d="M229.4,144c0.2,0.3,0.4,0.7,0.6,1c-0.9,1.3-2.6,1.9-4.1,1.5c0.8-1.1,2-1.9,3.3-2.2" fill="rgba(115,172,118,0.88)" transform="matrix(0.19573944807052612, 0, 0, 0.19573944807052612, 364.4244384765625, 259.7236022949219)"/>
        <path id="_ehe1g4nge_127" d="M221.5,150.4c1.4-0.5,2.9-0.8,4.4-0.7c-0.3,2.2-4,2.8-4.9,0.7" fill="rgba(115,172,118,0.88)" transform="matrix(0.19573944807052612, 0, 0, 0.19573944807052612, 364.4244384765625, 259.7236022949219)"/>
        <path id="_ehe1g4nge_128" d="M216.5,145.8c0.9-1.4,2.6-2.4,4.4-2.2c0.4,1,0.1,2.2-0.7,2.9c-1.4,0.2-3.1,0.4-4.1-0.7" fill="rgba(115,172,118,0.88)" transform="matrix(0.19573944807052612, 0, 0, 0.19573944807052612, 364.4244384765625, 259.7236022949219)"/>
        <path id="_ehe1g4nge_129" d="M496.8,152.4c0.6-0.1,1.2,0.5,1.1,1.1c-0.1,0.6-0.8,1-1.4,0.8c-0.9-1-1.8-2.1-2.7-3.2c1-0.8,2.8-0.1,3,1.1" fill="rgba(115,172,118,0.88)" transform="matrix(0.19573944807052612, 0, 0, 0.19573944807052612, 364.4244384765625, 259.7236022949219)"/>
        <path id="_ehe1g4nge_130" d="M225.5,137.6c0.7-0.8,2.1-0.8,2.9-0.1c-1.3,1.3-3,2.2-4.8,2.8c-0.2-1.1,0.8-2.4,1.9-2.3" fill="rgba(115,172,118,0.88)" transform="matrix(0.19573944807052612, 0, 0, 0.19573944807052612, 364.4244384765625, 259.7236022949219)"/>
        <path id="_ehe1g4nge_131" d="M209.1,230.6c0.9-1.3,3.3-0.8,3.6,0.8c-1.2-0.2-2.5,0.2-3.3,1.1c-0.5,0.2-1.3-0.2-1.3-0.8   c-0.1-0.5,0.5-1.1,1.1-1" fill="rgba(115,172,118,0.88)" transform="matrix(0.19573944807052612, 0, 0, 0.19573944807052612, 364.4244384765625, 259.7236022949219)"/>
        <path id="_ehe1g4nge_132" d="M266.3,166.6c0.5-0.2,1.2-0.4,1.7-0.2c0.6,0.2,0.9,1.1,0.5,1.5c-1.9,1.2-4.1,1.9-6.3,2   C263.2,168.5,264.7,167.4,266.3,166.6" fill="rgba(115,172,118,0.88)" transform="matrix(0.19573944807052612, 0, 0, 0.19573944807052612, 364.4244384765625, 259.7236022949219)"/>
        <path id="_ehe1g4nge_133" d="M295.8,479.1c1,0.7,2.1,1.4,3.1,2.1c-2.2,0.9-4.8,0.4-6.6-1.2c-0.4-0.7,0.4-1.7,1.1-1.7   C294.3,478.2,295.1,478.7,295.8,479.1" fill="rgba(115,172,118,0.88)" transform="matrix(0.19573944807052612, 0, 0, 0.19573944807052612, 364.4244384765625, 259.7236022949219)"/>
        <path id="_ehe1g4nge_134" d="M250.1,157.4c-0.5-1.5-0.1-3.3,1.1-4.4c0.8-0.2,1.6-0.8,1.9-1.7c1.3,0.5,2.5,1,3.8,1.5   C254.7,154.3,252.4,155.8,250.1,157.4" fill="rgba(115,172,118,0.88)" transform="matrix(0.19573944807052612, 0, 0, 0.19573944807052612, 364.4244384765625, 259.7236022949219)"/>
        <path id="_ehe1g4nge_135" d="M201.3,264.8c0-0.6,0-1.2,0-1.8c1-0.5,2.1-0.5,3-0.1c-1.8,1.9-2.8,4.5-2.6,7.1c-1.1-0.8-2.3-1.7-3.5-2.5   c1-0.8,2.1-1.7,3.2-2.6" fill="rgba(115,172,118,0.88)" transform="matrix(0.19573944807052612, 0, 0, 0.19573944807052612, 364.4244384765625, 259.7236022949219)"/>
        <path id="_ehe1g4nge_136" d="M194.7,176.5c0.4-3.1,2.2-5.9,4.7-7.8c0.7-0.5,1.8-0.8,2.2-0.1c-2.2,2.2-4,4.7-5.3,7.5   C196,176.6,195.2,176.9,194.7,176.5" fill="rgba(115,172,118,0.88)" transform="matrix(0.19573944807052612, 0, 0, 0.19573944807052612, 364.4244384765625, 259.7236022949219)"/>
        <path id="_ehe1g4nge_137" d="M205,238.5c2-1.5,3.9-3,5.9-4.5c-0.5,1.9-1,3.6-1.5,5.5c-0.7,0.4-1.2,1.1-1.9,1.5c-0.7,0.4-1.7,0.5-2.2-0.2   c-0.4-0.7,0.7-1.7,1.1-1C206,239.4,205.5,239,205,238.5" fill="rgba(115,172,118,0.88)" transform="matrix(0.19573944807052612, 0, 0, 0.19573944807052612, 364.4244384765625, 259.7236022949219)"/>
        <path id="_ehe1g4nge_138" d="M281.2,161c-0.2,0.5-0.4,1-0.2,1.6c-1.6,0.3-3.1,0.6-4.5,0.9c-0.2,0.6-0.4,1.2-0.6,1.8   c-1.2-0.1-2.4-0.1-3.5-0.1c-1-0.5,0-1.9,1-2.4c2-1,4.1-1.6,6.3-1.9c-0.3-0.5-0.6-0.9-0.9-1.4c1.6-1.3,3.5-2.2,5.6-2.8   c0.4,0.7,0.5,1.5,0.3,2.3c-0.7,0.3-1.4,0.4-2.1,0.2c0.1,0.5,0.2,1,0.3,1.6C282.2,161,281.7,161.1,281.2,161" fill="rgba(115,172,118,0.88)" transform="matrix(0.19573944807052612, 0, 0, 0.19573944807052612, 364.4244384765625, 259.7236022949219)"/>
        <path id="_ehe1g4nge_139" d="M203,170.4c0.8-0.5,1.9-0.7,2.8-0.5c-0.4-0.5-0.7-1-1-1.5c1-0.2,2-0.4,3.1-0.5c0.4-1,0.4-2.2,0-3.2   c1.1-0.1,2.3,0.1,3.3,0.5c0.3,0.4,0.4,1,0.3,1.5c-0.5,0.2-1.1,0.4-1.7,0.6c-0.2,1-0.5,2-0.7,3c-0.5,0.3-1.3,0.4-1.9,0.2   c-0.9,5.4-6.8,8.5-8.9,13.5c-0.7,1.7-1.4,3.9-3.2,3.9c-0.5-0.6-0.4-1.7,0.3-2.2c-0.7-0.2-1.3-0.4-1.9-0.6c-0.1-1.1,1.7-0.8,2.6-0.1   c0.8-0.7,0.1-2.3-0.9-2.3c1.1-0.9,1.8-2.3,2-3.7c1.1,0.1,2.2-0.3,2.9-1.1c-0.8,0.2-1.7-0.4-1.9-1.3c1.6,0.3,3.2-1.2,3.1-2.8   c1.2-0.7,2.4-1.4,3.6-2.1C204.4,171.4,203.7,170.9,203,170.4" fill="rgba(115,172,118,0.88)" transform="matrix(0.19573944807052612, 0, 0, 0.19573944807052612, 364.4244384765625, 259.7236022949219)"/>
        <path id="_ehe1g4nge_140" d="M517.1,175.7c-2.2-3-4.5-5.9-7.3-8.4c-3.9-3.5-8.9-6.6-9.7-11.8c23.5,19.9,41.6,46.2,51.7,75.3   c0.9,0.8-0.1,2.6-1.2,2.3C541.8,212.8,530.5,193.4,517.1,175.7" fill="rgba(115,172,118,0.88)" transform="matrix(0.19573944807052612, 0, 0, 0.19573944807052612, 364.4244384765625, 259.7236022949219)"/>
        <path id="_ehe1g4nge_141" d="M253.1,159.9c4.1-3.3,8.8-6.4,10.5-11.4c0.5-1.4,1.9-2.5,3.2-3.3c20.2-12.7,43.8-19.7,67.6-20.1   c-11.9,3.2-23.7,6.3-35.6,9.5c-18.5,4.9-32.1,20.2-44.6,34.8c-10.8,12.7-21.7,25.4-32.5,38.2c-1.3,3.5-2.5,7.1-3.8,10.6   c-0.5,1.6-1.1,3.2-2.5,4.2c-1.3,1-3.5,1-4.3-0.5c4.8-8.4,9.6-16.9,14.5-25.4C233.4,183.3,241.2,169.7,253.1,159.9" fill="rgba(115,172,118,0.88)" transform="matrix(0.19573944807052612, 0, 0, 0.19573944807052612, 364.4244384765625, 259.7236022949219)"/>
    </g>
    <path id="nurture-icon-bandage" transform="matrix(0.4752541482448578, -0.4752541482448578, 0.4752541482448578, 0.4752541482448578, 340.6602478027344, 320.5070495605469)" fill="#1d398f" d="M36,18.9989785 L36,18.9989785 L36,81.0010215 C36,84.3153845 38.6827294,87 41.9924054,87 L58.0075946,87 C61.3171476,87 64,84.3147878 64,81.0010215 L64,18.9989785 C64,15.6846155 61.3172706,13 58.0075946,13 L41.9924054,13 C38.6828524,13 36,15.6852122 36,18.9989785 L36,18.9989785 Z M34,18.9989785 C34,14.5812646 37.5776607,11 41.9924054,11 L58.0075946,11 C62.4216782,11 66,14.5798836 66,18.9989785 L66,81.0010215 C66,85.4187354 62.4223393,89 58.0075946,89 L41.9924054,89 C37.5783218,89 34,85.4201164 34,81.0010215 L34,18.9989785 Z M40,43.0095579 L40,56.9904421 C40,58.6493638 41.3494245,60 43.0095579,60 L56.9904421,60 C58.6493638,60 60,58.6505755 60,56.9904421 L60,43.0095579 C60,41.3506362 58.6505755,40 56.9904421,40 L43.0095579,40 C41.3506362,40 40,41.3494245 40,43.0095579 Z M39,43.0095579 C39,40.7951402 40.8003523,39 43.0095579,39 L56.9904421,39 C59.2048598,39 61,40.8003523 61,43.0095579 L61,56.9904421 C61,59.2048598 59.1996477,61 56.9904421,61 L43.0095579,61 C40.7951402,61 39,59.1996477 39,56.9904421 L39,43.0095579 Z M44,22 C44.5522847,22 45,21.5522847 45,21 C45,20.4477153 44.5522847,20 44,20 C43.4477153,20 43,20.4477153 43,21 C43,21.5522847 43.4477153,22 44,22 Z M44,34 C44.5522847,34 45,33.5522847 45,33 C45,32.4477153 44.5522847,32 44,32 C43.4477153,32 43,32.4477153 43,33 C43,33.5522847 43.4477153,34 44,34 Z M50,28 C50.5522847,28 51,27.5522847 51,27 C51,26.4477153 50.5522847,26 50,26 C49.4477153,26 49,26.4477153 49,27 C49,27.5522847 49.4477153,28 50,28 Z M56,22 C56.5522847,22 57,21.5522847 57,21 C57,20.4477153 56.5522847,20 56,20 C55.4477153,20 55,20.4477153 55,21 C55,21.5522847 55.4477153,22 56,22 Z M56,34 C56.5522847,34 57,33.5522847 57,33 C57,32.4477153 56.5522847,32 56,32 C55.4477153,32 55,32.4477153 55,33 C55,33.5522847 55.4477153,34 56,34 Z M44,68 C44.5522847,68 45,67.5522847 45,67 C45,66.4477153 44.5522847,66 44,66 C43.4477153,66 43,66.4477153 43,67 C43,67.5522847 43.4477153,68 44,68 Z M44,80 C44.5522847,80 45,79.5522847 45,79 C45,78.4477153 44.5522847,78 44,78 C43.4477153,78 43,78.4477153 43,79 C43,79.5522847 43.4477153,80 44,80 Z M50,74 C50.5522847,74 51,73.5522847 51,73 C51,72.4477153 50.5522847,72 50,72 C49.4477153,72 49,72.4477153 49,73 C49,73.5522847 49.4477153,74 50,74 Z M56,68 C56.5522847,68 57,67.5522847 57,67 C57,66.4477153 56.5522847,66 56,66 C55.4477153,66 55,66.4477153 55,67 C55,67.5522847 55.4477153,68 56,68 Z M56,80 C56.5522847,80 57,79.5522847 57,79 C57,78.4477153 56.5522847,78 56,78 C55.4477153,78 55,78.4477153 55,79 C55,79.5522847 55.4477153,80 56,80 Z" stroke="none"/>
    <path id="nurture-icon-text" text="nurture" fill="#f55e00" transform="matrix(0.3198803663253784, 0, 0, 0.3198803663253784, 387.926513671875, 377.9816589355469)" space="preserve" text-anchor="middle" offset="0.5" font-scale="contain" font-size="48" font-family="Open Sans" data-fl-textpath="" d="M-60.13265625 0L-64.02265625 0L-64.02265625-16.62Q-64.02265625-19.76 -65.45265625-21.3Q-66.88265625-22.85 -69.92265625-22.85L-69.92265625-22.85Q-73.95265625-22.85 -75.83265625-20.67Q-77.70265625-18.49 -77.70265625-13.48L-77.70265625-13.48L-77.70265625 0L-81.59265625 0L-81.59265625-25.69L-78.43265625-25.69L-77.80265625-22.17L-77.61265625-22.17Q-76.42265625-24.07 -74.26265624999999-25.11Q-72.10265625-26.16 -69.45265625-26.16L-69.45265625-26.16Q-64.81265625-26.16 -62.47265625-23.92Q-60.13265625-21.68 -60.13265625-16.76L-60.13265625-16.76L-60.13265625 0ZM-52.42171875-25.69L-48.48171875-25.69L-48.48171875-9.02Q-48.48171875-5.88 -47.05171875-4.34Q-45.62171875-2.79 -42.57171875-2.79L-42.57171875-2.79Q-38.54171875-2.79 -36.68171875-4.99Q-34.81171875-7.2 -34.81171875-12.19L-34.81171875-12.19L-34.81171875-25.69L-30.92171875-25.69L-30.92171875 0L-34.131718750000005 0L-34.70171875-3.45L-34.91171875-3.45Q-36.10171875-1.55 -38.22171875-0.54Q-40.35171875 0.47 -43.06171875 0.47L-43.06171875 0.47Q-47.75171875 0.47 -50.08171875-1.76Q-52.42171875-3.98 -52.42171875-8.88L-52.42171875-8.88L-52.42171875-25.69ZM-10.96078125-26.16L-10.96078125-26.16Q-9.25078125-26.16 -7.89078125-25.88L-7.89078125-25.88L-8.420781250000001-22.27Q-10.020781249999999-22.62 -11.24078125-22.62L-11.24078125-22.62Q-14.35078125-22.62 -16.57078125-20.09Q-18.78078125-17.55 -18.78078125-13.78L-18.78078125-13.78L-18.78078125 0L-22.67078125 0L-22.67078125-25.69L-19.46078125-25.69L-19.02078125-20.93L-18.83078125-20.93Q-17.40078125-23.44 -15.39078125-24.8Q-13.37078125-26.16 -10.96078125-26.16ZM 5.21296875-2.74L 5.21296875-2.74Q 6.242968749999999-2.74  7.20296875-2.89Q 8.17296875-3.05  8.73296875-3.21L 8.73296875-3.21L 8.73296875-0.23Q 8.09296875 0.07  6.86296875 0.27Q 5.63296875 0.47  4.652968749999999 0.47L 4.652968749999999 0.47Q-2.79703125 0.47 -2.79703125-7.38L-2.79703125-7.38L-2.79703125-22.66L-6.47703125-22.66L-6.47703125-24.54L-2.79703125-26.16L-1.1570312500000002-31.64L 1.0929687500000007-31.64L 1.0929687500000007-25.69L 8.54296875-25.69L 8.54296875-22.66L 1.0929687500000007-22.66L 1.0929687500000007-7.55Q 1.0929687500000007-5.23  2.1929687500000004-3.98Q 3.29296875-2.74  5.21296875-2.74ZM 13.57828125-25.69L 17.51828125-25.69L 17.51828125-9.02Q 17.51828125-5.88  18.94828125-4.34Q 20.37828125-2.79  23.428281249999998-2.79L 23.428281249999998-2.79Q 27.45828125-2.79  29.31828125-4.99Q 31.18828125-7.2  31.18828125-12.19L 31.18828125-12.19L 31.18828125-25.69L 35.07828125-25.69L 35.07828125 0L 31.86828125 0L 31.29828125-3.45L 31.08828125-3.45Q 29.89828125-1.55  27.77828125-0.54Q 25.64828125 0.47  22.93828125 0.47L 22.93828125 0.47Q 18.248281249999998 0.47  15.91828125-1.76Q 13.57828125-3.98  13.57828125-8.88L 13.57828125-8.88L 13.57828125-25.69ZM 55.03921875-26.16L 55.03921875-26.16Q 56.74921875-26.16  58.10921875-25.88L 58.10921875-25.88L 57.579218749999995-22.27Q 55.97921875-22.62  54.75921875-22.62L 54.75921875-22.62Q 51.64921875-22.62  49.429218750000004-20.09Q 47.219218749999996-17.55  47.219218749999996-13.78L 47.219218749999996-13.78L 47.219218749999996 0L 43.32921875 0L 43.32921875-25.69L 46.53921875-25.69L 46.97921875-20.93L 47.16921875-20.93Q 48.59921875-23.44  50.60921875-24.8Q 52.62921875-26.16  55.03921875-26.16ZM 73.77296875 0.47L 73.77296875 0.47Q 68.07296875 0.47  64.78296875-3Q 61.49296875-6.47  61.49296875-12.63L 61.49296875-12.63Q 61.49296875-18.84  64.54296875-22.5Q 67.60296875-26.16  72.76296875-26.16L 72.76296875-26.16Q 77.59296875-26.16  80.40296875-22.98Q 83.21296875-19.8  83.21296875-14.6L 83.21296875-14.6L 83.21296875-12.14L 65.52296875-12.14Q 65.63296875-7.62  67.80296875-5.27Q 69.97296875-2.93  73.91296875-2.93L 73.91296875-2.93Q 78.06296875-2.93  82.11296875-4.66L 82.11296875-4.66L 82.11296875-1.2Q 80.05296875-0.3  78.21296875 0.08Q 76.37296875 0.47  73.77296875 0.47ZM 72.71296875-22.9L 72.71296875-22.9Q 69.62296875-22.9  67.78296875-20.88Q 65.94296875-18.87  65.61296875-15.3L 65.61296875-15.3L 79.04296875-15.3Q 79.04296875-18.98  77.40296875-20.94Q 75.76296875-22.9  72.71296875-22.9Z"></path>
</svg>