<svg xmlns="http://www.w3.org/2000/svg" width="512" height="512" viewBox="0 0 512 512" data-svgdocument="" id="_QPbOH8Bvnff-nxIn-ryGS" class="fl-svgdocument" x="0" y="0" style="overflow: hidden;"
    xmlns:xlink="http://www.w3.org/1999/xlink">
    <defs id="_-Pf6sSTUS_QCObCL12lGl" transform="matrix(1.2307695150375366, 0, 0, 1.2307695150375366, -59.07701110839844, -67.29283142089844)"/>
    <g id="nutrition-icon" transform="matrix(1, 0, 0, 1, -49.58024597167969, -0.7148051261901855)">
        <g id="_ehe1g4nge_102" transform="matrix(0.9670689702033997, 0.25451600551605225, -0.25451600551605225, 0.9670689702033997, 123.5791015625, -96.77645111083984)">
            <path id="_ehe1g4nge_103" d="M211.4,172.1c2.8-3.3,5.9-7.7,3.9-11.6c11.2-6.6,21.1-15.3,29.2-25.5c-4.4,3.5-9.2,6.3-14.3,8.5   c38.3-37.8,95.9-55,148.8-44.4c-42.6-1.6-86,9.7-121.2,33.7c-35.3,23.9-62.1,60.6-72.4,102c15.6-45.3,48.5-84.4,90.5-107.4   c-3.3,3.4-6.6,6.9-10,10.3c16-6.6,30.5-16.5,46.4-23.4c46.7-20.4,102.9-12.7,146.4,13.9c43.5,26.6,74.8,70.2,93,117.8   c8,20.8,13.6,43.9,6.5,65c-1.6-27.5-10.6-54-22.3-78.9c-19.4-41.5-47.2-80.4-86.3-104.2c-39.1-23.7-90.8-30-130.8-7.7   c20.5-2.2,41.2-3.4,61.5-0.5c38.2,5.4,73.5,25.4,100.3,53.1c26.7,27.8,45.2,62.9,56.1,99.8c10.6,36.1,14.1,75.9,0.5,111.1   c39.7-64.2,33.1-153.6-15.4-211.3c-20.3-24.1-46.6-42.6-75-56c-32.8-15.4-68.8-24.3-105-23.3s-72.4,12.3-101.3,34.1   c24-21.2,55.3-33.2,87.1-36.5c31.9-3.2,64.2,2,94.5,12.2c63,21.4,120.4,68.6,138.9,132.5c4.7,16.4,6.8,33.4,8.7,50.4   c1.6,14.7,2.9,29.4,2.6,44.2c-1.4,73.1-48.1,144.5-116.2,171.2c-19.3,7.5-39.7,11.6-60.2,14.5c-32.8,4.6-66.8,6-98.4-3.8   c-16.3-5.1-31.5-13-45.6-22.7c-58.4-40-95.3-109.7-95.3-180.5c0-12.6,1.1-25.1,2.8-37.5c1.5-11.4,3.5-22.7,6.8-33.7   c5-16.2,12.8-31.5,23.1-45c1.8-1.1,3.6-2.3,5.3-3.5c-23.7,50.1-37.8,109.3-16.1,160.4c-7.8-33.3-8.3-68.2-1.4-101.6   c2.2-0.8,4.4-1.7,6.5-2.6c0.1-2.2,0.2-4.3,0.3-6.5c-1.6,1.8-3.1,3.6-4.7,5.3C182.9,217.5,194.3,192.4,211.4,172.1 M227.5,170.8   c6.2-4.2,12.4-8.4,18.6-12.6c-3.9,7.9-11.1,14.1-19.5,16.9c-39,40.3-51,100.4-46.4,156.2c1.8,21.1,6.1,43,19.7,59.2   c-9.5-39-10-80.2-1.3-119.4c1.7-0.1,2.3,2.1,2.3,3.8c0.7,26.3-3.8,52.6-1.9,78.9c1.9,26.2,11.7,53.9,33.7,68.2   c17.2,11.2,34.3,22.4,51.4,33.6c-40-12.8-74.9-40.6-96.5-76.6c5.8,15.7,13.9,30.6,23.9,44c-1.3-3.6-2.5-7.3-3.8-11   c10.1,9.5,20.3,18.8,30.4,28.2c7.4,6.9,19,13.9,26.6,7.3c1.2,2.5-1,5.6-3.7,6.3c-2.7,0.8-5.6,0-8.3-0.8c12.1,8.7,24.7,16.7,37.7,24   c-1.9,0.3-2.5,3.1-1.3,4.7c1.2,1.6,3.2,2,5.1,2.5c47.7,10.3,98.5,6.5,144.1-11.1c-39.2,9.2-81,11.3-119-2   c-32.1-11.2-60.2-33.3-78.6-61.8c-5.9-9.2-10.8-18.9-15.3-28.8c-14.5-32.6-23.7-68.2-21.1-103.8c2.6-35.6,18.2-71.1,46.2-93.1   c2.9-2.3,6.5-4.5,10.1-3.6c-27.6,20-44,53.1-48.3,86.9c-4.3,33.9,2.7,68.3,15,100.1c8.8,22.5,20.5,44.3,36.6,62.3   c6.9,7.7,14.7,14.7,23.6,20c16.3,9.8,35.6,13.5,54.5,15.9c25.7,3.3,51.6,4.7,77.5,4.1c-32.7,7.7-66.9,2.2-100-3.3   c56.2,21.1,122.1,8.2,170.4-27.3c9.6-7.1,18.7-15,26-24.5c11.2-14.6,17.9-32.4,21.3-50.5c8.8-47.2-3.8-96.5-26.7-138.8   c-15.9-29.4-37-56.6-64.8-75.1c-26-17.2-56.9-26.3-88-28C309.9,119,259.3,134.8,227.5,170.8 M321.4,495.6   c21.5,5.4,43.2,9.3,65.2,11.9c-27,6.2-54.8-3.3-80.9-12.6c-15.4-5.4-31-11-45.3-19c-34.6-19.2-60.6-52.1-75.7-88.7   c-2.6-6.5-5-13-7-19.6c-0.2-0.8-0.8,1.1,0,0.7c0.8-0.3,0.7-1.5,0.3-2.3c-9-21.7-14.5-45-16.2-68.4c-1.7,35.4,7.1,71,23.1,102.7   c17.4,34.5,43.5,64.8,76.3,85.3c32.7,20.5,72.1,30.9,110.5,27.2c54-5.3,101.4-36.8,144.9-69.1c-19.2,25.4-48.3,41.1-76.6,55.9   c48.9-13.7,88.1-52.4,111.7-97.4c-11.7,20-30,35.7-49.9,47.5c-20,11.8-41.9,20-63.8,27.9c-9.6,3.5-19.3,6.9-29.2,9.7   C380.5,495.4,350.7,498.2,321.4,495.6 M521.4,428c5-4.7,9.9-9.5,13.9-14.9c6.3-8.7,10.5-18.8,14.5-28.8   c5.4-13.6,10.9-27.3,12.3-41.9c-2.6,2.3-3.5,5.7-4.5,9c-13.3,46.1-46.2,86.3-88.9,108.3C488.8,455.2,506.1,442.1,521.4,428    M277,477c2.1,0.5,4.7,1.4,4.8,3.5c0.8-1.4,3.2-1.4,4.1,0c0.4-0.1,0.1-0.8-0.4-1c-3-1.6-6-3.2-8.9-4.8c-12.1-6.5-23.2-14.6-33.1-24   c-1.2,2.6-0.3,5.9,2,7.5c4.4,3.2,8.8,6.4,13.2,9.6C264,472.2,270.3,475.4,277,477 M565.8,325.8c-0.4,7.4-0.8,14.9-1.3,22.3   c-0.1,1-0.1,2-0.1,3c-0.1,1.8-0.2,3.6-0.4,5.3c-0.1,2.2-0.2,4.2-0.2,6.4c4.2-17,5.7-34.8,4.4-52.2c-0.5-0.2-1-0.5-1.4-0.8   C566.5,315.1,566.1,320.4,565.8,325.8 M177.1,216.2c-0.7,1.3-1.3,2.6-1.9,3.9c0.7,0.9,2-0.2,2.3-1.3c0.3-1,0.6-2.4,1.7-2.5   c-0.5-0.5-1-1-1.5-1.5c-0.2,0.4-0.4,1-0.2,1.4 M249.8,133.2c1-0.8,2-1.6,3-2.5c-1.7-0.7-3.9,0.2-4.6,2   C248.7,132.9,249.2,133.1,249.8,133.2 M252.9,128.5c2.2,0.5,4.7-0.1,6.5-1.6C257.1,126.8,254.8,127.3,252.9,128.5 M173.3,230   c-0.1-0.5-0.2-1-0.2-1.4c-1.9,0.7-2.8,3.3-1.7,5C171.8,232.3,172.4,231.1,173.3,230 M162,281c-0.5,0.7-0.1,1.9,0.8,2   c0.5-1.6,0.4-3.3-0.1-5c-1,0.5-1.3,1.9-0.7,2.8" fill="rgba(115,172,118,0.88)" transform="matrix(0.19573946297168732, 0, 0, 0.19573946297168732, 364.42437744140625, 369.5598449707031)"/>
            <path id="_ehe1g4nge_104" d="M229.4,144c0.2,0.3,0.4,0.7,0.6,1c-0.9,1.3-2.6,1.9-4.1,1.5c0.8-1.1,2-1.9,3.3-2.2" fill="rgba(115,172,118,0.88)" transform="matrix(0.19573946297168732, 0, 0, 0.19573946297168732, 364.42437744140625, 369.5598449707031)"/>
            <path id="_ehe1g4nge_105" d="M221.5,150.4c1.4-0.5,2.9-0.8,4.4-0.7c-0.3,2.2-4,2.8-4.9,0.7" fill="rgba(115,172,118,0.88)" transform="matrix(0.19573946297168732, 0, 0, 0.19573946297168732, 364.42437744140625, 369.5598449707031)"/>
            <path id="_ehe1g4nge_106" d="M216.5,145.8c0.9-1.4,2.6-2.4,4.4-2.2c0.4,1,0.1,2.2-0.7,2.9c-1.4,0.2-3.1,0.4-4.1-0.7" fill="rgba(115,172,118,0.88)" transform="matrix(0.19573946297168732, 0, 0, 0.19573946297168732, 364.42437744140625, 369.5598449707031)"/>
            <path id="_ehe1g4nge_107" d="M496.8,152.4c0.6-0.1,1.2,0.5,1.1,1.1c-0.1,0.6-0.8,1-1.4,0.8c-0.9-1-1.8-2.1-2.7-3.2c1-0.8,2.8-0.1,3,1.1" fill="rgba(115,172,118,0.88)" transform="matrix(0.19573946297168732, 0, 0, 0.19573946297168732, 364.42437744140625, 369.5598449707031)"/>
            <path id="_ehe1g4nge_108" d="M225.5,137.6c0.7-0.8,2.1-0.8,2.9-0.1c-1.3,1.3-3,2.2-4.8,2.8c-0.2-1.1,0.8-2.4,1.9-2.3" fill="rgba(115,172,118,0.88)" transform="matrix(0.19573946297168732, 0, 0, 0.19573946297168732, 364.42437744140625, 369.5598449707031)"/>
            <path id="_ehe1g4nge_109" d="M209.1,230.6c0.9-1.3,3.3-0.8,3.6,0.8c-1.2-0.2-2.5,0.2-3.3,1.1c-0.5,0.2-1.3-0.2-1.3-0.8   c-0.1-0.5,0.5-1.1,1.1-1" fill="rgba(115,172,118,0.88)" transform="matrix(0.19573946297168732, 0, 0, 0.19573946297168732, 364.42437744140625, 369.5598449707031)"/>
            <path id="_ehe1g4nge_110" d="M266.3,166.6c0.5-0.2,1.2-0.4,1.7-0.2c0.6,0.2,0.9,1.1,0.5,1.5c-1.9,1.2-4.1,1.9-6.3,2   C263.2,168.5,264.7,167.4,266.3,166.6" fill="rgba(115,172,118,0.88)" transform="matrix(0.19573946297168732, 0, 0, 0.19573946297168732, 364.42437744140625, 369.5598449707031)"/>
            <path id="_ehe1g4nge_111" d="M295.8,479.1c1,0.7,2.1,1.4,3.1,2.1c-2.2,0.9-4.8,0.4-6.6-1.2c-0.4-0.7,0.4-1.7,1.1-1.7   C294.3,478.2,295.1,478.7,295.8,479.1" fill="rgba(115,172,118,0.88)" transform="matrix(0.19573946297168732, 0, 0, 0.19573946297168732, 364.42437744140625, 369.5598449707031)"/>
            <path id="_ehe1g4nge_112" d="M250.1,157.4c-0.5-1.5-0.1-3.3,1.1-4.4c0.8-0.2,1.6-0.8,1.9-1.7c1.3,0.5,2.5,1,3.8,1.5   C254.7,154.3,252.4,155.8,250.1,157.4" fill="rgba(115,172,118,0.88)" transform="matrix(0.19573946297168732, 0, 0, 0.19573946297168732, 364.42437744140625, 369.5598449707031)"/>
            <path id="_ehe1g4nge_113" d="M201.3,264.8c0-0.6,0-1.2,0-1.8c1-0.5,2.1-0.5,3-0.1c-1.8,1.9-2.8,4.5-2.6,7.1c-1.1-0.8-2.3-1.7-3.5-2.5   c1-0.8,2.1-1.7,3.2-2.6" fill="rgba(115,172,118,0.88)" transform="matrix(0.19573946297168732, 0, 0, 0.19573946297168732, 364.42437744140625, 369.5598449707031)"/>
            <path id="_ehe1g4nge_114" d="M194.7,176.5c0.4-3.1,2.2-5.9,4.7-7.8c0.7-0.5,1.8-0.8,2.2-0.1c-2.2,2.2-4,4.7-5.3,7.5   C196,176.6,195.2,176.9,194.7,176.5" fill="rgba(115,172,118,0.88)" transform="matrix(0.19573946297168732, 0, 0, 0.19573946297168732, 364.42437744140625, 369.5598449707031)"/>
            <path id="_ehe1g4nge_115" d="M205,238.5c2-1.5,3.9-3,5.9-4.5c-0.5,1.9-1,3.6-1.5,5.5c-0.7,0.4-1.2,1.1-1.9,1.5c-0.7,0.4-1.7,0.5-2.2-0.2   c-0.4-0.7,0.7-1.7,1.1-1C206,239.4,205.5,239,205,238.5" fill="rgba(115,172,118,0.88)" transform="matrix(0.19573946297168732, 0, 0, 0.19573946297168732, 364.42437744140625, 369.5598449707031)"/>
            <path id="_ehe1g4nge_116" d="M281.2,161c-0.2,0.5-0.4,1-0.2,1.6c-1.6,0.3-3.1,0.6-4.5,0.9c-0.2,0.6-0.4,1.2-0.6,1.8   c-1.2-0.1-2.4-0.1-3.5-0.1c-1-0.5,0-1.9,1-2.4c2-1,4.1-1.6,6.3-1.9c-0.3-0.5-0.6-0.9-0.9-1.4c1.6-1.3,3.5-2.2,5.6-2.8   c0.4,0.7,0.5,1.5,0.3,2.3c-0.7,0.3-1.4,0.4-2.1,0.2c0.1,0.5,0.2,1,0.3,1.6C282.2,161,281.7,161.1,281.2,161" fill="rgba(115,172,118,0.88)" transform="matrix(0.19573946297168732, 0, 0, 0.19573946297168732, 364.42437744140625, 369.5598449707031)"/>
            <path id="_ehe1g4nge_117" d="M203,170.4c0.8-0.5,1.9-0.7,2.8-0.5c-0.4-0.5-0.7-1-1-1.5c1-0.2,2-0.4,3.1-0.5c0.4-1,0.4-2.2,0-3.2   c1.1-0.1,2.3,0.1,3.3,0.5c0.3,0.4,0.4,1,0.3,1.5c-0.5,0.2-1.1,0.4-1.7,0.6c-0.2,1-0.5,2-0.7,3c-0.5,0.3-1.3,0.4-1.9,0.2   c-0.9,5.4-6.8,8.5-8.9,13.5c-0.7,1.7-1.4,3.9-3.2,3.9c-0.5-0.6-0.4-1.7,0.3-2.2c-0.7-0.2-1.3-0.4-1.9-0.6c-0.1-1.1,1.7-0.8,2.6-0.1   c0.8-0.7,0.1-2.3-0.9-2.3c1.1-0.9,1.8-2.3,2-3.7c1.1,0.1,2.2-0.3,2.9-1.1c-0.8,0.2-1.7-0.4-1.9-1.3c1.6,0.3,3.2-1.2,3.1-2.8   c1.2-0.7,2.4-1.4,3.6-2.1C204.4,171.4,203.7,170.9,203,170.4" fill="rgba(115,172,118,0.88)" transform="matrix(0.19573946297168732, 0, 0, 0.19573946297168732, 364.42437744140625, 369.5598449707031)"/>
            <path id="_ehe1g4nge_118" d="M517.1,175.7c-2.2-3-4.5-5.9-7.3-8.4c-3.9-3.5-8.9-6.6-9.7-11.8c23.5,19.9,41.6,46.2,51.7,75.3   c0.9,0.8-0.1,2.6-1.2,2.3C541.8,212.8,530.5,193.4,517.1,175.7" fill="rgba(115,172,118,0.88)" transform="matrix(0.19573946297168732, 0, 0, 0.19573946297168732, 364.42437744140625, 369.5598449707031)"/>
            <path id="_ehe1g4nge_119" d="M253.1,159.9c4.1-3.3,8.8-6.4,10.5-11.4c0.5-1.4,1.9-2.5,3.2-3.3c20.2-12.7,43.8-19.7,67.6-20.1   c-11.9,3.2-23.7,6.3-35.6,9.5c-18.5,4.9-32.1,20.2-44.6,34.8c-10.8,12.7-21.7,25.4-32.5,38.2c-1.3,3.5-2.5,7.1-3.8,10.6   c-0.5,1.6-1.1,3.2-2.5,4.2c-1.3,1-3.5,1-4.3-0.5c4.8-8.4,9.6-16.9,14.5-25.4C233.4,183.3,241.2,169.7,253.1,159.9" fill="rgba(115,172,118,0.88)" transform="matrix(0.19573946297168732, 0, 0, 0.19573946297168732, 364.42437744140625, 369.5598449707031)"/>
        </g>
        <path id="_ehe1g4nge_120" d="M78.676,0c-7.995,0-18.361,4.912-24.653,11.201c-9.993,9.99-4.858,23.127-8.789,27.055   c-3.938,3.938-21.953,18.523-31.148,27.73C-2.788,82.848-0.959,85.475,1.778,88.213c0.946,0.945,1.877,1.781,3.381,1.781   c2.863,0,7.799-3.023,18.85-14.08c9.206-9.199,23.8-27.211,27.73-31.145c3.931-3.932,16.925,1.336,27.055-8.789   C87.761,27.01,93.92,9.771,87.077,2.93C85.034,0.887,82.067,0,78.676,0z M77.457,34.643c-5.73,5.727-12.51,6.092-17.959,6.387   c-3.798,0.203-7.075,0.381-9.096,2.402c-1.6,1.6-4.744,5.268-8.727,9.908c-6.004,7.002-13.478,15.713-19.005,21.236   c-9.1,9.104-14.826,13.525-17.512,13.525c-0.702,0-1.179-0.361-2.043-1.227c-1.112-1.111-1.67-1.67-0.794-3.742   c1.329-3.158,5.615-8.328,13.101-15.809c5.516-5.523,14.22-12.986,21.214-18.982c4.654-3.99,8.331-7.145,9.935-8.748   c2.024-2.021,2.216-5.332,2.441-9.166c0.318-5.461,0.713-12.26,6.348-17.889c6.073-6.07,16.097-10.648,23.315-10.648   c3.111,0,5.486,0.801,7.064,2.375C91.585,10.111,85.977,26.119,77.457,34.643z" fill="#1d398f" transform="matrix(0.47289204597473145, 0, 0, 0.47289204597473145, 414.485595703125, 407.88372802734375)" stroke="#1d398f"/>
    </g>
    <path id="nutrition-icon-text" text="nutrition" fill="#f55e00" transform="matrix(0.3122406601905823, 0, 0, 0.3122406601905823, 388.1452331542969, 488.0409851074219)" space="preserve" text-anchor="middle" offset="0.5" font-scale="contain" font-size="48" font-family="Open Sans" data-fl-textpath="" d="M-71.9803125 0L-75.8703125 0L-75.8703125-16.62Q-75.8703125-19.76 -77.3003125-21.3Q-78.7303125-22.85 -81.7703125-22.85L-81.7703125-22.85Q-85.8003125-22.85 -87.6803125-20.67Q-89.5503125-18.49 -89.5503125-13.48L-89.5503125-13.48L-89.5503125 0L-93.4403125 0L-93.4403125-25.69L-90.2803125-25.69L-89.6503125-22.17L-89.4603125-22.17Q-88.2703125-24.07 -86.11031249999999-25.11Q-83.9503125-26.16 -81.3003125-26.16L-81.3003125-26.16Q-76.6603125-26.16 -74.3203125-23.92Q-71.9803125-21.68 -71.9803125-16.76L-71.9803125-16.76L-71.9803125 0ZM-64.269375-25.69L-60.329375-25.69L-60.329375-9.02Q-60.329375-5.88 -58.899375-4.34Q-57.469375-2.79 -54.419375-2.79L-54.419375-2.79Q-50.389375-2.79 -48.529375-4.99Q-46.659375-7.2 -46.659375-12.19L-46.659375-12.19L-46.659375-25.69L-42.769375-25.69L-42.769375 0L-45.979375000000005 0L-46.549375-3.45L-46.759375-3.45Q-47.949375-1.55 -50.069375-0.54Q-52.199375 0.47 -54.909375 0.47L-54.909375 0.47Q-59.599375 0.47 -61.929375-1.76Q-64.269375-3.98 -64.269375-8.88L-64.269375-8.88L-64.269375-25.69ZM-26.2284375-2.74L-26.2284375-2.74Q-25.1984375-2.74 -24.2384375-2.89Q-23.268437499999997-3.05 -22.708437500000002-3.21L-22.708437500000002-3.21L-22.708437500000002-0.23Q-23.3484375 0.07 -24.5784375 0.27Q-25.8084375 0.47 -26.7884375 0.47L-26.7884375 0.47Q-34.2384375 0.47 -34.2384375-7.38L-34.2384375-7.38L-34.2384375-22.66L-37.9184375-22.66L-37.9184375-24.54L-34.2384375-26.16L-32.5984375-31.64L-30.3484375-31.64L-30.3484375-25.69L-22.8984375-25.69L-22.8984375-22.66L-30.3484375-22.66L-30.3484375-7.55Q-30.3484375-5.23 -29.2484375-3.98Q-28.1484375-2.74 -26.2284375-2.74ZM-5.863125-26.16L-5.863125-26.16Q-4.153124999999999-26.16 -2.793125-25.88L-2.793125-25.88L-3.323125000000001-22.27Q-4.923124999999999-22.62 -6.1431249999999995-22.62L-6.1431249999999995-22.62Q-9.253125-22.62 -11.473125-20.09Q-13.683125-17.55 -13.683125-13.78L-13.683125-13.78L-13.683125 0L-17.573125 0L-17.573125-25.69L-14.363125-25.69L-13.923124999999999-20.93L-13.733125000000001-20.93Q-12.303125-23.44 -10.293125-24.8Q-8.273125-26.16 -5.863125-26.16ZM 5.910625-25.69L 5.910625 0L 2.020625 0L 2.020625-25.69L 5.910625-25.69ZM 1.6906249999999998-32.65L 1.6906249999999998-32.65Q 1.6906249999999998-33.98  2.340625-34.61Q 3.0006250000000003-35.23  3.980625-35.23L 3.980625-35.23Q 4.920625-35.23  5.600625-34.59Q 6.280625000000001-33.96  6.280625000000001-32.65L 6.280625000000001-32.65Q 6.280625000000001-31.34  5.600625-30.69Q 4.920625-30.05  3.980625-30.05L 3.980625-30.05Q 3.0006250000000003-30.05  2.340625-30.69Q 1.6906249999999998-31.34  1.6906249999999998-32.65ZM 22.45125-2.74L 22.45125-2.74Q 23.48125-2.74  24.44125-2.89Q 25.411250000000003-3.05  25.971249999999998-3.21L 25.971249999999998-3.21L 25.971249999999998-0.23Q 25.33125 0.07  24.10125 0.27Q 22.87125 0.47  21.89125 0.47L 21.89125 0.47Q 14.44125 0.47  14.44125-7.38L 14.44125-7.38L 14.44125-22.66L 10.76125-22.66L 10.76125-24.54L 14.44125-26.16L 16.08125-31.64L 18.33125-31.64L 18.33125-25.69L 25.78125-25.69L 25.78125-22.66L 18.33125-22.66L 18.33125-7.55Q 18.33125-5.23  19.43125-3.98Q 20.53125-2.74  22.45125-2.74ZM 34.996562499999996-25.69L 34.996562499999996 0L 31.1065625 0L 31.1065625-25.69L 34.996562499999996-25.69ZM 30.7765625-32.65L 30.7765625-32.65Q 30.7765625-33.98  31.4265625-34.61Q 32.0865625-35.23  33.0665625-35.23L 33.0665625-35.23Q 34.0065625-35.23  34.6865625-34.59Q 35.3665625-33.96  35.3665625-32.65L 35.3665625-32.65Q 35.3665625-31.34  34.6865625-30.69Q 34.0065625-30.05  33.0665625-30.05L 33.0665625-30.05Q 32.0865625-30.05  31.4265625-30.69Q 30.7765625-31.34  30.7765625-32.65ZM 65.4171875-12.87L 65.4171875-12.87Q 65.4171875-6.59  62.247187499999995-3.06Q 59.0871875 0.47  53.5071875 0.47L 53.5071875 0.47Q 50.0671875 0.47  47.387187499999996-1.15Q 44.7171875-2.77  43.2671875-5.79Q 41.8171875-8.81  41.8171875-12.87L 41.8171875-12.87Q 41.8171875-19.15  44.9571875-22.65Q 48.097187500000004-26.16  53.6671875-26.16L 53.6671875-26.16Q 59.0671875-26.16  62.237187500000005-22.57Q 65.4171875-18.98  65.4171875-12.87ZM 45.847187500000004-12.87L 45.847187500000004-12.87Q 45.847187500000004-7.95  47.8171875-5.37Q 49.7771875-2.79  53.597187500000004-2.79L 53.597187500000004-2.79Q 57.4171875-2.79  59.4071875-5.36Q 61.387187499999996-7.92  61.387187499999996-12.87L 61.387187499999996-12.87Q 61.387187499999996-17.77  59.4071875-20.31Q 57.4171875-22.85  53.5571875-22.85L 53.5571875-22.85Q 49.7371875-22.85  47.7871875-20.34Q 45.847187500000004-17.84  45.847187500000004-12.87ZM 93.699375 0L 89.809375 0L 89.809375-16.62Q 89.809375-19.76  88.379375-21.3Q 86.949375-22.85  83.909375-22.85L 83.909375-22.85Q 79.879375-22.85  77.999375-20.67Q 76.129375-18.49  76.129375-13.48L 76.129375-13.48L 76.129375 0L 72.239375 0L 72.239375-25.69L 75.399375-25.69L 76.029375-22.17L 76.219375-22.17Q 77.409375-24.07  79.56937500000001-25.11Q 81.729375-26.16  84.379375-26.16L 84.379375-26.16Q 89.019375-26.16  91.359375-23.92Q 93.699375-21.68  93.699375-16.76L 93.699375-16.76L 93.699375 0Z"></path>
</svg>